<svg width="20" height="20" xmlns="http://www.w3.org/2000/svg">
    <g fill="none" fill-rule="evenodd">
        <path d="M0 0h20v20H0z"/>
        <path d="M12.75 1.667a2.5 2.5 0 1 1-1.72 4.313L7.51 8.932c.153.324.239.686.239 1.068s-.086.745-.24 1.069l3.52 2.95a2.5 2.5 0 1 1-.651 1.021L6.751 12a2.5 2.5 0 1 1 0-3.997l3.626-3.043a2.5 2.5 0 0 1 2.372-3.292zm0 12.866a1.3 1.3 0 1 0 0 2.6 1.3 1.3 0 0 0 0-2.6zM5.25 8.7a1.3 1.3 0 1 0 0 2.6 1.3 1.3 0 0 0 0-2.6zm7.5-5.833a1.3 1.3 0 1 0 0 2.6 1.3 1.3 0 0 0 0-2.6z" fill="#000" fill-rule="nonzero"/>
    </g>
</svg>
