<svg xmlns="http://www.w3.org/2000/svg" width="40" height="40" viewBox="0 0 40 40">
    <defs>
        <filter id="424a9iyu3a">
            <feColorMatrix in="SourceGraphic" values="0 0 0 0 0.000000 0 0 0 0 0.000000 0 0 0 0 0.000000 0 0 0 1.000000 0"/>
        </filter>
    </defs>
    <g fill="none" fill-rule="evenodd">
        <g>
            <g transform="translate(-24 -218) translate(24 218)">
                <circle cx="20" cy="20" r="19.5" stroke="#EEE"/>
                <g filter="url(#424a9iyu3a)" transform="translate(10 10)">
                    <g>
                        <path d="M0 0H20V20H0z"/>
                    </g>
                    <path stroke="#000" stroke-linejoin="round" stroke-width="1.2" d="M14.8 3C16.567 3 18 4.433 18 6.2v5.6c0 1.767-1.433 3.2-3.2 3.2h-2.425L10.5 18l-1.875-3H5.2C3.433 15 2 13.567 2 11.8V6.2C2 4.433 3.433 3 5.2 3h9.6z"/>
                    <g fill="#000" fill-rule="nonzero" transform="translate(6.3 8.4)">
                        <circle cx="7.05" cy=".65" r="1"/>
                        <circle cx="3.85" cy=".65" r="1"/>
                        <circle cx=".65" cy=".65" r="1"/>
                    </g>
                </g>
            </g>
        </g>
    </g>
</svg>
