<svg xmlns="http://www.w3.org/2000/svg" xmlns:xlink="http://www.w3.org/1999/xlink" width="120" height="120" viewBox="0 0 120 120">
    <defs>
        <circle id="2vtbf9n06a" cx="60" cy="60" r="56"/>
    </defs>
    <g fill="none" fill-rule="evenodd">
        <g>
            <g transform="translate(-46 -376) translate(46 376)">
                <circle cx="60" cy="60" r="58" fill="#F6F6F6" stroke="#EEE" stroke-width="4"/>
                <mask id="u57tlct7ub" fill="#fff">
                    <use xlink:href="#2vtbf9n06a"/>
                </mask>
                <use fill="#F6F6F6" xlink:href="#2vtbf9n06a"/>
                <g mask="url(#u57tlct7ub)">
                    <g>
                        <path fill="#BBB" d="M22.056 25.898c.66-5.802 4.978-11.884 11.79-12.59C42.25 12.435 47 19.512 47 19.512s4.75-7.077 13.153-6.204c6.812.706 11.13 6.788 11.79 12.59.835 7.344-2.132 12.807-6.1 17.265C62.34 47.1 57.072 52.046 47 54.93c-10.07-2.885-15.34-7.83-18.844-11.768-3.968-4.458-6.934-9.92-6.1-17.265m70.333 45.46c-5.17-18.325-14.085-29.39-14.085-29.39s3.214-17.204-5.383-29.02C67.128 4.986 59.39.084 47.001.001 34.61.084 26.87 4.986 21.077 12.948c-8.596 11.816-5.383 29.02-5.383 29.02S6.781 53.032 1.612 71.357c-2.487 8.814-1.808 18.338.09 21.316 3.144 4.932 6.562-4.038 7.966-9.96-.022 1.647 0 3.349.083 5.09.544 11.499 3.726 19.623 8.724 24.359.445.422.906.803 1.38 1.153 2.918 2.157 6.36 3.008 10.19 3.23 3.635.21 5.758-.272 7.909-.831 2.33-.606 4.69-1.3 9.04-1.3h.011c4.347 0 6.708.693 9.036 1.298 2.151.559 4.275 1.043 7.913.833 3.83-.222 7.27-1.073 10.186-3.228.475-.35.939-.732 1.385-1.155 4.997-4.736 8.18-12.86 8.724-24.359.082-1.741.105-3.443.083-5.09 1.403 5.922 4.821 14.892 7.966 9.96 1.898-2.978 2.577-12.502.09-21.316" transform="translate(13 24)"/>
                        <path fill="#FFF" d="M32.973 28.948c2.017 0 3.651.75 3.651 1.673 0 .925-1.634 1.674-3.651 1.674-2.016 0-3.652-.75-3.652-1.674 0-.923 1.636-1.673 3.652-1.673M38 21.545c1.21.52 2.057 2.8.928 4.784-1.43 2.509-5.005.719-4.84-1.843.121-1.863 2.01-3.76 3.912-2.941m8.996 5.3c2.91 0 7.46 3.466 6.845 5.526-.717 2.403-4.124 4.494-6.845 4.495-2.72 0-6.127-2.092-6.845-4.495-.614-2.06 3.935-5.526 6.845-5.526m8.997-5.3c1.902-.819 3.791 1.078 3.911 2.94.166 2.563-3.41 4.353-4.838 1.844-1.131-1.983-.284-4.263.927-4.784m5.032 7.403c2.017 0 3.652.75 3.652 1.673 0 .925-1.635 1.674-3.652 1.674-2.017 0-3.651-.75-3.651-1.674 0-.923 1.634-1.673 3.651-1.673M47 54.932C57.07 52.047 62.34 47.1 65.844 43.163c3.967-4.457 6.934-9.921 6.099-17.266-.66-5.801-4.978-11.883-11.79-12.59C51.75 12.435 47 19.512 47 19.512s-4.75-7.077-13.155-6.205c-6.81.707-11.129 6.789-11.788 12.59-.836 7.345 2.131 12.809 6.1 17.266C31.66 47.1 36.927 52.047 47 54.932" transform="translate(13 24)"/>
                        <path fill="#CBCBCB" d="M46.997 36.866c2.72 0 6.128-2.092 6.845-4.496.615-2.06-3.935-5.524-6.845-5.524-2.91 0-7.46 3.464-6.844 5.524.717 2.404 4.124 4.496 6.844 4.496" transform="translate(13 24)"/>
                        <path fill="#E0E0E0" d="M57.375 30.622c0 .924 1.635 1.673 3.652 1.673 2.016 0 3.652-.75 3.652-1.673 0-.925-1.636-1.674-3.652-1.674-2.017 0-3.652.75-3.652 1.674M32.973 32.295c2.017 0 3.651-.75 3.651-1.673 0-.924-1.634-1.674-3.651-1.674-2.016 0-3.652.75-3.652 1.674 0 .923 1.636 1.673 3.652 1.673" transform="translate(13 24)"/>
                        <path fill="#666" d="M38.928 26.329c1.13-1.984.283-4.264-.927-4.784-1.902-.818-3.791 1.077-3.911 2.94-.166 2.563 3.409 4.352 4.838 1.844M59.905 24.485c-.12-1.862-2.01-3.759-3.911-2.94-1.21.52-2.057 2.8-.928 4.784 1.43 2.509 5.005.72 4.84-1.844" transform="translate(13 24)"/>
                        <path stroke="#888" stroke-linecap="round" stroke-linejoin="round" stroke-width="1.568" d="M46.997 36.866c2.72 0 6.128-2.092 6.845-4.496.615-2.06-3.935-5.524-6.845-5.524-2.91 0-7.46 3.464-6.844 5.524.717 2.404 4.124 4.496 6.844 4.496z" transform="translate(13 24)"/>
                        <path stroke="#888" stroke-linecap="round" stroke-linejoin="round" stroke-width="1.568" d="M49.988 31.248c-.54.466-1.75 1.058-2.988 1.047-1.238.01-2.447-.58-2.988-1.047" transform="translate(13 24)"/>
                        <path stroke="#888" stroke-linecap="round" stroke-linejoin="round" stroke-width="1.568" d="M84.332 82.714c-.139-10.832-2.211-19.172-2.211-19.172s2.072 8.34 2.211 19.172c1.403 5.922 4.82 14.892 7.966 9.96 1.898-2.978 2.577-12.503.09-21.317-5.17-18.324-14.083-29.39-14.083-29.39s3.213-17.204-5.383-29.019C67.128 4.987 59.389.083 47 0 34.61.083 26.872 4.987 21.078 12.948c-8.597 11.815-5.383 29.02-5.383 29.02S6.78 53.033 1.611 71.358c-2.486 8.813-1.807 18.338.091 21.315 3.144 4.933 6.562-4.037 7.966-9.959.138-10.832 2.21-19.172 2.21-19.172s-2.072 8.34-2.21 19.172" transform="translate(13 24)"/>
                        <path stroke="#1D1D1B" stroke-linecap="round" stroke-linejoin="round" stroke-width="1.568" d="M9.667 82.714c-.021 1.647.001 3.35.083 5.09.544 11.498 3.727 19.623 8.725 24.358 3.19 3.023 7.117 4.126 11.57 4.383 7.575.439 8.586-2.13 16.95-2.13h.01c8.364 0 9.374 2.569 16.95 2.13 4.452-.257 8.38-1.36 11.57-4.383 4.997-4.735 8.18-12.86 8.724-24.358.082-1.74.104-3.443.083-5.09" transform="translate(13 24)"/>
                    </g>
                </g>
            </g>
        </g>
    </g>
</svg>
