<svg xmlns="http://www.w3.org/2000/svg" width="40" height="40" viewBox="0 0 40 40">
    <g fill="none" fill-rule="evenodd">
        <g>
            <g transform="translate(-24 -398) translate(24 398)">
                <circle cx="20" cy="20" r="19.5" stroke="#EEE"/>
                <g>
                    <path d="M0 0H20V20H0z" transform="translate(10 10)"/>
                    <path stroke="#000" stroke-linejoin="round" stroke-width="1.2" d="M13.727 3C11.777 3 10.638 4.343 10 4.99 9.362 4.344 8.206 3 6.312 3 3.59 3 2 5.222 2 7.886c0 1.548.637 3.149 1.841 4.628 1.316 1.616 3.297 3.103 5.887 4.42.086.044.179.066.272.066.093 0 .186-.022.272-.066 2.59-1.317 4.57-2.804 5.887-4.42C17.363 11.034 18 9.434 18 7.886 18 5.223 16.42 3 13.727 3z" transform="translate(10 10)"/>
                </g>
            </g>
        </g>
    </g>
</svg>
