<svg xmlns="http://www.w3.org/2000/svg" xmlns:xlink="http://www.w3.org/1999/xlink" width="120" height="120" viewBox="0 0 120 120">
    <defs>
        <path id="awz5kgnx8a" d="M0 0H120V120H0z"/>
    </defs>
    <g fill="none" fill-rule="evenodd">
        <g>
            <g transform="translate(-46 -651) translate(46 651)">
                <mask id="pildbg1qxb" fill="#fff">
                    <use xlink:href="#awz5kgnx8a"/>
                </mask>
                <use fill="#EDF0F8" xlink:href="#awz5kgnx8a"/>
                <g mask="url(#pildbg1qxb)">
                    <g>
                        <path fill="#000" d="M77.575 64.055c-1.469-9.064-11.999-16.777-9.487-40.774 0 0-14.572-.264-22.934 0-8.36-.264-22.933 0-22.933 0 2.511 23.997-8.521 31.642-9.487 40.774-.967 9.131 9.809 25.125 32.42 25.125 22.611 0 34.325-13.379 32.42-25.125" transform="translate(15.313 19.158)"/>
                        <path fill="#000" fill-rule="nonzero" d="M36.209 22.295h-1.53c-2.306.004-4.683.02-7.042.044l-3.066.037-2.366.037c-.506.009-.897.452-.844.96 1.154 11.021-.284 18.72-3.992 26.933l-.344.748-.323.682-.9 1.836-1.538 3.12c-.154.322-.3.633-.437.932l-.262.586c-.545 1.24-.937 2.302-1.226 3.351-.226.82-.38 1.614-.464 2.402-.545 5.148 2.325 11.656 7.633 16.71 6.202 5.903 15.03 9.376 25.646 9.376 10.854 0 19.876-3.054 25.97-8.37 5.652-4.931 8.321-11.486 7.304-17.764-.116-.715-.287-1.437-.514-2.182-.307-1.008-.701-2.027-1.239-3.222l-.258-.564c-.09-.193-.182-.39-.28-.593l-.279-.575-1.948-3.938-.313-.643-.094-.198c-4.155-8.752-5.797-16.773-4.556-28.628.05-.48-.297-.903-.765-.954l-.096-.006-2.348-.036-1.654-.021c-2.818-.034-5.687-.056-8.453-.06H54.1l-1.84.006-1.535.01-1.332.014-1.263.018-1.19.022-.75.018-1.064.03-1.206-.034-1.657-.034-1.44-.021-1.932-.018-2.07-.01h-.613zm-1.529 1.738h1.525l1.49.004 1.274.007 1.22.01 1.541.02 1.09.018 1.36.03.638.018.31.01.711-.021 1.125-.027 1.192-.022.832-.012 1.304-.016 1.978-.014 1.833-.005h1.527c2.298.003 4.67.018 7.024.043l1.836.021 2.645.037-.006.064c-1.065 11.48.598 19.535 4.632 28.163l.23.489.555 1.138 1.889 3.817.142.296.268.568c.643 1.383 1.088 2.495 1.416 3.572.205.673.358 1.319.461 1.953.917 5.655-1.513 11.62-6.73 16.172-5.764 5.029-14.382 7.946-24.838 7.946-10.177 0-18.58-3.306-24.457-8.901-4.943-4.705-7.587-10.7-7.103-15.264.073-.69.21-1.392.41-2.123.307-1.112.748-2.264 1.4-3.69l.273-.585.294-.61 2.154-4.372.285-.59.18-.383c3.909-8.385 5.567-16.192 4.635-27.083l-.052-.577 3.072-.042c2.813-.034 5.676-.055 8.435-.06z" transform="translate(15.313 19.158)"/>
                        <path fill="#FFF" d="M61.629 72.14c-4.308-2.344-5.417-4.635-5.417-7.645V36.483H34.238v28.012c0 3.01-1.11 5.3-5.417 7.644-4.35 2.367-12.69 6.618-12.69 6.618l3.985 18.53h50.219l3.984-18.53s-8.34-4.25-12.69-6.618" transform="translate(15.313 19.158)"/>
                        <path fill="#000" fill-rule="nonzero" d="M56.212 35.614H34.238c-.477 0-.864.39-.864.869v28.012c0 2.92-1.186 4.78-4.76 6.768l-.42.23-1.191.64-1.968 1.042-1.67.875-2.201 1.144-2.276 1.175-3.148 1.614c-.35.178-.536.572-.453.958l3.984 18.53c.086.4.438.685.845.685h50.219c.406 0 .758-.285.844-.685l3.984-18.53c.083-.386-.103-.78-.453-.958l-2.383-1.22-3.04-1.569-2.868-1.492-1.306-.686-1.666-.883-1.191-.64-.216-.118c-3.733-2.031-4.964-3.904-4.964-6.88V36.483c0-.48-.387-.869-.864-.869zm-21.11 1.737h20.245v27.144c0 3.581 1.547 6 5.645 8.284l.443.242 1.461.785 1.414.748 1.98 1.038 1.458.76 2.261 1.17 3.324 1.706-3.696 17.19H20.813l-3.697-17.19 2.56-1.313 2.28-1.177 1.482-.769 1.391-.726 1.897-.998 1.344-.715.945-.509.443-.242c4.098-2.285 5.644-4.703 5.644-8.284V37.351z" transform="translate(15.313 19.158)"/>
                        <path fill="#CFD1D2" d="M55.12 57.116c0 4.145-4.473 8.9-9.989 8.9-5.516 0-9.988-4.755-9.988-8.9l.149-12.526 20.015.039-.188 12.487z" transform="translate(15.313 19.158)"/>
                        <path fill="#000" d="M67.972 13.032C63.782 4.805 55.505-1.398 45.225.273c-10.28-1.67-18.557 4.532-22.747 12.759-5.334 10.47-2.877 35.612 22.747 35.612s28.08-25.142 22.747-35.612" transform="translate(15.313 19.158)"/>
                        <path fill="#000" fill-rule="nonzero" d="M45.385-.63l-.16.025.138.02C35.423-2.2 26.48 3.266 21.708 12.637c-3.018 5.927-3.305 15.13-.263 22.463 3.735 9.003 11.784 14.413 23.78 14.413 11.995 0 20.045-5.41 23.78-14.413 3.042-7.333 2.755-16.536-.263-22.463C64.016 3.36 55.206-2.09 45.385-.63zm21.818 14.058c2.785 5.467 3.055 14.137.207 21.002-3.467 8.357-10.888 13.345-22.185 13.345-11.297 0-18.718-4.988-22.185-13.345-2.848-6.865-2.578-15.535.207-21.002C27.7 4.684 35.945-.355 45.087 1.13c.091.015.184.015.276 0 9.141-1.486 17.387 3.554 21.84 12.297z" transform="translate(15.313 19.158)"/>
                        <path fill="#FFF" d="M66.33 31.316c-.13-.023-.261-.033-.392-.044C64.78 18.893 55.95 9.265 45.225 9.265c-10.726 0-19.557 9.628-20.713 22.007-.131.011-.262.021-.393.044-3.061.534-5.039 3.865-4.417 7.44.613 3.527 3.528 5.97 6.545 5.523 3.28 8.566 12.45 14.21 18.978 14.21 6.528 0 15.698-5.644 18.978-14.21 3.017.446 5.931-1.996 6.545-5.523.621-3.575-1.356-6.906-4.417-7.44" transform="translate(15.313 19.158)"/>
                        <path fill="#000" fill-rule="nonzero" d="M44.892 8.4c-10.753.191-19.68 9.632-21.159 22.02l-.01.09-.077.016c-3.373.79-5.473 4.482-4.795 8.38l.034.182c.697 3.56 3.53 6.133 6.681 6.112l.119-.002.058.138c3.433 7.969 12.232 14.02 19.482 14.02l.224-.001c7.206-.123 15.86-6.132 19.258-14.02l.058-.137.119.002c3.203.022 6.08-2.64 6.715-6.294l.03-.185c.58-3.83-1.506-7.418-4.826-8.194l-.077-.018-.01-.088C65.223 17.904 56.126 8.397 45.225 8.397l-.333.003zm.333 1.734c10.167 0 18.726 9.165 19.852 21.219.037.39.327.704.704.773l.119.014.197.02.086.012c2.56.446 4.257 3.306 3.714 6.435-.537 3.081-3.038 5.187-5.568 4.812-.4-.059-.787.169-.932.548-2.937 7.67-11.42 13.653-18.172 13.653-6.752 0-15.236-5.984-18.172-13.653-.145-.38-.532-.607-.932-.548-2.53.375-5.032-1.73-5.567-4.812-.545-3.129 1.153-5.989 3.713-6.435l.086-.013.233-.022c.416-.036.747-.366.786-.784 1.127-12.055 9.685-21.219 19.853-21.219z" transform="translate(15.313 19.158)"/>
                        <path fill="#000" d="M23.62 29.691s.736 2.503 1.795 3.654c1.528 1.66 4.256.646 4.413-1.631.493-7.15.808-20.34 11.91-21.853 1.651-.225 3.199.143 3.199.143V6.486C32.45 5.147 24.559 15.532 23.62 29.691" transform="translate(15.313 19.158)"/>
                        <path fill="#000" fill-rule="nonzero" d="M22.758 29.633c-.006.103.005.206.034.304l.08.254.047.144c.487 1.452 1.1 2.77 1.862 3.6 2.046 2.224 5.7.87 5.909-2.161l.177-2.598.103-1.372.07-.827.07-.732.059-.537.063-.51.068-.495.096-.623.087-.519.072-.41c1.31-7.323 4.367-11.62 10.3-12.429.772-.105 1.59-.077 2.36.034l.198.03.161.03.164.033c.543.129 1.063-.285 1.063-.845V6.486c0-.444-.333-.816-.772-.864-12.522-1.342-21.256 8.7-22.27 24.011zm21.315-22.35v1.705l-.23-.024c-.729-.067-1.481-.064-2.22.037-6.441.878-9.928 5.308-11.502 12.497l-.112.53-.105.541-.149.838-.087.53-.097.642-.069.512-.063.529-.045.415-.058.593-.086 1-.12 1.62-.165 2.406c-.105 1.527-1.908 2.195-2.915 1.101-.545-.592-1.082-1.748-1.492-2.972l-.064-.194-.011.16c.928-13.992 8.48-23.066 19.345-22.481l.245.015z" transform="translate(15.313 19.158)"/>
                        <path fill="#000" d="M65.677 29.691s-.736 2.503-1.795 3.654c-1.528 1.66-4.255.646-4.412-1.631-.493-7.15-.809-20.34-11.91-21.853-1.652-.225-3.2.143-3.2.143V6.486c12.486-1.339 20.378 9.046 21.317 23.205" transform="translate(15.313 19.158)"/>
                        <path fill="#000" fill-rule="nonzero" d="M44.27 5.622c-.44.048-.773.42-.773.864v3.518c0 .535.474.936.989.86l.238-.049.16-.028.2-.031c.769-.111 1.587-.139 2.36-.034 5.858.799 8.912 4.999 10.249 12.155l.098.55.11.653.06.376.088.618.064.504.06.528.057.567.07.786.07.897.125 1.74.113 1.678c.21 3.03 3.862 4.385 5.908 2.16.719-.78 1.303-1.993 1.774-3.341l.135-.397.08-.259c.03-.098.041-.201.034-.304-1.015-15.31-9.748-25.353-22.27-24.01zm20.514 23.696l.02.271-.065.198c-.41 1.22-.946 2.376-1.491 2.968-1.007 1.094-2.81.426-2.916-1.101l-.148-2.177-.093-1.287-.072-.914-.072-.802-.043-.44-.06-.55-.049-.394-.033-.257-.073-.51-.043-.282-.095-.58-.107-.618c-1.428-7.981-4.936-12.91-11.768-13.842l-.318-.038c-.637-.062-1.278-.056-1.903 0l-.23.024V7.283l.245-.015c10.752-.579 18.26 8.303 19.314 22.05z" transform="translate(15.313 19.158)"/>
                        <path fill="#000" d="M53.695 10.559C48.498 6.43 38.26 6.27 32.166 11.629c-3.55 3.122-6.56 7.621-6.983 13.694-1.81 26.02-19.529 34.298-11.654 48.8l13.25-9.166s-3.776-6.477-.521-15.743c3.255-9.267 4.817-16.219 5.67-22.912 1.234-9.66 6.694-16.435 16.488-12.254.642.339 1.074.546 1.074.546s6.063-1.75 8.661 5.859c0 0 .741-5.766-4.456-9.894" transform="translate(15.313 19.158)"/>
                        <path fill="#000" fill-rule="nonzero" d="M31.597 10.976c-4.148 3.647-6.77 8.34-7.25 13.949l-.025.33c-.576 8.283-2.635 14.898-6.425 22.636l-.494.993-2.847 5.56-.66 1.305-.245.5c-1.37 2.837-2.21 5.064-2.652 7.241-.77 3.785-.259 7.311 1.771 11.05.246.453.827.591 1.249.3l13.25-9.167c.374-.258.485-.762.256-1.155l-.067-.124-.063-.125-.077-.158-.042-.092c-.202-.44-.406-.956-.597-1.546-1.202-3.714-1.312-8.114.394-12.97 3.007-8.56 4.703-15.474 5.647-22.582l.107-.816c1.373-9.989 6.833-14.707 15-11.362l.222.092.38.198.535.27.155.075c.163.078.346.102.522.071l.2-.047.059-.012.144-.026c1.228-.202 2.617-.05 3.92.717 1.418.835 2.576 2.33 3.37 4.654.287.842 1.48.747 1.66-.09l.02-.135.017-.2c.012-.163.019-.348.02-.552v-.153c-.026-3.442-1.368-6.985-4.82-9.728-5.739-4.558-16.266-4.306-22.436.928l-.198.17zm21.763.427c1.65 1.366 2.714 2.943 3.32 4.59l.057.164-.088-.098c-.55-.6-1.156-1.091-1.811-1.477-1.698-1-3.481-1.195-5.073-.932l-.167.03-.383-.194-.398-.207-.064-.03C39.23 9.183 32.65 14.765 31.117 25.854l-.045.338c-.85 6.663-2.36 13.115-5.013 20.946l-.406 1.186-.21.6c-1.84 5.24-1.721 10.029-.407 14.087l.068.208c.183.545.366 1.01.534 1.387l.03.066-11.82 8.176-.107-.227c-1.37-2.965-1.663-5.763-1.049-8.783.392-1.926 1.137-3.938 2.352-6.494l.264-.547.274-.549 1.306-2.566 2.103-4.104.209-.416c4.039-8.14 6.24-15.07 6.845-23.779l.025-.317c.438-5.124 2.836-9.416 6.665-12.783 5.516-4.85 15.28-5.13 20.424-1.043l.2.163z" transform="translate(15.313 19.158)"/>
                        <path fill="#FFF" d="M89.836 102.468c-3.107-10.732-8.763-20.193-15.725-24.22-6.163-3.565-13.32-7.226-13.32-7.226L44.991 93.638v8.83" transform="translate(15.313 19.158)"/>
                        <path fill="#000" fill-rule="nonzero" d="M60.083 70.523c.247-.354.716-.471 1.1-.275l1.24.64 1.226.641.992.523c2.592 1.37 5.185 2.774 7.606 4.135l.922.521.893.51.48.277c6.91 3.997 12.814 13.296 16.124 24.73.133.46-.13.943-.588 1.077-.459.134-.938-.13-1.072-.591l-.227-.767c-.924-3.054-2.037-5.938-3.304-8.585l-.32-.656C82.035 86.403 78.038 81.52 73.68 79l-.915-.526-.9-.512-.462-.26c-2.14-1.202-4.415-2.44-6.707-3.658l-1.524-.806-1.25-.654-.857-.446-15.209 21.773v8.556c0 .451-.342.823-.78.865l-.084.004c-.449 0-.818-.345-.86-.785l-.004-.084v-8.83c0-.149.038-.294.11-.424l.047-.075 15.798-22.616z" transform="translate(15.313 19.158)"/>
                        <path fill="#FFF" d="M44.936 102.468v-8.83L29.158 71.022s-7.149 3.661-13.304 7.226C8.901 82.275 3.252 91.736.148 102.468" transform="translate(15.313 19.158)"/>
                        <path fill="#000" fill-rule="nonzero" d="M29.813 70.455l.053.068L45.644 93.14c.085.121.137.263.152.41l.005.088v8.83c0 .48-.387.869-.865.869-.449 0-.818-.345-.86-.785l-.004-.084v-8.556L28.882 72.14l-1.779.93-.986.52c-2.291 1.211-4.581 2.45-6.75 3.66l-1.268.713-.9.512-.677.389-.236.136C9.834 82.737 4.172 91.667.978 102.71c-.134.461-.613.726-1.071.592-.459-.134-.722-.616-.589-1.077 3.307-11.434 9.203-20.733 16.105-24.73l.921-.53.907-.516.464-.262c2.15-1.21 4.434-2.454 6.734-3.677l1.2-.636 1.878-.985 1.239-.641c.358-.184.79-.094 1.047.207z" transform="translate(15.313 19.158)"/>
                        <path fill="#FFF" d="M63.09 69.743l7.772 6.153-11.049 17.338-9.691-7.592L60.616 70.45c.474-.909 1.601-1.231 2.474-.707" transform="translate(15.313 19.158)"/>
                        <path fill="#000" fill-rule="nonzero" d="M59.913 69.933l-.03.053-10.47 15.16c-.263.38-.184.898.178 1.181l9.69 7.592c.402.314.985.214 1.26-.217L71.59 76.364c.24-.376.156-.874-.193-1.15l-7.772-6.154-.092-.063c-1.262-.758-2.882-.327-3.62.936zm2.7.538l7.098 5.62-10.115 15.872-8.298-6.5 10.027-14.517.056-.092c.23-.443.757-.614 1.19-.406l.042.023z" transform="translate(15.313 19.158)"/>
                        <path fill="#FFF" d="M26.784 69.743l-7.772 6.153 11.05 17.338 9.69-7.592L29.259 70.45c-.476-.909-1.603-1.231-2.475-.707" transform="translate(15.313 19.158)"/>
                        <path fill="#000" fill-rule="nonzero" d="M26.34 68.997l-.091.063-7.772 6.154c-.35.276-.433.774-.193 1.15l11.05 17.338c.274.43.857.531 1.258.217l9.691-7.592.065-.055c.305-.292.36-.77.114-1.125L29.989 69.984l.035.062c-.706-1.35-2.384-1.83-3.684-1.049zm2.209 1.949l10.026 14.516-8.297 6.5L20.162 76.09l7.1-5.62-.035.018c.421-.253.958-.12 1.223.291l.099.167z" transform="translate(15.313 19.158)"/>
                        <path fill="#000" d="M33.87 55.93s-.94 3.09 4.259 14.234c6.09 13.057-.538 27.755-19.052 28.282 8.545-5.788-4.661-16.758-6.684-27.588-2.335-12.507 9.61-18.218 21.478-14.929" transform="translate(15.313 19.158)"/>
                        <path fill="#000" fill-rule="nonzero" d="M32.934 56.58l-.001.04c-.003.117-.003.238 0 .363l.01.257.017.27.012.138.03.288.038.3.023.155.05.32.06.332.07.346.037.177.083.365.091.379c.033.128.066.26.102.392l.11.406.122.419.064.215.136.44.071.225.152.461.161.475.173.49.183.504.194.519.206.533.107.272.338.84.24.577.25.594.264.608.276.624.288.64.3.655.155.334c2.92 6.257 2.808 12.894-.257 18.024l-.132.217c-2.94 4.751-8.21 7.84-15.262 8.622l-.225.023.02-.023c1.343-1.744 1.613-3.876.959-6.406l-.083-.314-.084-.303-.087-.294-.06-.193-.095-.288-.1-.288-.148-.39-.123-.301-.133-.312-.147-.326-.161-.343-.305-.618-.28-.545-.154-.292-.519-.965-.506-.92-.967-1.73-1.058-1.88-.486-.88-.305-.56-.29-.541-.274-.523-.26-.505-.246-.49-.118-.24-.225-.468-.213-.455-.2-.444-.096-.218-.182-.43c-.03-.07-.058-.14-.086-.21l-.166-.418c-.08-.206-.155-.41-.227-.613l-.14-.403c-.066-.2-.13-.4-.19-.598l-.115-.397c-.074-.263-.143-.527-.206-.792-.065-.272-.122-.54-.172-.806C11.245 60 20.79 53.75 32.552 56.49l.382.091zm1.766-.402c.14-.463-.13-.956-.6-1.086-13.343-3.698-24.889 3.432-22.556 15.926.055.294.118.59.19.89.033.142.068.284.105.425l.114.424c.217.775.478 1.547.794 2.352l.179.442c.061.148.125.298.19.45l.202.459c.07.155.141.311.215.47l.227.48.241.495.255.509.27.524.283.541.3.56.155.286.49.892.347.622 1.455 2.59.623 1.121.446.818.387.725.27.522.182.362.219.448.192.415.13.294.154.373.138.358.094.263.061.181c.12.361.222.723.324 1.117.72 2.788.12 4.74-2.182 6.3-.718.485-.358 1.613.507 1.588 9.06-.258 15.89-3.872 19.47-9.863 3.323-5.562 3.49-12.677.48-19.353l-.492-1.067-.337-.745-.32-.725c-.155-.358-.305-.708-.449-1.052l-.28-.677-.263-.658-.248-.64-.233-.62-.111-.304-.21-.593c-.44-1.265-.776-2.4-1.015-3.412l-.094-.41-.08-.385c-.025-.124-.048-.244-.069-.36l-.057-.338-.045-.314-.035-.292-.014-.137-.02-.257-.012-.235c-.006-.224 0-.416.017-.576l.016-.123z" transform="translate(15.313 19.158)"/>
                        <path fill="#FFF" d="M41.391 41.038H48.5s.673 6.796-3.56 6.796c-4.234 0-3.548-6.796-3.548-6.796" transform="translate(15.313 19.158)"/>
                        <path fill="#000" fill-rule="nonzero" d="M48.5 40.315H41.39c-.37 0-.68.28-.716.65l-.013.157-.01.155c-.06 1.035-.014 2.195.22 3.31.51 2.419 1.804 3.971 4.066 3.971 2.262 0 3.559-1.551 4.073-3.97.216-1.017.275-2.07.24-3.032l-.018-.366-.013-.182-.004-.041c-.037-.37-.346-.652-.717-.652zm-.685 1.447l.004.154c.009.769-.052 1.592-.217 2.37-.388 1.827-1.221 2.825-2.664 2.825-1.441 0-2.271-.997-2.656-2.824l-.056-.293c-.12-.686-.165-1.398-.156-2.07l.004-.162h5.741zM48.242 28.527c1.575-.888 3.239-.924 4.777-.46.27.082.49.165.651.236l.141.066c.355.18.498.616.319.973-.167.333-.556.48-.895.352l-.159-.072-.057-.024-.14-.054-.175-.06-.099-.03c-1.196-.361-2.471-.334-3.658.336-.346.195-.785.071-.98-.277-.195-.349-.071-.79.275-.986zM36.872 28.067c1.538-.464 3.202-.428 4.777.46.347.196.47.637.276.986-.195.348-.634.472-.98.277-1.188-.67-2.462-.697-3.659-.336l-.19.06-.083.03-.14.054-.106.045-.038.019c-.355.18-.788.037-.968-.32-.179-.357-.036-.793.32-.973l.14-.066c.161-.071.38-.154.65-.236z" transform="translate(15.313 19.158)"/>
                        <path fill="#FBC8C6" d="M36.247 39.987c0 .747-1.28 1.351-2.855 1.351-1.578 0-2.857-.604-2.857-1.35 0-.747 1.279-1.352 2.857-1.352 1.576 0 2.855.605 2.855 1.351M59.954 39.987c0 .747-1.277 1.351-2.855 1.351s-2.857-.604-2.857-1.35c0-.747 1.28-1.352 2.857-1.352 1.578 0 2.855.605 2.855 1.351" transform="translate(15.313 19.158)"/>
                        <path fill="#000" d="M50.27 37.439h-.39c-.915 0-1.656-.74-1.656-1.65V33.47c0-1.018.83-1.843 1.85-1.843 1.023 0 1.851.825 1.851 1.843v2.317c0 .912-.74 1.65-1.655 1.65M40.012 37.439h-.39c-.915 0-1.656-.74-1.656-1.65V33.47c0-1.018.83-1.843 1.85-1.843 1.023 0 1.851.825 1.851 1.843v2.317c0 .912-.74 1.65-1.655 1.65" transform="translate(15.313 19.158)"/>
                    </g>
                </g>
            </g>
        </g>
    </g>
</svg>
