<svg xmlns="http://www.w3.org/2000/svg" xmlns:xlink="http://www.w3.org/1999/xlink" width="56" height="57" viewBox="0 0 56 57">
    <defs>
        <path id="l5mokmr4dc" d="M25 44.194c9.722 0 17.824-6.936 19.626-16.13C47.542 24.367 49 22.077 49 21.194c0-2.84 1.54-6.553-1-9-.972-.936-3.286-.912-6.944.073C37.41 7.368 31.576 4.194 25 4.194c-1.368 0-4.71.739-6 1-.946.192-1-3-4-2s-.537 3.986-1.066 4.338C8.55 11.116 5 17.241 5 24.194c0 11.046 8.954 20 20 20z"/>
        <path id="qbsf1co04e" d="M0 0L3.647 0 3.647 3.652 0 3.652z"/>
        <path id="86p4j3r7yg" d="M0 0L8.781 0 8.781 7.909 0 7.909z"/>
        <filter id="rsrte4gpwa" width="170%" height="170%" x="-27.5%" y="-25%" filterUnits="objectBoundingBox">
            <feOffset dx="3" dy="4" in="SourceAlpha" result="shadowOffsetOuter1"/>
            <feGaussianBlur in="shadowOffsetOuter1" result="shadowBlurOuter1" stdDeviation="4"/>
            <feColorMatrix in="shadowBlurOuter1" values="0 0 0 0 0 0 0 0 0 0 0 0 0 0 0 0 0 0 0.2 0"/>
        </filter>
        <circle id="6yu8evm47b" cx="25" cy="24.194" r="20"/>
    </defs>
    <g fill="none" fill-rule="evenodd">
        <g>
            <g transform="translate(-291 -104) translate(291 104)">
                <path d="M0 0H56V56H0z"/>
                <g>
                    <use fill="#000" filter="url(#rsrte4gpwa)" xlink:href="#6yu8evm47b"/>
                    <use fill="#D0DAE6" xlink:href="#6yu8evm47b"/>
                </g>
                <mask id="24seryrjsd" fill="#fff">
                    <use xlink:href="#l5mokmr4dc"/>
                </mask>
                <g mask="url(#24seryrjsd)">
                    <g>
                        <path fill="#D41367" d="M15.042 13.012c-.323 2.137-2.316 3.607-4.451 3.283-2.133-.323-3.602-2.319-3.28-4.456.324-2.137 2.317-3.607 4.451-3.283 2.136.324 3.604 2.319 3.28 4.456" transform="rotate(-4 70.239 -44.993)"/>
                        <path fill="#221714" d="M11.172 8.815c-1.764 0-3.296 1.32-3.56 3.069-.296 1.968 1.06 3.813 3.025 4.11.181.028.364.041.546.041 1.764 0 3.294-1.319 3.56-3.069.144-.953-.091-1.906-.663-2.683-.571-.775-1.41-1.282-2.363-1.427-.18-.027-.364-.041-.545-.041m.011 7.829c-.212 0-.426-.016-.637-.05-2.296-.347-3.881-2.5-3.535-4.8.31-2.045 2.099-3.587 4.161-3.587.212 0 .426.016.636.048 1.114.17 2.094.762 2.762 1.668.666.907.942 2.02.772 3.135-.31 2.044-2.098 3.586-4.159 3.586" transform="rotate(-4 70.239 -44.993)"/>
                        <path fill="#4DB1DD" d="M30.76 32.263s.396 4.205-.565 9.001c-.836 4.18-2.455 6.976-4.55 8.432" transform="rotate(-4 70.239 -44.993)"/>
                        <path fill="#D41367" d="M33.37 15.794c-.318 2.102-2.28 3.55-4.38 3.23-2.101-.319-3.546-2.281-3.228-4.385.318-2.104 2.28-3.55 4.38-3.231 2.103.32 3.546 2.282 3.227 4.386" transform="rotate(-4 70.239 -44.993)"/>
                        <path fill="#221714" d="M29.563 11.668c-1.736 0-3.24 1.296-3.501 3.016-.142.938.09 1.874.651 2.636.561.763 1.386 1.262 2.322 1.405.178.026.358.04.535.04 1.735 0 3.24-1.298 3.5-3.017.292-1.934-1.04-3.746-2.972-4.04-.178-.027-.358-.04-.535-.04m.007 7.705c-.208 0-.419-.017-.627-.048-1.095-.167-2.062-.75-2.72-1.644-.657-.893-.927-1.99-.761-3.087.304-2.014 2.068-3.535 4.1-3.535.208 0 .42.017.626.048 2.263.345 3.825 2.466 3.481 4.731-.304 2.015-2.066 3.535-4.099 3.535" transform="rotate(-4 70.239 -44.993)"/>
                        <path fill="#4DB1DD" d="M5.342 37.696s-5.667.085-4.98-5.806c.815-7.004 7.413-12.405 7.413-12.405s-.226-6.476 3.581-10.323c2.05-2.071 5.545-4 10.268-3.282 4.723.716 7.49 3.595 8.836 6.18 2.497 4.806.523 10.408.523 10.408s2.627.632 7.126-3.092c2.654-2.194 2.885-2.202 3.143-1.016.259 1.186-1.371 7.746-10.588 12.089l.096 1.815s.395 4.204-.565 9c-.836 4.18-2.455 6.976-4.549 8.431" transform="rotate(-4 70.239 -44.993)"/>
                        <path fill="#221714" d="M25.646 50c-.096 0-.19-.046-.249-.13-.097-.138-.062-.328.076-.424 2.109-1.466 3.639-4.316 4.425-8.243.94-4.695.563-8.869.56-8.911l-.097-1.827c-.005-.124.063-.239.174-.291 9.431-4.446 10.588-10.977 10.42-11.75-.094-.435-.158-.53-.188-.549-.27-.082-1.696 1.1-2.465 1.737-4.564 3.776-7.278 3.176-7.39 3.15-.085-.02-.155-.073-.197-.15-.04-.075-.047-.163-.02-.245.02-.056 1.9-5.539-.504-10.166-.995-1.911-3.436-5.236-8.612-6.021-5.177-.785-8.492 1.665-10.008 3.196-3.67 3.71-3.495 10.036-3.493 10.098.003.096-.038.187-.112.246-.065.054-6.511 5.408-7.303 12.205-.197 1.69.131 3.02.974 3.957 1.368 1.521 3.674 1.513 3.7 1.511h.004c.166 0 .302.133.304.3.002.167-.132.305-.299.308-.104.006-2.6.018-4.157-1.708-.968-1.071-1.347-2.565-1.13-4.438.772-6.62 6.494-11.73 7.41-12.51-.012-1.025.095-6.783 3.672-10.397 1.595-1.613 5.082-4.195 10.528-3.369 5.441.826 8.012 4.328 9.06 6.342 2.188 4.211 1.055 8.935.657 10.28.811.02 3.123-.24 6.53-3.059 1.911-1.581 2.543-2.016 3.05-1.84.366.126.485.541.583.993.305 1.404-1.576 8.024-10.57 12.34l.083 1.613c.004.03.388 4.291-.57 9.076-.817 4.083-2.433 7.064-4.673 8.621-.053.037-.114.055-.173.055" transform="rotate(-4 70.239 -44.993)"/>
                        <path fill="#FFF" d="M18.537 25.975c3.853-.496 6.06-2.014 7.562-3.26 1.703-1.411 3.095-3.246 3.195-5.982.08-2.16-1.166-4.627-3.627-5.265-3.033-.787-5.167 1.54-5.167 1.54s-1.35-2.857-4.48-3.004c-2.538-.12-4.459 1.866-5.021 3.953-.714 2.642.071 4.808 1.28 6.66 1.066 1.637 2.724 3.741 6.258 5.358" transform="rotate(-4 70.239 -44.993)"/>
                        <path fill="#4DB1DD" d="M14.953 13.745s1.402-.06 1.893.638" transform="rotate(-4 70.239 -44.993)"/>
                        <path fill="#221714" d="M16.847 14.687c-.096 0-.19-.045-.25-.129-.323-.46-1.31-.524-1.631-.51-.169.011-.31-.122-.316-.29-.008-.168.122-.31.29-.317.16-.006 1.584-.044 2.155.767.096.137.062.327-.074.423-.053.038-.115.056-.174.056" transform="rotate(-4 70.239 -44.993)"/>
                        <path fill="#221714" d="M17.177 14.919c.316-1.073-1.142-1.596-1.813-.863-.488.533-.511 1.57.228 1.884.47.2 1.334-.173 1.585-1.021" transform="rotate(-4 70.239 -44.993)"/>
                        <path fill="#4DB1DD" d="M22.242 8.309c.682-.016 1.939-.432 2.468-1.725.436-1.06.17-2.322-1.418-1.52-1.266.639-2.677.69-4.444.688" transform="rotate(-4 70.239 -44.993)"/>
                        <path fill="#221714" d="M22.242 8.612c-.165 0-.3-.13-.304-.297-.003-.168.13-.307.296-.311.547-.012 1.71-.35 2.196-1.535.215-.526.219-1.068.007-1.264-.168-.155-.535-.108-1.009.13-1.33.672-2.805.716-4.58.721-.17 0-.304-.137-.304-.304 0-.168.136-.304.304-.304 1.698-.003 3.096-.045 4.308-.655.925-.468 1.432-.277 1.693-.034.414.382.469 1.144.143 1.94-.605 1.476-2.06 1.897-2.744 1.913h-.006zM25.646 49.945c-.079 0-.155-.038-.204-.107-.08-.113-.05-.268.062-.346 2.121-1.473 3.659-4.336 4.448-8.276.942-4.706.564-8.888.56-8.93-.012-.136.089-.257.225-.27.14-.018.257.087.27.225.004.041.388 4.295-.568 9.072-.814 4.069-2.423 7.038-4.652 8.588-.043.029-.092.044-.141.044" transform="rotate(-4 70.239 -44.993)"/>
                        <path fill="#D41367" d="M20.702 30.042c-.928-.647-2.161-.407-2.86.516-.394-1.09-1.502-1.685-2.58-1.342-1.128.36-1.644 1.489-1.499 2.734.181 1.55 1.531 2.969 3.271 3.94 1.95-.412 3.66-1.365 4.29-2.792.507-1.147.35-2.379-.622-3.056" transform="rotate(-4 70.239 -44.993)"/>
                        <path fill="#221714" d="M15.88 29.423c-.177 0-.352.029-.526.083-.92.292-1.425 1.238-1.29 2.409.155 1.314 1.252 2.642 3.02 3.655 1.986-.444 3.428-1.386 3.963-2.595.476-1.078.273-2.132-.518-2.684-.766-.534-1.856-.327-2.446.45-.067.09-.177.133-.287.118-.11-.017-.202-.091-.24-.197-.272-.752-.93-1.239-1.676-1.239m1.154 6.772c-.052 0-.102-.013-.148-.038-1.997-1.116-3.245-2.637-3.424-4.172-.171-1.473.5-2.674 1.708-3.058 1.058-.335 2.2.14 2.754 1.092.805-.738 2.055-.853 2.95-.226 1.043.725 1.328 2.07.728 3.427-.626 1.413-2.267 2.495-4.505 2.969-.021.003-.042.006-.063.006" transform="rotate(-4 70.239 -44.993)"/>
                        <path fill="#3D3A39" d="M11.754 8.616L12.863 1.296" transform="rotate(-4 70.239 -44.993)"/>
                        <path fill="#221714" d="M11.754 8.921c-.015 0-.03 0-.046-.004-.165-.025-.28-.18-.254-.345l1.109-7.322c.024-.166.177-.282.346-.255.165.025.28.18.254.346l-1.109 7.321c-.022.152-.152.26-.3.26" transform="rotate(-4 70.239 -44.993)"/>
                        <path fill="#FFF" d="M14.286 2.053c-.126.83-.902 1.403-1.732 1.278-.83-.126-1.401-.903-1.276-1.734.127-.83.902-1.402 1.732-1.276.831.126 1.4.901 1.276 1.732" transform="rotate(-4 70.239 -44.993)"/>
                        <g transform="rotate(-4 70.239 -44.993) translate(10.958)">
                            <mask id="b2sq4ot2ff" fill="#fff">
                                <use xlink:href="#qbsf1co04e"/>
                            </mask>
                            <path fill="#221714" d="M1.823.608C1.226.608.71 1.053.62 1.642c-.1.665.358 1.287 1.022 1.388.667.102 1.286-.37 1.385-1.022.1-.664-.357-1.286-1.02-1.387-.062-.01-.124-.013-.184-.013m.003 3.044c-.092 0-.182-.007-.276-.022C.556 3.48-.13 2.548.02 1.551.17.577 1.095-.132 2.099.021c.994.15 1.68 1.082 1.528 2.078-.133.885-.907 1.553-1.8 1.553" mask="url(#b2sq4ot2ff)"/>
                        </g>
                        <path fill="#221714" d="M25.975 22.473c-.473 0-.95-.055-1.43-.17-.162-.039-.263-.203-.224-.365.04-.163.206-.263.366-.226 2.971.712 5.973-1.134 6.683-4.114.04-.162.203-.262.367-.225.163.039.263.204.224.367-.674 2.826-3.205 4.733-5.986 4.733" transform="rotate(-4 70.239 -44.993)"/>
                        <path fill="#FFF" d="M25.103 22.104c-.125.83-.9 1.401-1.73 1.276-.83-.126-1.401-.902-1.275-1.733.126-.831.9-1.402 1.73-1.277.83.127 1.4.903 1.275 1.734" transform="rotate(-4 70.239 -44.993)"/>
                        <path fill="#221714" d="M23.6 20.657c-.596 0-1.112.445-1.202 1.035-.101.664.357 1.286 1.02 1.387.674.105 1.287-.37 1.386-1.021.1-.665-.358-1.286-1.021-1.387-.062-.009-.124-.014-.183-.014m.003 3.045c-.09 0-.183-.007-.276-.021-.993-.152-1.68-1.084-1.529-2.08.147-.975 1.075-1.683 2.076-1.531.994.15 1.68 1.083 1.53 2.078-.134.885-.908 1.554-1.801 1.554" transform="rotate(-4 70.239 -44.993)"/>
                        <path fill="#FFF" d="M37.305 19.478l-1.35.826 3.74 4.584s.772-1.482 1.185-2.464c1.732-1.604 2.493-3.589 2.253-5.544-.376-3.077-2.455-4.113-4.095-2.027-.53.673-1.543 1.549-1.543 1.549l-.19 3.076z" transform="rotate(-4 70.239 -44.993)"/>
                        <path fill="#221714" d="M36.41 20.382l3.226 3.954c.258-.507.693-1.383.966-2.03.017-.04.042-.075.073-.105 1.624-1.507 2.39-3.383 2.156-5.284-.209-1.704-1.001-2.85-1.972-2.85-.534 0-1.08.337-1.583.975-.449.572-1.215 1.265-1.486 1.505l-.182 2.95c-.006.099-.06.188-.144.24l-1.054.645zm3.284 4.81c-.09 0-.177-.04-.236-.111l-3.738-4.584c-.055-.067-.08-.156-.064-.243.014-.087.065-.163.14-.209l1.216-.743.18-2.92c.006-.08.043-.157.105-.21.01-.008.998-.864 1.502-1.506.784-.998 1.554-1.206 2.06-1.206 1.313 0 2.323 1.328 2.576 3.384.254 2.08-.561 4.123-2.3 5.758-.42.98-1.14 2.367-1.172 2.427-.047.091-.137.152-.238.161l-.031.002zM25.167 17.26c-.042 0-.085-.01-.127-.028l-1.901-.881c-.09-.04-.154-.124-.171-.222-.017-.098.013-.198.082-.268.04-.038.935-.92 2.242-.953.17 0 .306.13.312.297.003.168-.13.307-.297.312-.626.015-1.143.276-1.465.49l1.453.673c.151.07.218.25.148.403-.051.112-.16.177-.276.177" transform="rotate(-4 70.239 -44.993)"/>
                        <path fill="#4DB1DD" d="M23.267 16.076s1.267-.252 2.201.002" transform="rotate(-4 70.239 -44.993)"/>
                        <path fill="#221714" d="M25.468 16.383c-.025 0-.052-.004-.079-.011-.853-.232-2.052 0-2.064.002-.165.032-.324-.074-.356-.24-.033-.164.074-.323.238-.356.055-.011 1.348-.263 2.342.007.162.045.256.212.213.374-.037.134-.159.224-.294.224" transform="rotate(-4 70.239 -44.993)"/>
                        <g transform="rotate(-4 70.239 -44.993) translate(35.219 10.633)">
                            <mask id="ygda6mjr8h" fill="#fff">
                                <use xlink:href="#86p4j3r7yg"/>
                            </mask>
                            <path fill="#D41367" d="M7.739 4.618l.268-.247c.976-.901 1.037-2.422.138-3.398L8.113.935c-.9-.976-2.42-1.037-3.394-.137l-.267.247-.249-.269C3.306-.202 1.786-.264.81.636L.773.67c-.974.9-1.036 2.42-.137 3.396l.246.268L4.17 7.91l3.569-3.291z" mask="url(#ygda6mjr8h)"/>
                        </g>
                        <path fill="#FFF" d="M43.226 15.004c-.79-2.136-5.828.407-4.58 2.73.616 1.147 1.206 2.285 2.569 2.57.505.103 1.42-.272 1.753-.985 1.057-2.255.258-4.315.258-4.315" transform="rotate(-4 70.239 -44.993)"/>
                        <path fill="#221714" d="M41.899 14.505c-1.036 0-2.365.757-2.9 1.654-.299.5-.328.982-.086 1.432l.033.06c.58 1.082 1.13 2.104 2.33 2.354.335.07 1.136-.213 1.417-.815.99-2.113.256-4.057.25-4.076-.151-.406-.501-.61-1.044-.61m-.502 6.12c-.086 0-.168-.008-.244-.023-1.478-.309-2.12-1.505-2.74-2.663l-.034-.059c-.345-.643-.31-1.345.1-2.032.641-1.076 2.175-1.95 3.42-1.95.8 0 1.372.355 1.611 1.002.032.084.832 2.204-.266 4.549-.345.736-1.21 1.176-1.847 1.176" transform="rotate(-4 70.239 -44.993)"/>
                        <path fill="#F99C26" d="M19.146 20.37c1 .222 2.548-.821 3.008-1.645.395-.704-1.033-2.174-2.104-2.413-1.069-.24-2.988.483-2.93 1.288.067.94 1.025 2.546 2.026 2.77" transform="rotate(-4 70.239 -44.993)"/>
                        <path fill="#221714" d="M19.987 16.59c-.67-.148-1.81.146-2.346.606-.094.08-.247.237-.235.384.062.896.983 2.327 1.802 2.51.818.182 2.26-.72 2.697-1.504.072-.129 0-.336-.05-.446-.288-.647-1.196-1.4-1.868-1.55m-.903 4.058c-1.18-.263-2.176-2.018-2.249-3.026-.014-.21.047-.528.432-.86.67-.576 2-.918 2.845-.73.845.189 1.903 1.065 2.265 1.873.207.464.129.778.027.961-.494.882-2.142 2.047-3.32 1.782" transform="rotate(-4 70.239 -44.993)"/>
                        <path fill="#DB584C" d="M20.782 17.706s-.596 2.04-1.448 1.82c-.842-.214-.468-1.978-.468-1.978" transform="rotate(-4 70.239 -44.993)"/>
                        <path fill="#221714" d="M19.289 19.81c-.009-.002-.017-.003-.027-.007-1.074-.274-.718-2.108-.674-2.313.033-.156.185-.254.34-.222l.001.001c.154.034.25.186.217.339-.097.467-.17 1.533.258 1.642.002 0 .004 0 .007.002.381.085.88-.885 1.096-1.626.044-.15.205-.238.354-.194.15.045.238.204.194.355-.112.381-.714 2.258-1.766 2.023" transform="rotate(-4 70.239 -44.993)"/>
                        <path fill="#221714" d="M19.43 18.045c-.636-.142-.91-.376-.943-.405-.117-.106-.126-.287-.02-.404.105-.116.283-.127.4-.023.011.008.268.215.887.313.441.071.931-.09.936-.09.15-.05.312.03.362.18.05.15-.03.311-.18.362-.027.008-.624.206-1.208.112-.084-.013-.161-.028-.235-.045" transform="rotate(-4 70.239 -44.993)"/>
                    </g>
                </g>
            </g>
        </g>
    </g>
</svg>
