<svg xmlns="http://www.w3.org/2000/svg" xmlns:xlink="http://www.w3.org/1999/xlink" width="120" height="120" viewBox="0 0 120 120">
    <defs>
        <path id="kv9rashjna" d="M0 0H120V120H0z"/>
    </defs>
    <g fill="none" fill-rule="evenodd">
        <g>
            <g transform="translate(-46 -438) translate(46 438)">
                <mask id="ogyg4mqi6b" fill="#fff">
                    <use xlink:href="#kv9rashjna"/>
                </mask>
                <use fill="#EDF0F8" xlink:href="#kv9rashjna"/>
                <g mask="url(#ogyg4mqi6b)">
                    <g>
                        <path fill="#FFF" d="M63.647 64.23V44.567H41.283v19.661c0 1.532-.936 2.908-2.354 3.47-10.873 4.304-19.423 8.327-19.423 8.327l7.584 16.171h50.75l7.583-16.171s-8.55-4.022-19.422-8.326c-1.418-.563-2.354-1.939-2.354-3.47" transform="translate(7.536 18)"/>
                        <path fill="#000" fill-rule="nonzero" d="M63.647 43.7H41.283c-.477 0-.864.388-.864.868v19.661c0 1.174-.717 2.23-1.807 2.662-4.401 1.742-8.72 3.554-12.804 5.343l-1.43.63-1.2.534-1.49.671-1.635.746-.914.424c-.433.204-.62.722-.415 1.157l7.584 16.171c.143.305.448.499.782.499h50.75c.335 0 .639-.194.782-.499l7.583-16.17c.204-.436.018-.954-.415-1.158l-1.105-.512-1.09-.498-1.083-.49-1.553-.694-.822-.363c-4.38-1.934-9.051-3.903-13.819-5.79-1.09-.433-1.807-1.49-1.807-2.663V44.568c0-.48-.387-.869-.864-.869zm-21.5 1.736h20.635V64.23c0 1.888 1.153 3.585 2.902 4.279 4.381 1.734 8.68 3.538 12.746 5.32l1.424.627 1.951.87 1.42.643 1.045.48-6.979 14.88H27.638l-6.98-14.88 1.046-.48 1.795-.811.773-.346 1.215-.54c4.362-1.924 9.013-3.885 13.758-5.764l.149-.062c1.666-.728 2.753-2.382 2.753-4.216V45.436z" transform="translate(7.536 18)"/>
                        <path fill="#CFD1D2" d="M62.674 52.88c0 5.163-4.605 9.349-10.285 9.349s-10.285-4.186-10.285-9.35l-.01-8.312h20.741l-.161 8.313z" transform="translate(7.536 18)"/>
                        <path fill="#FFF" d="M104.064 103.2c-2.683-13.56-8.174-22.257-15.582-26.016-7.409-3.76-22.31-11.302-22.31-11.302l-10.466 7.845-3.241 12.44-3.242-12.44-10.465-7.845s-14.903 7.542-22.311 11.302C9.038 80.944 3.547 89.639.864 103.2" transform="translate(7.536 18)"/>
                        <path fill="#000" fill-rule="nonzero" d="M65.655 65.185c.238-.178.55-.22.824-.115l.106.049 22.286 11.29c7.672 3.892 13.133 12.707 15.872 25.79l.169.831c.093.47-.211.928-.68 1.022-.467.093-.922-.212-1.015-.683-2.585-13.063-7.835-21.71-15.125-25.41L66.26 66.9l-9.795 7.342-3.164 12.146c-.218.836-1.367.864-1.647.084l-.025-.084-3.166-12.146-9.793-7.342-21.834 11.06c-7.29 3.7-12.54 12.347-15.124 25.41-.093.47-.548.776-1.016.683-.468-.094-.772-.551-.68-1.022l.17-.832c.173-.826.357-1.635.551-2.427l.199-.786c2.89-11.188 7.977-18.834 14.88-22.452l9.356-4.745 13.197-6.682c.266-.135.58-.121.832.03l.073.05L49.74 73.03c.135.101.237.239.295.396l.025.08 2.405 9.23 2.406-9.23c.042-.163.131-.31.255-.423l.064-.053 10.466-7.846z" transform="translate(7.536 18)"/>
                        <path fill="#CFD1D2" d="M62.787 52.88c0 5.163-4.642 9.349-10.37 9.349-5.727 0-10.37-4.186-10.37-9.35h20.74z" transform="translate(7.536 18)"/>
                        <path fill="#FFF" d="M49.341 73.728l-7.051 8.707s-3.76-5.162-5.582-12.703c-.533-2.205-.248-4.572.95-6.495 1.532-2.454 3.603-2.9 3.603-2.9s1.824 6.563 8.08 13.39" transform="translate(7.536 18)"/>
                        <path fill="#000" fill-rule="nonzero" d="M41.08 59.488c-.227.05-.577.165-1.009.375-.697.339-1.39.826-2.033 1.487-.405.417-.778.891-1.111 1.426-1.298 2.081-1.66 4.675-1.058 7.161.58 2.4 1.384 4.71 2.357 6.907.731 1.65 1.515 3.144 2.3 4.453l.137.226.262.423.248.386.229.343.19.273c.335.46 1.01.477 1.368.036l7.052-8.708c.27-.335.256-.82-.035-1.137-2.68-2.924-4.736-6.007-6.248-9.054-.528-1.064-.95-2.045-1.276-2.92l-.125-.346-.107-.312-.07-.216-.057-.187c-.123-.442-.567-.711-1.013-.616zm-.431 2.028l.077-.04.109.298c.346.93.792 1.967 1.347 3.086l.2.399c1.427 2.79 3.287 5.599 5.638 8.291l.183.207-5.845 7.217-.18-.29-.171-.283c-.75-1.251-1.501-2.68-2.202-4.264-.932-2.104-1.703-4.317-2.257-6.61-.494-2.043-.2-4.156.843-5.828.268-.43.564-.806.883-1.135.442-.454.909-.798 1.375-1.048z" transform="translate(7.536 18)"/>
                        <path fill="#FFF" d="M55.706 73.728l7.051 8.707s3.76-5.162 5.582-12.703c.533-2.205.248-4.572-.95-6.495-1.532-2.454-3.603-2.9-3.603-2.9s-1.824 6.563-8.08 13.39" transform="translate(7.536 18)"/>
                        <path fill="#000" fill-rule="nonzero" d="M62.953 60.104l-.036.123-.09.28-.108.312-.125.346c-.326.875-.748 1.856-1.276 2.92-1.512 3.047-3.569 6.13-6.248 9.054-.291.318-.306.802-.035 1.137l7.052 8.708c.357.441 1.033.424 1.368-.036l.19-.273.112-.165.24-.366.254-.405c.088-.14.178-.288.27-.442.785-1.31 1.569-2.802 2.3-4.453.973-2.196 1.778-4.507 2.357-6.907.601-2.486.24-5.08-1.058-7.16-.333-.536-.706-1.01-1.111-1.427-.643-.661-1.336-1.148-2.033-1.487-.432-.21-.782-.326-1.01-.375-.446-.095-.89.174-1.013.616zm1.26 1.67l.108-.298-.097-.049c.523.255 1.052.626 1.549 1.137.32.329.615.706.883 1.135 1.042 1.672 1.337 3.785.843 5.828-.554 2.293-1.325 4.506-2.257 6.61-.7 1.583-1.452 3.013-2.202 4.264l-.254.417-.098.156-5.844-7.217.183-.207c2.463-2.82 4.387-5.768 5.838-8.69.555-1.119 1.001-2.156 1.347-3.086zM53.329 84.111L53.329 103.2 51.601 103.2 51.601 84.111z" transform="translate(7.536 18)"/>
                        <path fill="#000" d="M52.465 1.99C33.2-1.63 23.638 17.838 29.058 32.69c3.849 11.333 13.778 14.043 23.407 13.916 9.63.127 19.558-2.583 23.407-13.916 5.42-14.852-4.142-34.32-23.407-30.7" transform="translate(7.536 18)"/>
                        <path fill="#FFF" d="M72.247 31.622c-.123-.022-.246-.031-.368-.042-1.085-11.648-9.361-20.708-19.415-20.708-10.052 0-18.329 9.06-19.414 20.708-.122.01-.244.02-.368.042-2.868.503-4.722 3.637-4.14 7.002.575 3.318 3.307 5.617 6.134 5.196 3.075 8.061 11.67 13.67 17.788 13.67 6.12 0 14.715-5.609 17.789-13.67 2.828.42 5.559-1.878 6.135-5.196.583-3.365-1.272-6.5-4.141-7.002" transform="translate(7.536 18)"/>
                        <path fill="#000" fill-rule="nonzero" d="M52.151 10.006c-10.006.179-18.327 8.909-19.84 20.418l-.05.397-.042.01c-3.186.751-5.167 4.25-4.527 7.942l.032.177c.659 3.362 3.322 5.797 6.291 5.789l.097-.002.047.11c3.254 7.583 11.57 13.512 18.305 13.512l.211-.002c6.698-.122 14.876-6.005 18.095-13.51l.046-.11.098.002c3.021.008 5.726-2.512 6.325-5.966l.029-.179c.546-3.624-1.422-7.024-4.56-7.764l-.04-.009-.005-.048c-1.404-11.802-9.951-20.77-20.199-20.77l-.313.003zm.313 1.734c9.5 0 17.5 8.602 18.555 19.921l.067.723.925.08.084.013c2.371.415 3.947 3.08 3.441 5.998-.498 2.874-2.817 4.834-5.156 4.486l-.686-.102-.248.65c-2.771 7.268-10.77 13.112-16.982 13.112-6.21 0-14.209-5.844-16.981-13.112l-.249-.65-.685.102c-2.339.348-4.657-1.613-5.155-4.486-.505-2.919 1.07-5.583 3.436-5.997l.087-.013.206-.02.72-.06.068-.724c1.054-11.32 9.055-19.92 18.553-19.92z" transform="translate(7.536 18)"/>
                        <path fill="#000" d="M33.235 29.974s.662 2.301 1.615 3.358c1.375 1.526 3.829.593 3.97-1.5.444-6.57.728-18.693 10.717-20.084 1.486-.207 2.878.13 2.878.13V8.647c-11.234-1.23-18.335 8.314-19.18 21.328" transform="translate(7.536 18)"/>
                        <path fill="#000" fill-rule="nonzero" d="M32.373 29.917c-.007.1.004.201.032.298l.035.118.106.33.07.204c.168.48.36.963.573 1.417.313.666.649 1.219 1.021 1.631 1.894 2.104 5.28.822 5.472-2.024l.138-2.071.127-1.74.08-.929.055-.548.058-.51.062-.49.034-.24.04-.266.085-.545.1-.58c1.173-6.705 3.905-10.627 9.195-11.364.684-.095 1.41-.07 2.095.031l.176.028.2.037.086.02c.544.131 1.067-.283 1.067-.845V8.646c0-.444-.332-.816-.77-.864-11.33-1.24-19.221 8.028-20.137 22.135zM51.55 9.443v1.421l-.111-.011c-.663-.062-1.347-.06-2.021.034-5.75.801-8.897 4.781-10.351 11.231l-.11.508c-.036.17-.07.343-.103.517l-.097.527-.101.595-.089.557-.078.542-.033.25-.077.644-.057.552-.068.76-.098 1.257-.142 2.076-.057.87c-.091 1.345-1.615 1.922-2.467.976-.239-.265-.493-.684-.74-1.208-.185-.394-.355-.821-.504-1.249l-.1-.294-.04-.124-.01.156C34.93 17.204 41.696 8.9 51.412 9.434l.139.009z" transform="translate(7.536 18)"/>
                        <path fill="#000" d="M52.415 8.646v3.233s1.464-.483 3.232-.086c9.64 2.16 10.023 13.525 10.463 20.04.141 2.092 2.594 3.025 3.97 1.499.953-1.057 1.615-3.358 1.615-3.358-.954-14.696-7.11-22.27-19.28-21.328" transform="translate(7.536 18)"/>
                        <path fill="#000" fill-rule="nonzero" d="M52.35 7.78c-.451.034-.799.412-.799.866v3.233c0 .565.526.973 1.06.846l.19-.054.121-.028.155-.032c.73-.14 1.552-.157 2.382.03 5.124 1.148 7.806 5.065 8.984 11.45l.075.415.11.651.058.38.072.506.033.258.047.399.045.42.072.763.058.689.105 1.422.13 1.898c.192 2.845 3.577 4.126 5.472 2.023.372-.413.707-.966 1.02-1.631.215-.454.406-.936.574-1.417l.129-.383.082-.269c.028-.097.039-.198.032-.298C71.555 14.469 64.82 6.815 52.35 7.78zm18.453 21.815l.018.279-.068.214-.07.204c-.15.428-.32.855-.505 1.249-.247.524-.5.943-.739 1.207-.832.924-2.302.397-2.457-.877l-.012-.133-.158-2.297-.09-1.17-.072-.836-.058-.598-.046-.418-.065-.53-.07-.514-.08-.513-.089-.528-.1-.559-.053-.278-.11-.55C64.6 16.423 61.53 12.222 55.835 10.945l-.25-.051c-.746-.14-1.475-.159-2.16-.088l-.146.016v-1.36l.214-.009c10.628-.401 16.305 6.305 17.31 20.142z" transform="translate(7.536 18)"/>
                        <path fill="#000" d="M78.51 11.492c-2.355-2.279-7.452-2.94-10.257-7.386C66.201.853 63.61-.097 60.291.008c-4.588.144-5.32 2.706-7.826 2.706-2.507 0-3.239-2.562-7.827-2.706-3.317-.105-5.91.845-7.961 4.098-2.805 4.446-7.902 5.107-10.256 7.386-2.355 2.278-3.239 5.38-3.239 7.977 0 3.88 3.853 8.743 10.732 8.623 6.879-.118 9.247-5.758 11.884-10.427.83-1.467 2.21-2.998 3.985-2.383.723.251 1.868 1.23 2.682 1.185.813.045 1.959-.934 2.682-1.185 1.775-.615 3.156.916 3.985 2.383 2.637 4.669 5.006 10.309 11.884 10.427 6.88.12 10.732-4.742 10.732-8.623 0-2.598-.884-5.7-3.239-7.977" transform="translate(7.536 18)"/>
                        <path fill="#000" fill-rule="nonzero" d="M55.889 40.935l-.142.028-.313.06-.347.06-.376.06-.197.028c-.791.114-1.534.18-2.167.182-.221 0-.457-.006-.705-.02-.567-.033-1.177-.102-1.8-.196l-.233-.036-.444-.076-.465-.088-.077-.016c-.501-.108-.985.244-1.04.757l-.017.204-.005.073c-.06 1.01-.001 2.153.274 3.257.59 2.367 2.05 3.888 4.515 3.888 2.472 0 3.912-1.53 4.459-3.903.247-1.072.29-2.185.217-3.19l-.013-.17L57 41.71l-.006-.047c-.06-.479-.494-.812-.96-.754l-.145.027zm-.562 1.868l.002.114c-.003.625-.063 1.275-.204 1.888-.383 1.663-1.225 2.557-2.775 2.557-1.556 0-2.422-.902-2.839-2.573l-.062-.273c-.115-.55-.17-1.118-.179-1.663v-.048l.315.05c.672.101 1.333.176 1.958.212.282.016.552.024.81.023.724-.002 1.54-.075 2.405-.199l.416-.063.153-.025zM43.49 27.682c1.46-.39 3.012-.42 4.495.164.42.165.822.378 1.205.64.395.27.497.81.228 1.206-.268.397-.806.5-1.2.23-.275-.188-.563-.34-.864-.458-1.09-.43-2.284-.407-3.418-.103l-.211.06-.176.056-.074.026-.118.045-.044.018c-.436.194-.946-.005-1.14-.444-.192-.439.006-.951.443-1.145l.137-.057.081-.031.188-.066.106-.035.234-.07.128-.036zM56.214 27.846c1.483-.584 3.035-.555 4.494-.164l.25.071.113.035.203.068.09.033.154.06.065.028c.436.194.634.706.442 1.145-.193.44-.703.638-1.14.444l-.098-.04-.064-.023-.157-.053c-.03-.01-.06-.02-.092-.029l-.211-.06c-1.134-.304-2.329-.326-3.419.103-.3.118-.588.27-.863.458-.395.27-.932.167-1.2-.23-.27-.396-.167-.937.228-1.207.382-.261.785-.474 1.205-.639z" transform="translate(7.536 18)"/>
                        <path fill="#FBC8C6" d="M44.241 40.261c0 .701-1.19 1.268-2.657 1.268-1.468 0-2.657-.567-2.657-1.268 0-.7 1.19-1.269 2.657-1.269 1.468 0 2.657.57 2.657 1.27M66.003 40.261c0 .701-1.188 1.268-2.656 1.268-1.468 0-2.66-.567-2.66-1.268 0-.7 1.192-1.269 2.66-1.269 1.468 0 2.656.57 2.656 1.27" transform="translate(7.536 18)"/>
                        <path fill="#000" d="M57.202 37.519h-.364c-.85 0-1.54-.694-1.54-1.548v-2.176c0-.956.77-1.73 1.722-1.73.95 0 1.722.774 1.722 1.73v2.176c0 .854-.69 1.548-1.54 1.548M47.36 37.519h-.363c-.85 0-1.54-.694-1.54-1.548v-2.176c0-.956.771-1.73 1.722-1.73s1.721.774 1.721 1.73v2.176c0 .854-.688 1.548-1.54 1.548" transform="translate(7.536 18)"/>
                    </g>
                </g>
            </g>
        </g>
    </g>
</svg>
