<?xml version="1.0" encoding="UTF-8"?>
<svg width="78px" height="84px" viewBox="0 0 78 84" version="1.1" xmlns="http://www.w3.org/2000/svg" xmlns:xlink="http://www.w3.org/1999/xlink">
    <title>A47096C1-247D-4B62-9CAB-F3ECA1504C4A</title>
    <defs>
        <rect id="path-1" x="0" y="0" width="78" height="84"></rect>
        <polygon id="path-3" points="0 100 100 100 100 0 0 0"></polygon>
    </defs>
    <g id="Page-1" stroke="none" stroke-width="1" fill="none" fill-rule="evenodd">
        <g id="09_마이페이지_01_메인" transform="translate(-230.000000, -1117.000000)">
            <g id="자산" transform="translate(16.000000, 1055.000000)">
                <g id="Group-12" transform="translate(12.000000, 62.000000)">
                    <g id="illust" transform="translate(202.000000, 0.000000)">
                        <mask id="mask-2" fill="white">
                            <use xlink:href="#path-1"></use>
                        </mask>
                        <g id="Mask"></g>
                        <g id="Group-71" mask="url(#mask-2)">
                            <g transform="translate(-22.000000, 10.000000)" id="Group-70">
                                <mask id="mask-4" fill="white">
                                    <use xlink:href="#path-3"></use>
                                </mask>
                                <g id="Clip-5"></g>
                                <path d="M78.3697065,95.1600271 L90.5770877,73.1077457 C90.5770877,73.1077457 92.2115037,69.2126468 96.0711228,71.3458189 C99.931059,73.4786777 96.8334697,77.5344929 96.8334697,77.5344929 L84.1808576,98.6566248" id="Fill-7" fill="#FFFFFF" mask="url(#mask-4)"></path>
                                <path d="M84.1806039,99.1264928 C84.0981538,99.1264928 84.0147522,99.1051893 83.9386444,99.0610158 C83.7125407,98.9288086 83.6377013,98.6405845 83.7715242,98.4172107 L96.4238192,77.2953922 C96.4330156,77.2803544 96.4428462,77.2656299 96.4536281,77.251532 C96.466947,77.2339879 97.8343513,75.4081505 97.472839,73.7217258 C97.3015964,72.9215905 96.7520343,72.2602414 95.8390573,71.7558491 C94.8033564,71.1834735 93.859302,71.0352887 93.0357517,71.3156806 C91.6724699,71.778719 91.022382,73.2737252 91.0160397,73.288763 C91.0096974,73.3034875 91.0024037,73.3191519 90.9944758,73.3332498 L78.7870946,95.3855311 C78.6611996,95.6132909 78.3723069,95.6969386 78.1414464,95.5722503 C77.9109031,95.4478753 77.8262331,95.1621574 77.9521282,94.934711 L90.1487274,72.9018534 C90.254327,72.6637552 91.0417261,71.0039599 92.7176843,70.4297046 C93.8117346,70.0550132 95.0177268,70.2251281 96.3036322,70.9356634 C97.4680823,71.5791551 98.175251,72.4529129 98.4045259,73.5321871 C98.8335839,75.54725 97.4138554,77.5466485 97.2302453,77.7947719 L84.5903178,98.8959135 C84.5015253,99.0440983 84.3432844,99.1264928 84.1806039,99.1264928" id="Fill-8" fill="#000000" mask="url(#mask-4)"></path>
                                <path d="M96.6819199,70.9974122 C92.7335084,62.3701112 88.2951526,53.2985689 86.3176171,49.6017807 C84.3093213,45.8464078 82.8027031,42.0957343 77.9844423,41.0130139 C73.5527459,40.0173874 71.8739337,49.3937581 71.8739337,49.3937581 L79.7571208,54.7572338 C79.7571208,54.7572338 88.9706097,72.6474956 90.1651857,75.0410093" id="Fill-9" fill="#FFFFFF" mask="url(#mask-4)"></path>
                                <path d="M90.1655663,75.5110966 C89.9902011,75.5110966 89.8214954,75.4149175 89.738411,75.2488753 C88.6066239,72.981303 80.1535793,56.5634908 79.3880612,55.07663 L71.6044485,49.7808243 C71.4506472,49.6764997 71.3732709,49.4932267 71.4056168,49.3121468 C71.4519157,49.0530583 72.5738722,42.9517914 75.4783378,41.0470056 C76.2911062,40.5137909 77.1704689,40.3483753 78.0901053,40.5548315 C82.661967,41.5824133 84.367417,44.8493715 86.1730756,48.3080615 C86.3592227,48.6645823 86.5463211,49.023296 86.7381763,49.3823231 C88.6897083,53.0302385 93.1045975,62.0403764 97.115481,70.8036442 C97.2236175,71.0401759 97.1173837,71.3186882 96.8779611,71.4255191 C96.6385385,71.5326633 96.3566223,71.4273988 96.2484858,71.1911803 C92.2455302,62.4442036 87.8417401,53.4569356 85.8971846,49.8212384 C85.7037439,49.459705 85.5150598,49.0981717 85.3273272,48.7388313 C83.5524288,45.3384128 82.01949,42.4016592 77.8789061,41.4711964 C77.2139138,41.3217584 76.6009285,41.4392411 76.0050675,41.8295969 C73.770668,43.2942142 72.6585422,47.9615659 72.4010439,49.1818193 L80.0267329,54.3701675 C80.0920588,54.4146543 80.1450172,54.4741789 80.1811684,54.5440419 C80.2734491,54.7229289 89.4095617,72.4643793 90.5920873,74.8331433 C90.7081518,75.0659156 90.6111143,75.347874 90.3754971,75.4625371 C90.3079514,75.4954323 90.2362831,75.5110966 90.1655663,75.5110966" id="Fill-10" fill="#000000" mask="url(#mask-4)"></path>
                                <path d="M80.3913212,63.3575295 C80.3913212,63.3575295 86.9597453,73.0236908 88.1543213,75.4172045 C89.3492145,77.8107182 91.6914334,82.1513114 96.5395031,79.9645672 C102.224442,76.8476735 98.0388277,70.2128786 98.0388277,70.2128786 C94.0904161,61.5855775 89.7862004,52.4410394 87.675159,48.8172471 C86.0118855,45.9619481 84.0292762,43.7617326 81.2370696,42.0540044 C79.7735792,41.1586298 76.1102549,39.4953884 76.1102549,39.4953884" id="Fill-11" fill="#FFFFFF" mask="url(#mask-4)"></path>
                                <path d="M94.0434195,81.0277698 C90.4244915,81.0277698 88.5319431,77.2360556 87.7277369,75.6251331 C86.5604328,73.286758 80.0617742,63.715836 79.9964483,63.6193436 C79.8499407,63.4038021 79.90829,63.1121317 80.1261488,62.9673931 C80.3440075,62.8229677 80.6395596,62.8796727 80.7860672,63.0955275 C81.0552987,63.4912092 87.3862029,72.8152608 88.5810961,75.2094011 C90.1558942,78.3642026 92.3068922,81.3460695 96.3247522,79.5446685 C97.6835943,78.7955989 98.5429787,77.7658241 98.8803902,76.4835399 C99.6211732,73.6677151 97.6550539,70.4928633 97.6350756,70.460908 C97.6239765,70.4436772 97.6141459,70.4251933 97.6052667,70.4063961 C92.5041384,59.2602664 89.0244243,52.0756526 87.2628448,49.0514919 C85.5589804,46.1269565 83.5649549,44.030439 80.9864845,42.4536648 C79.5651705,41.5839797 75.9478281,39.938909 75.9116768,39.9223048 C75.6728885,39.8142207 75.5682402,39.5350819 75.6779623,39.2991767 C75.7880016,39.0632715 76.0715033,38.9602 76.3087061,39.0685974 C76.4596533,39.1368939 80.0157924,40.7540821 81.4875278,41.6544694 C84.204895,43.3164576 86.3019832,45.5179263 88.0873464,48.5828143 C89.862879,51.6307848 93.3527408,58.8335693 98.4602115,69.9922305 C98.6812413,70.3521974 100.613429,73.6213486 99.8022464,76.7153724 C99.3966551,78.2633241 98.3764928,79.4948558 96.7703002,80.375506 C96.7592011,80.3814584 96.7481021,80.3870976 96.737003,80.3921102 C95.7482352,80.8382311 94.8526996,81.0277698 94.0434195,81.0277698" id="Fill-12" fill="#000000" mask="url(#mask-4)"></path>
                                <path d="M68.7797376,49.0060966 C69.5259115,52.7846527 73.2310951,55.2502224 77.0558314,54.5133711 C80.8805678,53.7762065 83.3762708,50.1154463 82.630414,46.3368902 C81.88424,42.5583341 78.1790564,40.0927643 74.354003,40.8299289 C70.5295838,41.5667803 68.0335636,45.2275404 68.7797376,49.0060966" id="Fill-13" fill="#FFFFFF" mask="url(#mask-4)"></path>
                                <path d="M30.5678597,74.9237146 C32.7435927,65.7027344 35.3125495,55.9519856 36.524567,51.945983 C37.7559285,47.8766964 38.4957602,43.9082883 43.0092725,41.9207947 C47.1603212,40.0930776 51.180401,43.4906766 50.6520857,48.9685021 C50.1136227,54.5484593 43.9742565,55.7433364 43.9742565,55.7433364 C43.9742565,55.7433364 38.457072,75.0615609 37.7559285,77.6389742" id="Fill-14" fill="#FFFFFF" mask="url(#mask-4)"></path>
                                <path d="M37.7562456,78.1089049 C37.7153376,78.1089049 37.6737954,78.103579 37.6322532,78.0926139 C37.3788775,78.0252572 37.2282474,77.7674219 37.2967445,77.5167922 C37.9902772,74.9663216 43.4614799,55.8088134 43.5166581,55.6155152 C43.5648597,55.4457136 43.7066106,55.3169526 43.8816586,55.2821777 C43.8965631,55.2793581 45.3730553,54.9807955 46.8834789,54.0346684 C48.8619657,52.7953045 49.9709205,51.0756714 50.1786315,48.9240153 C50.4354954,46.2573153 49.5634264,43.9371107 47.8452918,42.7168574 C46.5137216,41.7710435 44.8215905,41.6375832 43.2030304,42.3503114 C39.3247014,44.0577263 38.3987227,47.2325781 37.3265534,50.9090026 C37.2130259,51.2974787 37.0991812,51.688461 36.9805798,52.0806965 C35.7882236,56.0202822 33.2370252,65.6817441 31.0311662,75.0305455 C30.9712312,75.2830549 30.7172213,75.4406384 30.4597231,75.3814271 C30.2041276,75.3225291 30.0452525,75.0697064 30.1045532,74.8168837 C32.3148518,65.4508515 34.8727096,55.7646399 36.0688713,51.8112696 C36.1865213,51.4224802 36.2997317,51.0343175 36.4123079,50.648661 C37.5028699,46.9092658 38.5331798,43.3772666 42.8158317,41.4915914 C44.7508737,40.6394504 46.7870756,40.8079988 48.4005619,41.9536899 C50.3964902,43.3713142 51.4150668,46.0101317 51.1255399,49.0129889 C50.6295704,54.152151 45.6257968,55.7981616 44.3566984,56.1343187 C43.6929746,58.4595358 38.8629805,75.3795474 38.2151125,77.7608429 C38.1583487,77.9707452 37.9661764,78.1089049 37.7562456,78.1089049" id="Fill-15" fill="#000000" mask="url(#mask-4)"></path>
                                <path d="M67.4155679,29.3989586 C67.4155679,32.1922267 64.5992605,34.4566661 61.1252545,34.4566661 C57.6515656,34.4566661 54.8352582,32.1922267 54.8352582,29.3989586 L67.4155679,29.3989586 Z" id="Fill-16" fill="#CFD1D2" mask="url(#mask-4)"></path>
                                <path d="M67.306258,35.5389792 L67.306258,24.9022544 L54.9967654,24.9022544 L54.9967654,35.5386659 C54.9967654,36.3676237 54.4811348,37.1123072 53.7003951,37.4161957 C47.7160987,39.744859 43.0094627,41.9209514 43.0094627,41.9209514 L47.183978,83.3989148 L75.1190454,83.3989148 L79.2929264,41.9209514 C79.2929264,41.9209514 74.5866076,39.7451722 68.6026283,37.4161957 C67.8215715,37.1123072 67.306258,36.3679369 67.306258,35.5389792" id="Fill-17" fill="#FFFFFF" mask="url(#mask-4)"></path>
                                <path d="M47.6147167,82.9291407 L74.6881798,82.9291407 L78.785953,42.2071392 C77.6497263,41.6905287 73.4717228,39.8161318 68.4283096,37.8533879 C67.4576174,37.4758769 66.8306791,36.5673442 66.8306791,35.5391358 L66.8306791,25.3720285 L55.4722175,25.3720285 L55.4722175,35.5388225 C55.4722175,36.5670309 54.8452791,37.4755636 53.874587,37.8533879 C48.8308567,39.8161318 44.652536,41.6905287 43.5163093,42.2071392 L47.6147167,82.9291407 Z M75.1188234,83.8690021 L47.1840732,83.8690021 C46.9395767,83.8690021 46.7350369,83.6860424 46.7106189,83.4454379 L42.5361037,41.9674745 C42.5161253,41.7691638 42.6252133,41.5799383 42.8078721,41.4953508 C42.8548053,41.4734207 47.596324,39.2863632 53.5260765,36.9786902 C54.1304996,36.7437249 54.5208694,36.1782416 54.5208694,35.5388225 L54.5208694,24.9020978 C54.5208694,24.642696 54.7339714,24.4321671 54.9965434,24.4321671 L67.3063531,24.4321671 C67.5689252,24.4321671 67.7820271,24.642696 67.7820271,24.9020978 L67.7820271,35.5391358 C67.7820271,36.1785549 68.172397,36.7440381 68.7768201,36.9790035 C74.7062554,39.2863632 79.447457,41.4734207 79.4943902,41.4953508 C79.677049,41.5799383 79.786137,41.7691638 79.7661586,41.9674745 L75.5922776,83.4454379 C75.5678597,83.6860424 75.3633198,83.8690021 75.1188234,83.8690021 L75.1188234,83.8690021 Z" id="Fill-18" fill="#000000" mask="url(#mask-4)"></path>
                                <path d="M67.2105524,29.3989586 C67.2105524,32.1922267 64.4776465,34.4566661 61.106069,34.4566661 C57.7348086,34.4566661 55.0015856,32.1922267 55.0015856,29.3989586 L54.9965117,24.9020351 L67.3063214,24.9020351 L67.2105524,29.3989586 Z" id="Fill-19" fill="#CFD1D2" mask="url(#mask-4)"></path>
                                <path d="M81.6631784,54.8115578 L40.6397816,54.8115578 L41.4785534,43.9082257 C41.4785534,43.9082257 47.4187707,39.2722027 54.2228121,36.9510583 L61.1397467,47.7199902 L68.0801479,36.9476121 C74.9476124,39.2678166 82.0560851,43.6986366 82.0560851,43.6986366 L81.6631784,54.8115578 Z" id="Fill-20" fill="#FFFFFF" mask="url(#mask-4)"></path>
                                <path d="M53.6111596,47.9939285 C53.6228603,51.8436008 50.4732639,54.9739658 46.5762252,54.9852765 C42.6795035,54.9968358 39.5111974,51.885268 39.4997485,48.0352824 C39.4880479,44.1856101 42.6376442,41.0555583 46.534683,41.0439362 C50.4314046,41.0326884 53.5997108,44.1442562 53.6111596,47.9939285" id="Fill-21" fill="#FFFFFF" mask="url(#mask-4)"></path>
                                <path d="M46.0207648,55.7261682 C46.0207648,55.7261682 40.5032631,75.0443928 39.8024367,77.621806 C39.1012932,80.198906 37.2636059,84.6610546 32.4716657,83.6926841 C26.2821952,81.7264941 29.0823297,74.4146856 29.0823297,74.4146856 C31.2577456,65.1937054 33.6811462,55.3972168 35.039037,51.4369541 C36.6699647,46.6812554 39.6137527,42.9167972 44.6869748,40.6304277" id="Fill-22" fill="#FFFFFF" mask="url(#mask-4)"></path>
                                <path d="M33.7501823,84.2961065 C33.3078055,84.2961065 32.84989,84.2488001 32.3764357,84.1529342 C32.3593115,84.1494881 32.3428214,84.1451021 32.3263314,84.1400895 C30.5774366,83.5846314 29.3343418,82.5724007 28.6319298,81.1319064 C27.22774,78.2524844 28.4797141,74.674432 28.6259046,74.2790636 C31.4393579,62.3553553 33.4454338,54.6196694 34.5886371,51.2862943 C36.3955642,46.0164914 39.6342701,42.3911327 44.4893164,40.2028221 C44.7293732,40.0950513 45.0112893,40.1993759 45.119743,40.4352811 C45.2288309,40.6714996 45.1232313,40.9500119 44.8844429,41.0577827 C40.2808697,43.1326834 37.2076983,46.5769621 35.4895637,51.5876765 C34.3714126,54.848369 32.3161837,62.7789195 29.545541,74.5212346 C29.5411014,74.541285 29.5347591,74.5613354 29.5274654,74.5804459 C29.5141465,74.615534 28.2098484,78.1074324 29.49068,80.7274527 C30.072905,81.9185704 31.1162167,82.7628792 32.5927089,83.237196 C36.6638443,84.0439103 38.5091425,80.5645434 39.3431576,77.4999687 C40.0363732,74.9491848 45.507893,55.7916766 45.5630712,55.5986917 C45.6344223,55.3486886 45.8979457,55.2033233 46.150053,55.273813 C46.4027944,55.3443026 46.5499363,55.6040176 46.4785852,55.8537074 C46.423407,56.0470056 40.9537899,75.1988747 40.2615256,77.7437061 C39.0986611,82.018509 36.813206,84.2961065 33.7501823,84.2961065" id="Fill-23" fill="#000000" mask="url(#mask-4)"></path>
                                <path d="M40.6397181,54.8115578 L43.640587,82.1771889 C43.9380419,83.8476359 45.6327099,83.3990088 47.6330777,83.3990088 L74.6700725,83.3990088 C76.6704403,83.3990088 78.3647912,83.8476359 78.6622461,82.1771889 L81.663115,54.8115578" id="Fill-24" fill="#FFFFFF" mask="url(#mask-4)"></path>
                                <path d="M45.73276,83.9222609 C44.5159858,83.9222609 43.4279608,83.695441 43.1720481,82.2587062 L40.1667396,54.8620597 C40.1385163,54.6042244 40.3272003,54.3723919 40.5885039,54.344196 C40.8475877,54.3166268 41.0844734,54.5030326 41.1126967,54.7608679 L44.1135656,82.1268124 C44.2657813,82.9761338 44.8673504,83.0300192 46.5518707,82.958903 C46.8984785,82.9441785 47.2568196,82.9291407 47.6329192,82.9291407 L74.6699139,82.9291407 C75.0463307,82.9291407 75.4046718,82.9441785 75.7512796,82.958903 C77.4342143,83.0297059 78.0367347,82.9764471 78.1937071,82.0957969 L81.1904535,54.7608679 C81.2183597,54.5030326 81.4523914,54.3166268 81.7143292,54.344196 C81.9756328,54.3723919 82.1643168,54.6042244 82.1360935,54.8620597 L79.1352246,82.2280041 C78.8155717,84.0287786 77.2379195,83.9623617 75.7106887,83.8978245 C75.3742286,83.8837266 75.0260352,83.8690021 74.6699139,83.8690021 L47.6329192,83.8690021 C47.277115,83.8690021 46.9289216,83.8837266 46.5924615,83.8978245 C46.3048373,83.9100427 46.0153104,83.9222609 45.73276,83.9222609" id="Fill-25" fill="#000000" mask="url(#mask-4)"></path>
                                <path d="M41.3256718,42.5474943 C46.3995281,39.2579794 53.6063068,36.4330693 53.6063068,36.4330693 L59.3670364,40.6774834 L61.1511312,47.4072044" id="Fill-26" fill="#FFFFFF" mask="url(#mask-4)"></path>
                                <path d="M61.1506872,47.8773544 C60.9394879,47.8773544 60.7469985,47.7376283 60.690869,47.5264728 L58.9489507,40.9559017 L53.5364144,36.9677565 C52.2352874,37.493139 46.0391575,40.0536348 41.5868486,42.9402624 C41.3674043,43.0824948 41.0728035,43.0226569 40.9278815,42.8052357 C40.7835937,42.588441 40.8451142,42.2970839 41.0645585,42.1545383 C46.1206563,38.876615 53.3581952,36.0247622 53.4308148,35.9962531 C53.5846161,35.936102 53.7583956,35.9586586 53.8903159,36.0564042 L59.6510455,40.3008183 C59.7379353,40.3644156 59.7997729,40.4552689 59.8270449,40.5583403 L61.6111397,47.2883745 C61.677734,47.5393175 61.5258354,47.796213 61.2715084,47.8620033 C61.2312347,47.8723418 61.1906438,47.8773544 61.1506872,47.8773544" id="Fill-27" fill="#000000" mask="url(#mask-4)"></path>
                                <path d="M81.2370696,42.0540044 C77.3799874,39.9057946 69.3255576,36.5028697 68.6960823,36.4330067 L62.9353527,40.6774208 L61.1509409,47.407455" id="Fill-28" fill="#FFFFFF" mask="url(#mask-4)"></path>
                                <path d="M61.1512897,47.8773544 C61.1113331,47.8773544 61.0707422,47.8723418 61.0304685,47.8620033 C60.7761415,47.796213 60.6242429,47.5393175 60.6908372,47.2883745 L62.4752491,40.5583403 C62.5025211,40.4552689 62.5646758,40.3644156 62.6509314,40.3008183 L68.4119781,36.0564042 C68.5083814,35.9849747 68.630471,35.9527062 68.7490724,35.9661775 C69.5034914,36.0498252 77.5975607,39.4875249 81.4704987,41.6445068 C81.6994565,41.7720147 81.7806382,42.0586724 81.6515719,42.2848657 C81.5225057,42.511059 81.2317103,42.590634 81.0037039,42.4634394 C77.2208269,40.3565834 70.0879363,37.3584255 68.7979083,36.94426 L63.3533434,40.9559017 L61.6111079,47.5264728 C61.5549784,47.7376283 61.362489,47.8773544 61.1512897,47.8773544" id="Fill-29" fill="#000000" mask="url(#mask-4)"></path>
                                <path d="M59.4319184,40.6775148 L55.5504183,45.3884134 C55.5504183,45.3884134 53.4815534,42.5954586 52.4781983,38.5161468 C52.184866,37.3231494 52.3415213,36.0427449 53.0014397,35.0023183 C53.844017,33.6746075 54.9843662,33.4340029 54.9843662,33.4340029 C54.9843662,33.4340029 55.9886726,36.9841727 59.4319184,40.6775148" id="Fill-30" fill="#FFFFFF" mask="url(#mask-4)"></path>
                                <path d="M54.6875773,34.0484217 C54.3438235,34.2219827 53.8351694,34.5731776 53.4042088,35.2520708 C52.8368882,36.1465056 52.6678654,37.2956428 52.9405851,38.4049925 C53.6639268,41.3464454 54.9688592,43.6243562 55.5891381,44.5971127 L58.8050117,40.6938683 C56.2287612,37.8313638 55.0773129,35.1273825 54.6875773,34.0484217 M55.55045,45.8584067 C55.5463275,45.8584067 55.542205,45.8584067 55.5380825,45.8584067 C55.3909406,45.8546473 55.2533123,45.7835311 55.1664225,45.6660484 C55.0795327,45.5488791 53.0300119,42.7499718 52.0158748,38.6271131 C51.6832201,37.2727728 51.8953707,35.8607877 52.5980998,34.7526911 C53.5370804,33.2733493 54.8302795,32.9857517 54.8848235,32.9744734 C55.1299541,32.9224677 55.3741335,33.0684595 55.4423134,33.306871 C55.452144,33.3416459 56.4653297,36.8019023 59.781729,40.3592777 C59.9418726,40.530959 59.9501177,40.7928671 59.800756,40.9742603 L55.9192559,45.685159 C55.8288779,45.7951227 55.6931522,45.8584067 55.55045,45.8584067" id="Fill-31" fill="#000000" mask="url(#mask-4)"></path>
                                <path d="M62.9353844,40.6775148 L66.8165674,45.3884134 C66.8165674,45.3884134 68.8857494,42.5954586 69.8887874,38.5161468 C70.1824368,37.3231494 70.0257815,36.0427449 69.365546,35.0023183 C68.5232858,33.6746075 67.3826195,33.4340029 67.3826195,33.4340029 C67.3826195,33.4340029 66.3786302,36.9841727 62.9353844,40.6775148" id="Fill-32" fill="#FFFFFF" mask="url(#mask-4)"></path>
                                <path d="M63.5621643,40.693743 L66.7780378,44.5969874 C67.3983167,43.6245442 68.7032492,41.3466334 69.4262737,38.4051805 C69.6996277,37.2958308 69.5302878,36.1463803 68.9626501,35.2519455 C68.5358119,34.5790047 68.0239867,34.2262434 67.6783302,34.0508026 C67.2882775,35.13133 66.1365121,37.8334315 63.5621643,40.693743 M66.816726,45.8585947 C66.6740238,45.8585947 66.5382981,45.7949974 66.44792,45.6853469 L62.56642,40.974135 C62.4173754,40.7930551 62.4253033,40.5308337 62.5854469,40.3591524 C65.9129453,36.7901853 66.9147148,33.3418339 66.9248625,33.3073723 C66.9920911,33.0683342 67.2343678,32.9223424 67.4820354,32.974348 C67.5365793,32.9859397 68.8300956,33.2735373 69.768759,34.7528791 C70.4718052,35.8606624 70.6842729,37.2729608 70.350984,38.6269878 C69.3371641,42.7501598 67.2873261,45.549067 67.2007535,45.6662364 C67.1132294,45.7837191 66.9762353,45.854522 66.8287764,45.8582814 C66.8246539,45.8585947 66.8205314,45.8585947 66.816726,45.8585947" id="Fill-33" fill="#000000" mask="url(#mask-4)"></path>
                                <polygon id="Fill-34" fill="#000000" mask="url(#mask-4)" points="60.6760279 83.5107583 61.627376 83.5107583 61.627376 46.2947531 60.6760279 46.2947531"></polygon>
                                <line x1="67.1164323" y1="55.883877" x2="75.8364886" y2="55.883877" id="Fill-35" fill="#FFFFFF" mask="url(#mask-4)"></line>
                                <path d="M75.8364886,56.3538077 L67.1164323,56.3538077 C66.8538603,56.3538077 66.6407583,56.1432787 66.6407583,55.883877 C66.6407583,55.6244752 66.8538603,55.4139463 67.1164323,55.4139463 L75.8364886,55.4139463 C76.0990607,55.4139463 76.3121627,55.6244752 76.3121627,55.883877 C76.3121627,56.1432787 76.0990607,56.3538077 75.8364886,56.3538077" id="Fill-36" fill="#000000" mask="url(#mask-4)"></path>
                                <path d="M62.8273113,1.91490495 C52.4144897,-0.870844246 46.3195198,9.21386859 48.6455658,17.4577062 C50.2634917,23.7356671 55.5932607,25.6269815 60.8821216,25.9753568 C66.1602007,26.4606386 71.7262211,25.4289841 74.3319634,19.4843607 C77.9531112,11.7098272 73.5556634,0.797409742 62.8273113,1.91490495" id="Fill-37" fill="#000000" mask="url(#mask-4)"></path>
                                <path d="M72.3897229,18.7512688 C72.3234457,18.7343513 72.2562171,18.7236995 72.1899398,18.7127345 C72.1020987,12.3840211 67.9561238,7.13990777 62.4398907,6.70475194 C56.9236575,6.26959611 51.9874295,10.7969085 50.8848171,17.031949 C50.8169543,17.0322623 50.7494086,17.031949 50.6805944,17.0385281 C49.0848666,17.1851464 47.9308814,18.7954423 48.1043439,20.6353776 C48.2746352,22.4499367 49.6731168,23.8074099 51.2428411,23.7030853 C52.5788509,28.1834046 57.0505039,31.5800637 60.4074941,31.8451046 C63.7651185,32.1098322 68.7254473,29.45723 70.7638691,25.2432048 C72.2974421,25.59252 73.896024,24.4712653 74.3561593,22.7065189 C74.8229541,20.9173361 73.9423229,19.1466372 72.3897229,18.7512688" id="Fill-38" fill="#FFFFFF" mask="url(#mask-4)"></path>
                                <path d="M51.5913516,23.2088121 L51.6991711,23.5703455 C52.7269441,27.0171305 56.5716587,31.0710661 60.4452309,31.376521 C64.3251454,31.681976 68.7663553,28.2824973 70.334494,25.040602 L70.4990772,24.7006855 L70.8707372,24.785273 C72.1506174,25.0763167 73.5040686,24.0907154 73.8957069,22.5894435 C74.2962244,21.0540232 73.5671747,19.5364604 72.2711215,19.2062557 L72.269853,19.2059424 C72.2238712,19.1943508 72.1775723,19.1871452 72.1315905,19.1796263 L71.7399522,19.1150892 L71.7142658,18.7194075 C71.6286445,12.5489041 67.6253718,7.58518277 62.4021539,7.17321019 C57.1808386,6.7615509 52.4285379,11.0338475 51.3531975,17.1128711 L51.2847004,17.4994674 L50.887354,17.5016604 C50.8223453,17.5019737 50.7741436,17.5016604 50.7253078,17.5063597 C49.392152,17.628855 48.4290707,19.0129576 48.5777981,20.5916114 C48.7227201,22.1358037 49.9042944,23.3200291 51.2111295,23.2341884 L51.5913516,23.2088121 Z M60.8704835,32.3326733 C60.7001922,32.3326733 60.5327549,32.3264076 60.3697573,32.3135628 C56.9639312,32.0447625 52.4209271,28.7304979 50.8936964,24.1737365 C49.2110788,24.0791238 47.8125971,22.6157596 47.6308896,20.6787052 C47.4387173,18.6417123 48.7084499,16.8425043 50.4849338,16.5884284 C51.7689366,10.2227472 56.8643568,5.79443351 62.4776275,6.23616837 C68.087727,6.67884309 72.4103354,11.8512137 72.6561004,18.3378238 C74.3685269,18.8675923 75.3335109,20.8428677 74.8166118,22.8237823 C74.3253991,24.7075778 72.707156,25.9328438 71.0331006,25.7627289 C68.9008125,29.8179175 64.2506231,32.3326733 60.8704835,32.3326733 L60.8704835,32.3326733 Z" id="Fill-39" fill="#000000" mask="url(#mask-4)"></path>
                                <path d="M59.0361576,23.1611612 L63.4738792,23.6476961 C63.4738792,23.6476961 63.4669026,26.7749283 60.8240577,26.4851377 C58.1815299,26.1956603 59.0361576,23.1611612 59.0361576,23.1611612" id="Fill-40" fill="#FFFFFF" mask="url(#mask-4)"></path>
                                <path d="M59.3520368,23.5898006 C59.2797344,24.0415607 59.2223364,24.8698919 59.6187314,25.4466535 C59.874644,25.8194652 60.2834066,26.0318738 60.8675343,26.0960977 C61.4595899,26.1609481 61.9213108,26.0393927 62.2790177,25.7245392 C62.8165294,25.2524154 62.9922116,24.4525934 63.0496096,23.9951942 L59.3520368,23.5898006 Z M61.1624522,26.8959197 C61.0384598,26.8959197 60.9112963,26.8887141 60.7803274,26.8743029 C59.9615338,26.7847028 59.3488657,26.451052 58.9603986,25.8830624 C58.188221,24.7549155 58.6347204,23.1248825 58.6543816,23.0562726 C58.7063886,22.8711199 58.8849249,22.751131 59.0799513,22.7718079 L63.5176729,23.2583428 C63.7190415,23.2802729 63.870623,23.4485081 63.8703064,23.6483853 C63.8699888,23.7188749 63.8544501,25.3846226 62.8092357,26.3069399 C62.3655904,26.6985489 61.8128572,26.8959197 61.1624522,26.8959197 L61.1624522,26.8959197 Z" id="Fill-41" fill="#000000" mask="url(#mask-4)"></path>
                                <path d="M59.7793824,16.8457625 C59.6924926,16.8457625 59.6046515,16.8175666 59.5313977,16.7592952 C58.3717044,15.8385443 56.8336917,16.3435632 56.8184701,16.3488891 C56.613296,16.4187521 56.386241,16.3106681 56.3148899,16.1064048 C56.2438559,15.9024549 56.3519924,15.6800211 56.558435,15.6089049 C56.6383482,15.5816489 58.5213831,14.9525683 60.0280013,16.1490119 C60.1986098,16.2843519 60.2258817,16.5309089 60.0888876,16.6994574 C60.01056,16.7956365 59.8954468,16.8457625 59.7793824,16.8457625" id="Fill-42" fill="#000000" mask="url(#mask-4)"></path>
                                <path d="M66.5859289,17.1513427 C66.5225057,17.1513427 66.4578141,17.136305 66.3978791,17.1043497 C66.3845603,17.0971441 64.9464391,16.3574732 63.6545084,17.0846126 C63.4639217,17.1914435 63.2225964,17.1262798 63.1141427,16.9379942 C63.0056891,16.7500219 63.0719663,16.5109838 63.262553,16.4041529 C64.9416824,15.4592789 66.7004078,16.3756438 66.774613,16.415118 C66.9671024,16.5178762 67.0390877,16.7553478 66.9350737,16.9458264 C66.8634054,17.0767804 66.7267284,17.1513427 66.5859289,17.1513427" id="Fill-43" fill="#000000" mask="url(#mask-4)"></path>
                                <path d="M56.8860158,22.1509041 C56.8558898,22.5240291 56.186775,22.7752854 55.3923994,22.712628 C54.5970724,22.6499706 53.9771106,22.296896 54.0072366,21.923771 C54.0376797,21.5509593 54.7061603,21.2990764 55.5014873,21.3617339 C56.29618,21.4243913 56.916459,21.7780925 56.8860158,22.1509041" id="Fill-44" fill="#FBC8C6" mask="url(#mask-4)"></path>
                                <path d="M68.6753747,23.081085 C68.6449315,23.45421 67.9767681,23.7054662 67.1814411,23.6428088 C66.3861141,23.5801514 65.7658352,23.2270768 65.7959612,22.8539518 C65.8264043,22.4811401 66.495202,22.2292573 67.290529,22.2919147 C68.085856,22.3545721 68.7055007,22.7082733 68.6753747,23.081085" id="Fill-45" fill="#FBC8C6" mask="url(#mask-4)"></path>
                                <path d="M64.0229973,21.272447 L63.8260682,21.2567827 C63.3652986,21.2204414 63.0215449,20.8219401 63.0583303,20.3667339 L63.1518795,19.2085114 C63.1931046,18.6994198 63.6443607,18.3203424 64.1593571,18.3610697 C64.6743536,18.4014837 65.0586982,18.8466647 65.0174731,19.3557563 L64.9239239,20.5139789 C64.8871384,20.9691851 64.4837668,21.3087883 64.0229973,21.272447" id="Fill-46" fill="#000000" mask="url(#mask-4)"></path>
                                <path d="M58.6920867,20.8518277 L58.4951576,20.8361634 C58.0340709,20.7998221 57.6906343,20.4013208 57.7271026,19.9461146 L57.820969,18.7878921 C57.8621941,18.2788005 58.3134502,17.8997231 58.8281295,17.9404504 C59.343443,17.9808644 59.7274705,18.4260454 59.6865625,18.935137 L59.5926962,20.0933596 C59.5559107,20.5485658 59.1528563,20.888169 58.6920867,20.8518277" id="Fill-47" fill="#000000" mask="url(#mask-4)"></path>
                                <path d="M51.0562183,16.1735109 C51.0562183,16.1735109 51.3191075,17.4429504 51.7957329,18.0544869 C52.4838747,18.9370168 53.8709401,18.540082 54.0393287,17.4178874 C54.5692296,13.8934072 55.2538831,7.36826276 60.7954855,7.05058961 C61.6199872,7.00328325 62.3690152,7.24576749 62.3690152,7.24576749 L62.5098147,5.50232459 C56.3996233,4.35224752 52.0871625,9.19190717 51.0562183,16.1735109" id="Fill-48" fill="#000000" mask="url(#mask-4)"></path>
                                <path d="M51.5393446,16.1576899 C51.6256001,16.5345744 51.8621687,17.3694846 52.1726253,17.7679858 C52.3663832,18.0164225 52.6613011,18.1188674 52.9606586,18.0417988 C53.2140343,17.976635 53.5070495,17.7604669 53.5688871,17.3488076 L53.644995,16.8337636 C54.1888489,13.1206845 55.0999233,6.90632088 60.768055,6.58144212 C61.2047238,6.55637915 61.6223656,6.6039988 61.9391645,6.66133034 L62.0010021,5.89409015 C59.8918634,5.59020163 57.9787025,6.03005677 56.3097209,7.20425695 C53.8450952,8.93830123 52.1529641,12.1156593 51.5393446,16.1576899 M52.7634124,19.0073497 C52.2446106,19.0073497 51.753715,18.7708179 51.4188405,18.3413013 C50.8905252,17.6633479 50.619391,16.4086329 50.5902163,16.2676537 C50.5794344,16.2143949 50.5775317,16.1595697 50.5854596,16.1056843 C51.2263511,11.7679106 53.0630871,8.33459692 55.757939,6.43858319 C57.7281808,5.05260091 60.0941835,4.56919886 62.5987658,5.040696 C62.837237,5.08549606 63.0034058,5.30041103 62.9840617,5.5397624 L62.8432622,7.2832053 C62.8315289,7.42669081 62.7538355,7.55733155 62.6323801,7.63690648 C62.5109246,7.71710798 62.358709,7.73715836 62.2210806,7.6923583 C62.2153725,7.69047858 61.5376956,7.47869647 60.8229161,7.51973709 C55.930133,7.80012907 55.1214871,13.3174288 54.5865124,16.968477 L54.5097703,17.4869673 C54.4013167,18.2103472 53.899322,18.7717578 53.2000812,18.9512713 C53.0542078,18.9888658 52.9077002,19.0073497 52.7634124,19.0073497" id="Fill-49" fill="#000000" mask="url(#mask-4)"></path>
                                <path d="M62.5098782,5.50219928 L62.3690787,7.24595546 C62.3690787,7.24595546 63.1932632,7.04889786 64.1465139,7.33931503 C69.3415086,8.92172834 69.0561042,15.0671688 69.0132935,18.5991679 C68.9993404,19.7338939 70.3052242,20.3432374 71.1262375,19.5797566 C71.6951437,19.0506147 72.1587673,17.8385067 72.1587673,17.8385067 C72.2757831,9.87224151 69.2286153,5.52162308 62.5098782,5.50219928" id="Fill-50" fill="#000000" mask="url(#mask-4)"></path>
                                <path d="M63.0561422,6.71117433 C63.4017987,6.71117433 63.8311738,6.75158837 64.2865524,6.89006128 C69.63186,8.5185278 69.5459216,14.58408 69.4942317,18.2081856 L69.4888407,18.6048071 C69.4837668,19.0208524 69.7380939,19.2805674 69.9781507,19.3845788 C70.2622867,19.5077006 70.5689379,19.4525621 70.8001154,19.2376471 C71.1708241,18.892718 71.5383615,18.1054274 71.6842349,17.7470269 C71.7359248,13.3616336 70.7950416,10.1657916 68.8869545,8.24753443 C67.4738855,6.82709057 65.4776401,6.06517626 62.9483228,5.97996215 L62.8893392,6.7143072 C62.9422976,6.71242747 62.9977929,6.71117433 63.0561422,6.71117433 M70.2828992,20.3896039 C70.0523559,20.3896039 69.8192756,20.3422975 69.5953917,20.2451785 C68.9338877,19.9578942 68.5286134,19.3250542 68.5374926,18.5935287 L68.5432007,18.1950275 C68.5939393,14.6166619 68.6706814,9.20932593 64.0062218,7.78825549 C63.20043,7.54263838 62.4878703,7.70084838 62.4808938,7.7027281 C62.3315321,7.73812955 62.1761453,7.70084838 62.0600808,7.6031028 C61.9440163,7.50535721 61.8828129,7.35873883 61.8948634,7.20836101 L62.0356629,5.46491811 C62.0556412,5.22055414 62.2617666,5.03226857 62.5097513,5.03226857 L62.5110198,5.03226857 C65.5131571,5.04104061 67.8864534,5.9010138 69.5655828,7.58869159 C71.6705989,9.70525946 72.7031287,13.1561172 72.6343145,17.8453991 C72.6333631,17.899911 72.6232154,17.9537964 72.6035542,18.0045489 C72.5521814,18.1389491 72.0831668,19.3353927 71.4524231,19.9218662 C71.1216711,20.2295142 70.7068833,20.3896039 70.2828992,20.3896039" id="Fill-51" fill="#000000" mask="url(#mask-4)"></path>
                                <path d="M76.607588,7.55275755 C75.4041327,6.23225228 72.6319044,5.67710748 71.2657686,3.16924398 C70.2659018,1.33400794 68.8797877,0.720905024 67.0541507,0.648535696 C64.5299072,0.5485971 64.0279126,1.90262409 62.651629,1.80519179 C61.2750284,1.7077595 60.973451,0.297027532 58.4603066,0.0410719433 C56.6429147,-0.14439404 55.1825954,0.267265254 53.9284015,1.94335142 C52.2147066,4.23348037 49.3907884,4.39294352 48.0087968,5.53080239 C46.6274394,6.66834797 46.0207965,8.30777955 45.9193193,9.70973947 C45.7674208,11.8037507 47.6929492,14.5766551 51.4742407,14.7796652 C55.2555321,14.9826752 56.7764205,12.0311971 58.4063969,9.61418689 C58.9194906,8.85509217 59.7373328,8.0825261 60.6877295,8.48290705 C61.0749282,8.64644294 61.6657153,9.21944511 62.1138003,9.22633742 C62.5583969,9.28241582 63.2259261,8.79870048 63.632786,8.691243 C64.6310672,8.42839509 65.3296738,9.30841865 65.7273373,10.1317372 C66.9929473,12.7536373 68.0724103,15.8887016 71.8445053,16.2198461 C75.6166004,16.5509906 77.922351,14.0772754 78.0739324,11.9832642 C78.1754096,10.5813043 77.8113604,8.87326282 76.607588,7.55275755" id="Fill-52" fill="#000000" mask="url(#mask-4)"></path>
                                <path d="M89.2705697,72.2431046 C89.2705697,72.2431046 80.4658434,88.5431208 79.6762245,90.0497187 L79.6524408,90.0356207 C78.1369434,92.9886653 77.19828,94.8358062 77.19828,94.8358062 L85.8539617,99.5301006 L88.44036,95.2233424 L98.8170304,78.0307711" id="Fill-54" fill="#FFFFFF" mask="url(#mask-4)"></path>
                                <path d="M85.8535178,100 C85.7761415,100 85.6974967,99.9812028 85.6248771,99.9420419 L76.9691953,95.2480608 C76.7449943,95.1261921 76.6584217,94.851126 76.7729005,94.6252459 C76.7729005,94.6252459 77.7118811,92.7771651 79.2280128,89.8231807 C79.2536992,89.7730548 79.2882648,89.728568 79.3291728,89.6909736 C80.4764985,87.5261595 88.7652771,72.1807291 88.8508984,72.0218925 C88.9745736,71.7928796 89.2628321,71.7064124 89.4943268,71.8285943 C89.7264557,71.9507763 89.8136626,72.235241 89.6903045,72.4642539 C89.6021462,72.6274765 80.8779674,88.7789947 80.0988134,90.2658555 C80.0737612,90.3128485 80.0417325,90.3551423 80.0036785,90.390857 C78.9435597,92.4563591 78.1758218,93.9613905 77.829214,94.6421634 L85.6794211,98.8994223 L88.0311535,94.9836464 L98.4087752,77.7901352 C98.5432324,77.5670748 98.8352963,77.4943922 99.0607658,77.6269126 C99.2862353,77.7600596 99.3604404,78.0482838 99.2256661,78.2713443 L88.8486786,95.4639156 L86.2629145,99.769734 C86.1744392,99.9172922 86.0161983,100 85.8535178,100" id="Fill-55" fill="#000000" mask="url(#mask-4)"></path>
                            </g>
                        </g>
                    </g>
                </g>
            </g>
        </g>
    </g>
</svg>