<svg xmlns="http://www.w3.org/2000/svg" width="40" height="40" viewBox="0 0 40 40">
    <g fill="none" fill-rule="evenodd">
        <g>
            <g transform="translate(-24 -300) translate(24 300)">
                <circle cx="20" cy="20" r="19.5" stroke="#EEE"/>
                <g>
                    <g>
                        <path d="M0 0H20V20H0z" transform="translate(10 10)"/>
                    </g>
                    <path stroke="#000" stroke-linejoin="round" stroke-width="1.2" d="M14.8 3C16.567 3 18 4.433 18 6.2v5.6c0 1.767-1.433 3.2-3.2 3.2h-2.425L10.5 18l-1.875-3H5.2C3.433 15 2 13.567 2 11.8V6.2C2 4.433 3.433 3 5.2 3h9.6z" transform="translate(10 10)"/>
                    <g stroke="#000" stroke-linecap="round" stroke-width=".8">
                        <path d="M7 4H2C.895 4 0 3.105 0 2s.895-2 2-2h.75" transform="translate(10 10) translate(6.5 6.5)"/>
                        <path stroke-linejoin="round" d="M5 2L7 4 5 6" transform="translate(10 10) translate(6.5 6.5)"/>
                    </g>
                </g>
            </g>
        </g>
    </g>
</svg>
