<svg xmlns="http://www.w3.org/2000/svg" width="24" height="24" viewBox="0 0 24 24">
    <defs>
        <radialGradient id="tat7cxgf7a" cx="60.674%" cy="37.896%" r="47.491%" fx="60.674%" fy="37.896%">
            <stop offset="0%" stop-color="#FFF"/>
            <stop offset="100%" stop-color="#CE9B50"/>
        </radialGradient>
        <radialGradient id="x08ncf4utb" cx="58.184%" cy="37.316%" r="60.019%" fx="58.184%" fy="37.316%">
            <stop offset="0%" stop-color="#00BFF2"/>
            <stop offset="21.91%" stop-color="#0096D5"/>
            <stop offset="27.83%" stop-color="#0086C9"/>
            <stop offset="36.77%" stop-color="#0074BC"/>
            <stop offset="46.29%" stop-color="#0069B4"/>
            <stop offset="100%" stop-color="#0066B2"/>
        </radialGradient>
    </defs>
    <g fill="none" fill-rule="evenodd">
        <g>
            <g>
                <path d="M0 0H24V24H0z" transform="translate(-80 -326) translate(80 326)"/>
                <path fill="url(#tat7cxgf7a)" fill-rule="nonzero" d="M11.456.973C5.398 1.245.726 6.387.997 12.42c.272 6.058 5.39 10.731 11.448 10.46 6.058-.273 10.73-5.391 10.459-11.449C22.632 5.374 17.514.701 11.456.973z" transform="translate(-80 -326) translate(80 326)"/>
                <path fill="url(#x08ncf4utb)" fill-rule="nonzero" d="M11.456.824C5.324 1.096.576 6.288.849 12.42c.272 6.132 5.464 10.88 11.596 10.607 6.132-.272 10.88-5.464 10.607-11.596C22.78 5.3 17.588.552 11.456.824zm1.286 10.78c1.978 1.83 3.066 2.794 3.066 2.794 3.486 2.893 2.3 5.539.964 6.478-1.014.693-2.151 1.039-3.61 1.113-.124.025-.37-.05-.396-.297 0-.247.347-.321.347-.321 3.288-.643 2.324-2.794 1.162-3.907-.495-.47-5.069-4.4-5.069-4.4C4.854 9.33 5.201 6.386 5.201 6.386c.222-3.61 3.362-4.5 5.76-4.302.273.025.446.198.396.42-.05.248-.42.272-.42.272-.767.05-1.434.124-1.953.47-1.93 1.286-1.36 3.511 1.211 5.959.321.321.668.643 1.014.964 0 .025.519.47 1.533 1.434zm-1.484 9.347c.025.346-.84.494-1.805.42-1.236-.124-2.695-.52-3.98-1.607-1.163-1.014-1.904-2.423-2.25-3.635-.371-1.26-.52-2.72.074-2.596.173.025.494.84.84 1.434.347.618.643.94.915 1.137.124.1.544-.84 1.162-1.36.346-.296.742-.395.816.47.074 1.063-.123 2.35.198 2.35.297 0 .964-.223 2.398-.347.544-.05.841.05.347.791-.248.371-.594.89-1.435 1.459 1.212 1.137 2.696.989 2.72 1.484zm.965-11.201c-.1-.37-.124-.816-.05-1.385.148-1.211.47-1.78.84-2.72.495-1.26-.716-2.002-.518-2.472.271-.618 1.137.173 2.126.223.84.05 1.335 0 2.003.099.865.123 1.903.395 2.349.94.42.494-.223 1.087-.99.716-.568-.272-1.285-.099-.865.495.495.568.742.568 1.261.717 1.41.37 1.434 1.73.495 2.423-1.088.79-2.2.47-2.646-1.088-.223-.791-.766-1.187-1.335-.964-.544.197-.223 1.236.222 2.175.866 2.176-1.26 2.102-1.508 2.077-1.137-.222-1.384-1.236-1.384-1.236z" transform="translate(-80 -326) translate(80 326)"/>
            </g>
        </g>
    </g>
</svg>
