<svg xmlns="http://www.w3.org/2000/svg" width="24" height="24" viewBox="0 0 24 24">
    <g fill="none" fill-rule="evenodd">
        <g>
            <g>
                <g>
                    <g>
                        <path d="M0 0H24V24H0z" transform="translate(-16.000000, -706.000000) translate(0.000000, 98.000000) translate(0.000000, 598.000000) translate(16.000000, 10.000000)"/>
                        <g fill="#000" fill-rule="nonzero">
                            <g>
                                <path d="M17.6 0h-16C.716 0 0 .716 0 1.6v14c0 .884.716 1.6 1.6 1.6h16c.884 0 1.6-.716 1.6-1.6v-14c0-.884-.716-1.6-1.6-1.6zm-16 1.2h16c.22 0 .4.18.4.4v14c0 .22-.18.4-.4.4h-16c-.22 0-.4-.18-.4-.4v-14c0-.22.18-.4.4-.4z" transform="translate(-16.000000, -706.000000) translate(0.000000, 98.000000) translate(0.000000, 598.000000) translate(16.000000, 10.000000) translate(2.400000, 3.400000) translate(-0.000000, -0.000000)"/>
                                <path d="M6.1 4C4.94 4 4 4.94 4 6.1c0 1.16.94 2.1 2.1 2.1 1.16 0 2.1-.94 2.1-2.1C8.2 4.94 7.26 4 6.1 4zm0 1.2c.497 0 .9.403.9.9s-.403.9-.9.9-.9-.403-.9-.9.403-.9.9-.9zM13.545 8.082c.548-.693 1.554-.81 2.247-.262l.053.044.051.046 3.115 2.931-.822.874-3.115-2.931-.026-.023c-.152-.12-.363-.112-.506.007l-.056.059-2.82 3.563c-.5.631-1.383.787-2.064.387l-.126-.082-1.491-1.075c-.144-.103-.334-.099-.47.002l-.064.058-4.689 5.317-.9-.794 4.689-5.317c.51-.578 1.353-.705 2.007-.323l.128.084 1.492 1.074c.152.11.355.098.493-.02l.054-.056 2.82-3.563z" transform="translate(-16.000000, -706.000000) translate(0.000000, 98.000000) translate(0.000000, 598.000000) translate(16.000000, 10.000000) translate(2.400000, 3.400000) translate(-0.000000, -0.000000)"/>
                            </g>
                        </g>
                    </g>
                </g>
            </g>
        </g>
    </g>
</svg>
