<svg xmlns="http://www.w3.org/2000/svg" xmlns:xlink="http://www.w3.org/1999/xlink" width="24" height="24" viewBox="0 0 24 24">
    <defs>
        <path id="87epcufoma" d="M0 0H24V24H0z"/>
    </defs>
    <g fill="none" fill-rule="evenodd">
        <g>
            <g>
                <g>
                    <g>
                        <g transform="translate(-108.000000, -706.000000) translate(0.000000, 98.000000) translate(0.000000, 598.000000) translate(16.000000, 10.000000) translate(92.000000, 0.000000)">
                            <mask id="bytbecafxb" fill="#fff">
                                <use xlink:href="#87epcufoma"/>
                            </mask>
                            <g fill="#000" fill-rule="nonzero" mask="url(#bytbecafxb)">
                                <g>
                                    <path d="M17.71 6.699c2.77 0 5.038 2.069 5.038 4.65 0 2.51-2.147 4.537-4.815 4.645l-.224.004h-4.2c-.332 0-.6-.268-.6-.6 0-.298.217-.545.502-.592l.098-.008h4.2c2.132 0 3.839-1.557 3.839-3.45 0-1.83-1.599-3.348-3.634-3.444l-.205-.005h-4.2c-.332 0-.6-.269-.6-.6 0-.298.217-.546.502-.592l.097-.008h4.201zm-8.521 0c.331 0 .6.268.6.6 0 .298-.218.545-.503.592l-.097.008H4.948c-2.109 0-3.799 1.556-3.799 3.45 0 1.832 1.583 3.349 3.596 3.445l.203.004h4.084c.332 0 .6.269.6.6 0 .299-.217.546-.503.592l-.097.008H4.948c-2.75 0-4.999-2.07-4.999-4.65 0-2.51 2.129-4.537 4.777-4.645l.222-.004h4.24z" transform="translate(1.151472, 1.151472) translate(11.348528, 11.348528) rotate(-45.000000) translate(-11.348528, -11.348528)"/>
                                    <path d="M15.398 10.749c.332 0 .6.268.6.6 0 .298-.217.545-.502.592l-.098.008h-8.1c-.33 0-.6-.27-.6-.6 0-.299.218-.546.503-.593l.098-.007h8.1z" transform="translate(1.151472, 1.151472) translate(11.348528, 11.348528) rotate(-45.000000) translate(-11.348528, -11.348528)"/>
                                </g>
                            </g>
                        </g>
                    </g>
                </g>
            </g>
        </g>
    </g>
</svg>
