<svg xmlns="http://www.w3.org/2000/svg" width="24" height="24" viewBox="0 0 24 24">
    <g fill="none" fill-rule="evenodd">
        <g>
            <g>
                <g>
                    <g>
                        <g>
                            <path d="M0 0H24V24H0z" transform="translate(-154.000000, -706.000000) translate(0.000000, 98.000000) translate(0.000000, 598.000000) translate(16.000000, 10.000000) translate(138.000000, 0.000000)"/>
                            <g fill="#000" fill-rule="nonzero">
                                <g>
                                    <path d="M7.87 0H2.5C1.118 0 0 1.119 0 2.5v5.37c0 .664.263 1.3.732 1.768l6.83 6.83c.976.976 2.558.976 3.534 0l5.372-5.372c.976-.976.976-2.558 0-3.534L9.638.732C9.17.263 8.534 0 7.871 0zM2.5 1.2h5.37c.345 0 .676.137.92.38l6.83 6.83c.507.508.507 1.33 0 1.838l-5.372 5.371c-.508.508-1.33.508-1.838 0L1.58 8.79c-.243-.243-.38-.574-.38-.918V2.499c0-.717.582-1.299 1.3-1.299z" transform="translate(-154.000000, -706.000000) translate(0.000000, 98.000000) translate(0.000000, 598.000000) translate(16.000000, 10.000000) translate(138.000000, 0.000000) translate(3.400000, 3.607107) translate(-0.000000, -0.000000)"/>
                                    <path d="M5.555 3.055c-1.119 0-2.025.907-2.025 2.025 0 1.118.906 2.024 2.025 2.024 1.118 0 2.024-.906 2.024-2.024 0-1.118-.906-2.025-2.024-2.025zm0 1.2c.455 0 .824.37.824.825 0 .455-.37.824-.824.824-.456 0-.825-.369-.825-.824 0-.456.37-.825.825-.825z" transform="translate(-154.000000, -706.000000) translate(0.000000, 98.000000) translate(0.000000, 598.000000) translate(16.000000, 10.000000) translate(138.000000, 0.000000) translate(3.400000, 3.607107) translate(-0.000000, -0.000000)"/>
                                </g>
                            </g>
                        </g>
                    </g>
                </g>
            </g>
        </g>
    </g>
</svg>
