<svg xmlns="http://www.w3.org/2000/svg" width="24" height="24" viewBox="0 0 24 24">
    <g fill="none" fill-rule="evenodd">
        <g>
            <g>
                <g>
                    <g>
                        <g>
                            <path d="M0 0H24V24H0z" transform="translate(-62.000000, -706.000000) translate(0.000000, 98.000000) translate(0.000000, 598.000000) translate(16.000000, 10.000000) translate(46.000000, 0.000000)"/>
                            <g fill="#000" fill-rule="nonzero">
                                <path d="M17 0c1.657 0 3 1.343 3 3v10c0 1.657-1.343 3-3 3H3c-1.657 0-3-1.343-3-3V3c0-1.657 1.343-3 3-3h14zm0 1.1H3c-1 0-1.819.772-1.894 1.752L1.1 3v10c0 1 .772 1.819 1.752 1.894L3 14.9h14c1 0 1.819-.772 1.894-1.752L18.9 13V3c0-1-.772-1.819-1.752-1.894L17 1.1z" transform="translate(-62.000000, -706.000000) translate(0.000000, 98.000000) translate(0.000000, 598.000000) translate(16.000000, 10.000000) translate(46.000000, 0.000000) translate(2.000000, 4.000000)"/>
                                <path d="M10.071 5.243l-3 5c-.2.333.04.757.429.757h6c.389 0 .629-.424.429-.757l-3-5c-.194-.324-.664-.324-.858 0z" transform="translate(-62.000000, -706.000000) translate(0.000000, 98.000000) translate(0.000000, 598.000000) translate(16.000000, 10.000000) translate(46.000000, 0.000000) translate(2.000000, 4.000000) translate(10.500000, 8.000000) rotate(-270.000000) translate(-10.500000, -8.000000)"/>
                            </g>
                        </g>
                    </g>
                </g>
            </g>
        </g>
    </g>
</svg>
