<svg xmlns="http://www.w3.org/2000/svg" width="88" height="24" viewBox="0 0 88 24">
    <g fill="none" fill-rule="evenodd">
        <g>
            <g>
                <g>
                    <path fill="#222" fill-rule="nonzero" d="M14.854 14.885V4.469H11.99c-.251 0-.385.218-.184.469.318.351.419.653.419 1.239v8.708h2.629zm-11.538-2.73c.887-.586 1.658-1.323 2.277-2.21.52.703 1.306 1.373 2.127 1.875 1.44.888 2.26 1.039 2.478.637l.72-1.357c-1.942-.653-4.086-1.942-4.086-4.136V4.737H3.935c-.234 0-.368.234-.167.485.318.352.352.654.352 1.206v.703c0 2.127-1.893 3.584-4.12 4.455l.77 1.457c.218.418 1.524-.218 2.546-.888zm11.822 7.87v-1.891H6.096c-.52 0-.687-.151-.687-.67V14.03H2.562c-.234 0-.368.234-.167.485.234.285.351.536.351.871v2.428c0 1.692.804 2.21 2.83 2.21h9.562zm6.766-6.43c2.78 0 4.337-1.607 4.337-3.717 0-.854-.318-1.574-.837-2.16h1.758V5.876H23.36V4h-2.864c-.251 0-.385.218-.167.469.318.385.351.653.351 1.24v.167h-4.069v1.842h1.758c-.502.569-.803 1.289-.803 2.16 0 2.11 1.574 3.717 4.337 3.717zm9.243 1.524v-4.806h1.91V8.421h-1.91V4.469h-2.863c-.251 0-.385.218-.168.469.319.385.402.653.402 1.239v8.942h2.63zm-9.243-3.366c-1.173 0-1.826-.887-1.826-1.959 0-1.139.653-2.01 1.826-2.01 1.155 0 1.825.871 1.825 2.01 0 1.072-.67 1.96-1.825 1.96zm9.444 8.273v-1.892h-8.875c-.52 0-.687-.151-.687-.67V14.7H18.94c-.235 0-.369.234-.168.485.235.285.352.536.352.871v1.758c0 1.692.804 2.21 2.83 2.21h9.394zM52.867 6.277V4.553H40.174v1.724h12.693zm-.034 4.053V8.605h-1.959V6.746h-2.528v1.86h-3.584v-1.86h-2.696c-.251 0-.369.218-.168.486.319.385.335.57.335 1.122v.251h-2.026v1.725h12.626zm1.675 2.562v-1.708H38.55v1.708h15.96zm-1.675 7.402v-1.658h-9.377c-.251 0-.318-.084-.318-.301v-.52h9.478v-3.633c0-.285-.117-.369-.385-.369H40.408v1.641h9.528v.77H40.19c-.25 0-.368.218-.167.486.318.385.435.67.435 1.223v.87c0 1.005.436 1.49 1.591 1.49h10.784zm17.4-.067V4.469h-2.864c-.251 0-.385.234-.167.486.318.385.401.653.401 1.239v3.935h-2.897v1.943h2.897v8.155h2.63zm-6.766-2.596c1.122 0 1.976-.134 2.462-.485v-1.357h-6.397c-.436 0-.636-.184-.636-.586v-3.064h5.057V5.474c0-.285-.117-.369-.385-.369h-7.285v1.842h5.057v3.4h-5.325c-.251 0-.368.217-.167.485.318.386.435.704.435 1.256v3.634c0 1.139.888 1.91 2.01 1.91h5.174zm13.23-4.504c1.507-.804 2.545-1.759 3.332-2.78.787 1.021 1.825 1.909 3.332 2.713.972.519 3.182 1.306 3.316.937l.653-1.59c-3.014-.77-5.961-2.764-5.961-4.756V4.97h-2.914c-.251 0-.385.218-.168.47.319.384.402.652.402 1.238v.972c0 1.992-2.947 4.069-5.961 4.84l.653 1.607c.134.368 2.344-.452 3.315-.971zM88 18.753v-1.892H72.041v1.892H88z" transform="translate(-32 -1649) translate(0 1627) translate(32 22)"/>
                </g>
            </g>
        </g>
    </g>
</svg>
