<?xml version="1.0" encoding="UTF-8"?>
<svg width="64px" height="64px" viewBox="0 0 64 64" version="1.1" xmlns="http://www.w3.org/2000/svg" xmlns:xlink="http://www.w3.org/1999/xlink">
    <title>43BC7440-D3B9-450E-9161-93BA9966EAB9</title>
    <defs>
        <rect id="path-1" x="0" y="0" width="64" height="64" rx="32"></rect>
    </defs>
    <g id="all" stroke="none" stroke-width="1" fill="none" fill-rule="evenodd">
        <g id="icon_download_타임라인" transform="translate(-909.000000, -2213.000000)">
            <g id="icon-/-maintenance-fee" transform="translate(909.000000, 2213.000000)">
                <mask id="mask-2" fill="white">
                    <use xlink:href="#path-1"></use>
                </mask>
                <use id="Mask" fill="#32C8F0" xlink:href="#path-1"></use>
                <rect id="Rectangle" mask="url(#mask-2)" x="10" y="10" width="44" height="44"></rect>
                <g id="shape" mask="url(#mask-2)">
                    <g transform="translate(21.000000, 19.000000)" id="Rectangle">
                        <path d="M0.327327206,9.70242981 L10.3273272,0.611520722 C10.7087484,0.264774153 11.2912516,0.264774153 11.6726728,0.611520722 L21.6726728,9.70242981 C21.8811472,9.89195199 22,10.1606249 22,10.4423699 L22,24 C22,24.5522847 21.5522847,25 21,25 L1,25 C0.44771525,25 6.76353751e-17,24.5522847 0,24 L0,10.4423699 C-1.86725105e-15,10.1606249 0.11885281,9.89195199 0.327327206,9.70242981 Z" fill="#FFFFFF"></path>
                        <rect fill="#333D4B" x="9" y="17" width="4" height="8"></rect>
                    </g>
                </g>
            </g>
        </g>
    </g>
</svg>