<svg xmlns="http://www.w3.org/2000/svg" width="36" height="36" viewBox="0 0 36 36">
    <g fill="none" fill-rule="evenodd">
        <g>
            <g transform="translate(-204.000000, -268.000000) translate(204.000000, 268.000000)">
                <circle cx="18" cy="18" r="18" fill="#414E7F"/>
                <g transform="translate(9.000000, 10.000000)">
                    <path stroke="#FFF" stroke-width="1.2" d="M10.775.6c.41 0 .8.18 1.067.493h0l1.351 1.59c.304.358.75.564 1.22.564h1.562c.394 0 .75.16 1.008.417.258.258.417.615.417 1.008h0V12.5c0 .663-.269 1.263-.703 1.697-.434.434-1.034.703-1.697.703h0H3c-.663 0-1.263-.269-1.697-.703C.869 13.763.6 13.163.6 12.5h0V4.672c0-.393.16-.75.417-1.008.258-.257.614-.417 1.008-.417h1.563c.469 0 .915-.206 1.219-.564h0l1.351-1.59C6.424.78 6.814.6 7.225.6h0z"/>
                    <circle cx="9" cy="8" r="3.4" stroke="#FFF" stroke-width="1.2"/>
                    <circle cx="14.75" cy="5.75" r="1" fill="#FFF"/>
                </g>
            </g>
        </g>
    </g>
</svg>
