<svg xmlns="http://www.w3.org/2000/svg" width="48" height="48" viewBox="0 0 48 48">
    <defs>
        <linearGradient id="k6wkoai09b" x1="17.944%" x2="84.356%" y1="50%" y2="50%">
            <stop offset="0%" stop-color="#4868E1" stop-opacity=".392"/>
            <stop offset="100%" stop-color="#4868E1" stop-opacity="0"/>
        </linearGradient>
        <filter id="kow4h1u2ya">
            <feColorMatrix in="SourceGraphic" values="0 0 0 0 0.282353 0 0 0 0 0.407843 0 0 0 0 0.882353 0 0 0 1.000000 0"/>
        </filter>
    </defs>
    <g fill="none" fill-rule="evenodd">
        <g>
            <g>
                <g>
                    <g>
                        <g transform="translate(-156 -996) translate(156 996) translate(.566 5.061)">
                            <g filter="url(#kow4h1u2ya)">
                                <g fill="#000" stroke="#000" stroke-width=".3">
                                    <path fill-rule="nonzero" d="M14.05 0.008L15.477 0.015 11.693 11.935 10.531 11.92 8.055 2.364 5.328 11.935 4.167 11.925 0.77 0.015 2.028 0.015 4.766 9.603 7.504 0 8.666 0.015 11.141 9.571z" transform="translate(24.704 23.172)"/>
                                    <path d="M0.15 5.073H16.016V6.073H0.15z" transform="translate(24.704 23.172)"/>
                                </g>
                            </g>
                            <path stroke="#000" stroke-linecap="round" stroke-linejoin="round" stroke-width="1.8" d="M16.778 35.586h0H3.103C1.39 35.586 0 34.104 0 32.276V3.31C0 1.482 1.39 0 3.103 0h38.794C43.61 0 45 1.482 45 3.31v12.31h0"/>
                            <ellipse cx="32.787" cy="28.552" fill="url(#k6wkoai09b)" opacity=".8" rx="12.528" ry="12.828"/>
                            <ellipse cx="32.787" cy="28.552" stroke="#4868E1" stroke-linecap="round" stroke-width="1.8" rx="12.528" ry="12.828"/>
                            <path stroke="#000" stroke-linecap="round" stroke-width="1.8" d="M15.195 25.655H.242m0-15.724h12.933c2.679 0 4.85 2.223 4.85 4.966v2.275h0"/>
                            <ellipse cx="9.134" cy="17.793" stroke="#000" stroke-width="1.8" rx="3.233" ry="3.31"/>
                        </g>
                    </g>
                </g>
            </g>
        </g>
    </g>
</svg>
