<svg xmlns="http://www.w3.org/2000/svg" width="48" height="48" viewBox="0 0 48 48">
    <defs>
        <linearGradient id="z4mlqeypva" x1="13.45%" x2="84.356%" y1="50%" y2="50%">
            <stop offset="0%" stop-color="#4868E1" stop-opacity=".392"/>
            <stop offset="100%" stop-color="#4868E1" stop-opacity="0"/>
        </linearGradient>
    </defs>
    <g fill="none" fill-rule="evenodd">
        <g>
            <g>
                <g>
                    <g transform="translate(-41 -996) translate(41 996) translate(.58 .828)">
                        <path stroke="#000" stroke-linecap="round" stroke-width="1.8" d="M40.387 13.241h3.147c1.78 0 3.225 1.482 3.225 3.31V41.38c0 1.829-1.444 3.31-3.225 3.31H3.224C1.445 44.69 0 43.209 0 41.38V16.552c0-1.829 1.444-3.31 3.225-3.31h3.147"/>
                        <circle cx="33.352" cy="36.414" r="1.655" fill="#000"/>
                        <circle cx="39.972" cy="36.414" r="1.655" fill="#000"/>
                        <path fill="url(#z4mlqeypva)" d="M31.666 25.47c3.529-2.557 5.824-6.71 5.824-11.401C37.49 6.299 31.19 0 23.42 0 15.65 0 9.353 6.299 9.353 14.069c0 4.588 2.196 8.663 5.594 11.231" opacity=".8"/>
                        <path stroke="#4868E1" stroke-linecap="round" stroke-width="1.8" d="M31.666 25.47c3.529-2.557 5.824-6.71 5.824-11.401C37.49 6.299 31.19 0 23.42 0 15.65 0 9.353 6.299 9.353 14.069c0 4.588 2.196 8.663 5.594 11.231"/>
                        <path fill="#000" fill-rule="nonzero" d="M9.33 19.14c-1.35.212-2.389 1.381-2.389 2.791 0 1.502 1.173 2.73 2.652 2.819l.173.005h27.31c1.56 0 2.824-1.264 2.824-2.824 0-1.42-1.046-2.624-2.41-2.824.22-.594.337-.9.537-1.744 2.09.445 3.673 2.346 3.673 4.568 0 2.483-1.957 4.509-4.412 4.62l-.212.004H9.766c-2.554 0-4.625-2.07-4.625-4.624 0-2.234 1.585-4.098 3.69-4.53.092.358.308 1.133.5 1.74z"/>
                    </g>
                    <g fill="#4868E1" stroke="#4868E1" stroke-width=".3">
                        <path fill-rule="nonzero" d="M14.385 0.008L15.847 0.015 11.972 11.935 10.782 11.92 8.247 2.364 5.455 11.935 4.266 11.925 0.788 0.015 2.077 0.015 4.88 9.603 7.683 0 8.873 0.015 11.407 9.571z" transform="translate(-41 -996) translate(41 996) translate(.58 .828) translate(15.145 8.276)"/>
                        <path d="M0.15 5.073H16.401999999999997V6.073H0.15z" transform="translate(-41 -996) translate(41 996) translate(.58 .828) translate(15.145 8.276)"/>
                    </g>
                </g>
            </g>
        </g>
    </g>
</svg>
