<?xml version="1.0" encoding="UTF-8"?>
<svg width="18px" height="18px" viewBox="0 0 18 18" version="1.1" xmlns="http://www.w3.org/2000/svg" xmlns:xlink="http://www.w3.org/1999/xlink">
    <title>icon / common / heart / line / 18</title>
    <g id="07_디스커버-커뮤니티" stroke="none" stroke-width="1" fill="none" fill-rule="evenodd">
        <g id="07_디스커버_커뮤니티_full" transform="translate(-84.000000, -1378.000000)">
            <g id="+-Contents" transform="translate(-35.000000, 134.000000)">
                <g id="++-List-2" transform="translate(35.000000, 1111.000000)">
                    <g id="List" transform="translate(24.000000, 58.000000)">
                        <g id="Sub-Text" transform="translate(0.000000, 74.000000)">
                            <g id="Heart" transform="translate(60.000000, 0.000000)">
                                <g id="icon-/-common-/-heart-/-line-/-18" transform="translate(0.000000, 1.000000)">
                                    <rect id="Rectangle" x="0" y="0" width="18" height="18"></rect>
                                    <path d="M12.3543807,2.2 C11.2154219,2.2 10.2831467,2.6269573 9.42717871,3.37278119 L9.20539012,3.57443286 L8.999,3.776 L9.01918228,3.7954273 C8.86343545,3.63881295 8.72042578,3.50317655 8.57035206,3.3725776 C7.7143699,2.62767454 6.79208411,2.2 5.68125,2.2 C3.04697511,2.2 1.3,4.30351964 1.3,7.09708904 C1.3,8.61313511 1.91630653,10.1622711 3.06938743,11.5780001 C4.30233676,13.0918294 6.13963113,14.4716281 8.52831967,15.686621 C8.67526883,15.7613583 8.83663641,15.8 9,15.8 C9.16336359,15.8 9.32473117,15.7613583 9.47166215,15.6866303 C11.8603689,14.4716281 13.6976632,13.0918294 14.9306166,11.5779951 C16.0836935,10.1622711 16.7,8.61313511 16.7,7.09708904 C16.7,4.30666451 14.9658115,2.2 12.3543807,2.2 Z M12.3543807,3.2 C14.3658829,3.2 15.7,4.82066421 15.7,7.09708904 C15.7,8.36879275 15.1703078,9.70021667 14.1552499,10.9464838 C13.0188834,12.3417277 11.2912122,13.6391999 9.01831342,14.795297 L9,14.8 L8.9816684,14.7952878 C6.70878776,13.6391999 4.98111659,12.3417277 3.84475411,10.9464888 C2.82969221,9.70021667 2.3,8.36879275 2.3,7.09708904 C2.3,4.81900649 3.64458646,3.2 5.68125,3.2 C6.51910577,3.2 7.22472635,3.52720439 7.91388698,4.12693402 C8.00053593,4.2023387 8.08551575,4.2806782 8.17403348,4.36624953 L8.40515217,4.59737852 L8.64371735,4.84252882 C8.83958721,5.04145829 9.16041279,5.04145829 9.35628265,4.84252882 L9.68962866,4.49984773 C9.82949755,4.35862805 9.95476986,4.23942858 10.0841114,4.12673042 C10.7725838,3.52684918 11.4862696,3.2 12.3543807,3.2 Z" id="Path" fill="#666666" fill-rule="nonzero"></path>
                                </g>
                            </g>
                        </g>
                    </g>
                </g>
            </g>
        </g>
    </g>
</svg>