<?xml version="1.0" encoding="UTF-8"?>
<svg width="64px" height="64px" viewBox="0 0 64 64" version="1.1" xmlns="http://www.w3.org/2000/svg" xmlns:xlink="http://www.w3.org/1999/xlink">
    <title>B6839EA0-D23F-4468-B85C-47BC72927C88</title>
    <defs>
        <rect id="path-1" x="0" y="0" width="64" height="64" rx="32"></rect>
    </defs>
    <g id="all" stroke="none" stroke-width="1" fill="none" fill-rule="evenodd">
        <g id="icon_download_타임라인" transform="translate(-389.000000, -2367.000000)">
            <g id="icon-/--payment-history" transform="translate(389.000000, 2367.000000)">
                <mask id="mask-2" fill="white">
                    <use xlink:href="#path-1"></use>
                </mask>
                <use id="Mask" fill="#55D26E" xlink:href="#path-1"></use>
                <g id="shape" mask="url(#mask-2)">
                    <g transform="translate(16.000000, 20.000000)" id="Rectangle">
                        <rect fill="#31C04D" x="0" y="0" width="32" height="8" rx="4"></rect>
                        <rect fill="#35424F" x="2" y="2" width="28" height="4" rx="2"></rect>
                        <path d="M5.5,4 L26.5,4 C27.0522847,3.9994571 27.5,4.44717235 27.5,4.9994571 C27.5,4.99963812 27.5,4.99981913 27.499457,4.99999985 L27.4887353,24.7436644 C27.4886259,24.945134 27.4276644,25.1418725 27.3138372,25.3081054 L25.7503796,27.5913761 C25.4383475,28.0470673 24.8159848,28.1635259 24.3602937,27.8514938 C24.283145,27.7986666 24.2137866,27.7352805 24.1542449,27.6631873 L22.4610721,25.6130906 C22.2500567,25.3575927 21.871873,25.3215326 21.6163752,25.532548 C21.5870289,25.5567851 21.5600554,25.5837595 21.5358193,25.6131067 L19.7676187,27.754199 C19.4159412,28.1800409 18.7856371,28.2401631 18.3597952,27.8884856 C18.3110453,27.8482259 18.2662234,27.8034338 18.2259314,27.7547106 L16.4545316,25.612642 C16.2433555,25.3572769 15.8651492,25.3214547 15.6097842,25.5326307 C15.5804958,25.5568509 15.553575,25.5837992 15.5293845,25.6131122 L13.7638177,27.7525515 C13.4122904,28.1785175 12.7820076,28.2388619 12.3560416,27.8873346 C12.3069049,27.8467846 12.2617555,27.8016318 12.2212093,27.7524919 L10.4565085,25.6137653 C10.2456119,25.3581694 9.86744501,25.3219335 9.61184914,25.5328301 C9.58236708,25.5571563 9.55527697,25.584244 9.53094816,25.6137239 L7.83733637,27.6659203 C7.48580388,28.091882 6.85552032,28.1522188 6.42955864,27.8006863 C6.35818389,27.741783 6.29533092,27.6732573 6.24279905,27.597071 L4.66547097,25.3094911 C4.55026752,25.1424129 4.48862638,24.9442371 4.48873659,24.7412915 L4.49945696,4.99999985 C4.50029995,4.44792754 4.94792731,4.00054319 5.5,4 Z" fill="#FFFFFF"></path>
                        <rect fill="#55D26E" x="7" y="7" width="18" height="2" rx="1"></rect>
                        <rect fill="#55D26E" x="7" y="11" width="18" height="2" rx="1"></rect>
                        <rect fill="#55D26E" x="20" y="15" width="5" height="2" rx="1"></rect>
                    </g>
                </g>
            </g>
        </g>
    </g>
</svg>