<?xml version="1.0" encoding="UTF-8"?>
<svg width="64px" height="64px" viewBox="0 0 64 64" version="1.1" xmlns="http://www.w3.org/2000/svg" xmlns:xlink="http://www.w3.org/1999/xlink">
    <title>14BF8911-4BE5-4EA6-859B-9516FBD30DC7</title>
    <defs>
        <rect id="path-1" x="0" y="0" width="64" height="64" rx="32"></rect>
    </defs>
    <g id="all" stroke="none" stroke-width="1" fill="none" fill-rule="evenodd">
        <g id="icon_download_타임라인" transform="translate(-389.000000, -2059.000000)">
            <g id="icon-/-culture" transform="translate(389.000000, 2059.000000)">
                <mask id="mask-2" fill="white">
                    <use xlink:href="#path-1"></use>
                </mask>
                <use id="Mask" fill="#F66645" xlink:href="#path-1"></use>
                <rect id="Rectangle" mask="url(#mask-2)" x="10" y="10" width="44" height="44"></rect>
                <g id="shape" mask="url(#mask-2)">
                    <g transform="translate(16.000000, 21.000000)">
                        <g id="back" transform="translate(0.000000, -0.000000)">
                            <path d="M8.82758621,9.72766841e-16 L23.1724138,9.72766841e-16 C25.6100844,1.80188203e-15 27.5862069,1.97612248 27.5862069,4.4137931 L27.5862069,16.4285714 L27.5862069,16.4285714 L4.4137931,16.4285714 L4.4137931,4.4137931 C4.4137931,1.97612248 6.38991559,2.30873809e-15 8.82758621,9.72766841e-16 Z" id="Rectangle" fill="#FFFFFF"></path>
                            <path d="M13.408345,3.59270184 L16.8617978,17.7666836 C17.3075089,19.5960126 16.2518545,21.456111 14.452775,22.0114628 C12.6029068,22.5824923 10.6107527,21.7372536 9.73593137,20.0101826 L2.83726148,6.39083801 C1.8051919,4.35332767 2.62026267,1.86494149 4.65777301,0.832871909 C5.15870882,0.579130568 5.70607246,0.430064267 6.26649638,0.394760163 L8.84250508,0.232483581 C10.9776834,0.0979772634 12.9018989,1.51409873 13.408345,3.59270184 Z" id="Rectangle" fill="#FFFFFF" transform="translate(8.827586, 11.500000) scale(-1, 1) translate(-8.827586, -11.500000) "></path>
                            <path d="M27.7531726,3.59270184 L31.2066253,17.7666836 C31.6523365,19.5960126 30.5966821,21.456111 28.7976025,22.0114628 C26.9477344,22.5824923 24.9555803,21.7372536 24.080759,20.0101826 L17.1820891,6.39083801 C16.1500195,4.35332767 16.9650903,1.86494149 19.0026006,0.832871909 C19.5035364,0.579130568 20.0509,0.430064267 20.611324,0.394760163 L23.1873327,0.232483581 C25.322511,0.0979772634 27.2467265,1.51409873 27.7531726,3.59270184 Z" id="Rectangle" fill="#FFFFFF"></path>
                        </g>
                        <g id="minus-" transform="translate(7.724138, 6.023810)">
                            <rect id="Rectangle" fill="#333D4B" x="0" y="1.64285714" width="5.51724138" height="2.19047619"></rect>
                            <rect id="Rectangle" fill="#333D4B" x="11.0344828" y="1.64285714" width="5.51724138" height="2.19047619"></rect>
                            <polygon id="Rectangle" fill="#333D4B" transform="translate(13.793103, 2.738095) rotate(-270.000000) translate(-13.793103, -2.738095) " points="11.0550082 1.63464696 16.5311987 1.63464696 16.5311987 3.84154351 11.0550082 3.84154351"></polygon>
                        </g>
                    </g>
                </g>
            </g>
        </g>
    </g>
</svg>