<svg width="22" height="22" xmlns="http://www.w3.org/2000/svg">
    <g fill="#1B1F42" fill-rule="evenodd">
        <path d="M11 22c9.174 0 11-2.614 11-11S19.65 0 11 0 0 2.002 0 11c0 8.998 1.826 11 11 11zM4.518 6.842C4.672 5.798 5.499 5 6.498 5h8.227c.8 0 1.49.513 1.812 1.253H6.094c-.189 0-.342.167-.342.373 0 .207.153.374.342.374h9.422c1.096 0 1.984.917 1.984 2.048v5.904c0 1.131-.888 2.048-1.984 2.048H6.484C5.388 17 4.5 16.083 4.5 14.952V7z"/>
        <path d="M17.814 13.5h-2.933c-.762 0-1.381-.61-1.381-1.364v-.272c0-.753.619-1.364 1.381-1.364h2.932c.38 0 .687.304.687.678v1.645a.681.681 0 0 1-.686.677"/>
    </g>
</svg>
