<?xml version="1.0" encoding="UTF-8"?>
<svg width="64px" height="64px" viewBox="0 0 64 64" version="1.1" xmlns="http://www.w3.org/2000/svg" xmlns:xlink="http://www.w3.org/1999/xlink">
    <title>DA094DE0-2894-4CD8-BE48-C3905902BC93</title>
    <defs>
        <rect id="path-1" x="0" y="0" width="64" height="64" rx="32"></rect>
    </defs>
    <g id="all" stroke="none" stroke-width="1" fill="none" fill-rule="evenodd">
        <g id="icon_download_타임라인" transform="translate(-805.000000, -2059.000000)">
            <g id="icon-/-convenience-store" transform="translate(805.000000, 2059.000000)">
                <mask id="mask-2" fill="white">
                    <use xlink:href="#path-1"></use>
                </mask>
                <use id="Mask" fill="#FFCD58" xlink:href="#path-1"></use>
                <rect id="Rectangle" mask="url(#mask-2)" x="10" y="10" width="44" height="44"></rect>
                <g id="shape" mask="url(#mask-2)">
                    <g transform="translate(19.000000, 20.000000)">
                        <g id="Combined-Shape" transform="translate(2.000000, 10.000000)" fill="#FFFFFF">
                            <path d="M21,0 C21.5522847,-1.01453063e-16 22,0.44771525 22,1 L22,13 C22,13.5522847 21.5522847,14 21,14 L13.2,14 L13.2,6.46153846 L8.8,6.46153846 L8.8,14 L1,14 C0.44771525,14 6.76353751e-17,13.5522847 0,13 L0,1 C-6.76353751e-17,0.44771525 0.44771525,1.01453063e-16 1,0 L21,0 Z"></path>
                        </g>
                        <g id="roof">
                            <path d="M1,0 L25,0 C25.5522847,-1.01453063e-16 26,0.44771525 26,1 L26,4 L26,4 L0,4 L0,1 C-6.76353751e-17,0.44771525 0.44771525,1.01453063e-16 1,0 Z" id="Rectangle" fill="#42A4EE"></path>
                            <rect id="Rectangle" fill="#2672BC" x="0" y="4" width="26" height="4"></rect>
                            <path d="M0,8 L26,8 L26,11 C26,11.5522847 25.5522847,12 25,12 L1,12 C0.44771525,12 6.76353751e-17,11.5522847 0,11 L0,8 L0,8 Z" id="Rectangle" fill="#42A4EE"></path>
                        </g>
                    </g>
                </g>
            </g>
        </g>
    </g>
</svg>