<svg xmlns="http://www.w3.org/2000/svg" width="18" height="18" viewBox="0 0 18 18">
    <defs>
        <filter id="egqy1t4y1a">
            <feColorMatrix in="SourceGraphic" values="0 0 0 0 0.400000 0 0 0 0 0.400000 0 0 0 0 0.400000 0 0 0 1.000000 0"/>
        </filter>
    </defs>
    <g fill="none" fill-rule="evenodd">
        <g>
            <g>
                <g>
                    <g>
                        <g>
                            <g ftransform="translate(-68 -2315) translate(0 98) translate(0 2052) translate(0 72) translate(24) translate(44 92)">
                                <g>
                                    <path d="M0 0H18V18H0z" transform="translate(0 1)"/>
                                    <path stroke="#FF0000" fill="#FF0000" stroke-linejoin="round" d="M12.354 2.7C10.6 2.7 9.574 3.908 9 4.492 8.426 3.908 7.385 2.7 5.681 2.7c-2.45 0-3.881 2-3.881 4.397 0 1.394.573 2.834 1.657 4.165 1.185 1.455 2.967 2.793 5.298 3.979.077.04.161.059.245.059.084 0 .168-.02.245-.059 2.33-1.186 4.113-2.524 5.298-3.979 1.084-1.33 1.657-2.771 1.657-4.165 0-2.396-1.421-4.397-3.846-4.397z" transform="translate(0 1)"/>
                                </g>
                            </g>
                        </g>
                    </g>
                </g>
            </g>
        </g>
    </g>
</svg>
