<?xml version="1.0" encoding="UTF-8"?>
<svg width="64px" height="64px" viewBox="0 0 64 64" version="1.1" xmlns="http://www.w3.org/2000/svg" xmlns:xlink="http://www.w3.org/1999/xlink">
    <title>A87A6959-683A-4050-9A21-C029D5BF0479</title>
    <defs>
        <rect id="path-1" x="0" y="0" width="64" height="64" rx="32"></rect>
    </defs>
    <g id="all" stroke="none" stroke-width="1" fill="none" fill-rule="evenodd">
        <g id="icon_download_타임라인" transform="translate(-77.000000, -2059.000000)">
            <g id="icon-/-hospital" transform="translate(77.000000, 2059.000000)">
                <mask id="mask-2" fill="white">
                    <use xlink:href="#path-1"></use>
                </mask>
                <use id="Mask" fill="#17C47E" xlink:href="#path-1"></use>
                <rect id="Rectangle" mask="url(#mask-2)" x="10" y="10" width="44" height="44"></rect>
                <g id="shape" mask="url(#mask-2)">
                    <g transform="translate(21.000000, 17.000000)">
                        <path d="M1,7 L21,7 C21.5522847,7 22,7.44771525 22,8 L22,30 C22,30.5522847 21.5522847,31 21,31 L1,31 C0.44771525,31 6.76353751e-17,30.5522847 0,30 L0,8 C-6.76353751e-17,7.44771525 0.44771525,7 1,7 Z" id="Rectangle" fill="#FFFFFF"></path>
                        <rect id="Rectangle" fill="#17C47E" x="8" y="20" width="6" height="11"></rect>
                        <ellipse id="Oval" fill="#333D4B" cx="11" cy="7.5" rx="7" ry="7.5"></ellipse>
                        <rect id="Rectangle" fill="#FFFFFF" x="8" y="6" width="6" height="2"></rect>
                        <polygon id="Rectangle" fill="#FFFFFF" transform="translate(11.000000, 7.000000) rotate(-270.000000) translate(-11.000000, -7.000000) " points="8 6 14 6 14 8 8 8"></polygon>
                    </g>
                </g>
            </g>
        </g>
    </g>
</svg>