<svg width="24" height="24" xmlns="http://www.w3.org/2000/svg">
    <g fill="none" fill-rule="evenodd">
        <path d="M0 0h24v24H0z"/>
        <path d="M12 1c8.65 0 11 2.614 11 11s-1.826 11-11 11S1 20.998 1 12C1 3.002 3.35 1 12 1zm2.763 4.737a10.724 10.724 0 0 0-5.526 0 4.94 4.94 0 0 0-3.5 3.5 10.724 10.724 0 0 0 0 5.526 4.94 4.94 0 0 0 3.5 3.5c1.81.483 3.716.483 5.526 0a4.94 4.94 0 0 0 3.5-3.5c.483-1.81.483-3.716 0-5.526a4.94 4.94 0 0 0-3.5-3.5zM13.36 11c.167.163.303.358.397.577l1.283 2.977.023.072c.064.285-.221.546-.506.424l-2.98-1.27-.158-.076a1.897 1.897 0 0 1-.419-.311zM9.01 9.471c-.069-.294.224-.565.517-.44l2.994 1.276.15.073c.147.08.281.18.4.296l-2.36 2.393-.126-.135c-.119-.14-.218-.299-.292-.472L9.033 9.54z" fill="#1B1F42"/>
    </g>
</svg>
