<?xml version="1.0" encoding="UTF-8"?>
<svg width="64px" height="64px" viewBox="0 0 64 64" version="1.1" xmlns="http://www.w3.org/2000/svg" xmlns:xlink="http://www.w3.org/1999/xlink">
    <title>C2501978-DE3D-4CF4-9698-3E7B8F3CB539</title>
    <defs>
        <rect id="path-1" x="0" y="0" width="64" height="64" rx="32"></rect>
    </defs>
    <g id="all" stroke="none" stroke-width="1" fill="none" fill-rule="evenodd">
        <g id="icon_download_타임라인" transform="translate(-597.000000, -2213.000000)">
            <g id="icon-/-abroad" transform="translate(597.000000, 2213.000000)">
                <mask id="mask-2" fill="white">
                    <use xlink:href="#path-1"></use>
                </mask>
                <use id="Mask" fill="#32C8F0" xlink:href="#path-1"></use>
                <rect id="Rectangle" mask="url(#mask-2)" x="10" y="10" width="44" height="44"></rect>
                <g id="shape" mask="url(#mask-2)">
                    <g transform="translate(19.000000, 17.000000)">
                        <path d="M6.35934215,25.5043874 L14.1532614,22.1641362 L14.1532614,22.1641362 L14.1532614,26.9641362 L6.8946828,28.0010761 C6.34794879,28.0791809 5.84141681,27.6992819 5.76331195,27.1525479 C5.75662005,27.1057046 5.75326144,27.0584454 5.75326144,27.0111266 L5.75326144,26.4235324 C5.75326144,26.0235043 5.9916583,25.6619662 6.35934215,25.5043874 Z" id="Rectangle" fill="#2672BC" transform="translate(9.953261, 25.164136) rotate(-6.000000) translate(-9.953261, -25.164136) "></path>
                        <path d="M13.3593421,25.5043874 L21.1532614,22.1641362 L21.1532614,22.1641362 L21.1532614,26.9641362 L13.8946828,28.0010761 C13.3479488,28.0791809 12.8414168,27.6992819 12.763312,27.1525479 C12.7566201,27.1057046 12.7532614,27.0584454 12.7532614,27.0111266 L12.7532614,26.4235324 C12.7532614,26.0235043 12.9916583,25.6619662 13.3593421,25.5043874 Z" id="Rectangle" fill="#2672BC" transform="translate(16.953261, 25.164136) scale(-1, 1) rotate(-6.000000) translate(-16.953261, -25.164136) "></path>
                        <path d="M16.3416408,14.3291796 L27,9 L27,9 L27,16 L15.5821995,17.9029668 C15.3098143,17.9483643 15.0522006,17.7643544 15.006803,17.4919693 C15.0022754,17.4648036 15,17.4373102 15,17.4097698 L15,16.5 C15,15.5807009 15.5193947,14.7403027 16.3416408,14.3291796 Z" id="Rectangle-Copy-2" fill="#2672BC" transform="translate(21.000000, 13.500000) scale(-1, 1) translate(-21.000000, -13.500000) "></path>
                        <path d="M1.10557281,14.4472136 L12,9 L12,9 L12,16 L0.582199494,17.9029668 C0.309814333,17.9483643 0.0522005649,17.7643544 0.00680303808,17.4919693 C0.00227541927,17.4648036 2.25417335e-16,17.4373102 0,17.4097698 L0,16.236068 C-4.29189566e-16,15.4785239 0.428004752,14.7859976 1.10557281,14.4472136 Z" id="Rectangle" fill="#2672BC"></path>
                        <rect id="Rectangle" fill="#FFFFFF" x="11" y="0" width="5" height="28" rx="2.5"></rect>
                    </g>
                </g>
            </g>
        </g>
    </g>
</svg>