<?xml version="1.0" encoding="UTF-8"?>
<svg width="64px" height="64px" viewBox="0 0 64 64" version="1.1" xmlns="http://www.w3.org/2000/svg" xmlns:xlink="http://www.w3.org/1999/xlink">
    <title>B490874F-2973-423D-A6F8-E0DF9AC33767</title>
    <defs>
        <rect id="path-1" x="0" y="0" width="64" height="64" rx="32"></rect>
    </defs>
    <g id="all" stroke="none" stroke-width="1" fill="none" fill-rule="evenodd">
        <g id="icon_download_타임라인" transform="translate(-493.000000, -2059.000000)">
            <g id="icon-/-beauty" transform="translate(493.000000, 2059.000000)">
                <mask id="mask-2" fill="white">
                    <use xlink:href="#path-1"></use>
                </mask>
                <use id="Mask" fill="#6A44BF" xlink:href="#path-1"></use>
                <rect id="Rectangle" mask="url(#mask-2)" x="10" y="10" width="44" height="44"></rect>
                <g id="shape" mask="url(#mask-2)">
                    <g transform="translate(24.000000, 18.268885)">
                        <rect id="Rectangle" fill="#333D4B" fill-rule="evenodd" x="7" y="1.73111456" width="2" height="5"></rect>
                        <rect id="Rectangle" fill="#A982FF" fill-rule="evenodd" x="5" y="5.73111456" width="6" height="4" rx="1"></rect>
                        <path d="M2.56412183,8.73111456 L13.4358782,8.73111456 C13.9546884,8.73111456 14.3873356,9.12787937 14.4321419,9.64475114 L15.9058261,26.6447511 C15.9535233,27.1949724 15.546147,27.6796811 14.9959258,27.7273783 C14.9672053,27.729868 14.9383906,27.7311146 14.9095624,27.7311146 L1.09043762,27.7311146 C0.538152869,27.7311146 0.0904376186,27.2833993 0.0904376186,26.7311146 C0.0904376186,26.7022864 0.0916842163,26.6734716 0.0941739185,26.6447511 L1.56785813,9.64475114 C1.61266435,9.12787937 2.04531163,8.73111456 2.56412183,8.73111456 Z" id="Rectangle" fill="#FFFFFF" fill-rule="evenodd"></path>
                        <path d="M12.9943733,-2.66453526e-14 L12.9943733,2 L11.0272744,1.99962798 C10.1544104,2.02344367 9.40082376,2.20535555 8.7437675,2.54798857 L8.50185183,2.68401488 C7.4862749,3.27325937 6.43696802,3.61776649 5.33288818,3.71076653 L5,3.73111456 L2.98609924,3.73111456 L2.98609924,1.73111456 L4.96118902,1.73186799 C5.81391058,1.69874808 6.65596272,1.44274927 7.48246796,0.963397453 C8.40387467,0.406102069 9.46293353,0.0914796555 10.6677837,0.0149669758 L11,-2.66453526e-14 L12.9943733,-2.66453526e-14 Z" id="Path-3" fill="#FFFFFF" fill-rule="nonzero"></path>
                    </g>
                </g>
            </g>
        </g>
    </g>
</svg>