<?xml version="1.0" encoding="UTF-8"?>
<svg width="64px" height="64px" viewBox="0 0 64 64" version="1.1" xmlns="http://www.w3.org/2000/svg" xmlns:xlink="http://www.w3.org/1999/xlink">
    <title>43DEB7A1-9474-4C52-876E-D25695CA2E77</title>
    <defs>
        <rect id="path-1" x="0" y="0" width="64" height="64" rx="32"></rect>
    </defs>
    <g id="all" stroke="none" stroke-width="1" fill="none" fill-rule="evenodd">
        <g id="icon_download_타임라인" transform="translate(-285.000000, -2367.000000)">
            <g id="icon-/-deposit" transform="translate(285.000000, 2367.000000)">
                <mask id="mask-2" fill="white">
                    <use xlink:href="#path-1"></use>
                </mask>
                <use id="Mask" fill="#F66645" xlink:href="#path-1"></use>
                <g id="shape" mask="url(#mask-2)">
                    <g transform="translate(17.000000, 18.000000)" id="Rectangle">
                        <path d="M4.4,0 L25.6,0 C26.3731986,-3.64078893e-16 27,0.62680135 27,1.4 L27,16 L27,16 L3,16 L3,1.4 C3,0.62680135 3.62680135,5.86123498e-16 4.4,0 Z" fill="#FFFFFF"></path>
                        <path d="M7,11 L13,11 C13.5522847,11 14,11.4477153 14,12 C14,12.5522847 13.5522847,13 13,13 L7,13 C6.44771525,13 6,12.5522847 6,12 C6,11.4477153 6.44771525,11 7,11 Z" fill="#FFC8BC"></path>
                        <path d="M7,8 L13,8 C13.5522847,8 14,8.44771525 14,9 C14,9.55228475 13.5522847,10 13,10 L7,10 C6.44771525,10 6,9.55228475 6,9 C6,8.44771525 6.44771525,8 7,8 Z" fill="#FFC8BC"></path>
                        <path d="M21,2 L24,2 C24.5522847,2 25,2.44771525 25,3 L25,6 C25,6.55228475 24.5522847,7 24,7 L21,7 C20.4477153,7 20,6.55228475 20,6 L20,3 C20,2.44771525 20.4477153,2 21,2 Z" fill="#FFC8BC"></path>
                        <path d="M1.75987151,16 L28.2401285,16 C29.0133271,16 29.6401285,16.6268014 29.6401285,17.4 C29.6401285,17.505953 29.6281007,17.6115636 29.6042762,17.7148033 L27,29 L27,29 L3,29 L0.395723841,17.7148033 C0.221862774,16.9614054 0.691670248,16.2097134 1.44506821,16.0358523 C1.5483079,16.0120278 1.65391849,16 1.75987151,16 Z" fill="#FFC8BC" transform="translate(15.000000, 22.500000) rotate(-180.000000) translate(-15.000000, -22.500000) "></path>
                    </g>
                </g>
            </g>
        </g>
    </g>
</svg>