<svg width="32" height="32" xmlns="http://www.w3.org/2000/svg">
    <g fill="none" fill-rule="evenodd">
        <path d="M0 0h32v32H0z"/>
        <g transform="translate(3.25 3.75)" fill="#000">
            <path d="M15.75 0a2.75 2.75 0 0 1 2.745 2.582l.005.168v12H17v-12a1.25 1.25 0 0 0-1.122-1.244L15.75 1.5h-13a1.25 1.25 0 0 0-1.244 1.122L1.5 2.75v19c0 .647.492 1.18 1.122 1.244L2.75 23h13a1.25 1.25 0 0 0 1.244-1.122L17 21.75h1.5a2.75 2.75 0 0 1-2.582 2.745l-.168.005h-13a2.75 2.75 0 0 1-2.745-2.582L0 21.75v-19A2.75 2.75 0 0 1 2.582.005L2.75 0h13z" fill-rule="nonzero"/>
            <rect x="3.75" y="13.75" width="4" height="1.5" rx=".75"/>
            <rect x="3.75" y="17.25" width="7" height="1.5" rx=".75"/>
            <path d="M19.336 8c1.104 0 2.163.439 2.944 1.22a15.032 15.032 0 0 1 1.597 1.884l.282.407 1.215 1.823a.75.75 0 0 1-1.18.92l-.068-.088-1.216-1.823a13.532 13.532 0 0 0-1.69-2.063 2.664 2.664 0 0 0-1.692-.773l-.192-.007H17.75a.75.75 0 0 1-.102-1.493L17.75 8h1.586zM12.75 11c.77 0 1.51.28 2.085.784l.152.143.793.793a4.371 4.371 0 0 0 2.86 1.274l.231.006h.879a.75.75 0 0 1 .102 1.493l-.102.007h-.879a5.871 5.871 0 0 1-3.953-1.53l-.198-.19-.793-.793a1.664 1.664 0 0 0-1.177-.487.868.868 0 0 0-.714.375l-.062.105-.053.105c-.163.326-.154.709.017 1.024l.072.115 1.85 2.59a13.36 13.36 0 0 0 5.81 4.599l.37.145 3.973 1.49a.75.75 0 0 1-.429 1.434l-.097-.03-3.973-1.49a14.86 14.86 0 0 1-6.636-4.952l-.238-.324-1.85-2.59a2.607 2.607 0 0 1-.29-2.507l.08-.174.052-.106A2.368 2.368 0 0 1 12.75 11zM10.188 5.54a.6.6 0 0 1 1.15.327l-.026.094-1.5 4a.6.6 0 0 1-1.078.097l-.046-.097-.938-2.504-.938 2.504a.6.6 0 0 1-1.078.097l-.046-.097-1.5-4a.6.6 0 0 1 1.082-.51l.042.088.938 2.503.938-2.503a.6.6 0 0 1 1.078-.097l.046.097.938 2.503.938-2.503z" fill-rule="nonzero"/>
            <path d="M11.25 6.4a.6.6 0 0 1 .097 1.192l-.097.008h-7a.6.6 0 0 1-.097-1.192L4.25 6.4h7z" fill-rule="nonzero"/>
        </g>
    </g>
</svg>
