<svg xmlns="http://www.w3.org/2000/svg" width="24" height="24" viewBox="0 0 24 24">
    <g fill="none" fill-rule="evenodd">
        <g>
            <g>
                <g stroke="#000">
                    <path stroke-linecap="round" stroke-linejoin="round" d="M17 8.5C17 3.806 13.194 0 8.5 0S0 3.806 0 8.5 3.806 17 8.5 17c.503 0 .995-.044 1.474-.127" transform="translate(-24 -394) translate(24 394) translate(2 3)"/>
                    <path stroke-linecap="round" d="M11.985 9.28c.01-.256.015-.517.015-.78C12 3.806 10.433 0 8.5 0" transform="translate(-24 -394) translate(24 394) translate(2 3)"/>
                    <path d="M5.5 17C7.433 17 9 13.194 9 8.5S7.433 0 5.5 0" transform="translate(-24 -394) translate(24 394) translate(2 3) matrix(-1 0 0 1 14.5 0)"/>
                    <path stroke-linecap="round" d="M.938 5.875L16 5.875M1 11.875L9.578 11.875" transform="translate(-24 -394) translate(24 394) translate(2 3)"/>
                    <g transform="translate(-24 -394) translate(24 394) translate(2 3) translate(11.733 10.5)">
                        <ellipse cx="4.267" cy="2.667" rx="3.767" ry="2.167"/>
                        <path d="M.533 2.667v2.909C.533 6.915 2.205 8 4.267 8 6.329 8 8 6.915 8 5.576v-2.91"/>
                    </g>
                </g>
            </g>
        </g>
    </g>
</svg>
