<svg width="32" height="32" xmlns="http://www.w3.org/2000/svg">
    <g fill="none" fill-rule="evenodd">
        <path d="M0 0h32v32H0z"/>
        <g fill="#000" fill-rule="nonzero">
            <path d="M15.5 2.75c7.042 0 12.75 5.708 12.75 12.75a.75.75 0 1 1-1.5 0c0-6.213-5.037-11.25-11.25-11.25S4.25 9.287 4.25 15.5 9.287 26.75 15.5 26.75a.75.75 0 1 1 0 1.5c-7.042 0-12.75-5.708-12.75-12.75S8.458 2.75 15.5 2.75z"/>
            <path d="M23 16.75c-2.854 0-5.25 1.065-5.25 2.75s2.396 2.75 5.25 2.75 5.25-1.065 5.25-2.75-2.396-2.75-5.25-2.75zm0 1.5c2.117 0 3.75.726 3.75 1.25s-1.633 1.25-3.75 1.25-3.75-.726-3.75-1.25 1.633-1.25 3.75-1.25zM19.25 23c0 .524 1.633 1.25 3.75 1.25 2.038 0 3.628-.673 3.743-1.191L26.75 23h1.5c0 1.685-2.396 2.75-5.25 2.75-2.767 0-5.104-1.001-5.243-2.599L17.75 23h1.5z"/>
            <path d="M19.25 19.5v7c0 .524 1.633 1.25 3.75 1.25 2.038 0 3.628-.673 3.743-1.191l.007-.059v-7h1.5v7c0 1.685-2.396 2.75-5.25 2.75-2.767 0-5.104-1.001-5.243-2.599l-.007-.151v-7h1.5zM16 9.25a.75.75 0 0 1 .743.648l.007.102v6a.75.75 0 0 1-.25.559l-.084.065-6 4a.75.75 0 0 1-.92-1.18l.088-.068 5.666-3.779V10a.75.75 0 0 1 .648-.743L16 9.25z"/>
        </g>
    </g>
</svg>
