<svg width="32" height="32" xmlns="http://www.w3.org/2000/svg">
    <g fill="none" fill-rule="evenodd">
        <path d="M0 0h32v32H0z"/>
        <g fill="#000" fill-rule="nonzero">
            <path d="M4.75 9v13c0 .647.492 1.18 1.122 1.244L6 23.25h13v1.5H6a2.75 2.75 0 0 1-2.745-2.582L3.25 22V9h1.5zm24 0v12h-1.5V9h1.5z"/>
            <path d="M26 5.25H6A2.75 2.75 0 0 0 3.25 8v.764a2.75 2.75 0 0 0 1.52 2.46l9.106 4.552a4.75 4.75 0 0 0 4.248 0l9.106-4.552a2.75 2.75 0 0 0 1.52-2.46V8A2.75 2.75 0 0 0 26 5.25zM6 6.75h20c.69 0 1.25.56 1.25 1.25v.764c0 .473-.268.906-.691 1.118l-9.106 4.553a3.25 3.25 0 0 1-2.906 0L5.44 9.882a1.25 1.25 0 0 1-.691-1.118V8c0-.69.56-1.25 1.25-1.25zM24 18a6 6 0 1 1 0 12 6 6 0 0 1 0-12zm0 1.5a4.5 4.5 0 1 0 0 9 4.5 4.5 0 0 0 0-9z"/>
            <path d="M25.97 21.97a.75.75 0 0 1 1.133.976l-.073.084-3 3a.75.75 0 0 1-.976.073l-.084-.073-2-2a.75.75 0 0 1 .976-1.133l.084.073 1.47 1.469 2.47-2.47z"/>
        </g>
    </g>
</svg>
