<?xml version="1.0" encoding="UTF-8"?>
<svg width="64px" height="64px" viewBox="0 0 64 64" version="1.1" xmlns="http://www.w3.org/2000/svg" xmlns:xlink="http://www.w3.org/1999/xlink">
    <title>3BC1DABC-0E18-47E2-94B8-76EA3530CAB7</title>
    <defs>
        <rect id="path-1" x="0" y="-7.10542736e-15" width="64" height="64" rx="32"></rect>
    </defs>
    <g id="all" stroke="none" stroke-width="1" fill="none" fill-rule="evenodd">
        <g id="icon_download_타임라인" transform="translate(-77.000000, -2367.000000)">
            <g id="icon-/-subscribe" transform="translate(77.000000, 2367.000000)">
                <mask id="mask-2" fill="white">
                    <use xlink:href="#path-1"></use>
                </mask>
                <use id="Mask" fill="#44A5A9" xlink:href="#path-1"></use>
                <g id="Group-3" mask="url(#mask-2)">
                    <g transform="translate(12.467263, 13.891395)" id="Group-4">
                        <g transform="translate(19.532737, 18.108605) rotate(-17.000000) translate(-19.532737, -18.108605) translate(3.387744, 4.108605)">
                            <ellipse id="Oval" fill="#FFFFFF" cx="16.1449921" cy="2.07407407" rx="2.09816026" ry="2.07407407"></ellipse>
                            <ellipse id="Oval" fill="#1B585A" cx="16.1449921" cy="23.8518519" rx="4.19632052" ry="4.14814815"></ellipse>
                            <path d="M6.66462491,23.8518519 C6.37823063,23.8518961 6.14606218,23.6197276 6.14606218,23.3333333 C6.14606218,23.2283547 6.17792404,23.1258482 6.23743497,23.0393673 C7.92539213,20.5864369 8.7693707,18.3795403 8.7693707,16.4186774 C8.7693707,13.1561534 8.54499212,12.9780914 8.54499212,10.8127747 C8.54499212,8.64745788 10.5600564,4.14814815 16.1449921,4.14814815 L16.4573184,4.15296852 C21.8052506,4.3192658 23.7449921,8.74618569 23.7449921,10.8706474 C23.7449921,13.0359642 23.5206135,13.1561534 23.5206135,16.4186774 C23.5206135,18.3795403 24.3645921,20.5864369 26.0525493,23.0393673 C26.1120602,23.1258482 26.1439221,23.2283547 26.1439221,23.3333333 C26.1439221,23.6197276 25.9117536,23.8518961 25.6253593,23.8518519 L25.6253593,23.8518519 L6.66462491,23.8518519 Z" id="Combined-Shape" fill="#FFFFFF"></path>
                            <path d="M33.3390221,11.1115768 C33.5540852,10.9347719 33.8667283,10.9721256 34.03733,11.1950087 C34.2079317,11.4178918 34.1718885,11.741903 33.9568254,11.918708 C30.7607543,14.5462212 26.8078532,16 22.6420409,16 C22.3675284,16 22.1449921,15.769372 22.1449921,15.4848779 C22.1449921,15.2003839 22.3675284,14.9697559 22.6420409,14.9697559 C26.5814984,14.9697559 30.3171584,13.595873 33.3390221,11.1115768 Z" id="Path" fill="#BCEFF1" transform="translate(28.144992, 13.500000) rotate(-73.000000) translate(-28.144992, -13.500000) "></path>
                            <path d="M9.33902212,11.1115768 C9.55408525,10.9347719 9.86672834,10.9721256 10.03733,11.1950087 C10.2079317,11.4178918 10.1718885,11.741903 9.95682539,11.918708 C6.76075425,14.5462212 2.80785321,16 -1.35795914,16 C-1.63247158,16 -1.85500788,15.769372 -1.85500788,15.4848779 C-1.85500788,15.2003839 -1.63247158,14.9697559 -1.35795914,14.9697559 C2.5814984,14.9697559 6.31715835,13.595873 9.33902212,11.1115768 Z" id="Path" fill="#BCEFF1" transform="translate(4.144992, 13.500000) scale(-1, 1) rotate(-73.000000) translate(-4.144992, -13.500000) "></path>
                        </g>
                    </g>
                </g>
            </g>
        </g>
    </g>
</svg>