<svg xmlns="http://www.w3.org/2000/svg" width="24" height="24" viewBox="0 0 24 24">
    <g fill="none" fill-rule="evenodd">
        <g>
            <g transform="translate(-24.000000, -540.000000) translate(24.000000, 540.000000)">
                <path fill="#FFF" stroke="#000" d="M18.5 13.5V18c0 .283-.177.537-.441.777-.368.332-.91.626-1.578.876-1.402.526-3.341.847-5.481.847-2.088 0-3.985-.306-5.38-.81-.669-.241-1.219-.526-1.604-.849-.28-.234-.475-.481-.51-.757h0L3.5 13.5H18.5z"/>
                <ellipse cx="11" cy="10" fill="#FFF" stroke="#000" rx="7.5" ry="2.5"/>
                <path fill="#FFF" stroke="#000" d="M18.5 9.5V14c0 .283-.177.537-.441.777-.368.332-.91.626-1.578.876-1.402.526-3.341.847-5.481.847-2.088 0-3.985-.306-5.38-.81-.669-.241-1.219-.526-1.604-.849-.28-.234-.475-.481-.51-.757h0L3.5 9.5H18.5z"/>
                <path fill="#FFF" stroke="#000" d="M18.5 6.5v3.875c0 .229-.178.423-.416.612-.37.292-.913.55-1.583.77-1.408.461-3.353.743-5.501.743-2.096 0-4-.269-5.398-.71-.673-.213-1.225-.463-1.612-.747-.255-.187-.449-.38-.485-.603h0L3.501 6.5H18.5z"/>
                <ellipse cx="11" cy="6" fill="#FFF" stroke="#000" rx="7.5" ry="2.5"/>
                <circle cx="17" cy="16" r="5.5" fill="#FFF" stroke="#000"/>
                <path fill="#000" fill-rule="nonzero" d="M17.307 14l.454 1.47h.834L19.05 14l.615.186-.398 1.284H20v.7l-.949-.001L18.486 18h-.615l-.566-1.831h-.615l-.561 1.811h-.615l-.563-1.811H14v-.698l.734-.001-.398-1.283.614-.187.457 1.47h.828l.458-1.47h.614zm1.072 2.169h-.402l.201.65.201-.65zm-2.361 0h-.394l.197.636.197-.636z"/>
            </g>
        </g>
    </g>
</svg>
