<?xml version="1.0" encoding="UTF-8"?>
<svg width="64px" height="64px" viewBox="0 0 64 64" version="1.1" xmlns="http://www.w3.org/2000/svg" xmlns:xlink="http://www.w3.org/1999/xlink">
    <title>58EA09AC-7BBA-46BF-88B6-BA00F36501D8</title>
    <defs>
        <rect id="path-1" x="0" y="0" width="64" height="64" rx="32"></rect>
    </defs>
    <g id="all" stroke="none" stroke-width="1" fill="none" fill-rule="evenodd">
        <g id="icon_download_타임라인" transform="translate(-285.000000, -2059.000000)">
            <g id="icon-/-traffic" transform="translate(285.000000, 2059.000000)">
                <mask id="mask-2" fill="white">
                    <use xlink:href="#path-1"></use>
                </mask>
                <use id="Mask" fill="#25C4CC" xlink:href="#path-1"></use>
                <rect id="Rectangle" mask="url(#mask-2)" x="10" y="10" width="44" height="44"></rect>
                <g id="shape" mask="url(#mask-2)">
                    <g transform="translate(21.000000, 18.000000)">
                        <polygon id="Path" fill="#FFFFFF" fill-rule="nonzero" points="3 24 6.34752655 24 4.34752655 28 1 28"></polygon>
                        <polygon id="Path" fill="#FFFFFF" fill-rule="nonzero" transform="translate(18.325000, 26.000000) scale(-1, 1) translate(-18.325000, -26.000000) " points="17.65 24 20.9975266 24 19 28 15.6524734 28"></polygon>
                        <path d="M8,0 L14,0 C18.418278,-8.11624501e-16 22,3.581722 22,8 L22,23 C22,24.1045695 21.1045695,25 20,25 L2,25 C0.8954305,25 1.3527075e-16,24.1045695 0,23 L0,8 C-5.41083001e-16,3.581722 3.581722,8.11624501e-16 8,0 Z" id="Rectangle" fill="#FFFFFF" fill-rule="evenodd"></path>
                        <circle id="Oval" fill="#333D4B" fill-rule="evenodd" cx="5.5" cy="19.5" r="1.5"></circle>
                        <circle id="Oval" fill="#333D4B" fill-rule="evenodd" cx="16.5" cy="19.5" r="1.5"></circle>
                        <path d="M8,3 L14,3 C16.7614237,3 19,5.23857625 19,8 L19,12 C19,12.5522847 18.5522847,13 18,13 L4,13 C3.44771525,13 3,12.5522847 3,12 L3,8 C3,5.23857625 5.23857625,3 8,3 Z" id="Rectangle" fill="#25C4CC" fill-rule="evenodd"></path>
                    </g>
                </g>
            </g>
        </g>
    </g>
</svg>