<svg xmlns="http://www.w3.org/2000/svg" width="24" height="24" viewBox="0 0 24 24">
    <g fill="none" fill-rule="evenodd" stroke-linecap="round" stroke-linejoin="round">
        <g stroke="#000" stroke-width="1.2">
            <g>
                <g>
                    <g>
                        <g>
                            <path d="M2 16V1h0m14 0v15M0 1L18 1M2 16c0 2.21 1.79 4 4 4s4-1.79 4-4M16 20h0c2.21 0 4-1.79 4-4M10 16L20 16M16 20L6 20M6 6L12 6M6 9L12 9M6 12L10 12" transform="translate(-24 -467) translate(24 467) translate(2 2)"/>
                        </g>
                    </g>
                </g>
            </g>
        </g>
    </g>
</svg>
