<svg width="32" height="32" xmlns="http://www.w3.org/2000/svg">
    <g fill="none" fill-rule="evenodd">
        <path d="M0 0h32v32H0z"/>
        <g fill="#000" fill-rule="nonzero">
            <path d="M16 28.25c1.148 0 2.277-.152 3.365-.449a.75.75 0 1 0-.395-1.447c-.96.262-1.956.396-2.97.396-6.213 0-11.25-5.037-11.25-11.25S9.787 4.25 16 4.25 27.25 9.287 27.25 15.5c0 1.275-.212 2.52-.622 3.7a.75.75 0 0 0 1.417.492c.465-1.336.705-2.748.705-4.192 0-7.042-5.708-12.75-12.75-12.75S3.25 8.458 3.25 15.5 8.958 28.25 16 28.25z"/>
            <path d="M24 18.5a6 6 0 1 1 0 12 6 6 0 0 1 0-12zm0 1.5a4.5 4.5 0 1 0 0 9 4.5 4.5 0 0 0 0-9z"/>
            <path d="M25.97 22.47a.75.75 0 0 1 1.133.976l-.073.084-3 3a.75.75 0 0 1-.976.073l-.084-.073-2-2a.75.75 0 0 1 .976-1.133l.084.073 1.47 1.469 2.47-2.47zM15.271 11.268c.213-.652 1.095-.688 1.382-.11l.044.11 1.894 5.812 1.896-5.812 1.426.464-2.608 8c-.212.652-1.095.688-1.382.11l-.044-.11-1.895-5.812-1.88 5.77c-.213.652-1.096.688-1.383.109l-.044-.109-2.594-7.958 1.426-.464 1.881 5.77 1.881-5.77z"/>
            <path d="M22.5 14.75v1.5h-13v-1.5z"/>
        </g>
    </g>
</svg>
