<?xml version="1.0" encoding="UTF-8"?>
<svg width="64px" height="64px" viewBox="0 0 64 64" version="1.1" xmlns="http://www.w3.org/2000/svg" xmlns:xlink="http://www.w3.org/1999/xlink">
    <title>80D10A8F-7054-4181-B51A-E35188EAE0F3</title>
    <defs>
        <rect id="path-1" x="0" y="0" width="64" height="64" rx="32"></rect>
    </defs>
    <g id="all" stroke="none" stroke-width="1" fill="none" fill-rule="evenodd">
        <g id="icon_download_타임라인" transform="translate(-389.000000, -2213.000000)">
            <g id="icon-/-car" transform="translate(389.000000, 2213.000000)">
                <mask id="mask-2" fill="white">
                    <use xlink:href="#path-1"></use>
                </mask>
                <use id="Mask" fill="#55D26E" xlink:href="#path-1"></use>
                <rect id="Rectangle" mask="url(#mask-2)" x="10" y="10" width="44" height="44"></rect>
                <g id="shape" mask="url(#mask-2)">
                    <g transform="translate(20.000000, 21.000000)">
                        <g id="wheel" transform="translate(1.000000, 17.000000)">
                            <rect id="Rectangle" fill="#333D4B" x="0" y="0" width="5" height="5" rx="1"></rect>
                            <rect id="Rectangle-Copy-4" fill="#333D4B" x="17" y="0" width="5" height="5" rx="1"></rect>
                        </g>
                        <g id="car">
                            <path d="M2,9 L22,9 C23.1045695,9 24,9.8954305 24,11 L24,18 C24,18.5522847 23.5522847,19 23,19 L1,19 C0.44771525,19 6.76353751e-17,18.5522847 0,18 L0,11 C-1.3527075e-16,9.8954305 0.8954305,9 2,9 Z" id="Rectangle" fill="#FFFFFF"></path>
                            <g id="front" transform="translate(3.000000, 11.000000)">
                                <rect id="Rectangle" fill="#333D4B" x="5" y="4" width="8" height="2"></rect>
                                <circle id="Oval" fill="#55D26E" cx="1.5" cy="1.5" r="1.5"></circle>
                                <circle id="Oval-Copy" fill="#55D26E" cx="16.5" cy="1.5" r="1.5"></circle>
                            </g>
                            <path d="M4.74403065,0 L19.2559693,0 C19.6975776,5.85011701e-16 20.0869004,0.289668153 20.2137956,0.712652114 L23,10 L23,10 L1,10 L3.78620437,0.712652114 C3.91309955,0.289668153 4.30242243,1.41338974e-15 4.74403065,0 Z" id="Rectangle-Copy-2" fill="#FFFFFF"></path>
                            <path d="M6.24108648,2 L17.7589135,2 C18.2204457,2 18.6220266,2.31585987 18.7307636,2.76439997 L20,8 L20,8 L4,8 L5.26923637,2.76439997 C5.37797337,2.31585987 5.77955429,2 6.24108648,2 Z" id="Rectangle-Copy-2" fill="#55D26E"></path>
                        </g>
                    </g>
                </g>
            </g>
        </g>
    </g>
</svg>