<svg xmlns="http://www.w3.org/2000/svg" width="48" height="48" viewBox="0 0 48 48">
    <g fill="none" fill-rule="evenodd">
        <g>
            <g>
                <g>
                    <g>
                        <g>
                            <path d="M0 0H48V48H0z" transform="translate(-156.000000, -878.000000) translate(24.000000, 98.000000) translate(-0.000000, 150.000000) translate(0.000000, 564.000000) translate(132.000000, 66.000000)"/>
                            <g fill-rule="nonzero">
                                <path fill="#000" d="M44.073 5.007C43.554 3.05 42.034 1.506 40.107.98 36.585 0 22.499 0 22.499 0S8.414 0 4.893.941C3.003 1.468 1.445 3.05.927 5.007 0 8.583 0 16 0 16s0 7.454.927 10.993c.519 1.957 2.038 3.5 3.966 4.028C8.451 32 22.5 32 22.5 32s14.085 0 17.607-.941c1.928-.527 3.447-2.07 3.966-4.029C45 23.454 45 16.038 45 16.038s.037-7.455-.927-11.03z" transform="translate(-156.000000, -878.000000) translate(24.000000, 98.000000) translate(-0.000000, 150.000000) translate(0.000000, 564.000000) translate(132.000000, 66.000000) translate(1.500000, 8.000000)"/>
                                <path fill="#FFF" d="M18 24L18 10 30 17z" transform="translate(-156.000000, -878.000000) translate(24.000000, 98.000000) translate(-0.000000, 150.000000) translate(0.000000, 564.000000) translate(132.000000, 66.000000) translate(1.500000, 8.000000)"/>
                            </g>
                        </g>
                    </g>
                </g>
            </g>
        </g>
    </g>
</svg>
