<?xml version="1.0" encoding="UTF-8"?>
<svg width="64px" height="64px" viewBox="0 0 64 64" version="1.1" xmlns="http://www.w3.org/2000/svg" xmlns:xlink="http://www.w3.org/1999/xlink">
    <title>8F519BF3-1C80-4955-BC1B-38FDF17EE107</title>
    <defs>
        <rect id="path-1" x="0" y="0" width="64" height="64" rx="32"></rect>
    </defs>
    <g id="all" stroke="none" stroke-width="1" fill="none" fill-rule="evenodd">
        <g id="icon_download_타임라인" transform="translate(-181.000000, -2213.000000)">
            <g id="icon-/-food" transform="translate(181.000000, 2213.000000)">
                <mask id="mask-2" fill="white">
                    <use xlink:href="#path-1"></use>
                </mask>
                <use id="Mask" fill="#1C63D6" xlink:href="#path-1"></use>
                <rect id="Rectangle" mask="url(#mask-2)" x="10" y="10" width="44" height="44"></rect>
                <g id="shape" mask="url(#mask-2)">
                    <g transform="translate(22.000000, 18.000000)">
                        <g id="knife" transform="translate(13.000000, 0.000000)">
                            <path d="M7,0 L7,0 L7,0 L7,18 L0,18 L0,7 C-4.73447626e-16,3.13400675 3.13400675,7.10171439e-16 7,0 Z" id="Rectangle" fill="#FFFFFF"></path>
                            <path d="M3,18 L7,18 L7,28 C7,28.5522847 6.55228475,29 6,29 L4,29 C3.44771525,29 3,28.5522847 3,28 L3,18 L3,18 Z" id="Rectangle" fill="#8FC0FE"></path>
                        </g>
                        <g id="fork" transform="translate(0.000000, 1.000000)">
                            <path d="M2,12 L6,12 L6,27 C6,27.5522847 5.55228475,28 5,28 L3,28 C2.44771525,28 2,27.5522847 2,27 L2,12 L2,12 Z" id="Rectangle" fill="#8FC0FE"></path>
                            <path d="M4,14 C6.209139,14 8,12.209139 8,10 L0,10 C0,12.209139 1.790861,14 4,14 Z" id="Oval" fill="#FFFFFF"></path>
                            <rect id="Rectangle" fill="#FFFFFF" x="0" y="8" width="8" height="2"></rect>
                            <rect id="Rectangle" fill="#FFFFFF" x="0" y="0" width="2" height="9"></rect>
                            <rect id="Rectangle" fill="#FFFFFF" x="3" y="0" width="2" height="9"></rect>
                            <rect id="Rectangle" fill="#FFFFFF" x="6" y="0" width="2" height="9"></rect>
                        </g>
                    </g>
                </g>
            </g>
        </g>
    </g>
</svg>