<svg width="24" height="24" xmlns="http://www.w3.org/2000/svg">
    <g fill="none" fill-rule="evenodd">
        <path d="M0 0h24v24H0z"/>
        <path d="M12 1c8.65 0 11 2.614 11 11s-1.826 11-11 11S1 20.998 1 12C1 3.002 3.35 1 12 1zm-1.092 4-.086.007c-3.483.594-6.091 3.775-5.8 7.514.265 3.397 2.989 6.16 6.36 6.452a6.94 6.94 0 0 0 4.638-1.253.509.509 0 0 0 .064-.771l-2.304-2.32-.082-.072a.728.728 0 0 0-.711-.11 2.656 2.656 0 0 1-1.6.123 2.675 2.675 0 0 1-2.017-2.152 2.691 2.691 0 0 1 1.515-2.907.86.86 0 0 0 .493-.782V5.48l-.007-.086a.478.478 0 0 0-.549-.387zm2.364.03-.086.001a.637.637 0 0 0-.564.637V8.88l.007.097c.035.222.19.408.401.497a2.685 2.685 0 0 1 1.437 3.5.647.647 0 0 0 .13.707l2.256 2.272.08.069c.28.202.686.146.884-.152A7.043 7.043 0 0 0 19 11.952c0-3.424-2.425-6.274-5.64-6.912l-.088-.01z" fill="#1B1F42"/>
    </g>
</svg>
