<?xml version="1.0" encoding="UTF-8"?>
<svg width="64px" height="64px" viewBox="0 0 64 64" version="1.1" xmlns="http://www.w3.org/2000/svg" xmlns:xlink="http://www.w3.org/1999/xlink">
    <title>746AE13E-CCC7-444D-AACF-4F541AB6F9A3</title>
    <defs>
        <rect id="path-1" x="0" y="0" width="64" height="64" rx="32"></rect>
    </defs>
    <g id="all" stroke="none" stroke-width="1" fill="none" fill-rule="evenodd">
        <g id="icon_download_타임라인" transform="translate(-1013.000000, -2059.000000)">
            <g id="icon-/-dog" transform="translate(1013.000000, 2059.000000)">
                <mask id="mask-2" fill="white">
                    <use xlink:href="#path-1"></use>
                </mask>
                <use id="Mask" fill="#1C63D6" xlink:href="#path-1"></use>
                <g id="shape" mask="url(#mask-2)">
                    <g transform="translate(10.000000, 10.000000)">
                        <rect id="48x48" fill="none" opacity="0.200000003" x="0" y="0" width="44" height="44"></rect>
                        <path d="M21.4781272,10.3701138 L21.702516,10.3752074 L22.3083429,10.4038958 C23.0811358,10.4463288 23.7142294,10.5055489 24.2101014,10.5822762 C27.3077565,11.0615824 29.8301988,12.0780211 32.1561232,14.4593043 C35.1607103,17.5354031 36.5686844,21.0086681 35.8703427,24.1963232 C35.425412,26.2272564 32.9960382,27.9406377 28.6323417,29.4635762 C27.4506556,29.8760063 26.1623246,29.2893868 25.6883268,28.1481649 L25.6529077,28.0596985 C25.022811,25.9473427 24.7315308,23.7215857 24.8107851,21.4520406 C24.8222293,21.1243213 24.5658377,20.8493749 24.2381184,20.8379307 C23.9103991,20.8264865 23.6354527,21.0828781 23.6240085,21.4105974 C23.5423652,23.7485566 23.8327856,26.0432662 24.46411,28.226093 C17.5704913,29.1730933 10.9515291,26.9909793 8.75172141,23.1842592 L8.65124431,23.0034862 C7.95030757,21.6908289 7.71020729,19.9885236 7.91200686,17.9021828 C8.02403618,16.7438337 8.96435584,15.8494344 10.1124795,15.782348 L10.2512121,15.7783048 L13.620071,15.7783048 C14.2170483,15.7783048 14.7742387,15.4903789 15.1200485,15.0105456 L15.1960204,14.8964519 L16.1551289,13.3337745 C17.2929755,11.4798787 19.3136984,10.3606064 21.4781272,10.3701138 Z" id="Combined-Shape" fill="#FFFFFF" fill-rule="evenodd"></path>
                        <circle id="Oval" fill="#333D4B" fill-rule="evenodd" cx="19.1160714" cy="17.3970238" r="1.1875"></circle>
                        <path d="M35.1852311,28.3657868 C35.4421349,28.1619944 35.815603,28.2050498 36.0193954,28.4619537 C36.2231877,28.7188575 36.1801324,29.0923256 35.9232285,29.296118 C32.105359,32.3246933 27.3834176,34.000376 22.4071429,34.000376 C22.0792238,34.000376 21.8133929,33.7345451 21.8133929,33.406626 C21.8133929,33.0787069 22.0792238,32.812876 22.4071429,32.812876 C27.1130253,32.812876 31.5754611,31.2292844 35.1852311,28.3657868 Z" id="Path" fill="#A7C8FF" fill-rule="nonzero"></path>
                    </g>
                </g>
            </g>
        </g>
    </g>
</svg>