<?xml version="1.0" encoding="UTF-8"?>
<svg width="64px" height="64px" viewBox="0 0 64 64" version="1.1" xmlns="http://www.w3.org/2000/svg" xmlns:xlink="http://www.w3.org/1999/xlink">
    <title>B56D5AFA-CABD-4842-BC6C-69AEE638CF4E</title>
    <defs>
        <rect id="path-1" x="0" y="0" width="64" height="64" rx="32"></rect>
    </defs>
    <g id="all" stroke="none" stroke-width="1" fill="none" fill-rule="evenodd">
        <g id="icon_download_타임라인" transform="translate(-181.000000, -2059.000000)">
            <g id="icon-/-etc" transform="translate(181.000000, 2059.000000)">
                <mask id="mask-2" fill="white">
                    <use xlink:href="#path-1"></use>
                </mask>
                <use id="Mask" fill="#6B7583" xlink:href="#path-1"></use>
                <path d="M21,29 C22.6568542,29 24,30.3431458 24,32 C24,33.6568542 22.6568542,35 21,35 C19.3431458,35 18,33.6568542 18,32 C18,30.3431458 19.3431458,29 21,29 Z M32,29 C33.6568542,29 35,30.3431458 35,32 C35,33.6568542 33.6568542,35 32,35 C30.3431458,35 29,33.6568542 29,32 C29,30.3431458 30.3431458,29 32,29 Z M43,29 C44.6568542,29 46,30.3431458 46,32 C46,33.6568542 44.6568542,35 43,35 C41.3431458,35 40,33.6568542 40,32 C40,30.3431458 41.3431458,29 43,29 Z" id="Combined-Shape" fill="#FFFFFF" mask="url(#mask-2)"></path>
            </g>
        </g>
    </g>
</svg>