<svg width="20" height="20" viewBox="0 0 20 20" xmlns="http://www.w3.org/2000/svg" xmlns:xlink="http://www.w3.org/1999/xlink">
    <defs>
        <path d="M0 0v20h20V0H0zm2.093 10.797h15.814V7.032H2.093v3.765z" id="a"/>
    </defs>
    <g fill="none" fill-rule="evenodd">
        <g>
            <mask id="b" fill="#fff">
                <use xlink:href="#a"/>
            </mask>
            <g mask="url(#b)" fill="#FFF">
                <path d="M3.7 7.938h4.523V3.382H3.701v4.556zM8.91 2H3.014a.688.688 0 0 0-.686.69v5.94c0 .381.307.69.686.69H8.91c.38 0 .686-.309.686-.69V2.69A.688.688 0 0 0 8.91 2z"/>
                <path d="M4.814 6.817H7.11V4.503H4.814zM11.874 7.938h4.522V3.382h-4.522v4.556zM17.082 2h-5.894a.688.688 0 0 0-.686.69v5.94c0 .381.307.69.686.69h5.894c.378 0 .686-.309.686-.69V2.69a.689.689 0 0 0-.686-.69zM3.7 16.144h4.523v-4.557H3.701v4.557zm5.21-5.94H3.014a.688.688 0 0 0-.686.692v5.94c0 .38.307.69.686.69H8.91c.38 0 .686-.31.686-.69v-5.94a.688.688 0 0 0-.686-.691z"/>
                <path d="M4.814 15.022H7.11V12.71H4.814zM12.987 6.817h2.296V4.503h-2.296zM11 12.294V17.294h1.5v-1.667H14V13.96h-1.5v-1.666zM15.91 10.294H12v1.5h1.667v1.5h1.667v-1.5H17v-1.5zM15.5 14.294v1.5H14v1.5h3v-3z"/>
            </g>
        </g>
        <path d="M19.13 9H.87C.666 9 .5 8.888.5 8.749V8.25C.5 8.113.666 8 .87 8h18.26c.205 0 .37.113.37.251v.498c0 .139-.165.251-.37.251" fill="#85DEF6"/>
    </g>
</svg>
