<svg xmlns="http://www.w3.org/2000/svg" xmlns:xlink="http://www.w3.org/1999/xlink" width="64" height="64" viewBox="0 0 64 64">
    <defs>
        <rect id="sxclgtzjia" width="64" height="64" x="0" y="0" rx="32"/>
        <path id="dutmhemafc" d="M0 0h18l-1.901 17.11c-.056.507-.484.89-.994.89H2.895c-.51 0-.938-.383-.994-.89L0 0z"/>
    </defs>
    <g fill="none" fill-rule="evenodd">
        <g>
            <g transform="translate(-285 -2213) translate(285 2213)">
                <mask id="3yjz7c7ffb" fill="#fff">
                    <use xlink:href="#sxclgtzjia"/>
                </mask>
                <use fill="#44A5A9" xlink:href="#sxclgtzjia"/>
                <path d="M10 10H54V54H10z" mask="url(#3yjz7c7ffb)"/>
                <g mask="url(#3yjz7c7ffb)">
                    <g>
                        <g fill="#333D4B">
                            <path d="M0 4H22V8H0z" transform="translate(21 19)"/>
                            <path d="M4.82 0h12.36c.477 0 .887.336.98.804l.6 3c.11.541-.242 1.068-.784 1.177-.064.012-.13.019-.196.019H4.22c-.552 0-1-.448-1-1 0-.066.006-.132.02-.196l.6-3C3.932.336 4.342 0 4.82 0z" transform="translate(21 19)"/>
                        </g>
                        <g transform="translate(21 19) translate(2 8)">
                            <mask id="rkh2o938od" fill="#fff">
                                <use xlink:href="#dutmhemafc"/>
                            </mask>
                            <use fill="#FFF" xlink:href="#dutmhemafc"/>
                            <path fill="#BCEFF1" d="M-1 4H19V13H-1z" mask="url(#rkh2o938od)"/>
                        </g>
                    </g>
                </g>
            </g>
        </g>
    </g>
</svg>
