<svg width="36" height="36" viewBox="0 0 36 36" xmlns="http://www.w3.org/2000/svg">
    <g fill="none" fill-rule="evenodd">
        <path opacity=".2" d="M6 4h23v28H6z"/>
        <path d="M21.24 4a1.286 1.286 0 0 1 1.228 1.665l-1.565 5.063a9.553 9.553 0 0 1 6.01 6.963l2.173 10.202A2.571 2.571 0 0 1 26.571 31h-18a2.571 2.571 0 0 1-2.515-3.107L8.23 17.69a9.553 9.553 0 0 1 6.011-6.963l-1.566-5.063A1.286 1.286 0 0 1 13.903 4h7.337z" fill="#4585ED"/>
        <path d="M17.488 17.5c.416 0 .782.274.9.673l.52 1.781h1.54l.562-1.77a.726.726 0 0 1 .815-.496l.096.023.008.003a.742.742 0 0 1 .475.929l-.415 1.311h.621a.747.747 0 1 1 0 1.494l-1.094-.001-.984 3.108a.944.944 0 0 1-1.807-.02l-.906-3.088h-.661l-.903 3.086a.94.94 0 0 1-1.8.005l-.926-3.091-.996.001a.747.747 0 1 1 0-1.494h.55l-.395-1.32a.742.742 0 0 1 .49-.92.726.726 0 0 1 .911.485l.525 1.755h1.452l.523-1.78a.937.937 0 0 1 .899-.674zm2.487 3.947h-.628l.303 1.03.325-1.03zm-4.346 0h-.568l.287.96.28-.96z" fill="#FFF"/>
        <path stroke="#FFF" stroke-width="1.929" stroke-linecap="round" d="M13.714 10.429h7.715"/>
        <path opacity=".2" d="M0 0h36v36H0z"/>
    </g>
</svg>
