<svg width="36" height="36" viewBox="0 0 36 36" xmlns="http://www.w3.org/2000/svg">
    <g fill="none" fill-rule="evenodd">
        <path d="M0 0h36v36H0z"/>
        <g transform="translate(3.857 2.571)">
            <path fill="#C5AAFF" d="M3.857 7.714h18v15.429h-18z"/>
            <path d="M12.397.147C8.027 3.153 4.75 5.407 2.566 6.91L.437 8.375c-.78.537-.448 1.91.462 1.91h23.917c.91 0 1.241-1.375.461-1.911L13.32.147a.8.8 0 0 0-.923 0z" fill="#9777DB" fill-rule="nonzero"/>
            <rect fill="#C5AAFF" y="21.857" width="25.714" height="2.571" rx="1.286"/>
            <path stroke="#FFF" stroke-width="1.929" stroke-linecap="round" stroke-linejoin="round" d="M8.357 12.857v6.429M12.857 12.857v6.429M17.357 12.857v6.429"/>
            <circle fill="#333D4B" cx="21.857" cy="23.143" r="6.429"/>
            <path stroke="#FFF" stroke-width="1.929" stroke-linecap="round" stroke-linejoin="round" d="M19.286 23.786 21 25.714l3.429-4.5"/>
        </g>
    </g>
</svg>
