<?xml version="1.0" encoding="UTF-8"?>
<svg width="44px" height="44px" viewBox="0 0 44 44" version="1.1" xmlns="http://www.w3.org/2000/svg" xmlns:xlink="http://www.w3.org/1999/xlink">
    <title>F90F1995-E383-48D4-8FAB-05A67E1FC542</title>
    <defs>
        <circle id="path-1" cx="22" cy="22" r="22"></circle>
    </defs>
    <g id="Page-1" stroke="none" stroke-width="1" fill="none" fill-rule="evenodd">
        <g id="1-4-2.-금융추천-Main-_투자(회원)_투자상품목록" transform="translate(-24.000000, -3979.000000)">
            <g id="investment01" transform="translate(24.000000, 3979.000000)">
                <mask id="mask-2" fill="white">
                    <use xlink:href="#path-1"></use>
                </mask>
                <use id="Mask-Copy" fill="#32C8F0" xlink:href="#path-1"></use>
                <rect id="Rectangle-Copy-5" fill="#32C8F0" opacity="0.100000001" mask="url(#mask-2)" x="10" y="10" width="24" height="24"></rect>
                <rect id="Rectangle" fill="#FFFFFF" mask="url(#mask-2)" x="12.5" y="12" width="19" height="20" rx="4"></rect>
                <rect id="Rectangle" fill="#FFFFFF" mask="url(#mask-2)" x="12" y="12" width="20" height="20" rx="4"></rect>
                <g id="Group-12" mask="url(#mask-2)" fill="#0FABD4" fill-rule="nonzero">
                    <g transform="translate(15.000000, 17.500000)">
                        <path d="M12.7515189,0.219669914 C13.0371262,-0.0732233047 13.5001872,-0.0732233047 13.7857945,0.219669914 C14.0428411,0.483273811 14.0685458,0.894281925 13.8629085,1.18736667 L13.7857945,1.28033009 L8.56191391,6.63747294 C8.30486733,6.90107684 7.9040833,6.92743723 7.61828922,6.71655411 L7.52763832,6.63747294 L5.43283582,4.48821429 L1.24848108,8.78033009 C0.991434493,9.04393398 0.590650461,9.07029437 0.304856386,8.85941125 L0.214205488,8.78033009 C-0.0428410977,8.51672619 -0.0685457563,8.10571807 0.137091513,7.81263333 L0.214205488,7.71966991 L4.91569803,2.89824134 C5.17274461,2.63463745 5.57352864,2.60827706 5.85932272,2.81916017 L5.94997362,2.89824134 L8.04477612,5.0475 L12.7515189,0.219669914 Z" id="Path-7"></path>
                        <path d="M13.3636364,0 C13.6858025,0 13.9520529,0.239403293 13.9941908,0.55001286 L14,0.636363636 L14,3.36363636 C14,3.7150903 13.7150903,4 13.3636364,4 C13.0414703,4 12.7752198,3.76059671 12.733082,3.44998714 L12.7272727,3.36363636 L12.7272727,1.27272727 L10.6363636,1.27272727 C10.3141975,1.27272727 10.0479471,1.03332398 10.0058092,0.722714412 L10,0.636363636 C10,0.314197532 10.2394033,0.0479470635 10.5500129,0.00580924994 L10.6363636,0 L13.3636364,0 Z" id="Path-8"></path>
                    </g>
                </g>
            </g>
        </g>
    </g>
</svg>