<svg xmlns="http://www.w3.org/2000/svg" width="40" height="40" viewBox="0 0 40 40">
    <g fill="none" fill-rule="evenodd">
        <g>
            <g>
                <g transform="translate(-52.000000, -459.000000) translate(36.000000, 442.000000) translate(16.000000, 17.000000)">
                    <circle cx="20" cy="20" r="20" fill="#32C8F0"/>
                    <g transform="translate(9.000000, 10.000000)">
                        <circle cx="9.5" cy="9.5" r="9.5" fill="#FFF"/>
                        <circle cx="12.5" cy="11.5" r="9.5" fill="#FFF" opacity=".5"/>
                        <rect width="11" height="1" x="4" y="8" fill="#0073AE" fill-rule="nonzero" rx=".474"/>
                        <path fill="#0073AE" fill-rule="nonzero" d="M13.536 6.194c.355.115.55.496.436.851l-1.72 5.348c-.117.365-.458.611-.842.607-.383-.004-.719-.257-.828-.625L9.446 8.56 8.31 12.373c-.109.368-.446.62-.83.622-.383 0-.722-.25-.834-.617l-1.622-5.34c-.109-.357.092-.735.45-.844.355-.109.732.091.84.447l.001.001 1.157 3.81 1.14-3.832c.11-.368.448-.62.832-.62.384 0 .722.252.831.62l1.16 3.896 1.251-3.887c.114-.355.494-.55.848-.435h.001z"/>
                    </g>
                </g>
            </g>
        </g>
    </g>
</svg>
