<svg xmlns="http://www.w3.org/2000/svg" width="20" height="20" viewBox="0 0 20 20">
    <defs>
        <filter id="oxdvy2av6a">
            <feColorMatrix in="SourceGraphic" values="0 0 0 0 1.000000 0 0 0 0 1.000000 0 0 0 0 1.000000 0 0 0 1.000000 0"/>
        </filter>
    </defs>
    <g fill="none" fill-rule="evenodd">
        <g>
            <g>
                <g transform="translate(-48.000000, -380.000000) translate(24.000000, 312.000000) translate(24.000000, 68.000000)">
                    <circle cx="10" cy="10" r="10" fill="#7A6FC9"/>
                    <g filter="url(#oxdvy2av6a)">
                        <g>
                            <path fill="#000" fill-rule="nonzero" d="M5.49 10v-.98H2.93c-.32 0-.65.06-.96.14l1.88-1.9c.74-.74 1.51-1.53 1.51-2.65 0-1.34-1.02-2.08-2.26-2.08-1.37 0-2.29.79-2.48 2.11l1.1.2c-.06-.79.53-1.37 1.32-1.37 1.42 0 1.36 1.4.86 2.3-.26.41-.58.75-.92 1.09L.49 9.36V10h5z" transform="translate(7.000000, 3.000000)"/>
                        </g>
                    </g>
                </g>
            </g>
        </g>
    </g>
</svg>
