<svg width="44" height="44" xmlns="http://www.w3.org/2000/svg" xmlns:xlink="http://www.w3.org/1999/xlink">
    <defs>
        <rect id="a" x="0" y="0" width="44" height="44" rx="22"/>
    </defs>
    <g fill="none" fill-rule="evenodd">
        <mask id="b" fill="#fff">
            <use xlink:href="#a"/>
        </mask>
        <use fill="#FFCD58" xlink:href="#a"/>
        <path mask="url(#b)" d="M10 10h24v24H10z"/>
        <g mask="url(#b)">
            <g transform="translate(6.782 7.593)">
                <circle fill="#FFF" cx="15.218" cy="14.407" r="7"/>
                <path d="M15.22 9.407c.328 0 .593.28.593.625l.002.654c.456.05.852.167 1.194.35.305.167.404.537.235.86-.162.32-.447.418-.754.28-.397-.18-.724-.247-1.217-.247-.673 0-1.134.319-1.201.713l-.009.1.004.153c.035.39.313.583 1.184.787l.45.104c1.316.334 1.942.94 2.011 1.909l.006.186v.09c0 1.21-.663 1.948-1.903 2.137l-.002.674c0 .345-.265.625-.592.625-.328 0-.593-.28-.593-.625v-.655c-.61-.073-1.204-.27-1.62-.543-.318-.21-.373-.592-.17-.923.198-.32.5-.398.814-.211.451.273.987.424 1.535.424.73 0 1.127-.26 1.183-.69l.008-.112v-.07c0-.478-.3-.745-1.073-.933l-.419-.093c-1.497-.344-2.094-.853-2.15-1.963l-.004-.251c0-1.063.715-1.851 1.896-2.054v-.676c0-.345.265-.625.593-.625z" fill="#35424F" fill-rule="nonzero"/>
                <g stroke-linecap="round" stroke-linejoin="round" stroke="#FFF" stroke-width="2">
                    <path d="M23.645 19.181c2.655-4.598 1.039-10.502-3.61-13.187a9.724 9.724 0 0 0-10.76.658M26.32 19.13l-3.117.818.54-.935M6.75 9.513c-2.655 4.599-1.03 10.508 3.632 13.2 3.522 2.033 7.769 1.647 10.78-.647"/>
                    <path d="m4.117 9.588 3.122-.815c-.373.574-.577.892-.613.955"/>
                </g>
            </g>
        </g>
    </g>
</svg>
