<svg width="24" height="24" xmlns="http://www.w3.org/2000/svg">
    <defs>
        <filter id="a">
            <feColorMatrix in="SourceGraphic" values="0 0 0 0 1.000000 0 0 0 0 1.000000 0 0 0 0 1.000000 0 0 0 1.000000 0"/>
        </filter>
    </defs>
    <g fill="none" fill-rule="evenodd">
        <circle fill="#476EFF" cx="12" cy="12" r="12"/>
        <g filter="url(#a)">
            <path d="M11.988 16.228c1.68 0 3.144-.972 3.18-2.808 0-1.056-.444-1.74-1.5-2.136.756-.372 1.344-.972 1.344-1.992.036-1.332-1.08-2.376-2.76-2.412-1.692 0-2.832.84-3.18 2.676.528.084 1.044.192 1.56.276.156-.864.504-1.536 1.524-1.536.78 0 1.248.408 1.236 1.236 0 .768-.372 1.272-1.956 1.308v1.2c1.872 0 2.1.576 2.1 1.416 0 .672-.516 1.332-1.572 1.332-.852 0-1.524-.852-1.716-1.62l-1.464.576c.48 1.572 1.38 2.484 3.204 2.484z" fill="#000" fill-rule="nonzero"/>
        </g>
    </g>
</svg>
