<svg xmlns="http://www.w3.org/2000/svg" width="20" height="20" viewBox="0 0 20 20">
    <g fill="none" fill-rule="evenodd">
        <g>
            <g>
                <path d="M0 0H20V20H0z" transform="translate(-2277 -1382) matrix(0 -1 -1 0 2297 1402)"/>
                <g fill="#000" fill-rule="nonzero">
                    <path d="M7.19 2.164c.214-.254.593-.286.846-.073C9.413 3.25 10.25 5.347 10.25 7.653c0 2.3-.838 4.396-2.213 5.557-.253.214-.632.182-.845-.071-.214-.254-.182-.632.071-.846 1.085-.915 1.787-2.673 1.787-4.64 0-1.973-.701-3.73-1.786-4.644-.254-.213-.286-.591-.073-.845z" transform="translate(-2277 -1382) matrix(0 -1 -1 0 2297 1402) translate(3.175 2.349)"/>
                    <path d="M10.19-.386c.214-.254.593-.286.846-.073 1.992 1.676 3.214 4.738 3.214 8.113 0 3.367-1.223 6.427-3.213 8.106-.253.214-.632.182-.845-.071-.214-.253-.182-.632.071-.845 1.7-1.435 2.787-4.156 2.787-7.19 0-3.042-1.086-5.764-2.786-7.195-.254-.213-.286-.592-.073-.845zM4.32 4.283c.23-.239.61-.246.85-.016.907.874 1.43 2.088 1.43 3.385 0 1.313-.522 2.533-1.436 3.405-.24.228-.62.22-.848-.02-.229-.24-.22-.62.02-.849C5.012 9.543 5.4 8.636 5.4 7.652c0-.969-.389-1.87-1.063-2.52-.239-.23-.246-.61-.016-.849z" transform="translate(-2277 -1382) matrix(0 -1 -1 0 2297 1402) translate(3.175 2.349)"/>
                    <path d="M1.5 6.151c.828 0 1.5.672 1.5 1.5s-.672 1.5-1.5 1.5S0 8.479 0 7.651s.672-1.5 1.5-1.5zm0 1c-.276 0-.5.224-.5.5s.224.5.5.5.5-.224.5-.5-.224-.5-.5-.5z" transform="translate(-2277 -1382) matrix(0 -1 -1 0 2297 1402) translate(3.175 2.349) matrix(0 -1 -1 0 9.151 9.151)"/>
                </g>
            </g>
        </g>
    </g>
</svg>
