<svg width="44" height="44" xmlns="http://www.w3.org/2000/svg" xmlns:xlink="http://www.w3.org/1999/xlink">
    <defs>
        <rect id="a" x="0" y="0" width="44" height="44" rx="22"/>
    </defs>
    <g fill="none" fill-rule="evenodd">
        <mask id="b" fill="#fff">
            <use xlink:href="#a"/>
        </mask>
        <use fill="#FFCD58" xlink:href="#a"/>
        <path opacity=".2" mask="url(#b)" d="M10 10h24v24H10z"/>
        <path d="M24.864 10a1 1 0 0 1 .955 1.296l-1.222 3.944a7.366 7.366 0 0 1 4.623 5.44l1.796 8.925A2 2 0 0 1 29.056 32H14.943a2 2 0 0 1-1.96-2.395l1.796-8.926a7.366 7.366 0 0 1 4.623-5.44l-1.223-3.943A1 1 0 0 1 19.136 10h5.728z" fill="#FFF" mask="url(#b)"/>
        <path d="M22.002 19c.327 0 .593.28.593.625l.001.654c.457.05.853.167 1.194.35.306.167.405.537.235.86-.162.32-.447.419-.753.28-.398-.18-.725-.246-1.218-.246-.672 0-1.134.318-1.2.712l-.01.1.005.153c.035.39.312.583 1.184.788l.45.103c1.315.334 1.941.94 2.01 1.909l.007.186v.09c0 1.21-.663 1.948-1.904 2.137l-.001.674c0 .345-.266.625-.593.625-.327 0-.593-.28-.593-.625v-.655c-.61-.072-1.203-.27-1.62-.543-.317-.21-.372-.592-.17-.923.198-.32.5-.398.814-.21.452.273.987.423 1.536.423.73 0 1.126-.26 1.183-.69l.007-.112v-.07c0-.478-.3-.745-1.073-.933l-.418-.093c-1.498-.344-2.094-.853-2.15-1.963l-.005-.25c0-1.064.716-1.852 1.897-2.055v-.676c0-.345.265-.625.592-.625z" fill="#35424F" fill-rule="nonzero" mask="url(#b)"/>
        <path stroke="#F5AC00" stroke-width="1.5" stroke-linecap="round" mask="url(#b)" d="M19 15h6"/>
    </g>
</svg>
