<svg width="44" height="44" xmlns="http://www.w3.org/2000/svg" xmlns:xlink="http://www.w3.org/1999/xlink">
    <defs>
        <rect id="a" x="0" y="0" width="44" height="44" rx="22"/>
    </defs>
    <g fill="none" fill-rule="evenodd">
        <mask id="b" fill="#fff">
            <use xlink:href="#a"/>
        </mask>
        <use fill="#FFCD58" xlink:href="#a"/>
        <g mask="url(#b)" fill-rule="nonzero">
            <path d="M31.443 25.29c.36-1.03.557-2.138.557-3.29a9.957 9.957 0 0 0-.588-3.38C30.022 14.764 26.328 12 22 12c-4.328 0-8.023 2.764-9.412 6.62A9.957 9.957 0 0 0 12 22a9.957 9.957 0 0 0 .588 3.38C13.978 29.236 17.672 32 22 32c4.328 0 8.023-2.764 9.412-6.62a.715.715 0 0 0 .031-.09z" fill="#FFF"/>
            <path d="m12.5 18.897.062-.187a9.936 9.936 0 0 1 .325-.813h4.545c.592-2.702 1.76-4.831 3.261-5.81a9.94 9.94 0 0 1 2.624-.001c1.5.98 2.669 3.11 3.26 5.81h4.546a9.937 9.937 0 0 1 .389 1l-4.746.001c.156.982.239 2.025.239 3.103 0 1.09-.085 2.142-.244 3.133l4.739-.001-.052.158a.778.778 0 0 1-.014.046l-.017.044a9.938 9.938 0 0 1-.307.753H26.57c-.593 2.686-1.758 4.803-3.252 5.78a10.05 10.05 0 0 1-2.627.002c-1.495-.979-2.66-3.096-3.253-5.782H12.9a9.938 9.938 0 0 1-.392-1h4.74A19.831 19.831 0 0 1 17.006 22c0-1.078.083-2.12.239-3.103H12.5zm12.937 7.236h-6.864c.664 2.823 1.97 4.857 3.432 5.284 1.461-.426 2.768-2.46 3.432-5.284zm.207-7.236h-7.278c-.163.971-.254 2.015-.254 3.103 0 1.1.092 2.153.26 3.132h7.267c.167-.979.259-2.032.259-3.132 0-1.088-.09-2.132-.254-3.103zm-3.639-6.314-.125.04c-1.416.505-2.672 2.516-3.314 5.274h6.878c-.661-2.839-1.972-4.885-3.439-5.314z" fill="#F5AC00"/>
        </g>
        <circle fill="#333D4B" mask="url(#b)" cx="29" cy="30" r="5"/>
        <path d="M29.003 27c.207 0 .375.168.375.375v.393c.29.03.54.1.755.21.194.1.256.322.15.516-.103.192-.284.25-.478.167a1.768 1.768 0 0 0-.77-.147c-.425 0-.717.19-.76.427l-.004.06.002.092c.022.234.198.35.749.472l.285.063c.832.2 1.228.563 1.271 1.145l.004.111v.055c0 .725-.42 1.168-1.204 1.282v.404a.375.375 0 1 1-.75 0v-.393c-.386-.043-.762-.162-1.025-.326-.2-.125-.236-.355-.108-.553.126-.192.317-.24.515-.127.286.164.625.254.971.254.462 0 .713-.156.749-.414l.004-.067v-.042c0-.287-.19-.447-.678-.56l-.265-.055c-.947-.207-1.324-.512-1.36-1.178l-.003-.15c0-.639.453-1.112 1.2-1.233v-.406c0-.207.167-.375.375-.375z" stroke="#FFF" stroke-width=".2" fill="#FFF" fill-rule="nonzero" mask="url(#b)"/>
    </g>
</svg>
