<svg xmlns="http://www.w3.org/2000/svg" width="20" height="20" viewBox="0 0 20 20">
    <g fill="none" fill-rule="evenodd">
        <g>
            <g>
                <g>
                    <g>
                        <path d="M0 0H20V20H0z" transform="translate(-24 -205) translate(24 186) translate(0 15) translate(0 4)"/>
                        <g fill="#F4BA3D" fill-rule="nonzero">
                            <path d="M15.958 5.668c-.104-.317-.392-.542-.732-.572l-4.618-.41L8.782.505C8.647.198 8.341 0 8 0c-.34 0-.647.198-.782.506l-1.826 4.18-4.619.41c-.34.031-.626.255-.731.572-.105.317-.008.665.249.884l3.49 2.995-1.03 4.436c-.074.326.055.663.332.858.148.105.322.159.498.159.15 0 .3-.04.436-.119L8 12.552l3.982 2.33c.291.17.659.155.935-.04.277-.197.406-.534.33-.86l-1.029-4.435 3.49-2.994c.258-.22.356-.567.25-.885z" transform="translate(-24 -205) translate(24 186) translate(0 15) translate(0 4) translate(2 2.5)"/>
                        </g>
                    </g>
                </g>
            </g>
        </g>
    </g>
</svg>
