<svg xmlns="http://www.w3.org/2000/svg" xmlns:xlink="http://www.w3.org/1999/xlink" width="44" height="44" viewBox="0 0 44 44">
    <defs>
        <rect id="v3fsozkvva" width="44" height="44" x="0" y="0" rx="22"/>
    </defs>
    <g fill="none" fill-rule="evenodd">
        <g>
            <g>
                <g transform="translate(-23.000000, -760.000000) translate(23.000000, 760.000000) translate(0.000000, -0.000000)">
                    <mask id="i3s2i3ejzb" fill="#fff">
                        <use xlink:href="#v3fsozkvva"/>
                    </mask>
                    <use fill="#FFCD58" xlink:href="#v3fsozkvva"/>
                    <path fill="#FFF" fill-opacity="0" d="M10 10H34V34H10z" mask="url(#i3s2i3ejzb)"/>
                    <g mask="url(#i3s2i3ejzb)">
                        <g transform="translate(10.000000, 10.000000)">
                            <circle cx="14" cy="14" r="10" fill="#F5AC00"/>
                            <circle cx="10" cy="10" r="10" fill="#FFF"/>
                            <path fill="#333D4B" d="M9.92 7c.397 0 .747.259.864.638l.488 1.589h1.463l.525-1.582c.122-.366.514-.566.882-.45.36.112.56.496.447.856l-.003.01-.388 1.166h.624c.375 0 .678.303.678.678 0 .374-.303.677-.678.677H13.75l-.926 2.794c-.125.376-.478.628-.875.624-.396-.004-.743-.264-.86-.643l-.853-2.775h-.628l-.85 2.773c-.117.38-.466.638-.863.64-.396 0-.747-.256-.866-.635l-.871-2.778h-.98c-.374 0-.677-.303-.677-.677 0-.375.303-.678.678-.678h.555l-.368-1.172c-.113-.36.088-.745.449-.858l.01-.003c.37-.11.758.098.874.465l.491 1.568h1.38l.489-1.589c.116-.38.466-.638.863-.638zm2.365 3.582h-.597l.288.934.309-.934zm-4.132 0h-.54l.273.87.267-.87z"/>
                        </g>
                    </g>
                </g>
            </g>
        </g>
    </g>
</svg>
