<svg xmlns="http://www.w3.org/2000/svg" width="40" height="40" viewBox="0 0 40 40">
    <g fill="none" fill-rule="evenodd">
        <g>
            <g>
                <g transform="translate(-52.000000, -541.000000) translate(36.000000, 524.000000) translate(16.000000, 17.000000)">
                    <circle cx="20" cy="20" r="20" fill="#8869CC"/>
                    <g>
                        <path fill="#FFF" d="M1 0h10.24c.552 0 1 .448 1 1v15H1c-.552 0-1-.448-1-1V1c0-.552.448-1 1-1z" transform="translate(12.000000, 12.000000)"/>
                        <path fill="#6A44BF" d="M2.72 2.667H5.44V4.667H2.72zM2.72 6H5.44V8H2.72zM6.8 2.667H9.52V4.667H6.8zM6.8 6H9.52V8H6.8z" transform="translate(12.000000, 12.000000)"/>
                        <path fill="#9777DB" d="M3.4 11.333H8.84V16H3.4z" transform="translate(12.000000, 12.000000)"/>
                        <path fill="#D0BBFF" d="M12.24 6H16c.552 0 1 .448 1 1v8c0 .552-.448 1-1 1h-3.76V6z" transform="translate(12.000000, 12.000000)"/>
                    </g>
                </g>
            </g>
        </g>
    </g>
</svg>
