<svg xmlns="http://www.w3.org/2000/svg" width="20" height="20" viewBox="0 0 20 20">
    <defs>
        <filter id="xsk2sfoaia">
            <feColorMatrix in="SourceGraphic" values="0 0 0 0 1.000000 0 0 0 0 1.000000 0 0 0 0 1.000000 0 0 0 1.000000 0"/>
        </filter>
    </defs>
    <g fill="none" fill-rule="evenodd">
        <g>
            <g>
                <g transform="translate(-48.000000, -432.000000) translate(24.000000, 312.000000) translate(24.000000, 120.000000)">
                    <circle cx="10" cy="10" r="10" fill="#AFB2D1"/>
                    <g filter="url(#xsk2sfoaia)">
                        <g>
                            <path fill="#000" fill-rule="nonzero" d="M3.02 10.09c1.37 0 2.5-.83 2.5-2.24 0-.93-.5-1.49-1.38-1.74.85-.27 1.22-.83 1.22-1.68 0-1.25-1.07-1.9-2.19-1.9C1.8 2.53.89 3.34.7 4.65l1.09.19c-.06-.79.56-1.37 1.32-1.37.73 0 1.18.44 1.18 1.15 0 .98-.83 1.2-1.66 1.2v.8c.9 0 1.79.13 1.79 1.26 0 .77-.66 1.27-1.41 1.27-.76 0-1.47-.65-1.56-1.41l-.97.4c.4 1.34 1.19 1.95 2.54 1.95z" transform="translate(7.000000, 3.000000)"/>
                        </g>
                    </g>
                </g>
            </g>
        </g>
    </g>
</svg>
