<svg width="44" height="44" xmlns="http://www.w3.org/2000/svg" xmlns:xlink="http://www.w3.org/1999/xlink">
    <defs>
        <rect id="a" x="0" y="0" width="44" height="44" rx="22"/>
    </defs>
    <g fill="none" fill-rule="evenodd">
        <mask id="b" fill="#fff">
            <use xlink:href="#a"/>
        </mask>
        <use fill="#4585ED" xlink:href="#a"/>
        <path opacity=".2" mask="url(#b)" d="M10 11h24v24H10z"/>
        <path d="m22 13-8 6.828V30a1 1 0 0 0 1 1h14a1 1 0 0 0 1-1V19.828L22 13z" fill="#FFF" fill-rule="nonzero" mask="url(#b)"/>
        <path d="M20.2 24h3.6a1.2 1.2 0 0 1 1.2 1.2V31h-6v-5.8a1.2 1.2 0 0 1 1.2-1.2zM11.344 19.325l10.042-8.11a1 1 0 0 1 1.234-.017l10.013 7.624a1 1 0 0 1 .196 1.393l-.693.93a1 1 0 0 1-1.407.197l-8.053-6.131a1 1 0 0 0-1.234.017l-8.123 6.56a1 1 0 0 1-1.413-.157l-.718-.908a1 1 0 0 1 .156-1.398z" fill="#9BC1FF" fill-rule="nonzero" mask="url(#b)"/>
    </g>
</svg>
