<svg xmlns="http://www.w3.org/2000/svg" width="24" height="24" viewBox="0 0 24 24">
    <defs>
        <filter id="d90sg1ieta">
            <feColorMatrix in="SourceGraphic" values="0 0 0 0 1.000000 0 0 0 0 0.803922 0 0 0 0 0.411765 0 0 0 1.000000 0"/>
        </filter>
    </defs>
    <g fill="none" fill-rule="evenodd">
        <g>
            <g transform="translate(-38.000000, -382.000000) translate(38.000000, 382.000000)">
                <rect width="24" height="24" fill="#323B50" rx="12"/>
                <g filter="url(#d90sg1ieta)">
                    <g fill="#131415" transform="translate(5.500000, 7.600000)">
                        <rect width="13" height="1.843" y="2.457" rx=".75"/>
                        <path fill-rule="nonzero" d="M11.261.238c.422.143.653.595.522 1.02L9.738 7.882c-.133.431-.534.723-.984.718-.452-.005-.846-.306-.97-.74L6.436 3.145 5.09 7.858c-.124.434-.52.734-.972.735-.451.002-.849-.296-.975-.73L1.213 1.25c-.124-.427.114-.875.538-1.01.41-.131.849.095.98.505l.005.019L4.11 5.47 5.463.734C5.587.299 5.983 0 6.435 0c.451 0 .848.3.973.733l1.376 4.815L10.268.747c.127-.411.563-.642.974-.515l.02.006z"/>
                    </g>
                </g>
            </g>
        </g>
    </g>
</svg>
