<svg width="44" height="44" xmlns="http://www.w3.org/2000/svg" xmlns:xlink="http://www.w3.org/1999/xlink">
    <defs>
        <rect id="a" x="0" y="0" width="44" height="44" rx="22"/>
    </defs>
    <g fill="none" fill-rule="evenodd">
        <mask id="b" fill="#fff">
            <use xlink:href="#a"/>
        </mask>
        <use fill="#4585ED" xlink:href="#a"/>
        <path opacity=".2" mask="url(#b)" d="M10 10h24v24H10z"/>
        <path d="M24.853 10a1 1 0 0 1 .956 1.295l-1.218 3.938a7.43 7.43 0 0 1 4.675 5.416l1.69 7.934A2 2 0 0 1 29 31H15a2 2 0 0 1-1.956-2.417l1.69-7.934a7.43 7.43 0 0 1 4.674-5.416l-1.217-3.938A1 1 0 0 1 19.146 10h5.707z" fill="#FFF" mask="url(#b)"/>
        <path d="M21.935 20.5c.324 0 .609.213.7.524l.405 1.384h1.198l.436-1.376a.565.565 0 0 1 .709-.368l.006.002c.3.1.465.421.37.723l-.324 1.019h.484a.58.58 0 1 1 0 1.163l-.852-.001-.764 2.417a.734.734 0 0 1-1.406-.015l-.705-2.402h-.513l-.703 2.4a.73.73 0 0 1-1.4.004l-.72-2.404h-.775a.58.58 0 1 1 0-1.161l.427-.001-.306-1.025a.577.577 0 0 1 .381-.717.565.565 0 0 1 .707.372l.002.006.407 1.364h1.13l.407-1.384a.729.729 0 0 1 .699-.524zm1.935 3.07h-.489l.235.8.254-.8zm-3.381 0h-.442l.224.746.218-.746z" fill="#35424F" mask="url(#b)"/>
        <path stroke="#9BC1FF" stroke-width="1.5" stroke-linecap="round" mask="url(#b)" d="M19 15h6"/>
    </g>
</svg>
