<svg xmlns="http://www.w3.org/2000/svg" width="16" height="16" viewBox="0 0 16 16">
    <g fill="none" fill-rule="evenodd">
        <g>
            <g>
                <g>
                    <path d="M0 0H16V16H0z" transform="translate(-135.000000, -1698.000000) translate(24.000000, 1682.000000) translate(111.000000, 16.000000)"/>
                    <g transform="translate(-135.000000, -1698.000000) translate(24.000000, 1682.000000) translate(111.000000, 16.000000) translate(0.500000, -0.000000)">
                        <rect width="14.08" height="14.037" x=".46" y="1.503" stroke="#494F60" stroke-width=".92" rx="1.84"/>
                        <path fill="#494F60" fill-rule="nonzero" d="M5.224 11.434c1.05 0 1.965-.605 1.987-1.75 0-.658-.277-1.084-.937-1.33.472-.232.84-.606.84-1.242.022-.83-.675-1.48-1.725-1.503-1.058 0-1.77.523-1.988 1.667.33.053.653.12.975.172.098-.538.315-.957.953-.957.487 0 .78.255.772.77 0 .48-.232.793-1.222.816v.747c1.17 0 1.312.36 1.312.883 0 .419-.322.83-.982.83-.533 0-.953-.53-1.073-1.01l-.915.36c.3.98.863 1.547 2.003 1.547zm4.462-.037c1.2 0 2.093-.905 2.093-2.88 0-1.988-.893-2.886-2.093-2.886-1.17 0-2.07.898-2.07 2.887 0 1.974.9 2.88 2.07 2.88zm0-.867c-.517 0-1.02-.427-1.02-2.012 0-1.593.503-2.027 1.02-2.027.548 0 1.043.434 1.043 2.027 0 1.585-.495 2.012-1.043 2.012z"/>
                        <rect width="1" height="3.739" x="4.688" fill="#494F60" rx=".46"/>
                        <rect width="1" height="3.739" x="9.375" fill="#494F60" rx=".46"/>
                    </g>
                </g>
            </g>
        </g>
    </g>
</svg>
