<svg xmlns="http://www.w3.org/2000/svg" xmlns:xlink="http://www.w3.org/1999/xlink" width="24" height="24" viewBox="0 0 24 24">
    <defs>
        <rect id="e3q6o1i1aa" width="24" height="24" x="0" y="0" rx="12"/>
    </defs>
    <g fill="none" fill-rule="evenodd">
        <g>
            <g transform="translate(-38.000000, -648.000000) translate(38.000000, 648.000000)">
                <mask id="fpr9oyadjb" fill="#fff">
                    <use xlink:href="#e3q6o1i1aa"/>
                </mask>
                <use fill="#0BC1C5" xlink:href="#e3q6o1i1aa"/>
                <path fill="#FFF" d="M12 15.5l-2.321 1.22c-.489.257-1.093.07-1.35-.42-.103-.194-.138-.417-.101-.634l.443-2.584-1.877-1.83c-.396-.386-.404-1.02-.019-1.415.154-.157.355-.26.573-.291l2.595-.378 1.16-2.351c.245-.495.844-.699 1.34-.454.197.097.356.257.454.454l1.16 2.351 2.595.378c.547.079.925.586.846 1.133-.032.218-.134.419-.292.572l-1.877 1.83.443 2.585c.093.544-.272 1.061-.817 1.155-.216.037-.44.002-.634-.1L12 15.5z" mask="url(#fpr9oyadjb)"/>
            </g>
        </g>
    </g>
</svg>
