<svg xmlns="http://www.w3.org/2000/svg" width="24" height="24" viewBox="0 0 24 24">
    <g fill="none" fill-rule="evenodd">
        <g>
            <g>
                <path d="M0 0H24V24H0z" transform="translate(-24.000000, -4297.000000) translate(24.000000, 4297.000000)"/>
                <g fill="#000" fill-rule="nonzero">
                    <path d="M10.621.12l.14.066 6.093 3.328c.458.25.756.715.802 1.232l.007.142-.001 9.432h1.946v1.2H0v-1.2h2.4V4.888c0-.525.26-1.012.688-1.3l.12-.074L9.303.186c.41-.223.894-.246 1.319-.067zm-.668 1.09l-.075.03-6.094 3.328c-.09.048-.154.137-.176.24l-.008.08v9.432h3.919L7.52 8.1c0-.567.429-1.034.98-1.094L8.62 7h2.75c.608 0 1.1.492 1.1 1.1l-.001 6.22h3.993V4.888c0-.109-.046-.21-.121-.277l-.062-.043-6.094-3.328c-.073-.04-.155-.05-.232-.03zm1.317 6.989H8.72v5.84h2.55v-5.84z" transform="translate(-24.000000, -4297.000000) translate(24.000000, 4297.000000) translate(2.000000, 3.899997)"/>
                </g>
            </g>
        </g>
    </g>
</svg>
