<svg width="12" height="12" xmlns="http://www.w3.org/2000/svg">
    <g fill="none" fill-rule="evenodd">
        <path d="M0 0h12v12H0z"/>
        <path d="M10.775 4.901a.507.507 0 0 0-.44-.343l-2.77-.246-1.096-2.51A.51.51 0 0 0 6 1.5a.51.51 0 0 0-.47.303L4.436 4.312l-2.771.246a.508.508 0 0 0-.439.343.492.492 0 0 0 .15.53l2.094 1.797L2.85 9.89a.494.494 0 0 0 .199.515.517.517 0 0 0 .56.024L6 9.03l2.39 1.398a.518.518 0 0 0 .56-.024.494.494 0 0 0 .199-.515L8.53 7.228l2.094-1.796a.492.492 0 0 0 .15-.531z" fill="#F4BA3D" fill-rule="nonzero"/>
    </g>
</svg>
