<svg xmlns="http://www.w3.org/2000/svg" width="20" height="20" viewBox="0 0 20 20">
    <g fill="none" fill-rule="evenodd">
        <g>
            <g>
                <path d="M0 0H20V20H0z" transform="translate(-2182 -1382) translate(2182 1382)"/>
                <g>
                    <path d="M0 0H20V20H0z" transform="translate(-2182 -1382) translate(2182 1382)"/>
                    <path fill="#000" fill-rule="nonzero" stroke="#000" stroke-width=".2" d="M5.133 12.502c1.576 1.885 3.475 3.369 5.641 4.419.825.39 1.928.855 3.157.934.076.003.149.007.225.007.825 0 1.488-.285 2.028-.871.003-.004.01-.01.013-.017.192-.232.41-.44.64-.663.155-.149.314-.304.466-.463.706-.736.706-1.67-.006-2.382l-1.991-1.991c-.338-.351-.742-.537-1.166-.537-.424 0-.832.186-1.18.534l-1.186 1.186c-.109-.063-.222-.12-.328-.173-.132-.066-.255-.129-.364-.198-1.08-.686-2.06-1.58-2.998-2.73-.474-.6-.792-1.103-1.014-1.617.312-.281.603-.576.885-.864.1-.103.202-.206.305-.308.357-.358.55-.772.55-1.193 0-.42-.19-.835-.55-1.192l-.987-.988c-.116-.115-.226-.228-.338-.344-.219-.225-.448-.457-.673-.666-.341-.334-.742-.51-1.166-.51-.42 0-.825.176-1.18.513l-1.238 1.24c-.45.45-.706.996-.759 1.63-.063.79.083 1.632.46 2.65.58 1.573 1.455 3.034 2.754 4.594zM2.728 5.327c.04-.44.208-.809.526-1.127l1.233-1.232c.192-.185.404-.281.61-.281.201 0 .407.096.595.288.222.205.431.42.656.65l.345.35.987.987c.205.206.311.414.311.62 0 .205-.106.414-.311.62-.103.102-.205.208-.308.31-.308.312-.596.607-.914.888l-.017.017c-.275.275-.232.537-.166.735l.01.027c.255.613.61 1.196 1.163 1.891.994 1.226 2.04 2.177 3.194 2.909.142.093.294.166.437.238.132.067.255.13.364.2l.037.02c.109.055.215.082.32.082.266 0 .438-.17.495-.225l1.238-1.24c.193-.191.401-.294.607-.294.251 0 .457.156.586.295l1.997 1.994c.398.397.395.828-.01 1.249-.139.149-.284.291-.44.44-.232.226-.474.457-.692.72-.381.41-.835.602-1.421.602-.057 0-.116-.003-.173-.007-1.086-.07-2.097-.493-2.855-.854-2.06-.997-3.87-2.412-5.37-4.207-1.236-1.488-2.067-2.872-2.617-4.356-.341-.911-.47-1.643-.417-2.31z" transform="translate(-2182 -1382) translate(2182 1382)"/>
                </g>
            </g>
        </g>
    </g>
</svg>
