<?xml version="1.0" encoding="UTF-8"?>
<svg width="44px" height="44px" viewBox="0 0 44 44" version="1.1" xmlns="http://www.w3.org/2000/svg" xmlns:xlink="http://www.w3.org/1999/xlink">
    <title>303B765E-17F0-4E0A-A102-43922C50C2F8</title>
    <defs>
        <rect id="path-1" x="0" y="0" width="44" height="44" rx="22"></rect>
        <path d="M0,0 L12,0 L10.8406821,5.21693046 C10.7390071,5.67446801 10.3331937,6 9.86449506,6 L2.13550494,6 C1.66680629,6 1.26099289,5.67446801 1.15931788,5.21693046 L0,0 L0,0 Z" id="path-3"></path>
    </defs>
    <g id="Page-1" stroke="none" stroke-width="1" fill="none" fill-rule="evenodd">
        <g id="1-4-2.-금융추천-Main-_투자(회원)_투자상품목록" transform="translate(-24.000000, -4486.000000)">
            <g id="IRP01" transform="translate(24.000000, 4486.000000)">
                <mask id="mask-2" fill="white">
                    <use xlink:href="#path-1"></use>
                </mask>
                <use id="Mask" fill="#FD7F36" xlink:href="#path-1"></use>
                <rect id="48x48" opacity="0.200000003" mask="url(#mask-2)" x="10" y="10" width="24" height="24"></rect>
                <line x1="22" y1="21.7" x2="22" y2="27.5" id="Path-12" stroke="#FFBD85" stroke-width="2" stroke-linecap="round" mask="url(#mask-2)"></line>
                <path d="M22,10 C24.4852814,10 26.5,12.0147186 26.5,14.5 C26.5,15.0507819 26.4010484,15.5784525 26.2199528,16.0662042 C28.3672494,16.4154755 30,18.1736611 30,20.2896936 C30,22.6588259 27.9533017,24.5793872 25.4285714,24.5793872 C24.0631931,24.5793872 22.8376232,24.0176875 21.9999717,23.1271074 C21.1623768,24.0176875 19.9368069,24.5793872 18.5714286,24.5793872 C16.0466983,24.5793872 14,22.6588259 14,20.2896936 C14,18.1736611 15.6327506,16.4154755 17.7805406,16.0639641 C17.5989516,15.5784525 17.5,15.0507819 17.5,14.5 C17.5,12.0147186 19.5147186,10 22,10 Z" id="Combined-Shape" fill="#FFFFFF" mask="url(#mask-2)"></path>
                <g id="cup" mask="url(#mask-2)">
                    <g transform="translate(16.000000, 28.000000)">
                        <mask id="mask-4" fill="white">
                            <use xlink:href="#path-3"></use>
                        </mask>
                        <use id="Mask" stroke="none" fill="#FFBD85" fill-rule="evenodd" xlink:href="#path-3"></use>
                        <rect id="Rectangle" stroke="none" fill="#FFFFFF" fill-rule="evenodd" mask="url(#mask-4)" x="-0.714285714" y="0" width="12.7142857" height="2"></rect>
                    </g>
                </g>
            </g>
        </g>
    </g>
</svg>