<svg xmlns="http://www.w3.org/2000/svg" xmlns:xlink="http://www.w3.org/1999/xlink" width="44" height="44" viewBox="0 0 44 44">
    <defs>
        <rect id="9nyajamcqa" width="44" height="44" x="0" y="0" rx="22"/>
    </defs>
    <g fill="none" fill-rule="evenodd">
        <g>
            <g transform="translate(-24.000000, -1440.000000) translate(24.000000, 1440.000000)">
                <mask id="4eyrb58zab" fill="#fff">
                    <use xlink:href="#9nyajamcqa"/>
                </mask>
                <use fill="#6B7583" xlink:href="#9nyajamcqa"/>
                <path fill="#FFF" fill-opacity="0" d="M10 10H34V34H10z" mask="url(#4eyrb58zab)"/>
                <path fill="#FFF" d="M14.036 20c1.124 0 2.035.895 2.035 2s-.911 2-2.035 2C12.91 24 12 23.105 12 22s.911-2 2.036-2zm7.464 0c1.124 0 2.036.895 2.036 2s-.912 2-2.036 2-2.036-.895-2.036-2 .912-2 2.036-2zm7.464 0C30.09 20 31 20.895 31 22s-.911 2-2.036 2c-1.124 0-2.035-.895-2.035-2s.911-2 2.035-2z" mask="url(#4eyrb58zab)"/>
            </g>
        </g>
    </g>
</svg>
