<svg xmlns="http://www.w3.org/2000/svg" width="16" height="16" viewBox="0 0 16 16">
    <g fill="none" fill-rule="evenodd">
        <g>
            <g>
                <path d="M0 0H20V20H0z" transform="translate(-200.000000, -1384.000000) translate(198.000000, 1383.000000)"/>
                <path fill="#3048A2" d="M6.119 3.333v1.131c0 .664.538 1.203 1.202 1.203.664 0 1.203-.539 1.203-1.203l-.001-1.13h2.953v1.13c0 .664.539 1.203 1.203 1.203s1.202-.539 1.202-1.203l-.001-1.13h2.191c.79 0 1.429.663 1.429 1.48v4.811l-.001.001.001 5.56c0 .817-.64 1.48-1.429 1.48H3.93c-.79 0-1.429-.663-1.429-1.48V4.814c0-.818.64-1.482 1.429-1.482h2.19zM7.5 11.667H5.833v1.666H7.5v-1.666zm3.333 0H9.167v1.666h1.666v-1.666zm3.334 0H12.5v1.666h1.667v-1.666zM7.5 8.333H5.833V10H7.5V8.333zm3.333 0H9.167V10h1.666V8.333zm3.334 0H12.5V10h1.667V8.333zM7.32 1.667c.296 0 .536.24.536.535v2.262c0 .296-.24.536-.536.536-.295 0-.535-.24-.535-.536V2.202c0-.295.24-.535.535-.535zm5.358 0c.295 0 .535.24.535.535v2.262c0 .296-.24.536-.535.536-.296 0-.536-.24-.536-.536V2.202c0-.295.24-.535.536-.535z" transform="translate(-200.000000, -1384.000000) translate(198.000000, 1383.000000)"/>
            </g>
        </g>
    </g>
</svg>
