<svg width="20" height="20" xmlns="http://www.w3.org/2000/svg">
    <g fill="none" fill-rule="evenodd">
        <path d="M0 0h20v20H0z"/>
        <path d="M17.86 15.47 10.84 3.488A.975.975 0 0 0 10 3a.975.975 0 0 0-.84.488L2.14 15.47c-.182.312-.187.7-.013 1.017.174.317.5.513.853.513h14.04c.353 0 .68-.196.853-.513a1.035 1.035 0 0 0-.014-1.017zm-7.855-8.325c.403 0 .745.234.745.649 0 1.266-.145 3.085-.145 4.351 0 .33-.352.468-.6.468-.33 0-.61-.138-.61-.468 0-1.266-.144-3.085-.144-4.351 0-.415.33-.65.754-.65zm.01 7.841c-.454 0-.795-.383-.795-.82 0-.446.34-.818.796-.818.423 0 .785.372.785.819 0 .436-.362.819-.785.819z" fill="#F46F51" fill-rule="nonzero"/>
    </g>
</svg>
