<?xml version="1.0" encoding="UTF-8"?>
<svg width="44px" height="44px" viewBox="0 0 44 44" version="1.1" xmlns="http://www.w3.org/2000/svg" xmlns:xlink="http://www.w3.org/1999/xlink">
    <title>31D043EB-A801-4E2D-BB36-59161EC8D403</title>
    <defs>
        <rect id="path-1" x="0" y="0" width="44" height="44" rx="22"></rect>
    </defs>
    <g id="Page-1" stroke="none" stroke-width="1" fill="none" fill-rule="evenodd">
        <g id="1-4-2.-금융추천-Main-_투자(회원)_투자상품목록" transform="translate(-24.000000, -591.000000)">
            <g id="deposit02" transform="translate(24.000000, 591.000000)">
                <mask id="mask-2" fill="white">
                    <use xlink:href="#path-1"></use>
                </mask>
                <use id="Mask" fill="#4585ED" xlink:href="#path-1"></use>
                <rect id="48x48" opacity="0.200000003" mask="url(#mask-2)" x="10" y="10" width="24" height="24"></rect>
                <path d="M22.0428453,13 C27.54203,13 32,16.8021754 32,21.4923964 C32,23.3907871 31.2696657,25.1436922 30.035561,26.5578768 L28.9522842,30.2792491 C28.8280925,30.7062911 28.4367996,31 27.9920655,31 L27.9920655,31 L26.1114024,31 C25.5591177,31 25.1114024,30.5522847 25.1114024,30 L25.1114024,30 L25.1118383,29.5737501 C24.1451476,29.8406051 23.1137392,29.9847928 22.0428453,29.9847928 C21.6112926,29.9847928 21.1861522,29.9613773 20.7690753,29.9159547 L20.7694985,30 C20.7694985,30.5522847 20.3217832,31 19.7694985,31 L17.8888354,31 C17.4441013,31 17.0528084,30.7062911 16.9286168,30.2792491 L16.4088366,28.4955571 C15.4843641,27.9535084 14.6725795,27.2817527 14.009579,26.5110763 L10.4703842,24.3006684 C10.1777841,24.1179771 10,23.7973814 10,23.4524307 L10,22.0024513 C10,21.5814968 10.2636202,21.2056154 10.659406,21.0622408 L12.149971,20.5221027 C12.3004706,19.3935578 12.7103238,18.3321363 13.3274537,17.3822544 C12.2851598,16.3210764 11.6056882,15.6148661 11.2884609,15.2628456 C10.5085588,14.3974046 13.8669502,13.8174353 16.0761976,14.6942061 C17.7378085,13.6301854 19.8040397,13 22.0428453,13 Z" id="Combined-Shape" fill="#FFFFFF" mask="url(#mask-2)"></path>
                <path d="M21.9350212,19 C22.258609,18.9999262 22.5435043,19.2132036 22.634588,19.5237078 L23.04,20.908 L24.238,20.908 L24.6742306,19.5320214 C24.7684113,19.2348115 25.0856961,19.0702239 25.382906,19.1644046 L25.3888697,19.1663309 C25.6893058,19.2652174 25.8542304,19.5874462 25.7587384,19.8889784 L25.435,20.908 L25.9191407,20.9089087 C26.2399405,20.9089087 26.5,21.1689682 26.5,21.4897679 C26.5,21.8105676 26.2399405,22.0706272 25.9191407,22.0706272 L25.067,22.07 L24.3025059,24.4872776 C24.2049268,24.7954001 23.9173924,25.0035222 23.5942076,24.9999556 C23.2709758,24.9963884 22.9880145,24.7820611 22.8970261,24.4718794 L22.192,22.07 L21.679,22.07 L20.976038,24.4702292 C20.8851092,24.7806998 20.6007774,24.994365 20.2772668,24.9953306 C19.9537672,24.9962961 19.6681857,24.7843111 19.5754594,24.4743841 L18.856,22.07 L18.0808593,22.0706272 C17.7600595,22.0706272 17.5,21.8105676 17.5,21.4897679 C17.5,21.1689682 17.7600595,20.9089087 18.0808593,20.9089087 L18.508,20.908 L18.2016434,19.8825633 C18.1110135,19.5796433 18.2811071,19.260216 18.5830341,19.1663309 C18.8807869,19.0737438 19.1972199,19.2400634 19.2898071,19.5378162 L19.2915844,19.5436426 L19.699,20.908 L20.829,20.908 L21.2355868,19.5239958 C21.3265959,19.2134555 21.6114197,19.0000739 21.9350212,19 Z M23.87,22.07 L23.381,22.07 L23.6163328,22.8704704 L23.87,22.07 Z M20.489,22.07 L20.047,22.07 L20.2706763,22.8164505 L20.489,22.07 Z" id="Combined-Shape" fill="#35424F" mask="url(#mask-2)"></path>
                <ellipse id="Oval" fill="#4585ED" mask="url(#mask-2)" cx="15.25" cy="19.7493291" rx="1" ry="1"></ellipse>
                <path d="M30.2990381,20.6160254 C32.1005384,20.5548242 33.1005384,19.8881575 33.2990381,18.6160254" id="Path-3" stroke="#FFFFFF" stroke-linecap="round" mask="url(#mask-2)" transform="translate(31.799038, 19.616025) rotate(30.000000) translate(-31.799038, -19.616025) "></path>
                <g id="Group-22" mask="url(#mask-2)">
                    <g transform="translate(24.000000, 24.000000)">
                        <circle id="Oval" stroke="none" fill="#303D4C" fill-rule="evenodd" cx="5" cy="5" r="5"></circle>
                        <polyline id="Path" stroke="#FFFFFF" stroke-width="1.2" fill="none" stroke-linecap="round" stroke-linejoin="round" transform="translate(6.037969, 4.500000) scale(-1, 1) rotate(-360.000000) translate(-6.037969, -4.500000) " points="7.0759373 2.5 7.0759373 5.01782769 5 6.5"></polyline>
                    </g>
                </g>
            </g>
        </g>
    </g>
</svg>