<svg width="44" height="44" xmlns="http://www.w3.org/2000/svg" xmlns:xlink="http://www.w3.org/1999/xlink">
    <defs>
        <rect id="a" x="0" y="0" width="44" height="44" rx="22"/>
    </defs>
    <g fill="none" fill-rule="evenodd">
        <mask id="b" fill="#fff">
            <use xlink:href="#a"/>
        </mask>
        <use fill="#4585ED" xlink:href="#a"/>
        <path opacity=".2" mask="url(#b)" d="M10 10h24v24H10z"/>
        <path d="M24.845 10a1 1 0 0 1 .95 1.309l-1.203 3.708a7.435 7.435 0 0 1 4.682 5.435l1.715 8.135A2 2 0 0 1 29.032 31H14.967a2 2 0 0 1-1.957-2.413l1.716-8.135a7.435 7.435 0 0 1 4.683-5.436l-1.205-3.707a1 1 0 0 1 .95-1.309h5.69z" fill="#FFF" mask="url(#b)"/>
        <path d="M21.935 20.5c.324 0 .609.213.7.524l.405 1.384h1.198l.436-1.376a.565.565 0 0 1 .709-.368l.006.002c.3.1.465.421.37.723l-.324 1.019h.484a.58.58 0 1 1 0 1.163l-.852-.001-.764 2.417a.734.734 0 0 1-1.406-.015l-.705-2.402h-.513l-.703 2.4a.73.73 0 0 1-1.4.004l-.72-2.404h-.775a.58.58 0 1 1 0-1.161l.427-.001-.306-1.025a.577.577 0 0 1 .381-.717.565.565 0 0 1 .707.372l.002.006.407 1.364h1.13l.407-1.384a.729.729 0 0 1 .699-.524zm1.935 3.07h-.489l.235.8.254-.8zm-3.381 0h-.442l.224.746.218-.746z" fill="#35424F" mask="url(#b)"/>
        <path stroke="#9BC1FF" stroke-width="1.5" stroke-linecap="round" mask="url(#b)" d="M19 15h6"/>
        <g mask="url(#b)">
            <g transform="translate(24 24)">
                <circle fill="#303D4C" cx="5" cy="5" r="5"/>
                <path stroke="#FFF" stroke-width="1.3" stroke-linecap="round" stroke-linejoin="round" d="M5 2.5v2.518L7.076 6.5"/>
            </g>
        </g>
    </g>
</svg>
