<svg width="44" height="44" xmlns="http://www.w3.org/2000/svg" xmlns:xlink="http://www.w3.org/1999/xlink">
    <defs>
        <rect id="a" x="0" y="0" width="44" height="44" rx="22"/>
    </defs>
    <g fill="none" fill-rule="evenodd">
        <mask id="b" fill="#fff">
            <use xlink:href="#a"/>
        </mask>
        <use fill="#FFCD58" xlink:href="#a"/>
        <path opacity=".2" mask="url(#b)" d="M10 10h24v24H10z"/>
        <g mask="url(#b)">
            <g transform="translate(10 14)">
                <path d="M12.043 0C17.542 0 22 3.802 22 8.492c0 1.899-.73 3.652-1.964 5.066l-1.084 3.721a1 1 0 0 1-.96.721h-1.88a1 1 0 0 1-1-1v-.426a11.764 11.764 0 0 1-4.343.342V17a1 1 0 0 1-1 1H7.89a1 1 0 0 1-.96-.72l-.52-1.784a9.489 9.489 0 0 1-2.4-1.985L.47 11.301a1 1 0 0 1-.47-.849v-1.45a1 1 0 0 1 .66-.94l1.49-.54c.15-1.128.56-2.19 1.177-3.14-1.042-1.06-1.721-1.767-2.039-2.12-.78-.865 2.579-1.445 4.788-.568C7.738.63 9.804 0 12.043 0z" fill="#FFF"/>
                <path d="M12.502 3c.327 0 .593.28.593.625l.001.654c.457.05.853.167 1.194.35.306.167.405.537.235.86-.162.32-.447.419-.753.28-.398-.18-.725-.246-1.218-.246-.672 0-1.134.318-1.2.712l-.01.1.005.153c.035.39.312.583 1.184.788l.45.103c1.315.334 1.941.94 2.01 1.909l.007.186v.09c0 1.21-.663 1.948-1.904 2.137l-.001.674c0 .345-.266.625-.593.625-.327 0-.593-.28-.593-.625v-.655c-.61-.072-1.203-.27-1.62-.543-.317-.21-.372-.592-.17-.923.198-.32.5-.398.814-.21.452.273.987.423 1.536.423.73 0 1.126-.26 1.183-.69l.007-.112v-.07c0-.478-.3-.745-1.073-.933l-.418-.093c-1.498-.344-2.094-.853-2.15-1.963l-.005-.25c0-1.064.716-1.852 1.897-2.055v-.676c0-.345.265-.625.592-.625z" fill="#35424F" fill-rule="nonzero"/>
                <circle fill="#F5AC00" cx="5.408" cy="6.749" r="1"/>
            </g>
            <path d="M30 20.732c1.59.848 2.79.77 3.598-.232" stroke="#FFF" stroke-linecap="round"/>
        </g>
    </g>
</svg>
