<svg xmlns="http://www.w3.org/2000/svg" width="40" height="40" viewBox="0 0 40 40">
    <g fill="none" fill-rule="evenodd">
        <g>
            <g>
                <path d="M0 0H40V40H0z" opacity=".32" transform="translate(-36 -129) translate(36 129)"/>
                <g>
                    <path fill="#000" fill-rule="nonzero" d="M17.75 7c.414 0 .75.336.75.75 0 .38-.282.693-.648.743l-.102.007H6.25c-.414 0-.75-.336-.75-.75 0-.38.282-.693.648-.743L6.25 7h11.5zM11.135 20c.414 0 .75.336.75.75 0 .38-.283.693-.649.743l-.101.007H6.25c-.414 0-.75-.336-.75-.75 0-.38.282-.693.648-.743L6.25 20h4.885zM17.75 13.5c.414 0 .75.336.75.75 0 .38-.282.694-.648.743L17.75 15H6.25c-.414 0-.75-.336-.75-.75 0-.38.282-.693.648-.743l.102-.007h11.5z" transform="translate(-36 -129) translate(36 129) translate(6.75 4.25)"/>
                    <path fill="#000" fill-rule="nonzero" d="M22.61 0c.994 0 1.809.768 1.884 1.742l.006.148v12.96c0 .414-.336.75-.75.75-.38 0-.693-.282-.743-.649L23 14.85V1.89c0-.188-.134-.346-.311-.382L22.61 1.5H1.89c-.188 0-.346.134-.382.311L1.5 1.89v25.72c0 .188.134.346.311.382L1.89 28h12.14c.415 0 .75.336.75.75 0 .38-.282.693-.648.743l-.102.007H1.89c-.994 0-1.809-.768-1.884-1.742L0 27.61V1.89C0 .896.768.081 1.742.006L1.89 0h20.72z" transform="translate(-36 -129) translate(36 129) translate(6.75 4.25)"/>
                    <path fill="#476EFF" d="M27.25 24.75v9.215c0 .42-.34.76-.76.76-.11 0-.22-.024-.32-.07l-3.92-1.815-3.92 1.815c-.382.176-.833.01-1.01-.37-.046-.1-.07-.21-.07-.32V24.75h.164c.563 2.358 2.515 4.097 4.836 4.097s4.273-1.739 4.836-4.097h.164z" transform="translate(-36 -129) translate(36 129) translate(6.75 4.25)"/>
                    <path fill="#000" fill-rule="nonzero" d="M22.25 17.1c-3.452 0-6.25 2.798-6.25 6.25s2.798 6.25 6.25 6.25 6.25-2.798 6.25-6.25-2.798-6.25-6.25-6.25zm0 1.5c2.623 0 4.75 2.126 4.75 4.75 0 2.623-2.127 4.75-4.75 4.75s-4.75-2.127-4.75-4.75c0-2.624 2.127-4.75 4.75-4.75z" transform="translate(-36 -129) translate(36 129) translate(6.75 4.25)"/>
                </g>
            </g>
        </g>
    </g>
</svg>
