<svg width="44" height="44" xmlns="http://www.w3.org/2000/svg" xmlns:xlink="http://www.w3.org/1999/xlink">
    <defs>
        <rect id="a" x="0" y="0" width="44" height="44" rx="22"/>
    </defs>
    <g fill="none" fill-rule="evenodd">
        <mask id="b" fill="#fff">
            <use xlink:href="#a"/>
        </mask>
        <use fill="#4585ED" xlink:href="#a"/>
        <path opacity=".2" mask="url(#b)" d="M10 10h24v24H10z"/>
        <path d="M22.043 13C27.542 13 32 16.802 32 21.492c0 1.899-.73 3.652-1.964 5.066l-1.084 3.721a1 1 0 0 1-.96.721h-1.88a1 1 0 0 1-1-1v-.426a11.764 11.764 0 0 1-4.343.342V30a1 1 0 0 1-1 1h-1.88a1 1 0 0 1-.96-.72l-.52-1.784a9.489 9.489 0 0 1-2.4-1.985l-3.539-2.21a1 1 0 0 1-.47-.849v-1.45a1 1 0 0 1 .66-.94l1.49-.54c.15-1.128.56-2.19 1.177-3.14-1.042-1.06-1.721-1.767-2.039-2.12-.78-.865 2.579-1.445 4.788-.568C17.738 13.63 19.804 13 22.043 13z" fill="#FFF" mask="url(#b)"/>
        <path d="M21.935 19c.324 0 .609.213.7.524l.405 1.384h1.198l.436-1.376a.565.565 0 0 1 .709-.368l.006.002c.3.1.465.421.37.723l-.324 1.019h.484a.58.58 0 1 1 0 1.163l-.852-.001-.764 2.417a.734.734 0 0 1-1.406-.015l-.705-2.402h-.513l-.703 2.4a.73.73 0 0 1-1.4.004l-.72-2.404h-.775a.58.58 0 1 1 0-1.161l.427-.001-.306-1.025a.577.577 0 0 1 .381-.717.565.565 0 0 1 .707.372l.002.006.407 1.364h1.13l.407-1.384a.729.729 0 0 1 .699-.524zm1.935 3.07h-.489l.235.8.254-.8zm-3.381 0h-.442l.224.746.218-.746z" fill="#35424F" mask="url(#b)"/>
        <circle fill="#4585ED" mask="url(#b)" cx="15.25" cy="19.749" r="1"/>
        <path d="M30.299 20.616c1.802-.061 2.802-.728 3-2" stroke="#FFF" stroke-linecap="round" mask="url(#b)" transform="rotate(30 31.799 19.616)"/>
    </g>
</svg>
