<?xml version="1.0" encoding="UTF-8"?>
<svg width="44px" height="44px" viewBox="0 0 44 44" version="1.1" xmlns="http://www.w3.org/2000/svg" xmlns:xlink="http://www.w3.org/1999/xlink">
    <title>4A6A3C7D-48C8-4693-8C7A-78D568827D7F</title>
    <defs>
        <rect id="path-1" x="0" y="0" width="44" height="44" rx="22"></rect>
    </defs>
    <g id="Page-1" stroke="none" stroke-width="1" fill="none" fill-rule="evenodd">
        <g id="1-4-2.-금융추천-Main-_투자(회원)_투자상품목록" transform="translate(-24.000000, -1778.000000)">
            <g id="loan03" transform="translate(24.000000, 1778.000000)">
                <mask id="mask-2" fill="white">
                    <use xlink:href="#path-1"></use>
                </mask>
                <use id="Mask" fill="#9777DB" xlink:href="#path-1"></use>
                <rect id="48x48" opacity="0.200000003" mask="url(#mask-2)" x="10" y="10" width="24" height="24"></rect>
                <g id="Group-20" mask="url(#mask-2)">
                    <g transform="translate(11.000000, 12.000000)" id="Rectangle">
                        <rect fill="none" fill-rule="nonzero" x="0" y="0" width="22" height="6" rx="3"></rect>
                        <rect fill="#333D4B" fill-rule="evenodd" x="0" y="0" width="22" height="4" rx="2"></rect>
                    </g>
                </g>
                <rect id="Rectangle" fill="#9777DB" mask="url(#mask-2)" x="15" y="15" width="14" height="16"></rect>
                <rect id="Rectangle" fill="#FFFFFF" mask="url(#mask-2)" x="14" y="15" width="13" height="14" rx="1"></rect>
                <path d="M15.75,32 C15.3357864,32 15,31.6642136 15,31.25 C15,30.8357864 15.3357864,30.5 15.75,30.5 L28.5,30.5 L28.5,15.75 C28.5,15.3357864 28.8357864,15 29.25,15 C29.6642136,15 30,15.3357864 30,15.75 L30,31.25 L30,31.25 C30,31.6296958 29.7178461,31.943491 29.3517706,31.9931534 L29.25,32 L29.25,32 L15.75,32 Z" id="Combined-Shape" fill="#FFFFFF" mask="url(#mask-2)"></path>
                <path d="M20.4278013,19 C20.7895363,18.9999257 21.1102317,19.2326494 21.2223298,19.576577 L21.656,20.908 L22.986,20.908 L23.4542868,19.5805329 C23.5712008,19.2484779 23.927873,19.0663425 24.2654108,19.1663309 C24.5817898,19.2600515 24.7622902,19.5925029 24.6685696,19.9088819 C24.6657212,19.9184973 24.6626312,19.9280396 24.6593025,19.9374995 L24.317,20.908 L24.9191408,20.9089085 C25.2399405,20.9089085 25.5,21.168968 25.5,21.4897677 C25.5,21.8105673 25.2399405,22.0706268 24.9191408,22.0706268 L23.908,22.07 L23.0764829,24.4357163 C22.9564952,24.7767096 22.6328119,25.0035451 22.2713418,24.9999549 C21.9101152,24.9963671 21.5914691,24.7626552 21.4795239,24.4191938 L20.713,22.07 L20.143,22.07 L19.379462,24.4173806 C19.2675622,24.7612482 18.9474671,24.9943585 18.585852,24.9953299 C18.2241676,24.9963015 17.9026937,24.7650535 17.7885974,24.4218355 L17.007,22.07 L16.0808592,22.0706268 C15.7600595,22.0706268 15.5,21.8105673 15.5,21.4897677 C15.5,21.168968 15.7600595,20.9089085 16.0808592,20.9089085 L16.62,20.908 L16.2961987,19.9324833 C16.1917911,19.61841 16.3617587,19.2791642 16.675832,19.1747566 L16.7033713,19.1663309 L16.7033713,19.1663309 C17.0423993,19.0714513 17.3961947,19.2594826 17.5072432,19.593564 L17.944,20.908 L19.199,20.908 L19.6334319,19.576878 C19.7454382,19.2329102 20.0660566,19.0000743 20.4278013,19 Z M22.577,22.07 L22.034,22.07 L22.2959254,22.8704699 L22.577,22.07 Z M18.821,22.07 L18.33,22.07 L18.5785292,22.81645 L18.821,22.07 Z" id="Combined-Shape" fill="#35424F" mask="url(#mask-2)"></path>
                <g id="Group-22" mask="url(#mask-2)">
                    <g transform="translate(24.000000, 24.000000)">
                        <circle id="Oval" stroke="none" fill="#303D4C" fill-rule="evenodd" cx="5" cy="5" r="5"></circle>
                        <polyline id="Path" stroke="#FFFFFF" stroke-width="1.2" fill="none" stroke-linecap="round" stroke-linejoin="round" transform="translate(6.037969, 4.500000) scale(-1, 1) rotate(-360.000000) translate(-6.037969, -4.500000) " points="7.0759373 2.5 7.0759373 5.01782769 5 6.5"></polyline>
                    </g>
                </g>
            </g>
        </g>
    </g>
</svg>