<svg xmlns="http://www.w3.org/2000/svg" xmlns:xlink="http://www.w3.org/1999/xlink" width="22" height="22" viewBox="0 0 22 22">
    <defs>
        <filter id="vmj33hie1a">
            <feColorMatrix in="SourceGraphic" values="0 0 0 0 1.000000 0 0 0 0 0.803922 0 0 0 0 0.407843 0 0 0 1.000000 0"/>
        </filter>
        <path id="o41zsqr2qb" d="M0 0H22V22H0z"/>
    </defs>
    <g fill="none" fill-rule="evenodd" opacity=".9">
        <g>
            <g>
                <g transform="translate(-40 -644) translate(24 618) translate(16 26)">
                    <mask id="eip6vog4cc" fill="#fff">
                        <use xlink:href="#o41zsqr2qb"/>
                    </mask>
                    <path fill="#ffcd68" d="M13.75 18.333v1.834h-5.5v-1.834h5.5zM17.417 8.25c0-3.537-2.88-6.417-6.417-6.417S4.583 4.713 4.583 8.25c0 2.095.978 3.234 1.926 4.336.328.383.669.78.994 1.236.132.19.348.913.542 1.761l.205 1.834h5.5l.207-1.834c.195-.85.413-1.575.544-1.764.322-.461.665-.862.996-1.25.944-1.105 1.92-2.248 1.92-4.319zm-5.339 7.333H9.923c-.192-.918-.524-2.257-.927-2.823-.373-.524-.757-.973-1.096-1.368-.893-1.04-1.483-1.727-1.483-3.142 0-2.527 2.056-4.583 4.583-4.583s4.583 2.056 4.583 4.583c0 1.394-.59 2.085-1.48 3.129-.342.401-.73.855-1.103 1.386-.398.565-.73 1.902-.922 2.818z" mask="url(#eip6vog4cc)"/>
                </g>
            </g>
        </g>
    </g>
</svg>
