<?xml version="1.0" encoding="UTF-8"?>
<svg width="44px" height="44px" viewBox="0 0 44 44" version="1.1" xmlns="http://www.w3.org/2000/svg" xmlns:xlink="http://www.w3.org/1999/xlink">
    <title>545EEBD8-FC17-4127-9479-5EC38FA8A8DF</title>
    <defs>
        <rect id="path-1" x="0" y="0" width="44" height="44" rx="22"></rect>
    </defs>
    <g id="Page-1" stroke="none" stroke-width="1" fill="none" fill-rule="evenodd">
        <g id="1-4-2.-금융추천-Main-_투자(회원)_투자상품목록" transform="translate(-24.000000, -3472.000000)">
            <g id="insurance02" transform="translate(24.000000, 3472.000000)">
                <mask id="mask-2" fill="white">
                    <use xlink:href="#path-1"></use>
                </mask>
                <use id="Mask" fill="#FF667C" xlink:href="#path-1"></use>
                <rect id="48x48" opacity="0.200000003" mask="url(#mask-2)" x="10" y="10" width="24" height="24"></rect>
                <g id="Group-13" mask="url(#mask-2)">
                    <g transform="translate(12.000000, 10.500000)">
                        <g id="shape" stroke-width="1" fill="none" transform="translate(0.000000, 18.500000)">
                            <rect id="Rectangle" fill="#333D4B" x="0" y="0" width="20" height="4" rx="2"></rect>
                        </g>
                        <circle id="Oval" fill="#FFFFFF" cx="10" cy="10" r="10"></circle>
                        <path d="M9.92058148,7.00000002 C10.3171258,6.99991364 10.6673095,7.2585859 10.7837953,7.63763536 L11.272,9.227 L12.735,9.227 L13.2604005,7.6451019 C13.3818369,7.27929936 13.7742406,7.07852449 14.1419518,7.19405273 C14.5021658,7.30722549 14.7024323,7.69098128 14.5892596,8.05119528 L14.5859134,8.06155635 L14.5859134,8.06155635 L14.198,9.227 L14.8223309,9.22706008 C15.1965972,9.22706008 15.5,9.53046288 15.5,9.9047292 C15.5,10.2789955 15.1965972,10.5823983 14.8223309,10.5823983 L13.749,10.582 L12.8228045,13.37581 C12.6980553,13.7518213 12.3446191,14.0041211 11.948476,13.999948 C11.552423,13.9957759 11.2045532,13.7359101 11.0882062,13.3573092 L10.235,10.582 L9.607,10.582 L8.75666201,13.3553023 C8.64037812,13.734299 8.29087019,13.9934227 7.89443716,13.9945522 C7.49797696,13.9956817 7.14694689,13.7386068 7.02837015,13.3602927 L6.157,10.582 L5.17766912,10.5823983 C4.8034028,10.5823983 4.5,10.2789955 4.5,9.9047292 C4.5,9.53046288 4.8034028,9.22706008 5.17766912,9.22706008 L5.733,9.227 L5.36543241,8.05476053 C5.2523948,7.69411884 5.45311757,7.31012589 5.81375926,7.19708828 C5.8170679,7.19605124 5.82038437,7.19503936 5.82370839,7.19405273 C6.19319984,7.08438071 6.58231629,7.29156887 6.69758201,7.65935373 L7.189,9.227 L8.569,9.227 L9.05753525,7.63797752 C9.17392558,7.25888404 9.52402308,7.00008641 9.92058148,7.00000002 Z M12.285,10.582 L11.688,10.582 L11.9755179,11.5155487 L12.285,10.582 Z M8.153,10.582 L7.613,10.582 L7.88638212,11.4525255 L8.153,10.582 Z" id="Combined-Shape" fill="#35424F"></path>
                    </g>
                </g>
            </g>
        </g>
    </g>
</svg>