<svg xmlns="http://www.w3.org/2000/svg" width="44" height="44" viewBox="0 0 44 44">
    <g fill="none" fill-rule="evenodd">
        <g>
            <g transform="translate(-24.000000, -1102.000000) translate(24.000000, 1102.000000)">
                <circle cx="22" cy="22" r="22" fill="#FF667C"/>
                <g>
                    <path fill="#FFF" fill-opacity="0" d="M0 0H24V24H0z" transform="translate(10.000000, 10.000000)"/>
                    <path fill="#FFF" d="M16.892 4C14.332 4 12.837 5.726 12 6.56 11.163 5.726 9.645 4 7.16 4 3.587 4 1.5 6.856 1.5 10.282c0 1.99.836 4.048 2.417 5.95 1.727 2.078 4.327 3.99 7.726 5.684.113.056.235.084.357.084s.244-.028.357-.084c3.4-1.694 5.999-3.606 7.726-5.684 1.581-1.902 2.417-3.96 2.417-5.95C22.5 6.858 20.427 4 16.892 4z" transform="translate(10.000000, 10.000000)"/>
                    <path fill="#DF465C" fill-rule="nonzero" d="M10.07 9.396c.317-.553 1.093-.512 1.368.03l.045.108 1.626 4.72 1.023-1.886c.12-.223.336-.372.579-.405l.105-.008h2.401c.433 0 .783.358.783.8 0 .405-.294.74-.676.793l-.107.007h-1.94l-1.642 3.032c-.308.569-1.098.536-1.377-.012l-.046-.11-1.646-4.773-.84 1.468c-.12.21-.327.35-.558.386l-.118.01H6.783c-.433 0-.783-.359-.783-.8 0-.406.294-.74.676-.793l.107-.008H8.6l1.469-2.56z" transform="translate(10.000000, 10.000000)"/>
                </g>
            </g>
        </g>
    </g>
</svg>
