<svg width="44" height="44" xmlns="http://www.w3.org/2000/svg">
    <g fill="none" fill-rule="evenodd">
        <circle fill="#FF667C" cx="22" cy="22" r="22"/>
        <path fill="#FF667C" opacity=".1" d="M10 10h24v24H10z"/>
        <ellipse fill="#FFF" cx="22" cy="25.5" rx="11" ry="4.5"/>
        <g fill-rule="nonzero">
            <path d="M16.836 26.343c1.753.463 3.542.682 5.335.655a19.668 19.668 0 0 0 5.334-.655C29.047 25.887 30 25.16 30 24.294 30 15.512 27.738 13 25.473 13c-1.508.003-2.965.974-3.758 1.501-.199.133-.35.234-.42.264-.465.213-1.127.089-1.82-.042a7.676 7.676 0 0 0-1.497-.18c-1.956.02-3.692 1.804-3.637 9.751 0 .889.953 1.596 2.495 2.05z" fill="#FFF"/>
            <path d="M14.374 22.177 14 22.02c4.907 2.137 10.226 2.22 15.955.248.03.631.045 1.307.045 2.027 0 .865-.953 1.593-2.495 2.05a19.668 19.668 0 0 1-5.334.654h-.598a19.699 19.699 0 0 1-4.737-.655c-1.542-.453-2.495-1.16-2.495-2.049a44.44 44.44 0 0 1 .033-2.117z" fill="#FF0065"/>
        </g>
    </g>
</svg>
