<svg xmlns="http://www.w3.org/2000/svg" xmlns:xlink="http://www.w3.org/1999/xlink" width="68" height="12" viewBox="0 0 68 12">
    <defs>
        <path id="lwt5lo01ma" d="M0 0L9.925 0 9.925 9.862 0 9.862z"/>
        <path id="gozodnpaec" d="M0 0L6.352 0 6.352 9.386 0 9.386z"/>
        <path id="18abip07ke" d="M0 0L13.108 0 13.108 9.991 0 9.991z"/>
    </defs>
    <g fill="none" fill-rule="evenodd">
        <g>
            <g>
                <g>
                    <g>
                        <g>
                            <g transform="translate(-40 -368) translate(0 88) translate(24 56) translate(0 205) translate(16 19) translate(0 .13)">
                                <mask id="lqp8w7qkcb" fill="#fff">
                                    <use xlink:href="#lwt5lo01ma"/>
                                </mask>
                                <path fill="#002564" d="M8.312 2.176L6.139 6.399c-.277.528-.316.67-.898.67h-.61c-.502 0-.595-.13-.847-.619l-2.17-4.287v7.57c0 .09-.039.129-.133.129H.133C.04 9.862 0 9.823 0 9.733V.154C0 .064.025 0 .185 0h1.522c.33 0 .517.142.661.463l2.555 5.034h.08L7.582.463C7.727.142 7.926 0 8.218 0H9.74c.159 0 .186.064.186.154v9.58c0 .09-.04.128-.132.128h-1.35c-.093 0-.131-.039-.131-.129V2.176z" mask="url(#lqp8w7qkcb)"/>
                            </g>
                            <g transform="translate(-40 -368) translate(0 88) translate(24 56) translate(0 205) translate(16 19) translate(11.55 2.614)">
                                <mask id="l27xt2t0xd" fill="#fff">
                                    <use xlink:href="#gozodnpaec"/>
                                </mask>
                                <path fill="#002564" d="M.82 9.386c-.092 0-.132-.039-.132-.128V8.162c0-.089.04-.128.132-.128h3.137c.08 0 .145-.012.198-.064l.423-.438c.066-.065.08-.128.08-.219v-1.21c-.251.245-.635.412-1.072.412H1.958c-.224 0-.475-.026-.636-.141L.397 5.69C.132 5.498 0 5.227 0 4.944V.13C0 .04.04 0 .132 0h1.43c.092 0 .133.039.133.13v4.492c0 .09.012.154.065.194l.41.308c.04.027.106.052.2.052h1.772c.278 0 .516-.167.516-.438V.13c0-.09.04-.129.133-.129h1.428c.093 0 .133.039.133.13v7.402c0 .258-.013.45-.212.643l-.993.992c-.172.168-.383.22-.661.22H.82z" mask="url(#l27xt2t0xd)"/>
                            </g>
                            <path fill="#9C2482" d="M26.645 7.867c0 .476-.212.76-.398.965l-.911.992c-.266.257-.584.297-.955.297h-2.607c-.144 0-.555 0-.806-.168l-1.337-.876c-.065-.038-.08-.115-.04-.167l.767-.966c.055-.064.107-.064.16-.038l1.152.746c.144.09.383.103.527.103h1.668c.132 0 .319-.038.438-.142l.53-.605c.104-.115.13-.347.13-.528v-.81c0-.335-.185-.606-.62-.721l-3.032-.812c-.912-.23-1.614-.85-1.614-1.673V2.318c0-.477.184-.785.398-.965L21.14.296c.278-.244.582-.296.952-.296h2.105c.145 0 .555 0 .807.167l1.548.98c.066.039.08.115.04.167l-.742.952c-.051.064-.132.052-.16.04l-1.348-.837c-.145-.078-.29-.104-.437-.104h-1.509c-.131 0-.278.04-.397.142l-.488.5c-.12.104-.134.337-.134.517v.631c0 .412.386.657.74.748l3.045.81c.913.246 1.483.81 1.483 1.583v1.57zM28.18.257c0-.09.04-.128.132-.128h1.443c.092 0 .133.038.133.128v3.954h3.797V.257c0-.09.039-.128.133-.128h1.442c.091 0 .133.038.133.128v9.606c0 .09-.042.128-.133.128h-1.442c-.094 0-.133-.038-.133-.128V5.549h-3.797v4.314c0 .09-.04.128-.133.128h-1.443c-.091 0-.132-.038-.132-.128V.257zM42.728 2.37c0-.181-.014-.413-.132-.516l-.398-.373c-.118-.104-.304-.142-.436-.142h-1.998c-.133 0-.318.038-.437.142l-.396.373c-.12.103-.134.335-.134.516v5.381c0 .18.014.412.134.515l.396.374c.119.103.304.14.437.14h1.998c.132 0 .318-.037.436-.14l.398-.374c.118-.103.132-.335.132-.515V2.37zm1.707 5.69c0 .476-.212.759-.396.966l-.716.798c-.252.27-.795.297-1.164.297h-2.794c-.368 0-.673-.053-.951-.297l-.927-.798c-.21-.18-.396-.49-.396-.966v-6c0-.476.185-.785.396-.965l.927-.799c.278-.244.583-.296.951-.296h2.794c.37 0 .674.052.952.296l.928.799c.21.18.396.489.396.965v6zM51.543 2.37c0-.181-.015-.413-.134-.516l-.397-.373c-.119-.104-.303-.142-.435-.142H48.71c-.132 0-.317.038-.437.142l-.398.373c-.117.103-.132.335-.132.516v2.625h2.834c.132 0 .316-.036.435-.14l.397-.374c.12-.103.134-.334.134-.515V2.37zm-5.507-.31c0-.476.186-.785.397-.965l.927-.799c.279-.244.583-.296.953-.296h2.66c.37 0 .675.052.952.296l.927.799c.212.18.397.489.397.965v2.215c0 .476-.185.785-.397.965l-.927.799c-.277.243-.582.296-.952.296h-3.23v3.528c0 .09-.039.128-.132.128H46.17c-.093 0-.134-.038-.134-.128V2.06z" transform="translate(-40 -368) translate(0 88) translate(24 56) translate(0 205) translate(16 19)"/>
                            <g transform="translate(-40 -368) translate(0 88) translate(24 56) translate(0 205) translate(16 19) translate(54.892)">
                                <mask id="c59jbkbrzf" fill="#fff">
                                    <use xlink:href="#18abip07ke"/>
                                </mask>
                                <path fill="#9C2482" d="M12.43 0H4.457c-.2 0-.389.085-.518.233L.16 4.569c-.215.246-.215.607 0 .853l3.778 4.336c.129.149.318.233.518.233h7.973c.373 0 .678-.295.678-.66V.66c0-.363-.305-.659-.678-.659" mask="url(#c59jbkbrzf)"/>
                            </g>
                            <path fill="#FEFEFE" d="M63.289 5.818h-1.57l.3-1.646h1.57l-.3 1.646zm2.67-1.646l.172-.957h-1.386l.234-1.289h-.983l-.235 1.29h-1.57l.233-1.29h-.983l-.233 1.29h-1.386l-.173.956h1.386l-.298 1.646H59.35l-.173.958h1.386l-.234 1.288h.983l.234-1.288h1.57l-.235 1.288h.986l.234-1.288h1.385l.174-.958h-1.386l.298-1.646h1.387z" transform="translate(-40 -368) translate(0 88) translate(24 56) translate(0 205) translate(16 19)"/>
                        </g>
                    </g>
                </g>
            </g>
        </g>
    </g>
</svg>
