<svg xmlns="http://www.w3.org/2000/svg" width="59" height="16" viewBox="0 0 59 16">
    <g fill="none" fill-rule="evenodd">
        <g>
            <g>
                <g>
                    <g>
                        <g>
                            <path fill="#222" fill-rule="nonzero" d="M9.959 9.348V2.317h-1.92c-.169 0-.258.147-.124.316.214.238.281.441.281.837v5.878h1.763zM2.223 7.506c.595-.396 1.112-.893 1.527-1.493.348.475.876.927 1.426 1.267.965.599 1.516.7 1.661.43l.483-.917c-1.302-.44-2.74-1.311-2.74-2.792V2.497H2.639c-.157 0-.247.159-.112.328.213.238.236.441.236.814v.475c0 1.436-1.269 2.42-2.762 3.007l.516.984c.146.282 1.022-.147 1.707-.6zm7.927 5.313v-1.277H4.087c-.348 0-.46-.102-.46-.453V8.772h-1.91c-.156 0-.246.158-.111.328.157.192.235.361.235.588v1.639c0 1.142.54 1.492 1.898 1.492h6.41zm4.535-4.341c1.864 0 2.908-1.085 2.908-2.51 0-.576-.213-1.063-.561-1.458h1.179V3.266h-2.549V2h-1.92c-.168 0-.258.147-.112.317.213.26.236.44.236.836v.113h-2.728V4.51h1.178c-.336.384-.538.87-.538 1.458 0 1.425 1.055 2.51 2.907 2.51zm6.198 1.029V6.262h1.28V4.985h-1.28V2.317h-1.92c-.168 0-.258.147-.112.316.213.26.27.441.27.837v6.037h1.762zm-6.198-2.273c-.785 0-1.223-.599-1.223-1.322 0-.77.438-1.357 1.223-1.357.775 0 1.224.588 1.224 1.357 0 .723-.449 1.322-1.224 1.322zm6.333 5.585v-1.277h-5.95c-.349 0-.461-.102-.461-.453V9.224h-1.909c-.157 0-.247.158-.112.328.157.192.236.362.236.588v1.187c0 1.142.539 1.492 1.897 1.492h6.299zm14.427-9.281V2.373h-8.51v1.165h8.51zm-.023 2.735V5.11H34.11V3.854h-1.695V5.11H30.01V3.854h-1.808c-.168 0-.247.147-.112.328.213.26.225.384.225.757v.17h-1.359v1.164h8.465zm1.123 1.73V6.85h-10.7v1.153h10.7zM35.422 13v-1.12h-6.287c-.168 0-.213-.056-.213-.203v-.35h6.354V8.874c0-.193-.078-.25-.258-.25h-7.926v1.109h6.388v.52h-6.534c-.169 0-.247.147-.113.328.214.26.292.452.292.825v.588c0 .678.292 1.006 1.067 1.006h7.23zm11.666-.045V2.317h-1.92c-.169 0-.258.158-.112.327.213.26.269.441.269.837v2.657h-1.942v1.311h1.942v5.506h1.763zm-4.536-1.753c.752 0 1.325-.09 1.65-.327v-.916h-4.289c-.291 0-.426-.124-.426-.396V7.494h3.39v-4.5c0-.191-.078-.248-.258-.248h-4.884V3.99h3.391v2.295h-3.57c-.169 0-.247.147-.113.328.214.26.292.474.292.847v2.454c0 .768.595 1.288 1.348 1.288h3.469zm8.87-3.04c1.01-.543 1.706-1.188 2.234-1.877.527.69 1.224 1.288 2.234 1.831.651.35 2.133.882 2.223.633l.438-1.074c-2.021-.52-3.997-1.865-3.997-3.21v-1.81H52.6c-.168 0-.258.148-.112.317.213.26.27.441.27.837v.656c0 1.345-1.976 2.747-3.997 3.267l.437 1.085c.09.249 1.572-.305 2.224-.656zM59 11.96v-1.278H48.3v1.278H59z" transform="translate(-40 -980) translate(0 88) translate(24 56) translate(0 820) translate(16 16)"/>
                        </g>
                    </g>
                </g>
            </g>
        </g>
    </g>
</svg>
