<svg xmlns="http://www.w3.org/2000/svg" xmlns:xlink="http://www.w3.org/1999/xlink" width="64" height="18" viewBox="0 0 64 18">
    <defs>
        <path id="yvlyff9a0a" d="M0 0L25.494 0 25.494 18 0 18z"/>
        <path id="agyzorls1c" d="M0 0L5.311 0 5.311 7.941 0 7.941z"/>
    </defs>
    <g fill="none" fill-rule="evenodd">
        <g>
            <g>
                <g>
                    <g>
                        <g>
                            <path fill="#C09658" d="M2.607 10.81V9H1.194c-.116 0-.183.124-.083.257.116.15.174.284.174.462v1.375c0 .896.375 1.082 1.38 1.082h4.77v-1.002H2.99c-.274 0-.382-.045-.382-.364M2.72 7.378c.253.353.636.69 1.035.941.7.446 1.1.521 1.206.32l.35-.68c-.945-.329-1.988-.976-1.988-2.077V4.765H1.914c-.114 0-.179.117-.081.243.155.177.17.328.17.605v.353c0 1.068-.92 1.799-2.003 2.236l.375.73c.106.21.74-.108 1.238-.445.431-.294.806-.664 1.108-1.109M5.838 5.368v4.426H7.17V4.5H5.72c-.128 0-.196.11-.094.238.161.179.212.332.212.63M10.86 10.63V9.265H9.428c-.118 0-.185.116-.084.241.118.142.177.267.177.433v.916c0 .84.42 1.057 1.44 1.057h4.707v-.941h-4.421c-.278 0-.387-.042-.387-.341M15.727 4.5H14.22c-.133 0-.203.108-.089.233.168.192.211.325.211.616v4.445h1.384V7.405h1.003v-.94h-1.003V4.5zM10.896 8.735c1.4 0 2.184-.798 2.184-1.846 0-.424-.16-.781-.422-1.072h.886v-.915H11.63V3.97h-1.442c-.126 0-.194.108-.084.232.16.192.177.325.177.616v.083H8.232v.915h.885c-.252.282-.404.64-.404 1.072 0 1.048.792 1.846 2.183 1.846m0-2.885c.582 0 .92.432.92.998 0 .532-.338.973-.92.973-.59 0-.919-.441-.919-.973 0-.566.33-.998.92-.998M26.816 7.676c-.97 0-1.588.695-1.588 1.858 0 1.154.618 1.848 1.588 1.848.98 0 1.599-.694 1.599-1.848 0-1.163-.618-1.858-1.599-1.858M34.523 9.26c0-1.33-.674-1.848-1.39-1.848-.52 0-.97.274-1.266.635v2.68c.266.195.695.39 1.144.39 1.011 0 1.512-.615 1.512-1.857" transform="translate(-40 -570) translate(0 88) translate(24 56) translate(0 410) translate(16 16)"/>
                            <g transform="translate(-40 -570) translate(0 88) translate(24 56) translate(0 410) translate(16 16) translate(16.996)">
                                <mask id="zbm4fr41sb" fill="#fff">
                                    <use xlink:href="#yvlyff9a0a"/>
                                </mask>
                                <path fill="#C09658" d="M23.959 8.847c-.347-.799-1.563-1.243-2.412-1.203-.404.02-.698.2-.698.501 0 .205.119.37.326.527.306.243.888.526 1.253.73.72.38 1.056.722 1.056 1.531 0 .877-.81 1.472-2.132 1.472-1.006 0-2.23-.4-2.112-.76l.247-.76c.474.311 1.303.467 1.757.467.493 0 .74-.156.74-.497 0-.253-.129-.4-.592-.633-.523-.264-.987-.527-1.45-.897-.297-.254-.583-.566-.583-1.15 0-.848.74-1.566 2.023-1.609.575-.019 1.31.067 1.844.292l-.813-2.207c-.278-.682-.581-1.095-1.476-1.259L1.122.003C.377-.047-.116.506.023 1.23l.418 2.827c.09.522.535.567.623.57h5.981v1.17H4.729v6.434H3.12V5.796H.698L2.34 16.917c.14.726.854 1.2 1.59 1.058l8.785-1.58v-.003c.496-.096.496-.62.496-.62V7.716c0-.312-.059-.478-.247-.683-.118-.146-.039-.283.11-.283h1.657v.556c.375-.497.977-.74 1.569-.74 1.51 0 2.576 1.208 2.576 2.913 0 1.833-1.105 2.925-2.763 2.925-.553 0-1.037-.175-1.352-.37v3.992l9.814-1.764c.735-.143 1.105-.818.825-1.503L23.96 8.847zM9.403 12.405c-1.737 0-3.02-1.209-3.02-2.915 0-1.715 1.283-2.924 3.02-2.924 1.746 0 3.03 1.209 3.03 2.924 0 1.706-1.284 2.915-3.03 2.915z" mask="url(#zbm4fr41sb)"/>
                            </g>
                            <path fill="#C09658" d="M48.424 6.175c-.646-.53-1.253-.809-2.105-.809-1.704 0-2.409 1.415-2.409 3.119 0 1.8.803 3.08 2.409 3.08.861 0 1.586-.25 2.37-.712l.44.77c-.891.577-1.86.818-2.79.818-2.253 0-3.584-1.55-3.584-3.956 0-2.387 1.292-3.985 3.574-3.985.94 0 1.654.222 2.34.52v1.155h-.245zM51.588 4.5v6.68c0 .311.108.389.383.389h.344v.843c-.118.02-.57.03-.708.03-.796 0-1.17-.37-1.17-1.184v-5.76c0-.397-.059-.62-.246-.775V4.5h1.397zM55.218 11.116c.44 0 .965-.183 1.319-.503V6.618h1.09v5.138h-1.061v-.466c-.364.366-.957.622-1.568.622-1.195 0-1.912-.65-1.912-1.774V7.559c0-.365-.048-.576-.24-.722v-.22h1.33v3.53c0 .668.296.97 1.042.97" transform="translate(-40 -570) translate(0 88) translate(24 56) translate(0 410) translate(16 16)"/>
                            <g transform="translate(-40 -570) translate(0 88) translate(24 56) translate(0 410) translate(16 16) translate(58.689 4.5)">
                                <mask id="muryahfuad" fill="#fff">
                                    <use xlink:href="#agyzorls1c"/>
                                </mask>
                                <path fill="#C09658" d="M0 0h1.352v2.47c.36-.194.817-.33 1.284-.33 1.703 0 2.675 1.056 2.675 2.905 0 1.88-1.06 2.896-2.529 2.896-.506 0-1.09-.232-1.45-.63v.456H.245v-6.76C.244.62.194.387 0 .223V0zm2.549 3.021c-.486 0-.886.175-1.197.427V6.43c.273.359.71.64 1.265.64.914 0 1.585-.581 1.585-2.025 0-1.268-.486-2.024-1.653-2.024z" mask="url(#muryahfuad)"/>
                            </g>
                        </g>
                    </g>
                </g>
            </g>
        </g>
    </g>
</svg>
