<svg xmlns="http://www.w3.org/2000/svg" xmlns:xlink="http://www.w3.org/1999/xlink" width="176" height="120" viewBox="0 0 176 120">
    <defs>
        <path id="6uhcf30nia" d="M0 119L175 119 175 0 0 0z"/>
    </defs>
    <g fill="none" fill-rule="evenodd">
        <g>
            <g>
                <path d="M0 0H176V120H0z" transform="translate(-92 -283) translate(92 283)"/>
                <g transform="translate(-92 -283) translate(92 283) translate(1 1)">
                    <path fill="#D7D7D6" d="M101.602 112.64c0 3.19-16.107 5.523-35.976 5.523-19.87 0-35.976-2.334-35.976-5.524s16.107-6.03 35.976-6.03 35.976 2.84 35.976 6.03"/>
                    <path fill="#F99C26" d="M42.5 99.317c-.017-.277-.006-.542.019-.8-.54-.391-1.092-.863-1.607-1.426-1.016-1.112-2.442-2.51-3.772-3.365l-2.432-.47-.128-.205c-.261.107-.49.294-.667.603-1.41 2.457 3.33 14.41 7.112 18.348 1.852 1.93 4.563 2.676 6.333.737.96-1.055 1.794-1.696 2.404-2.085-4.8-3.076-7.065-7.842-7.262-11.337"/>
                    <path fill="#FFF" d="M37.14 93.726c1.633.315 2.68.517 5.048.976-.874-1.957 2.426-4.098 6.988-5.914.029-.419-.018-.865-.163-1.345-.416-1.376-.848-2.825-1.287-4.304-2.229-1.062-3.559-2.24-3.395-3.436.02-.145.061-.282.117-.412l-2.75-.533c-1.14.71-2.222 1.704-3.03 2.867-.806 1.164-1.195 2.294-1.19 3.223-1.14.708-2.221 1.704-3.028 2.866-.806 1.164-1.196 2.293-1.193 3.223l1.324 2.114.128.204s1.645.32 2.43.47"/>
                    <path fill="#545D64" d="M42.775 67.19c-.394-1.26-.8-2.516-.989-3.128.292 1.05.634 2.087.989 3.128"/>
                    <path fill="#545D64" d="M99.372 90.81c-.12-1.136-1.154-1.234-1.592-.682-.07.087-.145.213-.216.346.17-12.919-8.428-25.464-9.998-31.04-3.555-12.622-13.75-23.035-27.259-21.525-10.393 1.16-19.183 9.223-19.408 19.905-.043 2.01.275 3.91.762 5.77-.329-1.82.08-4.257.9-5.97.875-1.825 4.015-5.486 8.83-5.474 11.802.03 15.035 21.327-1.558 32.733-1.482 1.019-1.58-.299-1.76-.853-.453-1.388-1.19-3.652-1.963-6.06-.826.326-1.415.76-1.662 1.33-.056.13-.098.268-.117.413-.164 1.196 1.167 2.375 3.395 3.436.439 1.479.872 2.928 1.288 4.304.145.48.191.926.162 1.345-4.562 1.816-7.862 3.957-6.988 5.914.157.352.44.698.885 1.035.106.08.237.15.386.218-.502.753-.852 1.59-.94 2.561-.025.259-.036.524-.02.801.198 3.495 2.464 8.26 7.263 11.337 3.319 2.128 7.848 3.447 13.745 2.978 4.424-.353 6.828-.164 9.646-.188 4.424-.035 7.996.824 12.72-.918 11.507-4.242 13.882-18.098 13.5-21.715"/>
                    <path fill="#FFF" d="M47.91 66.302c-1.506-1.001-1.71-2.907-1.033-3.702 1.065-1.25 3.082-.579 3.827.693 1.027 1.75-.886 4.274-2.793 3.009m5.977-.655c1.435-.712 2.865-.76 3.192-.107.328.651-.571 1.757-2.007 2.468-1.436.712-2.867.761-3.193.11-.328-.653.57-1.758 2.008-2.471m-5.815 18.374c.18.553.277 1.87 1.76.852C66.425 73.467 63.193 52.17 51.39 52.14c-4.815-.012-7.955 3.65-8.83 5.474-.82 1.713-1.229 4.15-.9 5.97.006.033.008.068.014.1.008.037.05.175.111.378.19.613.595 1.867.989 3.127.26.83.515 1.66.7 2.302.007.02.015.044.02.064 2.487-1.21 4.664-.345 5.301 1.046.941 2.057.1 4.168-2.588 5.49-.188.083-.4.16-.619.236l.521 1.632c.774 2.409 1.51 4.673 1.963 6.062"/>
                    <path fill="#FBC8C6" d="M55.073 68.008c1.435-.712 2.336-1.817 2.007-2.469-.327-.652-1.757-.603-3.192.108-1.438.713-2.336 1.818-2.008 2.47.326.652 1.757.603 3.193-.109"/>
                    <path fill="#000" d="M50.705 63.293c-.747-1.272-2.763-1.942-3.828-.693-.677.795-.472 2.701 1.034 3.702 1.906 1.265 3.82-1.26 2.794-3.009"/>
                    <path fill="#F99C26" d="M46.209 76.09c2.687-1.321 3.529-3.43 2.587-5.488-.637-1.392-2.815-2.257-5.3-1.047-.272.132-.545.28-.823.465-2.128 1.408-4.366 4.185-3.362 5.76.962 1.512 4.203 1.256 6.278.547.22-.075.431-.153.62-.237"/>
                    <path fill="#000" d="M44.347 75.138c-.369 0-.69-.272-.74-.646-.055-.407.233-.78.643-.835.563-.074 1.118-.381 1.418-.782.212-.285.287-.593.228-.941-.069-.406.208-.79.615-.856.416-.062.794.207.862.611.125.747-.049 1.461-.502 2.07-.545.732-1.45 1.243-2.424 1.372-.034.005-.067.007-.1.007M42.189 95.446c-.048 0-.097-.004-.145-.014l-5.046-.976c-.406-.08-.671-.469-.592-.873.08-.403.474-.667.879-.587l5.046.976c.405.08.67.469.591.873-.07.354-.382.6-.733.6M34.581 93.795c-.25 0-.494-.124-.637-.35l-1.323-2.115c-.217-.35-.11-.808.241-1.025.352-.217.812-.108 1.032.239l1.323 2.115c.217.349.11.808-.241 1.025-.124.075-.26.111-.395.111M37.477 85.591c-.412 0-.746-.33-.748-.74-.005-1.13.452-2.39 1.323-3.647.829-1.195 1.981-2.288 3.248-3.075.16-.102.352-.134.541-.1l2.756.533c.405.079.67.47.591.873-.08.402-.47.67-.878.587l-2.46-.476c-1 .667-1.903 1.546-2.565 2.5-.686.992-1.062 1.986-1.06 2.799.003.41-.33.744-.745.746h-.003z"/>
                    <path fill="#000" d="M40.75 84.458c-.079 0-.16-.013-.24-.04-.392-.133-.6-.555-.468-.944.197-.572.494-1.148.887-1.713.383-.556.845-1.082 1.374-1.566.303-.278.777-.26 1.059.043.28.3.26.772-.044 1.05-.446.408-.836.851-1.156 1.315-.315.453-.55.908-.702 1.35-.107.31-.398.505-.71.505M42.57 93.48c-.048 0-.097-.004-.145-.014l-9.31-1.8c-.351-.067-.605-.372-.606-.727-.004-1.131.454-2.392 1.324-3.646.83-1.197 1.983-2.29 3.247-3.076.351-.218.813-.112 1.031.236.22.348.114.807-.236 1.025-1.095.68-2.092 1.624-2.81 2.658-.524.759-.869 1.519-.999 2.2l8.646 1.67c.405.08.67.47.591.874-.07.354-.382.6-.733.6"/>
                    <path fill="#000" d="M36.531 90.547c-.08 0-.162-.013-.242-.04-.391-.133-.6-.556-.467-.944.198-.573.496-1.15.887-1.713.384-.556.846-1.083 1.376-1.567.302-.277.776-.26 1.058.043.28.3.26.772-.044 1.05-.447.41-.836.851-1.157 1.316-.314.451-.55.906-.702 1.352-.107.308-.398.503-.709.503M39.287 91.08c-.08 0-.16-.014-.24-.04-.392-.132-.602-.555-.469-.943.196-.572.494-1.149.887-1.715.38-.552.843-1.079 1.375-1.566.302-.277.777-.261 1.058.042.28.3.262.772-.042 1.05-.449.412-.839.855-1.158 1.316-.315.455-.551.909-.702 1.35-.106.311-.397.505-.709.505M42.043 91.612c-.08 0-.16-.013-.241-.04-.392-.133-.6-.555-.468-.943.197-.572.495-1.15.887-1.714.384-.555.847-1.082 1.376-1.566.302-.277.776-.26 1.058.043.28.301.26.772-.044 1.05-.447.41-.836.851-1.157 1.316-.315.453-.55.907-.702 1.35-.106.31-.398.504-.709.504M43.507 84.99c-.08 0-.16-.013-.241-.04-.392-.132-.6-.555-.468-.943.197-.572.494-1.149.887-1.714.273-.395.614-.798 1.043-1.23.29-.294.764-.297 1.058-.009.295.288.299.758.009 1.05-.366.371-.654.709-.878 1.032-.314.453-.55.907-.701 1.35-.107.31-.398.504-.71.504M46.263 85.524c-.08 0-.16-.013-.24-.04-.392-.132-.602-.555-.469-.943.196-.572.494-1.148.887-1.714.057-.085.126-.17.193-.253l.082-.1c.25-.326.721-.388 1.049-.137.327.249.389.716.137 1.042l-.106.133c-.041.051-.084.101-.12.155-.317.456-.553.91-.704 1.352-.106.31-.397.505-.709.505"/>
                    <path fill="#000" d="M47.725 83.882c-.107 0-.219-.023-.322-.073-2.735-1.301-4.018-2.716-3.814-4.206.143-1.037.924-1.832 2.322-2.367.387-.147.82.045.967.427.149.384-.044.815-.43.962-.85.324-1.312.72-1.376 1.18-.1.732 1.013 1.728 2.976 2.663.374.177.531.62.353.99-.128.268-.397.424-.676.424M49.036 88.352c-.328 0-.619-.201-.701-.533l-.02-.084-.134-.464c-.12-.392.103-.807.5-.927.396-.122.812.104.932.496l.117.39c.02.061.032.12.046.18.09.397-.15.827-.551.92-.063.014-.127.022-.189.022"/>
                    <path fill="#000" d="M46.887 90.525c-.155 0-.312-.049-.446-.148-.332-.246-.4-.712-.152-1.04.642-.854 1.446-1.648 2.328-2.294.332-.246.8-.175 1.047.155.245.33.176.796-.157 1.04-.765.562-1.463 1.25-2.02 1.988-.146.196-.371.299-.6.299"/>
                    <path fill="#000" d="M48.898 87.8c-.048 0-.096-.005-.145-.014l-11.419-2.208c-.406-.08-.67-.47-.592-.873.08-.403.471-.666.879-.587l11.42 2.208c.405.079.669.468.59.873-.069.354-.382.6-.733.6"/>
                    <path fill="#000" d="M49.177 89.532c-.018 0-.035 0-.053-.002-.413-.028-.723-.384-.694-.793.023-.35-.02-.704-.134-1.08-.617-2.044-1.27-4.243-1.93-6.469-.464-1.564-.932-3.14-1.393-4.684-.118-.393.107-.808.503-.924.392-.117.813.107.931.5.463 1.546.93 3.123 1.394 4.687.66 2.224 1.312 4.422 1.929 6.462.165.543.23 1.086.192 1.61-.026.392-.355.693-.745.693"/>
                    <path fill="#000" d="M61.169 114.47c-6.884 0-11.304-2.502-13.876-4.73-3.84-3.328-5.38-7.544-5.541-10.381-.078-1.355.277-2.603 1.082-3.814.228-.341.694-.438 1.037-.21.345.226.44.688.212 1.03-.63.947-.895 1.871-.836 2.91.144 2.534 1.54 6.32 5.03 9.344 2.643 2.29 7.428 4.893 15.17 4.27 3.235-.256 5.364-.23 7.42-.202.763.01 1.503.019 2.28.014 1.169-.012 2.285.043 3.359.094 2.962.137 5.757.268 9.107-.967 11.146-4.109 13.377-17.512 13.015-20.94-.022-.21-.092-.324-.147-.34-.034-.01-.084.003-.114.04-.047.061-.095.148-.144.238-.163.301-.518.45-.846.368-.335-.084-.567-.386-.562-.73.118-8.962-4.072-17.76-7.132-24.183-1.267-2.659-2.36-4.953-2.839-6.647C82.33 43.6 70.31 37.551 60.391 38.647c-10.48 1.171-18.538 9.418-18.744 19.182-.077 3.638 1.06 6.903 2.263 10.357l.377 1.087c.133.39-.075.811-.466.945-.392.132-.816-.075-.951-.464l-.375-1.08c-1.193-3.429-2.427-6.973-2.345-10.876.222-10.506 8.852-19.374 20.075-20.629 10.528-1.178 23.309 5.187 28.062 22.064.443 1.573 1.51 3.814 2.748 6.41 2.964 6.223 6.967 14.627 7.262 23.424.199-.02.403-.005.6.053.677.194 1.133.798 1.22 1.613.389 3.68-2.009 18.076-13.983 22.49-3.639 1.342-6.583 1.203-9.699 1.057-1.054-.05-2.14-.1-3.277-.092-.78.009-1.538-.004-2.312-.014-2.02-.027-4.114-.054-7.279.198-.83.066-1.631.098-2.398.098"/>
                    <path fill="#000" d="M35.113 93.687c-.035 0-.069.002-.102.006-.143.015-.297.066-.448.328-1.132 1.974 3.144 13.45 7.003 17.469.999 1.04 2.217 1.62 3.317 1.64.743-.01 1.39-.309 1.92-.89.549-.602 1.104-1.128 1.66-1.57-4.65-3.384-6.53-8.132-6.711-11.31-.01-.158-.011-.322-.005-.49-.51-.398-.976-.827-1.389-1.28-2.187-2.393-4.222-3.903-5.245-3.903zm9.734 20.93c-1.492 0-3.08-.764-4.365-2.1-3.835-3.995-8.87-16.357-7.22-19.231.36-.627.909-.997 1.586-1.071 1.953-.214 4.686 2.262 6.619 4.376.433.476.935.92 1.492 1.325.213.155.329.409.305.67-.022.221-.031.449-.017.688v.002c.17 3.023 2.086 7.655 6.922 10.753.213.138.343.374.342.627 0 .253-.13.489-.345.625-.74.47-1.5 1.129-2.254 1.957-.81.889-1.85 1.365-3.01 1.38h-.055zM45.816 69.718c-.696 0-1.634.197-2.728.92-2.19 1.45-3.747 3.8-3.145 4.744.699 1.097 3.903.932 5.948.034 2.222-1.097 3.032-2.74 2.224-4.506-.227-.494-.734-.885-1.394-1.072-.222-.062-.53-.12-.905-.12zm-3.545 7.91c-1.495 0-2.908-.373-3.593-1.45-1.347-2.115 1.34-5.293 3.58-6.776 1.619-1.074 3.35-1.427 4.874-.994 1.082.307 1.937.994 2.346 1.885 1.156 2.528.03 5.004-2.938 6.464l-.027.011c-1.007.447-2.67.86-4.242.86zM48.526 97.319c-2.747 0-4.976-.285-5.906-.99-1.31-.992-1.421-2.029-1.284-2.724.724-3.69 10.59-6.737 14.797-7.875 2.756-.746 3.384-1.911 4.252-3.526l.227-.418c1.915-3.495 3.861-8.262 3.88-8.309.157-.38.598-.563.975-.411.384.155.57.588.414.968-.02.05-1.997 4.892-3.954 8.463l-.222.408c-.925 1.72-1.8 3.345-5.178 4.26-7.835 2.12-13.349 4.823-13.723 6.725-.03.153-.121.616.723 1.256 1.61 1.22 11.476.748 18.52-.883 4.59-1.062 8.159-2.729 12.313-14.575.136-.388.566-.591.953-.458.391.135.597.56.46.947-4.012 11.442-7.656 14.208-13.386 15.534-3.848.89-9.506 1.608-13.861 1.608"/>
                    <path fill="#000" d="M60.574 87.162c-.161 0-.325-.052-.462-.16-.964-.757-2.633-.136-2.65-.13-.385.15-.818-.039-.97-.421-.15-.382.04-.814.423-.964.102-.04 2.478-.943 4.124.347.325.255.38.723.124 1.045-.148.185-.366.283-.589.283"/>
                    <path fill="#D7D7D6" d="M142.385 112.996c0 2.102-11.035 3.637-24.649 3.637-13.615 0-24.65-1.535-24.65-3.637 0-2.102 11.035-3.973 24.65-3.973 13.614 0 24.65 1.871 24.65 3.973"/>
                    <path fill="#000" d="M101.752 59.122c-.043 0-.088-.004-.133-.012l-3.341-.595c-.299-.053-.535-.279-.6-.573-.064-.294.056-.597.304-.77l2.458-1.698-1.451-.26c-.407-.071-.678-.459-.606-.862.075-.405.457-.67.869-.6l3.23.575c.299.052.535.28.6.573.064.294-.056.597-.304.77l-2.457 1.698 1.562.278c.407.072.677.46.605.863-.065.36-.38.613-.736.613M93.97 51.834c-.292 0-.558-.17-.681-.434-.125-.274-.074-.596.133-.817l3.364-3.591-2.801.1c-.452.016-.762-.307-.776-.717-.014-.41.308-.755.721-.77l4.608-.165c.326-.025.581.161.707.434.126.274.074.596-.132.816l-3.364 3.592 2.96-.106h.028c.4 0 .733.316.748.717.014.41-.308.755-.721.77l-4.767.17h-.027zM94.095 42.912c-.038 0-.076-.003-.115-.009l-5.853-.9c-.299-.046-.541-.266-.613-.558-.071-.293.041-.6.285-.776l5.301-3.854-3.87-.595c-.408-.063-.69-.442-.626-.848.063-.406.44-.683.854-.621l5.656.869c.3.046.541.267.614.559.071.293-.04.598-.286.776l-5.3 3.853 4.066.626c.41.062.69.443.626.848-.057.368-.377.63-.739.63"/>
                    <path fill="#F99C26" d="M132.877 79.792c-.056-.011-.114-.01-.171-.013.093-1.558-.178-2.71-1.137-2.929-.386-.087-.82.045-1.263.334 1.18 3.477.599 8.118-1.821 11.059.205 1.237.85 2.007 1.814 2.2 1.558.313 2.61-.853 3.33-4.377.631-3.078.834-5.956-.752-6.274"/>
                    <path fill="#F2D641" d="M130.307 77.185c-.338-.991-.813-1.889-1.434-2.622-2.253-2.66-6.547-1.12-7.739-2.366-1.717-1.795-1.625-.844-4.518-4.68-3.563-4.727-12.467-8.703-18.399-3.645-4.752 4.052-4.02 9.156-3.433 11.058 1.176 3.81 3.173 7.332 4.798 9.068 3.182 3.397 5.978 4.974 8.1 5.93.516 1.465 1.315 2.518 2.555 2.545.858.019 1.514-.503 2.015-1.299 4.197.468 10.27.192 12.359-.379 1.6-.436 2.888-1.353 3.874-2.552 2.42-2.941 3-7.583 1.822-11.058"/>
                    <path fill="#FFF" d="M121.134 72.197c-.286-.3-.52-.517-.727-.7-.065.064-.13.13-.196.19-.822.744-2.327.277-3.339-.825-1.011-1.101-1.343-2.633-.522-3.378l.142-.12c-1.192-1.527-2.932-2.964-4.944-4.032-3.517-1.251-5.692 1.379-5.94 3.208-.99 7.254 14.472 12.283 17.61 7.468.229-.351.414-.76.567-1.204-1.165-.054-2.166-.1-2.651-.607"/>
                    <path fill="#F4E8AE" d="M116.872 70.862c1.012 1.101 2.517 1.57 3.339.825.066-.061.13-.125.196-.19 1.263-1.26 2.249-3.398 1.006-4.751-1.263-1.375-3.547-.548-4.92.617-.048.04-.097.08-.143.12-.822.746-.49 2.278.522 3.379"/>
                    <path fill="#E1F3FC" d="M122.728 51.793c3.207 5.841-1.821 12.518-1.821 12.518s1.027-3.158-4.043-5.45c-4.343-1.962-4.369-5.207-3.887-6.837 1.22-4.123 7.187-4.9 9.75-.23"/>
                    <path fill="#000" d="M132.707 80.523l-.046-.001c-.412-.025-.727-.377-.703-.787.036-.603.055-2.022-.557-2.16-.155-.041-.405.05-.682.23-.345.229-.809.132-1.037-.21-.227-.342-.133-.804.211-1.03.643-.423 1.264-.57 1.84-.44 1.272.29 1.85 1.534 1.72 3.699-.024.394-.353.699-.746.699"/>
                    <path fill="#000" d="M130.791 91.24c-.201 0-.415-.022-.64-.067-1.275-.256-2.151-1.28-2.404-2.808-.068-.406.21-.788.616-.855.411-.065.794.207.86.612.154.924.566 1.46 1.225 1.593.478.098 1.605.32 2.448-3.797.354-1.727.498-3.03.44-3.98-.035-.598-.17-1.33-.607-1.417h-.016c-.29 0-.73.204-1.264.787-.277.303-.751.326-1.057.05-.306-.278-.327-.747-.05-1.052.792-.863 1.654-1.34 2.395-1.27.12.005.2.01.28.024.765.155 1.692.763 1.814 2.79.066 1.08-.088 2.508-.467 4.365-.488 2.38-1.335 5.024-3.573 5.024M118.474 76.639c-1.871 0-3.911-.421-5.717-1.086-4.012-1.475-8.487-4.748-7.89-9.114.158-1.163.931-2.82 2.591-3.662.985-.5 2.607-.85 4.822.22.317.01.598.215.682.537.073.286-.017.64-.252.822-.233.182-.54.261-.803.121-1.437-.766-2.742-.896-3.769-.375-1.07.543-1.67 1.666-1.789 2.538-.445 3.27 3.158 6.132 6.928 7.519 4.117 1.514 8.12 1.275 9.313-.555.181-.278.345-.628.487-1.04.134-.39.56-.595.95-.464.391.133.6.556.467.944-.185.536-.397.984-.648 1.368-1.038 1.594-3.077 2.227-5.372 2.227"/>
                    <path fill="#000" d="M118.844 70.32c-.358 0-.81-.106-1.306-.47-.333-.244-.404-.709-.16-1.04.246-.33.715-.4 1.047-.156.133.096.327.203.474.173.178-.035.338-.24.379-.31.211-.347.669-.468 1.021-.263.354.204.48.649.28 1.003-.05.084-.499.839-1.362 1.023-.108.023-.233.04-.373.04M111.734 68.97c-.412 0-.748-.333-.748-.743s.336-.744.748-.744c.22 0 .333-.046.364-.085.07-.088.058-.33.038-.41-.099-.398.146-.8.547-.9.399-.097.808.145.907.544.025.1.227.998-.313 1.683-.236.3-.695.655-1.543.655M117.708 49.343c-.165 0-.332.01-.5.026-1.698.181-3.043 1.279-3.512 2.866-.268.906-.81 4.012 3.478 5.95 2.623 1.185 3.776 2.616 4.255 3.82 1.177-2.282 2.603-6.284.642-9.855-.98-1.785-2.585-2.807-4.363-2.807m3.2 15.712c-.119 0-.236-.027-.345-.083-.325-.167-.48-.543-.368-.89.027-.094.7-2.58-3.641-4.543-4.279-1.934-5.024-5.258-4.295-7.725.642-2.173 2.479-3.677 4.79-3.923 2.559-.272 4.984 1.086 6.336 3.546 3.4 6.189-1.662 13.031-1.879 13.32-.145.193-.37.298-.599.298"/>
                    <path fill="#FFF" d="M121.248 55.294c-.341 0-.649-.233-.728-.578-.028-.12-.058-.239-.094-.358-.116-.395.11-.808.508-.924.392-.114.812.11.929.504.043.148.081.297.116.446.092.4-.16.8-.563.89-.056.014-.112.02-.168.02M120.487 53.412c-.25 0-.494-.124-.636-.35-.596-.95-1.326-1.245-1.832-1.324-.41-.065-.688-.444-.624-.85.064-.407.455-.675.856-.62.815.128 1.975.58 2.87 2.008.22.347.112.807-.24 1.024-.123.075-.259.112-.394.112"/>
                    <path fill="#000" d="M119.677 66.77c-.968 0-2.115.622-2.823 1.263-.447.405-.176 1.515.57 2.328.747.814 1.834 1.183 2.283.776.634-.574 1.154-1.35 1.39-2.076.25-.762.17-1.372-.237-1.815-.312-.337-.727-.476-1.183-.476m-.477 6.02c-.954 0-2.027-.498-2.88-1.428-1.366-1.486-1.575-3.43-.475-4.427 1.787-1.62 4.542-2.412 6.121-.69.772.84.97 2.003.556 3.273-.318.975-.976 1.966-1.807 2.718-.412.374-.942.553-1.515.553M110.283 93.217h-.062c-.807-.019-1.515-.352-2.105-.993-2.544-2.767-2.07-10.797-2.006-11.703.029-.41.396-.703.798-.69.412.027.723.381.695.792-.157 2.287-.173 8.65 1.62 10.6.31.337.637.497 1.03.506.387-.015.64-.12.93-.397 1.525-1.466 1.912-6.098 1.932-7.758.004-.407.339-.735.748-.735h.009c.413.004.744.341.74.752-.008.674-.14 6.65-2.388 8.809-.565.542-1.217.817-1.94.817"/>
                    <path fill="#000" d="M117.118 92.156c-1.698 0-3.427-.073-4.95-.244-.41-.045-.707-.413-.66-.821.047-.408.429-.71.827-.656 4.122.459 10.085.187 12.077-.356 3.294-.9 4.668-3.849 5.194-5.527 1.073-3.424.536-7.335-1.306-9.51-1.128-1.332-2.946-1.418-4.55-1.495-1.33-.063-2.468-.116-3.158-.837-.27-.28-.486-.486-.681-.655-.31-.272-.339-.742-.066-1.05.274-.31.747-.336 1.058-.066.22.196.47.427.774.747.276.287 1.26.334 2.13.375 1.733.082 4.09.194 5.639 2.023 2.186 2.583 2.825 6.967 1.589 10.91-1.05 3.35-3.319 5.725-6.226 6.519-1.392.38-4.486.643-7.691.643M107.682 90.671c-.103 0-.208-.02-.308-.066-1.948-.877-4.933-2.461-8.34-6.1-1.854-1.98-3.85-5.74-4.965-9.358-.356-1.152-1.85-7.14 3.66-11.84 4.61-3.927 10.714-2.693 14.89-.227 1.794 1.06 3.338 2.384 4.466 3.826.253.325.194.792-.133 1.044-.326.252-.797.19-1.05-.133-1-1.279-2.437-2.507-4.048-3.459-3.73-2.205-9.144-3.338-13.15.078-4.803 4.096-3.512 9.279-3.204 10.276 1.22 3.95 3.204 7.257 4.63 8.78 3.224 3.443 6.03 4.936 7.861 5.759.376.168.543.61.373.983-.125.275-.398.437-.682.437"/>
                    <mask id="nuycawtg6b" fill="#fff">
                        <use xlink:href="#6uhcf30nia"/>
                    </mask>
                    <path fill="#FFF" d="M102.229 96.01L135.782 96.01 135.782 92.846 102.229 92.846z" mask="url(#nuycawtg6b)"/>
                    <path fill="#4DBEEE" d="M136.915 92.845L136.915 91.028 135.781 91.028 102.23 91.028 101.096 91.028 101.096 92.845 102.23 92.845 135.781 92.845zM136.915 97.827L136.915 96.01 135.781 96.01 102.23 96.01 101.096 96.01 101.096 97.827 102.23 97.827 105.133 97.827 135.781 97.827z" mask="url(#nuycawtg6b)"/>
                    <path fill="#43AC4C" d="M136.915 97.827L135.781 97.827 105.133 97.827 105.133 100.645 137.036 100.645 140.091 100.645 140.091 97.827z" mask="url(#nuycawtg6b)"/>
                    <path fill="#EC5450" d="M102.079 100.645L102.079 103.325 130.506 103.325 137.036 103.325 137.036 100.645 105.134 100.645z" mask="url(#nuycawtg6b)"/>
                    <path fill="#F2D641" d="M99.96 103.325v2.13h30.547c1.494 0 2.712 1.208 2.712 2.694v.27c0 1.485-1.218 2.694-2.712 2.694H99.96v2.13h30.546c2.68 0 4.854-2.16 4.854-4.824v-.27c0-2.664-2.173-4.824-4.854-4.824H99.96z" mask="url(#nuycawtg6b)"/>
                    <path fill="#FFF" d="M133.219 108.42v-.27c0-1.487-1.218-2.696-2.712-2.696H99.96v5.66h30.546c1.494 0 2.712-1.21 2.712-2.695" mask="url(#nuycawtg6b)"/>
                    <path fill="#000" d="M101.844 92.102h34.322v-.33h-34.322v.33zm35.07 1.486h-35.818c-.413 0-.749-.332-.749-.742v-1.818c0-.41.336-.743.749-.743h35.819c.413 0 .748.333.748.743v1.818c0 .41-.335.742-.748.742zM101.844 97.083h34.322v-.33h-34.322v.33zm35.07 1.487h-35.818c-.413 0-.749-.333-.749-.743V96.01c0-.41.336-.743.749-.743h35.819c.413 0 .748.333.748.743v1.817c0 .41-.335.743-.748.743z" mask="url(#nuycawtg6b)"/>
                    <path fill="#000" d="M102.978 95.267h32.056v-1.678h-32.056v1.678zm32.804 1.486H102.23c-.413 0-.748-.332-.748-.743v-3.164c0-.41.335-.744.748-.744h33.553c.413 0 .749.334.749.744v3.164c0 .41-.336.743-.749.743zM105.882 99.902h33.46V98.57h-33.46v1.332zm34.21 1.487h-34.958c-.413 0-.748-.334-.748-.744v-2.818c0-.41.335-.744.748-.744h34.957c.413 0 .748.334.748.744v2.818c0 .41-.335.744-.748.744z" mask="url(#nuycawtg6b)"/>
                    <path fill="#000" d="M102.827 102.582h33.46v-1.193h-33.46v1.193zm34.209 1.486H102.08c-.413 0-.749-.332-.749-.743v-2.68c0-.41.336-.743.749-.743h34.956c.413 0 .748.333.748.743v2.68c0 .41-.335.743-.748.743z" mask="url(#nuycawtg6b)"/>
                    <path fill="#000" d="M100.71 112.499h29.66c2.338 0 4.242-1.892 4.242-4.215 0-2.324-1.904-4.216-4.242-4.216h-29.66v8.43zm29.66 1.487H99.96c-.412 0-.748-.334-.748-.744v-9.917c0-.41.336-.744.749-.744h30.409c3.164 0 5.74 2.558 5.74 5.703 0 3.144-2.576 5.702-5.74 5.702z" mask="url(#nuycawtg6b)"/>
                    <path fill="#000" d="M100.71 110.37h29.66c1.158 0 2.1-.935 2.1-2.086 0-1.15-.942-2.086-2.1-2.086h-29.66v4.172zm29.66 1.487H99.96c-.412 0-.748-.333-.748-.743v-5.66c0-.41.336-.743.749-.743h30.41c1.983 0 3.596 1.602 3.596 3.573 0 1.97-1.614 3.573-3.597 3.573z" mask="url(#nuycawtg6b)"/>
                    <path fill="#000" d="M116.59 108.084H99.96c-.412 0-.748-.333-.748-.743s.336-.744.749-.744h16.628c.413 0 .749.333.749.744 0 .41-.336.743-.749.743M123.514 109.97H99.96c-.413 0-.747-.332-.747-.743 0-.41.334-.743.747-.743h23.554c.413 0 .748.333.748.743s-.335.744-.748.744M69.42 50.04c-.08 0-.161-.012-.242-.04-.391-.132-.6-.555-.466-.944 2.556-7.436 10.2-16.619 17.777-21.358.351-.221.814-.113 1.031.232.221.348.116.806-.234 1.025-7.322 4.582-14.699 13.43-17.157 20.582-.107.31-.398.503-.709.503M38.558 29.042c-1.504 0-2.973-.257-4.404-.77-3.99-1.436-5.104-5.003-4.439-7.902.713-3.105 3.559-6.034 8.356-5.545.735.073 3.25.48 4.71 2.632 1.17 1.722 1.335 4.05.492 6.919-.115.392-.529.622-.928.504-.397-.114-.624-.527-.508-.92.712-2.426.611-4.334-.297-5.672-1.096-1.614-3.047-1.926-3.62-1.984-3.887-.39-6.179 1.928-6.745 4.396-.519 2.261.359 5.046 3.489 6.173C50.584 32.601 66.642.74 66.803.416c.182-.367.628-.524 1.002-.338.37.182.523.627.34.996-.04.083-4.187 8.376-10.344 15.817-6.64 8.027-13.207 12.15-19.243 12.15M24.035 47.738c-.236 0-.47-.11-.614-.318-.237-.337-.153-.8.184-1.035 5.208-3.608 12.274-10.224 15.109-15.377.198-.36.653-.496 1.016-.296.362.198.496.65.296 1.01-2.943 5.352-10.216 12.177-15.563 15.882-.131.09-.28.134-.428.134" mask="url(#nuycawtg6b)"/>
                    <path fill="#CC8946" d="M17.625 49.366c1.393-3.02-.119-5.695-.119-5.695s-3.027.61-4.42 3.63c-1.393 3.019.12 5.695.12 5.695s3.028-.61 4.42-3.63" mask="url(#nuycawtg6b)"/>
                    <path fill="#000" d="M17.09 44.571c-.848.316-2.447 1.136-3.324 3.04-.877 1.9-.46 3.637-.144 4.485.849-.316 2.446-1.136 3.323-3.039.877-1.902.46-3.639.145-4.486m-3.884 9.168c-.267 0-.52-.142-.652-.38-.07-.122-1.682-3.043-.15-6.369 1.536-3.325 4.814-4.02 4.954-4.048.32-.06.643.084.8.365.07.123 1.682 3.044.148 6.37-1.532 3.325-4.812 4.02-4.952 4.048-.049.01-.098.014-.148.014" mask="url(#nuycawtg6b)"/>
                    <path fill="#000" d="M17.506 44.414c-.104 0-.21-.02-.312-.067-.375-.171-.54-.612-.369-.986l1.28-2.777c.173-.372.617-.536.993-.366.376.172.541.613.37.987l-1.28 2.777c-.127.272-.399.432-.682.432" mask="url(#nuycawtg6b)"/>
                    <path fill="#CC8946" d="M173.133 111.7l-2.921.458 1.19-1.6c-2.91-1.303-7.172-1.53-9.98.648 2.246.494 5.131 1.782 4.162 3.27 2.698-.347 4.522 1.472 5.067 2.819 4.136-1.302 4.328-3.761 2.482-5.596" mask="url(#nuycawtg6b)"/>
                    <path fill="#F2D641" d="M144.575 112.32c-2.635.05-3.777-1.921-3.866-3.297-4.28.827-5.227 3.208-4.071 5.199l2.879-.133-1.613 1.436c2.317 1.584 6.238 2.266 9.547.44-1.948-.725-4.249-2.293-2.876-3.644" mask="url(#nuycawtg6b)"/>
                    <path fill="#EC5450" d="M156.046 108.262c-.145-.026-.287-.048-.427-.063 1.474-1.024 1.691-2.55 1.691-2.55s-1.629-.612-3.351.402c-.842.496-1.33 1.16-1.61 1.706-.596-.16-1.417-.244-2.353.046-1.91.592-2.544 2.205-2.544 2.205s1.288.86 3.04.457c-.082.114-.161.233-.238.358-1.25 2.048-.666 3.922-.666 3.922s1.944-.352 3.195-2.398c.015-.026.025-.05.041-.075.072.266.168.541.294.823.983 2.194 2.873 2.79 2.873 2.79s.82-1.794-.163-3.987c-.127-.283-.268-.537-.419-.769.029.006.055.014.084.019 2.367.447 3.932-.752 3.932-.752s-1.012-1.686-3.38-2.134" mask="url(#nuycawtg6b)"/>
                    <path fill="#000" d="M166.514 113.695c2.196.096 3.75 1.442 4.507 2.684 1.387-.532 2.243-1.243 2.437-2.033.179-.723-.224-1.402-.603-1.85l-2.527.397c-.297.047-.598-.09-.756-.35-.158-.257-.142-.585.037-.827l.61-.822c-2.085-.702-4.754-.875-6.942.077 1.214.437 2.668 1.164 3.111 2.237.066.16.107.322.126.487m4.137 4.343c-.299 0-.578-.178-.694-.466-.433-1.069-1.966-2.661-4.278-2.358-.288.035-.572-.096-.728-.34-.155-.245-.154-.558.005-.8.096-.151.08-.226.048-.301-.259-.629-1.904-1.436-3.744-1.84-.283-.064-.504-.282-.568-.563-.064-.28.04-.573.27-.75 3.117-2.417 7.757-2.079 10.746-.74.206.092.36.272.417.49.057.216.013.448-.122.63l-.104.14 1.118-.176c.239-.034.477.042.646.21 1.096 1.09 1.54 2.341 1.25 3.525-.247 1.005-1.148 2.395-4.036 3.304-.075.025-.152.035-.226.035" mask="url(#nuycawtg6b)"/>
                    <path fill="#000" d="M159.917 118.06c-.274 0-.538-.149-.669-.408-.185-.367-.037-.814.33-1l5.668-2.84c.373-.186.821-.037 1.006.33.185.366.037.814-.33.998l-5.668 2.84c-.11.055-.223.08-.337.08M139.164 115.401c1.735.867 4.156 1.263 6.476.534-.937-.537-1.97-1.34-2.188-2.351-.038-.178-.057-.392-.026-.625-1.766-.37-2.916-1.646-3.315-3.038-1.556.413-2.614 1.096-3.008 1.956-.266.578-.184 1.135-.009 1.579l2.388-.11c.32-.04.607.17.727.46.12.293.044.627-.193.836l-.852.76zm3.97 2.395c-2.193 0-4.242-.692-5.655-1.658-.19-.13-.307-.337-.322-.564-.015-.229.076-.45.248-.603l.048-.042-.78.035c-.274.018-.545-.13-.684-.37-.64-1.104-.73-2.288-.248-3.334.467-1.018 1.684-2.36 4.826-2.967.211-.038.43.012.6.142.17.13.275.328.29.54.068 1.055.93 2.603 3.022 2.603l.096-.001c.301 0 .572.179.69.454.12.28.055.603-.164.817-.227.226-.2.36-.184.424.125.583 1.354 1.46 2.797 1.996.274.103.463.352.484.642.021.289-.128.564-.383.704-1.517.836-3.134 1.182-4.681 1.182z" mask="url(#nuycawtg6b)"/>
                    <path fill="#000" d="M144.575 113.064c-.31 0-.598-.19-.705-.497-.138-.387.067-.812.457-.948l5.003-1.747c.394-.136.817.066.954.455.138.386-.067.811-.457.947l-5.003 1.748c-.083.028-.166.042-.249.042" mask="url(#nuycawtg6b)"/>
                    <path fill="#000" d="M152.82 111.567c.03 0 .06.002.09.006.296.043.56.22.637.507.065.242.152.481.255.712.475 1.058 1.182 1.682 1.71 2.024.099-.619.107-1.557-.367-2.615-.105-.233-.228-.458-.364-.668-.163-.253-.16-.577.01-.823.172-.248.477-.37.77-.31 1.185.227 2.115.009 2.704-.225-.454-.43-1.223-.967-2.36-1.182-.125-.023-.248-.042-.369-.056-.308-.033-.565-.255-.641-.554-.077-.3.04-.616.296-.794.616-.428.963-.96 1.155-1.374-.509-.04-1.243.027-2.005.476-.578.34-1.022.812-1.323 1.403-.161.315-.524.475-.865.382-.644-.176-1.295-.162-1.934.036-.843.263-1.381.76-1.697 1.163.438.136 1.073.233 1.8.066.302-.074.618.054.793.313.173.258.167.593-.015.845-.071.098-.14.201-.206.31-.602.986-.713 1.914-.695 2.536.564-.272 1.342-.8 1.943-1.785.14-.228.408-.393.677-.393m3.172 5.061c-.075 0-.151-.01-.225-.034-.087-.028-2.008-.654-3.15-2.825-1.333 1.409-2.817 1.694-2.893 1.708-.37.065-.737-.151-.85-.512-.024-.078-.515-1.715.3-3.665-1.255-.097-2.091-.645-2.139-.675-.29-.195-.407-.563-.279-.888.03-.08.791-1.953 3.019-2.644.716-.222 1.469-.28 2.202-.171.41-.615.955-1.13 1.602-1.51 2.007-1.182 3.916-.49 3.996-.46.329.123.526.455.478.8-.008.055-.16 1.04-.924 2.033 2.002.704 2.898 2.16 2.94 2.231.193.323.114.74-.186.969-.061.047-1.286.966-3.208 1.006.85 2.29.036 4.12-.001 4.2-.124.273-.395.437-.682.437" mask="url(#nuycawtg6b)"/>
                    <path fill="#000" d="M152.313 108.42c-.286 0-.559-.165-.683-.441l-1.98-4.418c-.168-.376.003-.815.38-.982.377-.17.82.002.988.377l1.978 4.417c.169.376 0 .816-.378.982-.1.044-.203.064-.305.064" mask="url(#nuycawtg6b)"/>
                    <path fill="#EC5450" d="M99.086 20.06c-3.14 1.139-3.994 4.088-3.994 4.088s2.564 1.711 5.705.573c3.14-1.138 3.994-4.087 3.994-4.087s-2.564-1.711-5.705-.573" mask="url(#nuycawtg6b)"/>
                    <path fill="#000" d="M96.03 23.809c.825.38 2.536.927 4.51.214 1.978-.717 2.93-2.232 3.314-3.05-.824-.38-2.538-.93-4.51-.214-1.97.715-2.926 2.234-3.313 3.05m2.548 2.048c-2.234 0-3.817-1.033-3.905-1.092-.27-.18-.392-.512-.302-.822.039-.136 1-3.327 4.457-4.58 3.46-1.257 6.262.574 6.38.653.27.18.392.513.302.823-.039.136-1 3.328-4.458 4.58-.878.319-1.713.438-2.474.438" mask="url(#nuycawtg6b)"/>
                    <path fill="#000" d="M91.499 27.297c-.175 0-.35-.06-.492-.184-.312-.269-.344-.738-.072-1.048 1.623-1.853 3.829-2.592 3.922-2.623.391-.131.814.083.944.47.13.39-.081.811-.473.941-.02.006-1.917.652-3.265 2.188-.147.169-.356.256-.564.256" mask="url(#nuycawtg6b)"/>
                    <path fill="#F2D641" d="M59.664 38.196c-.9-1.778 1.004-3.602 2.553-4.39-2.317-2.493-5.354-1.881-7.272-.036l1.072 1.899-2.165-.344c-1.08 2.426-.61 5.469 2.545 6.768.21-1.717 1.277-4.122 3.267-3.897" mask="url(#nuycawtg6b)"/>
                    <path fill="#000" d="M54.332 36.154c-.346 1.058-.341 2.147.024 3.057.293.724.794 1.316 1.495 1.767.44-1.656 1.437-3.088 2.846-3.45-.143-1.441.867-2.864 2.277-3.847-.667-.498-1.4-.76-2.185-.782-.988-.026-2.015.344-2.895 1.032l.775 1.375c.141.25.126.555-.039.789-.164.233-.442.357-.731.308l-1.567-.25zm2.065 6.683c-.097 0-.194-.018-.287-.057-1.512-.623-2.599-1.667-3.143-3.018-.576-1.43-.504-3.159.2-4.738.137-.308.459-.491.803-.433l.637.101-.314-.559c-.167-.295-.112-.664.132-.898 1.25-1.201 2.872-1.86 4.405-1.824 1.465.04 2.826.695 3.937 1.889.159.171.229.406.188.635-.04.229-.188.426-.396.531-1.303.663-2.854 2.155-2.226 3.396.123.243.101.535-.055.76-.157.223-.43.34-.698.313-1.375-.142-2.264 1.804-2.44 3.248-.028.232-.163.436-.366.553-.115.067-.246.1-.377.1z" mask="url(#nuycawtg6b)"/>
                    <path fill="#000" d="M64.306 41.006c-3.198 0-5.126-2.228-5.214-2.33-.267-.315-.226-.784.09-1.048.314-.263.786-.225 1.053.087.075.087 1.865 2.12 4.753 1.762.397-.05.784.238.835.646.051.408-.24.779-.65.83-.298.037-.588.053-.867.053" mask="url(#nuycawtg6b)"/>
                    <path fill="#CC8946" d="M9.797 114.025c-2.75-.304-3.109-2.262-2.63-3.532-4.773.19-6.744 2.244-6.376 4.221l3.034.26-2.267 1.102c1.74 1.758 5.514 2.9 9.7 1.668-1.717-.922-3.444-2.664-1.46-3.719" mask="url(#nuycawtg6b)"/>
                    <path fill="#000" d="M2.936 116.234c1.472.96 3.8 1.564 6.492 1.157-.66-.573-1.267-1.336-1.265-2.203 0-.221.041-.483.17-.753-.869-.346-1.362-.871-1.638-1.318-.328-.532-.481-1.168-.452-1.813-2.018.213-3.556.833-4.294 1.75-.249.31-.396.636-.44.976l2.38.203c.336.028.61.275.673.604.061.328-.105.658-.407.804l-1.22.593zM7.774 119c-2.98 0-5.44-1.079-6.75-2.403-.169-.17-.244-.411-.204-.646.032-.186.134-.35.281-.464l-.375-.032c-.334-.027-.61-.276-.67-.605-.179-.955.079-1.923.723-2.724 1.138-1.415 3.396-2.258 6.358-2.376.258-.032.49.105.637.306.146.202.183.465.094.697-.208.553-.17 1.145.103 1.586.32.517.98.844 1.909.948.325.035.59.278.652.597.062.32-.091.643-.38.797-.225.118-.493.304-.493.509 0 .417.73 1.241 1.955 1.9.267.142.42.431.389.73-.03.3-.241.55-.531.636-1.288.38-2.532.544-3.698.544z" mask="url(#nuycawtg6b)"/>
                    <path fill="#000" d="M9.796 114.769c-.36 0-.68-.26-.737-.627-.067-.405.212-.787.62-.85l7.311-1.162c.407-.067.794.21.857.616.067.405-.212.787-.62.852l-7.311 1.16c-.04.008-.08.01-.12.01" mask="url(#nuycawtg6b)"/>
                    <path fill="#F2D641" d="M31.81 113.683c-2.427.57-4.814-.742-5.816-1.797-3.446 1.506-2.736 3.555-.325 4.878l2.6-.684-.546 1.445c3.225.772 7.342.514 9.212-1.577-2.305-.173-5.502-.935-5.124-2.265" mask="url(#nuycawtg6b)"/>
                    <path fill="#000" d="M28.731 116.973c2.141.37 4.564.261 6.262-.53-1.361-.254-3.024-.741-3.668-1.656-.057-.082-.106-.165-.146-.25-2.175.198-4.196-.799-5.326-1.761-.919.473-1.448 1.008-1.47 1.499-.025.522.492 1.145 1.393 1.691l2.3-.605c.275-.074.559.013.748.22.187.206.244.5.145.76l-.238.632zm2.405 1.7c-1.226 0-2.46-.155-3.588-.424-.209-.05-.385-.187-.487-.375-.1-.188-.115-.41-.04-.61l.037-.097-1.198.316c-.185.049-.385.024-.553-.068-1.615-.885-2.473-2.024-2.42-3.208.037-.827.554-2.018 2.805-3.002.29-.125.629-.057.845.17.836.88 2.966 2.087 5.102 1.584.257-.06.529.018.712.21.184.189.252.46.18.715l-.003.012c.08.334 1.73 1.106 4.463 1.31.284.021.531.2.639.463.106.262.054.561-.135.773-1.427 1.595-3.873 2.23-6.359 2.23z" mask="url(#nuycawtg6b)"/>
                    <path fill="#000" d="M31.812 114.426c-.24 0-.476-.114-.62-.325-.232-.34-.144-.802.197-1.033l4.336-2.936c.342-.233.81-.142 1.04.196.234.34.145.802-.196 1.034l-4.336 2.934c-.13.088-.276.13-.421.13" mask="url(#nuycawtg6b)"/>
                    <path fill="#EC5450" d="M19.104 111.084c.05-.098.095-.2.136-.308.66-1.759-.632-3.348-.632-3.348s-2.01.326-2.67 2.085c-.009.022-.013.043-.02.064-.172-.226-.373-.458-.61-.697-1.84-1.855-4.12-2.336-4.12-2.336s-.278 1.536 1.564 3.391c.236.239.48.454.725.65-.033-.006-.063-.013-.098-.016-2.753-.35-4.053.692-4.053.692s1.695 1.422 4.45 1.772c.168.02.33.037.488.048-1.26.891-.97 2.193-.97 2.193s2.002.5 3.539-.387c.752-.432 1.055-1.003 1.172-1.475.71.13 1.642.192 2.567-.068 1.89-.53 2.026-1.91 2.026-1.91s-1.712-.716-3.494-.35" mask="url(#nuycawtg6b)"/>
                    <path fill="#000" d="M14.041 114.64c.614.064 1.613.067 2.416-.396.443-.254.718-.594.82-1.008.094-.383.476-.627.863-.554.56.102 1.405.176 2.228-.053.644-.182 1.011-.47 1.22-.729-.588-.141-1.458-.27-2.333-.088-.28.06-.57-.05-.745-.276-.175-.227-.204-.532-.074-.787.037-.074.072-.152.102-.234.33-.878.001-1.738-.26-2.222-.511.186-1.312.608-1.64 1.48-.095.254-.333.468-.602.508-.27.041-.551-.04-.716-.256-.153-.202-.333-.41-.545-.624-.913-.919-1.945-1.47-2.693-1.78.17.475.515 1.1 1.202 1.792.215.218.439.413.661.592.264.21.354.569.219.876-.134.308-.461.486-.796.44-1.052-.137-1.858-.062-2.436.067.703.358 1.708.75 2.938.906.154.02.305.035.45.046.314.022.58.24.666.541.084.302-.03.624-.287.806-.431.305-.598.667-.658.953m.567 1.516c-.83 0-1.447-.149-1.496-.16-.274-.069-.486-.286-.548-.56-.01-.051-.191-.905.258-1.811-2.432-.519-3.91-1.74-3.978-1.797-.17-.143-.27-.354-.266-.577.003-.22.105-.43.278-.57.05-.04.96-.748 2.761-.9-1.4-1.768-1.197-3.194-1.166-3.369.036-.198.15-.374.319-.486.168-.112.37-.155.573-.11.102.021 2.475.541 4.44 2.484 1.027-1.319 2.623-1.592 2.705-1.606.267-.042.535.06.703.267.055.068 1.194 1.496.952 3.275h.023c1.475 0 2.66.487 2.722.513.302.127.486.434.454.758-.007.076-.212 1.893-2.567 2.553-.704.197-1.47.258-2.285.172-.229.442-.62.917-1.283 1.298-.86.496-1.821.626-2.599.626" mask="url(#nuycawtg6b)"/>
                    <path fill="#000" d="M21.78 117.96c-.193 0-.388-.074-.534-.222l-3.706-3.733c-.29-.293-.287-.763.008-1.052.292-.288.768-.284 1.059.008l3.705 3.734c.29.293.287.762-.008 1.05-.144.144-.335.215-.525.215" mask="url(#nuycawtg6b)"/>
                </g>
            </g>
        </g>
    </g>
</svg>
