<svg width="14" height="14" viewBox="0 0 14 14" xmlns="http://www.w3.org/2000/svg">
    <g fill="none" fill-rule="evenodd">
        <path d="M0 0h14v14H0z"/>
        <path d="M12.158 11.198 7.55 2.96A.635.635 0 0 0 7 2.625a.635.635 0 0 0-.551.335l-4.607 8.238a.74.74 0 0 0-.009.7.637.637 0 0 0 .56.352h9.214a.637.637 0 0 0 .56-.353.74.74 0 0 0-.01-.699zM7.003 5.474c.265 0 .489.161.489.447 0 .87-.095 2.12-.095 2.991 0 .227-.23.322-.394.322-.217 0-.4-.095-.4-.322 0-.87-.095-2.12-.095-2.991 0-.286.217-.447.495-.447zm.007 5.391c-.298 0-.522-.263-.522-.563 0-.307.224-.563.522-.563.278 0 .516.256.516.563 0 .3-.238.563-.516.563z" fill="#DA1D1D" fill-rule="nonzero"/>
    </g>
</svg>
