<svg width="18" height="18" viewBox="0 0 18 18" xmlns="http://www.w3.org/2000/svg">
    <g fill="none" fill-rule="evenodd">
        <path d="M0 0h18v18H0z"/>
        <path d="M7.393 15H3.536c-.71 0-1.286-.597-1.286-1.333V4.333C2.25 3.597 2.826 3 3.536 3h10.928c.71 0 1.286.597 1.286 1.333v4.33" stroke="#3048A2" stroke-width="1.157"/>
        <path d="M10.607 3h3.857c.71 0 1.286.597 1.286 1.333v9.334c0 .736-.576 1.333-1.286 1.333H3.536c-.71 0-1.286-.597-1.286-1.333v-4.33" stroke="#3048A2" stroke-width="1.157"/>
        <path fill="#3048A2" d="M5.25 7.5h1.5V9h-1.5zM8.25 7.5h1.5V9h-1.5zM11.25 7.5h1.5V9h-1.5zM5.25 10.5h1.5V12h-1.5zM8.25 10.5h1.5V12h-1.5zM11.25 10.5h1.5V12h-1.5z"/>
        <rect fill="#3048A2" x="6.107" y="1.5" width="1" height="3.75" rx=".5"/>
        <rect fill="#3048A2" x="10.929" y="1.5" width="1" height="3.75" rx=".5"/>
    </g>
</svg>
