<svg xmlns="http://www.w3.org/2000/svg" width="24" height="24" viewBox="0 0 24 24">
    <defs>
        <filter id="nwj2fwveua">
            <feColorMatrix in="SourceGraphic" values="0 0 0 0 0.000000 0 0 0 0 0.000000 0 0 0 0 0.000000 0 0 0 1.000000 0"/>
        </filter>
    </defs>
    <g fill="none" fill-rule="evenodd">
        <g filter="url(#nwj2fwveua)" transform="translate(-24.000000, -1285.000000)">
            <g>
                <path d="M0 0H24V24H0z" transform="translate(24.000000, 1285.000000)"/>
                <g fill="#979797" fill-rule="nonzero">
                    <path d="M4.19 12.067c.299 0 .546.217.593.502l.007.098v.023c0 2-1.569 3.635-3.544 3.738l-.198.005H0c-.331 0-.6-.268-.6-.6 0-.298.218-.545.503-.592L0 15.233h1.048c1.348 0 2.451-1.049 2.537-2.375l.005-.191c0-.332.27-.6.6-.6z" transform="translate(24.000000, 1285.000000) translate(1.000000, 2.500000) translate(2.095238, 14.250000) scale(-1, 1) translate(-2.095238, -14.250000)"/>
                    <path d="M4.812 13.827c.234-.235.614-.236.849-.003.209.208.233.53.072.765l-.069.084-1.153 1.16 1.153 1.161c.207.21.23.532.066.766l-.07.083c-.208.207-.532.229-.765.066l-.083-.07-1.571-1.583c-.207-.208-.23-.53-.069-.762l.069-.083 1.571-1.584z" transform="translate(24.000000, 1285.000000) translate(1.000000, 2.500000) translate(4.452381, 15.833333) scale(-1, 1) translate(-4.452381, -15.833333)"/>
                    <path d="M11.524 7.844c.331 0 .6.27.6.6 0 .299-.218.546-.503.593l-.097.007H9.429c-.778 0-1.416.593-1.489 1.352l-.007.144v6.365c0 .777.593 1.416 1.352 1.488l.144.007h10.476c.777 0 1.416-.593 1.488-1.351l.007-.144v-4.238c0-.332.269-.6.6-.6.298 0 .546.217.592.502l.008.098v4.238c0 1.431-1.116 2.602-2.525 2.69l-.17.005H9.429c-1.432 0-2.602-1.116-2.69-2.525l-.006-.17V10.54c0-1.432 1.116-2.602 2.525-2.69l.17-.006h2.096z" transform="translate(24.000000, 1285.000000) translate(1.000000, 2.500000) translate(14.666667, 13.722222) scale(-1, 1) translate(-14.666667, -13.722222)"/>
                    <path d="M13.619-.6H2.095C.607-.6-.6.607-.6 2.095V8.46c0 1.489 1.207 2.696 2.695 2.696H13.62c1.489 0 2.695-1.207 2.695-2.696V2.095C16.314.607 15.108-.6 13.62-.6zM2.095.6H13.62c.826 0 1.495.67 1.495 1.495V8.46c0 .826-.67 1.496-1.495 1.496H2.095C1.27 9.956.6 9.286.6 8.46V2.095C.6 1.27 1.27.6 2.095.6z" transform="translate(24.000000, 1285.000000) translate(1.000000, 2.500000)"/>
                    <path d="M7.855 2.68c-1.436 0-2.6 1.164-2.6 2.6 0 1.436 1.164 2.6 2.6 2.6 1.436 0 2.6-1.164 2.6-2.6 0-1.436-1.164-2.6-2.6-2.6zm0 1.2c.773 0 1.4.627 1.4 1.4 0 .773-.627 1.4-1.4 1.4-.773 0-1.4-.627-1.4-1.4 0-.773.627-1.4 1.4-1.4zM19.381 15.761c.331 0 .6.269.6.6 0 .298-.218.546-.503.592l-.097.008h-3.143c-.331 0-.6-.269-.6-.6 0-.298.218-.546.503-.592l.097-.008h3.143z" transform="translate(24.000000, 1285.000000) translate(1.000000, 2.500000)"/>
                </g>
            </g>
        </g>
    </g>
</svg>
