<svg xmlns="http://www.w3.org/2000/svg" width="24" height="24" viewBox="0 0 24 24">
    <g fill="none" fill-rule="evenodd">
        <g>
            <g>
                <path d="M0 0H24V24H0z" transform="translate(-2229 -2108) translate(2229 2108)"/>
                <path fill="#000" d="M18 3c1.657 0 3 1.343 3 3v12c0 1.657-1.343 3-3 3H6c-1.657 0-3-1.343-3-3V6c0-1.657 1.343-3 3-3h12zM7.643 10.429H6.5c-.276 0-.5.223-.5.5v5.857c0 .276.224.5.5.5h1.143c.276 0 .5-.224.5-.5v-5.857c0-.277-.224-.5-.5-.5zM12.57 7H11.43c-.277 0-.5.224-.5.5v9.286c0 .276.223.5.5.5h1.142c.277 0 .5-.224.5-.5V7.5c0-.276-.223-.5-.5-.5zm4.929 5.143h-1.143c-.276 0-.5.224-.5.5v4.143c0 .276.224.5.5.5H17.5c.276 0 .5-.224.5-.5v-4.143c0-.276-.224-.5-.5-.5z" transform="translate(-2229 -2108) translate(2229 2108)"/>
            </g>
        </g>
    </g>
</svg>
