<svg xmlns="http://www.w3.org/2000/svg" width="24" height="24" viewBox="0 0 24 24">
    <g fill="none" fill-rule="evenodd">
        <g>
            <g>
                <path d="M0 0H24V24H0z" transform="translate(-807 -1056) translate(807 1056)"/>
                <g transform="translate(-807 -1056) translate(807 1056) translate(3 4)">
                    <circle cx="15" cy="5.5" r="2.25" stroke="#FFF" stroke-width="1.5" transform="matrix(1 0 0 -1 0 11)"/>
                    <path fill="#FFF" d="M14.25 7.5H15.75V15.5H14.25z" transform="matrix(1 0 0 -1 0 23)"/>
                    <path fill="#FFF" d="M14.25 0.5H15.75V3.5H14.25z" transform="matrix(1 0 0 -1 0 4)"/>
                    <circle cx="3" cy="5.5" r="2.25" stroke="#FFF" stroke-width="1.5" transform="matrix(1 0 0 -1 0 11)"/>
                    <path fill="#FFF" d="M2.25 7.5H3.75V15.5H2.25z" transform="matrix(1 0 0 -1 0 23)"/>
                    <path fill="#FFF" d="M2.25 0.5H3.75V3.5H2.25z" transform="matrix(1 0 0 -1 0 4)"/>
                    <circle cx="9" cy="10.5" r="2.25" stroke="#FFF" stroke-width="1.5" transform="matrix(1 0 0 -1 0 21)"/>
                    <path fill="#FFF" d="M8.25 12.5H9.75V15.5H8.25z" transform="matrix(1 0 0 -1 0 28)"/>
                    <path fill="#FFF" d="M8.25 0.5H9.75V8.5H8.25z" transform="matrix(1 0 0 -1 0 9)"/>
                </g>
            </g>
        </g>
    </g>
</svg>
