<svg xmlns="http://www.w3.org/2000/svg" width="16" height="16" viewBox="0 0 16 16">
    <defs>
        <filter id="395f70lkva">
            <feColorMatrix in="SourceGraphic" values="0 0 0 0 1.000000 0 0 0 0 1.000000 0 0 0 0 1.000000 0 0 0 1.000000 0"/>
        </filter>
    </defs>
    <g fill="none" fill-rule="evenodd">
        <g>
            <g>
                <g>
                    <g>
                        <g filter="url(#395f70lkva)" transform="translate(-296.000000, -2778.000000) translate(0.000000, 88.000000) translate(24.000000, 2482.000000) translate(0.000000, 48.000000) translate(264.000000, 153.000000)">
                            <g>
                                <path d="M0 0H16V16H0z" transform="translate(8.000000, 7.000000)"/>
                                <path stroke="#000" stroke-linecap="round" stroke-linejoin="round" d="M10 17.5L6 17.5 6 5.5 10 5.5" transform="translate(8.000000, 7.000000) translate(8.000000, 11.500000) rotate(-90.000000) translate(-8.000000, -11.500000)"/>
                                <path stroke="#000" stroke-linecap="square" d="M11.375 5.875L4.625 5.875" transform="translate(8.000000, 7.000000) translate(8.000000, 5.875000) scale(-1, 1) rotate(-90.000000) translate(-8.000000, -5.875000)"/>
                                <path stroke="#000" stroke-linecap="round" stroke-linejoin="round" d="M6.5 11L9.5 8 6.5 5" transform="translate(8.000000, 7.000000) translate(8.000000, 8.000000) scale(-1, 1) rotate(-270.000000) translate(-8.000000, -8.000000)"/>
                            </g>
                        </g>
                    </g>
                </g>
            </g>
        </g>
    </g>
</svg>
