<svg width="32" height="32" viewBox="0 0 32 32" xmlns="http://www.w3.org/2000/svg" xmlns:xlink="http://www.w3.org/1999/xlink">
    <defs>
        <rect id="a" x="0" y="0" width="30" height="30" rx="15"/>
    </defs>
    <g transform="translate(1 1)" fill="none" fill-rule="evenodd">
        <mask id="b" fill="#fff">
            <use xlink:href="#a"/>
        </mask>
        <use fill="#ED4452" xlink:href="#a"/>
        <path mask="url(#b)" d="M4.688 4.688h20.625v20.625H4.688z"/>
        <g mask="url(#b)">
            <g transform="translate(7.031 10.781)">
                <path d="M0 8.844V1a1 1 0 0 1 1-1h13.938a1 1 0 0 1 1 1v7.844a1 1 0 0 1-1 1H1a1 1 0 0 1-1-1z" fill="#FFF"/>
                <g transform="translate(10.781 3.75)" fill="#333D4B">
                    <rect y=".793" width="3.75" height="1" rx=".5"/>
                    <path d="M3.369.071a.25.25 0 0 1 .16.315l-.635 1.968a.324.324 0 0 1-.619-.007L1.855.943l-.42 1.403a.322.322 0 0 1-.616.002L.219.383A.25.25 0 1 1 .697.238l.428 1.402.422-1.41a.321.321 0 0 1 .616 0l.429 1.433.462-1.43A.25.25 0 0 1 3.37.07z"/>
                </g>
                <g transform="translate(8.438 1.875)" fill="#F9C6CB">
                    <rect width="1" height="1.406" rx=".5"/>
                    <rect y="2.344" width="1" height="1.406" rx=".5"/>
                    <rect y="4.688" width="1" height="1.406" rx=".5"/>
                </g>
                <rect fill="#F9C6CB" x="1.875" y="3.75" width="4.688" height="1" rx=".5"/>
                <rect fill="#F9C6CB" x="1.875" y="5.625" width="4.688" height="1" rx=".5"/>
            </g>
        </g>
    </g>
</svg>
