<svg width="28" height="28" viewBox="0 0 28 28" xmlns="http://www.w3.org/2000/svg">
    <g fill="none" fill-rule="evenodd">
        <path d="M0 0h28v28H0z"/>
        <path d="M9.619 24H3.905C2.853 24 2 22.906 2 21.556V4.444C2 3.094 2.853 2 3.905 2h16.19C21.147 2 22 3.094 22 4.444V13M6 7h12M6 11h6" stroke="#000" stroke-width="1.5"/>
        <g transform="translate(11.5 13.998)" stroke="#000">
            <circle stroke-width="1.5" cx="6.5" cy="6.5" r="5.75"/>
            <path d="M6.904 10.137v-.856c.968-.168 1.624-.728 1.624-1.656 0-.8-.512-1.136-1.176-1.432l-.448-.168V4.473c.296.064.568.208.8.424l.6-.696c-.392-.392-.888-.592-1.4-.664v-.832H6.16v.84c-.96.128-1.584.76-1.584 1.576 0 .824.616 1.248 1.168 1.504l.416.16v1.56a2.204 2.204 0 0 1-1.152-.616l-.632.768c.48.512 1.112.76 1.784.816v.824h.744zM6.16 5.705c-.328-.12-.568-.368-.568-.624 0-.288.24-.512.568-.6v1.224zm.744 2.608V7.097c.384.168.608.288.608.608 0 .392-.28.52-.608.608z" stroke-width=".3" fill="#000" fill-rule="nonzero"/>
        </g>
    </g>
</svg>
