<svg xmlns="http://www.w3.org/2000/svg" width="24" height="24" viewBox="0 0 24 24">
    <defs>
        <filter id="ss71kg95ja">
            <feColorMatrix in="SourceGraphic" values="0 0 0 0 0.000000 0 0 0 0 0.000000 0 0 0 0 0.000000 0 0 0 1.000000 0"/>
        </filter>
    </defs>
    <g fill="none" fill-rule="evenodd">
        <g>
            <g transform="translate(-126 -2545) translate(126 2545)">
                <path d="M0 0L24 0 24 24 0 24z"/>
                <path fill="#FFF" fill-rule="nonzero" d="M12 3.6c2.476 0 4.627.333 6.149.986.723.31 1.288.683 1.683 1.14.369.431.568.928.568 1.474v9.6c0 2.4-3.76 3.6-8.4 3.6-4.526 0-8.216-1.142-8.393-3.426L3.6 16.8V7.2c0 .278.05.54.146.785l.08.177c-.148-.3-.226-.62-.226-.962 0-.547.2-1.044.57-1.475.392-.456.956-.828 1.682-1.14C7.372 3.934 9.522 3.6 12 3.6zm0 12c-3.085 0-5.78-.53-7.241-1.591l.041.03v2.715l.004.126C4.9 18.133 7.72 19.2 12 19.2c4.264 0 7.038-1.048 7.193-2.29l.007-.11v-2.762l.099-.072C17.852 15.056 15.125 15.6 12 15.6zM4.714 9.177l.086.062v2.715l.004.126C4.9 13.333 7.72 14.4 12 14.4c4.264 0 7.038-1.048 7.193-2.29L19.2 12V9.238l.02-.012c-.305.218-.663.413-1.072.588-1.52.653-3.67.986-6.148.986-2.477 0-4.627-.333-6.149-.986-.438-.187-.817-.398-1.137-.637zM12 4.8c-2.328 0-4.327.31-5.675.889-.572.244-.988.519-1.245.818-.19.222-.28.445-.28.693 0 .246.09.47.277.691.26.3.678.576 1.247.82 1.35.58 3.348.889 5.676.889 2.328 0 4.327-.31 5.675-.889.572-.244.988-.519 1.245-.818.19-.222.28-.445.28-.693 0-.248-.09-.472-.277-.691-.26-.3-.678-.576-1.247-.82-1.35-.58-3.349-.889-5.676-.889z"/>
            </g>
        </g>
    </g>
</svg>
