<svg width="18" height="18" xmlns="http://www.w3.org/2000/svg">
    <g fill="none" fill-rule="evenodd">
        <path d="M0 0h18v18H0z"/>
        <path d="M12.354 2.2c-1.139 0-2.07.427-2.927 1.173l-.222.201L9 3.776l.02.02a8.421 8.421 0 0 0-.449-.423C7.714 2.628 6.792 2.2 5.681 2.2 3.047 2.2 1.3 4.304 1.3 7.097c0 1.516.616 3.065 1.77 4.481 1.232 1.514 3.07 2.894 5.458 4.109a1.04 1.04 0 0 0 .944 0c2.388-1.215 4.226-2.595 5.459-4.109 1.153-1.416 1.769-2.965 1.769-4.48 0-2.791-1.734-4.898-4.346-4.898zm0 1c2.012 0 3.346 1.62 3.346 3.897 0 1.272-.53 2.603-1.545 3.85-1.136 1.395-2.864 2.692-5.137 3.848L9 14.8l-.018-.005c-2.273-1.156-4-2.453-5.137-3.849C2.83 9.7 2.3 8.37 2.3 7.097 2.3 4.82 3.645 3.2 5.681 3.2c.838 0 1.544.327 2.233.927.087.075.172.154.26.24l.231.23.239.246a.5.5 0 0 0 .712 0L9.69 4.5c.14-.141.265-.26.394-.373.689-.6 1.402-.927 2.27-.927z" fill="#FFF" fill-rule="nonzero"/>
    </g>
</svg>
