<svg xmlns="http://www.w3.org/2000/svg" width="28" height="28" viewBox="0 0 28 28">
    <g fill="none" fill-rule="evenodd">
        <g>
            <g>
                <path d="M0 0H28V28H0z" transform="translate(-211 -2326) translate(211 2326)"/>
                <g>
                    <g stroke="#000" stroke-linecap="round" stroke-width="1.5">
                        <path d="M20.781 3.956c-.52-.68-1.265-1.352-2.235-2.015C16.664.713 14.416 0 12 0c-1.586 0-3.1.308-4.485.866M3.176 3.867C1.204 6.006 0 8.862 0 12m1.134 5.1c.492 1.046 1.131 2.01 1.89 2.865m4.03 2.971C8.561 23.62 10.235 24 12 24c6.627 0 12-5.373 12-12" transform="translate(-211 -2326) translate(211 2326) translate(2 2)"/>
                    </g>
                    <g>
                        <path stroke="#000" stroke-width="1.5" d="M6 .75c1.618 0 3.08.2 4.103.627.392.163.715.355.929.596.135.153.218.326.218.527 0 .2-.083.374-.218.527-.214.241-.537.433-.929.596C9.08 4.05 7.618 4.25 6 4.25c-1.618 0-3.08-.2-4.103-.627-.392-.163-.715-.355-.929-.596C.833 2.874.75 2.701.75 2.5c0-.2.083-.374.218-.527.214-.241.537-.433.929-.596C2.92.95 4.382.75 6 .75z" transform="translate(-211 -2326) translate(211 2326) translate(2 2) translate(6 6.5)"/>
                        <path fill="#000" fill-rule="nonzero" d="M12 2.5v3C12 7.167 9.314 8 6 8 2.778 8 .15 7.212.006 5.637L0 5.5v-3c0 .765.566 1.354 1.498 1.768L1.5 5.501l.073.072c.15.14.416.29.79.427.875.32 2.159.5 3.637.5 1.52 0 2.832-.19 3.705-.525.155-.06.282-.116.386-.167l.177-.096c.148-.089.213-.157.228-.195L10.5 5.5l.002-1.232c.876-.389 1.428-.932 1.492-1.631L12 2.5z" transform="translate(-211 -2326) translate(211 2326) translate(2 2) translate(6 6.5)"/>
                        <path fill="#000" fill-rule="nonzero" d="M12 5.5v3c0 1.667-2.686 2.5-6 2.5-3.222 0-5.85-.788-5.994-2.363L0 8.5v-3c0 .765.566 1.354 1.498 1.768L1.5 8.501l.073.072c.15.14.416.29.79.427.875.32 2.159.5 3.637.5 1.52 0 2.832-.19 3.705-.525.155-.06.282-.116.386-.167l.177-.096c.148-.089.213-.157.228-.195L10.5 8.5l.002-1.232c.876-.389 1.428-.932 1.492-1.631L12 5.5z" transform="translate(-211 -2326) translate(211 2326) translate(2 2) translate(6 6.5)"/>
                    </g>
                    <path stroke="#000" stroke-linecap="round" stroke-linejoin="round" stroke-width="1.5" d="M18.342 6.252L21.342 3.252 18.342 0.252" transform="translate(-211 -2326) translate(211 2326) translate(2 2) scale(1 -1) rotate(-41 11.145 0)"/>
                </g>
            </g>
        </g>
    </g>
</svg>
