<svg xmlns="http://www.w3.org/2000/svg" width="16" height="16" viewBox="0 0 16 16">
    <defs>
        <filter id="57nvblta1a">
            <feColorMatrix in="SourceGraphic" values="0 0 0 0 0.533333 0 0 0 0 0.533333 0 0 0 0 0.533333 0 0 0 1.000000 0"/>
        </filter>
        <filter id="gkstl5121b">
            <feColorMatrix in="SourceGraphic" values="0 0 0 0 0.533333 0 0 0 0 0.533333 0 0 0 0 0.533333 0 0 0 1.000000 0"/>
        </filter>
    </defs>
    <g fill="none" fill-rule="evenodd">
        <g>
            <g transform="translate(-123 -1385) translate(77 1309)">
                <g  transform="translate(46 76)">
                    <path d="M0 0H16V16H0z"/>
                    <path fill="#888" fill-rule="nonzero" d="M8 1c3.866 0 7 3.134 7 7s-3.134 7-7 7-7-3.134-7-7 3.134-7 7-7zm0 1C4.686 2 2 4.686 2 8s2.686 6 6 6 6-2.686 6-6-2.686-6-6-6zm.78 8.32v1.42H7.32v-1.42h1.46zm0-6.32l-.05 1.39-.21 4.09h-.96l-.21-4.09L7.3 4h1.48z"/>
                </g>
            </g>
        </g>
    </g>
</svg>
