<svg xmlns="http://www.w3.org/2000/svg" width="18" height="18" viewBox="0 0 18 18">
    <g fill="none" fill-rule="evenodd">
        <g>
            <g>
                <g>
                    <g>
                        <g>
                            <path d="M0 0H18V18H0z" transform="translate(-24 -1527) translate(24 1326) translate(0 40) translate(0 160) translate(0 1)"/>
                            <path stroke="#000" d="M9 2c1.933 0 3.683.784 4.95 2.05C15.216 5.317 16 7.067 16 9c0 .684-.098 1.345-.28 1.97-.42 1.43-1.281 2.669-2.428 3.56-.457.356-2.2 1.163-2.571 1.257-.55.14-1.127.213-1.721.213-1.933 0-3.683-.784-4.95-2.05C2.784 12.683 2 10.933 2 9c0-1.933.784-3.683 2.05-4.95C5.317 2.784 7.067 2 9 2z" transform="translate(-24 -1527) translate(24 1326) translate(0 40) translate(0 160) translate(0 1)"/>
                            <path stroke="#000" stroke-linecap="round" stroke-linejoin="round" d="M12.209 5.063L12.209 8.955 9 11.246" transform="translate(-24 -1527) translate(24 1326) translate(0 40) translate(0 160) translate(0 1) matrix(-1 0 0 1 21.21 0)"/>
                        </g>
                    </g>
                </g>
            </g>
        </g>
    </g>
</svg>
