<svg xmlns="http://www.w3.org/2000/svg" width="24" height="24" viewBox="0 0 24 24">
    <g fill="none" fill-rule="evenodd">
        <g>
            <g>
                <path d="M0 0H24V24H0z" transform="translate(-1187 -1792) translate(1187 1792)"/>
                <g fill="#000" fill-rule="nonzero">
                    <path d="M13.6 0c.884 0 1.6.716 1.6 1.6l-.001.611L17.862.828c.738-.384 1.637-.136 2.08.548l.078.133c.118.228.18.481.18.738v8.706c0 .884-.716 1.6-1.6 1.6-.257 0-.51-.062-.738-.18l-2.663-1.385.001.612c0 .835-.639 1.52-1.454 1.593l-.146.007h-12c-.884 0-1.6-.716-1.6-1.6v-10C0 .716.716 0 1.6 0zm0 1.2h-12c-.22 0-.4.18-.4.4v10c0 .22.18.4.4.4h12c.22 0 .4-.18.4-.4v-10c0-.22-.18-.4-.4-.4zm5.31.795c-.117-.145-.323-.192-.495-.103L15.2 3.564v6.071l3.215 1.673c.038.02.08.033.121.04l.064.005c.22 0 .4-.18.4-.4V2.247c0-.064-.015-.127-.045-.184z" transform="translate(-1187 -1792) translate(1187 1792) translate(1.4 5.4)"/>
                </g>
            </g>
        </g>
    </g>
</svg>
