<svg width="32" height="32" viewBox="0 0 32 32" xmlns="http://www.w3.org/2000/svg" xmlns:xlink="http://www.w3.org/1999/xlink">
    <defs>
        <rect id="a" x="0" y="0" width="30" height="30" rx="15"/>
    </defs>
    <g fill="none" fill-rule="evenodd">
        <g transform="translate(1 1)">
            <mask id="b" fill="#fff">
                <use xlink:href="#a"/>
            </mask>
            <use fill="#ED4452" xlink:href="#a"/>
            <path mask="url(#b)" d="M4.688 4.688h20.625v20.625H4.688z"/>
            <path d="M13.983 9.844h2.034a4.414 4.414 0 0 1 4.414 4.414v3.287H9.569v-3.287a4.414 4.414 0 0 1 4.414-4.414z" fill="#FFF" mask="url(#b)"/>
            <path d="m14.072 12.703 1.332 5.469a1.669 1.669 0 0 1-1.13 1.99 1.863 1.863 0 0 1-2.21-.938L8.83 12.839a1.939 1.939 0 0 1 1.607-2.81 3.513 3.513 0 0 1 3.635 2.674z" fill="#FFF" mask="url(#b)" transform="matrix(-1 0 0 1 23.276 0)"/>
            <path d="m20.796 12.703 1.332 5.469a1.669 1.669 0 0 1-1.13 1.99 1.863 1.863 0 0 1-2.21-.938l-3.234-6.385a1.939 1.939 0 0 1 1.608-2.81 3.513 3.513 0 0 1 3.634 2.674z" fill="#FFF" mask="url(#b)"/>
            <path fill="#333D4B" mask="url(#b)" d="M11.121 13.438h2.586v1.027h-2.586zM16.293 13.438h2.586v1.027h-2.586z"/>
            <path fill="#333D4B" mask="url(#b)" transform="rotate(90 17.586 13.95)" d="M16.303 13.434h2.567v1.034h-2.567z"/>
        </g>
    </g>
</svg>
