<svg xmlns="http://www.w3.org/2000/svg" width="24" height="24" viewBox="0 0 24 24">
    <g fill="none" fill-rule="evenodd">
        <g>
            <g>
                <g>
                    <path stroke="#000" stroke-linecap="round" stroke-width="1.2" d="M17.696 8.919C19.017 8.605 20 7.417 20 6c0-1.657-1.343-3-3-3-.463 0-.902.105-1.294.293" transform="translate(-1720 -1230) translate(1720 1230) translate(0 1)"/>
                    <path stroke="#000" stroke-linecap="round" stroke-width="1.2" d="M17.82 11.944C20.746 11.544 23 9.036 23 6c0-3.314-2.686-6-6-6-1.585 0-3.026.615-4.099 1.618" transform="translate(-1720 -1230) translate(1720 1230) translate(0 1)"/>
                    <g transform="translate(-1720 -1230) translate(1720 1230) translate(0 1) rotate(25 .52 18.358)">
                        <path fill="#000" d="M.5 2.5H10.5V3.7H.5zM.5 13.5H10.5V14.7H.5z"/>
                        <circle cx="5.75" cy="15.75" r="1" fill="#000"/>
                        <rect width="9.8" height="16.8" x=".6" y=".6" stroke="#000" stroke-width="1.2" rx="2"/>
                    </g>
                </g>
            </g>
        </g>
    </g>
</svg>
