<svg xmlns="http://www.w3.org/2000/svg" width="24" height="24" viewBox="0 0 24 24">
    <defs>
        <filter id="jyua4s0h3a">
            <feColorMatrix in="SourceGraphic" values="0 0 0 0 0.000000 0 0 0 0 0.000000 0 0 0 0 0.000000 0 0 0 1.000000 0"/>
        </filter>
    </defs>
    <g fill="none" fill-rule="evenodd">
        <g>
            <g filter="url(#jyua4s0h3a)" transform="translate(-24.000000, -676.000000) translate(24.000000, 676.000000)">
                <path d="M0 0H24V24H0z"/>
                <g stroke="#979797" stroke-width="1.2">
                    <path stroke-linecap="round" d="M10 16H2c-1.105 0-2-.895-2-2V2C0 .895.895 0 2 0h17c1.105 0 2 .895 2 2v10h0" transform="translate(1.500000, 3.000000)"/>
                    <path d="M0 5L21 5" transform="translate(1.500000, 3.000000)"/>
                    <path stroke-linecap="round" d="M3 9L7 9" transform="translate(1.500000, 3.000000)"/>
                    <path stroke-linecap="round" stroke-linejoin="round" d="M15 14L13 16 15 18M14 16L21 16" transform="translate(1.500000, 3.000000)"/>
                </g>
            </g>
        </g>
    </g>
</svg>
