<svg xmlns="http://www.w3.org/2000/svg" width="20" height="20" viewBox="0 0 20 20">
    <g fill="none" fill-rule="evenodd">
        <g>
            <g>
                <path d="M0 0H20V20H0z" transform="translate(-1848 -1476) translate(1848 1476)"/>
                <g fill="#000" fill-rule="nonzero">
                    <path d="M18.972 9.156c.41.37.444 1.001.075 1.412l-.075.075-4.123 3.706c-2.814 2.53-7.085 2.53-9.9 0L.828 10.643c-.41-.37-.444-1.001-.075-1.412l.075-.075L4.95 5.45c2.814-2.53 7.085-2.53 9.9 0l4.122 3.706zm-.669.743l-4.122-3.706c-2.377-2.136-5.953-2.187-8.387-.152l-.176.152L1.496 9.9l4.122 3.707c2.377 2.136 5.953 2.187 8.387.152l.176-.152 4.122-3.707z" transform="translate(-1848 -1476) translate(1848 1476) translate(.1 .1)"/>
                    <path d="M9.9 6.9c1.656 0 3 1.343 3 3 0 1.656-1.344 3-3 3-1.657 0-3-1.344-3-3 0-1.657 1.343-3 3-3zm0 1c-1.105 0-2 .895-2 2 0 1.104.895 2 2 2 1.104 0 2-.896 2-2 0-1.105-.896-2-2-2z" transform="translate(-1848 -1476) translate(1848 1476) translate(.1 .1)"/>
                </g>
            </g>
        </g>
    </g>
</svg>
