<svg xmlns="http://www.w3.org/2000/svg" width="40" height="40" viewBox="0 0 40 40">
    <g fill="none" fill-rule="evenodd">
        <g>
            <g>
                <path fill="#D8D8D8" fill-opacity="0" d="M0 0H40V40H0z" transform="translate(-284 -498) translate(284 498)"/>
                <path fill="#D8D8D8" fill-opacity="0" d="M0 0H40V40H0z" transform="translate(-284 -498) translate(284 498)"/>
                <path fill="#000" fill-rule="nonzero" d="M12 25H6c-.552 0-1 .448-1 1v8c0 .552.448 1 1 1h6c.552 0 1-.448 1-1v-8c0-.552-.448-1-1-1zm-1 2v6H7v-6h4zM23 19h-6c-.552 0-1 .448-1 1v14c0 .552.448 1 1 1h6c.552 0 1-.448 1-1V20c0-.552-.448-1-1-1zm-1 2v12h-4V21h4zM34 11h-6c-.552 0-1 .448-1 1v22c0 .552.448 1 1 1h6c.552 0 1-.448 1-1V12c0-.552-.448-1-1-1zm-1 2v20h-4V13h4zM36 37c.552 0 1 .448 1 1 0 .513-.386.936-.883.993L36 39H4c-.552 0-1-.448-1-1 0-.513.386-.936.883-.993L4 37h32zM31.3 2.285c.396-.386 1.029-.38 1.415.016.356.364.378.932.068 1.32l-.084.094-12 10.737c-.353.346-.9.378-1.289.093l-.093-.078-3.111-2.912-9.512 9.165c-.367.354-.935.371-1.322.059l-.092-.085c-.354-.367-.371-.935-.059-1.322l.085-.092 10.196-9.824c.354-.34.897-.37 1.284-.087l.094.077 3.104 2.907L31.301 2.285z" transform="translate(-284 -498) translate(284 498)"/>
                <path fill="#000" fill-rule="nonzero" d="M33 1.25c.38 0 .693.282.743.648L33.75 2v4c0 .414-.336.75-.75.75-.38 0-.693-.282-.743-.648L32.25 6V2.75H29c-.38 0-.693-.282-.743-.648L28.25 2c0-.38.282-.693.648-.743L29 1.25h4z" transform="translate(-284 -498) translate(284 498)"/>
            </g>
        </g>
    </g>
</svg>
