<svg xmlns="http://www.w3.org/2000/svg" width="28" height="28" viewBox="0 0 28 28">
    <g fill="none" fill-rule="evenodd">
        <g>
            <g>
                <path d="M0 0H28V28H0z" transform="translate(-1461 -1792) translate(1461 1792)"/>
                <g fill="#000" fill-rule="nonzero">
                    <path d="M10.257.186c.283-.248.705-.248.988 0 1.823 1.596 4.325 2.516 7.005 2.516.8 0 1.586-.081 2.347-.24.466-.098.904.257.904.733L21.499 11c-.238 3.783-.988 6.502-2.267 8.126-1.328 1.943-3.586 3.713-6.771 5.335l-.43.215c-.812.399-1.767.373-2.557-.068-3.618-2.024-6.022-3.829-7.23-5.459C.918 17.358.183 14.64 0 10.952V3.195c0-.476.438-.831.904-.734.761.16 1.547.241 2.346.241 2.681 0 5.183-.92 7.007-2.516zm.494 1.534l-.046.037C8.668 3.32 6.037 4.202 3.25 4.202c-.45 0-.899-.023-1.342-.069L1.5 4.084v6.83c.161 3.235.774 5.615 1.807 7.139l.144.203c.889 1.2 2.642 2.598 5.25 4.169l.732.432c.251.146.51.293.775.44.358.202.793.213 1.157.034l.42-.21c2.976-1.515 5.043-3.136 6.24-4.883 1.082-1.377 1.757-3.825 1.976-7.286V4.084l-.407.05c-.296.03-.593.05-.893.06l-.45.008c-2.787 0-5.417-.882-7.453-2.445l-.046-.037zm4.851 7.815c.284.248.335.662.137.97l-.067.088-4.69 5.353c-.273.311-.74.339-1.046.082l-.08-.078-2.666-3c-.275-.31-.247-.783.062-1.059.282-.25.699-.25.98-.015l.079.078 2.101 2.364 4.132-4.713c.273-.312.747-.343 1.058-.07z" transform="translate(-1461 -1792) translate(1461 1792) translate(3.25 1.548)"/>
                </g>
            </g>
        </g>
    </g>
</svg>
