<svg xmlns="http://www.w3.org/2000/svg" width="40" height="40" viewBox="0 0 40 40">
    <g fill="none" fill-rule="evenodd">
        <g>
            <g>
                <g>
                    <g>
                        <g>
                            <path d="M0 0H40V40H0z" transform="translate(-24 -2215) translate(0 88) translate(0 2069) translate(24 48) translate(0 10)"/>
                            <path fill="#000" fill-rule="nonzero" d="M20 9.25c4.798 0 8.775 3.68 9.174 8.431l.019.265.517 9.312c1.364.103 2.45 1.2 2.535 2.57l.005.172v4c0 .38-.282.693-.648.743l-.102.007h-23c-.38 0-.693-.282-.743-.648L7.75 34v-4c0-1.448 1.12-2.635 2.54-2.742l.517-9.312C11.078 13.067 15.114 9.25 20 9.25zm9.5 19.5h-19c-.647 0-1.18.492-1.244 1.122L9.25 30v3.249h21.5V30c0-.604-.428-1.108-.998-1.225l-.124-.019-.128-.006zm-9.5-18c-4.007 0-7.33 3.066-7.677 7.03l-.018.25-.513 9.219h16.415l-.512-9.22c-.218-3.917-3.334-7.017-7.198-7.263l-.247-.012-.25-.004zm0 11.75c.414 0 .75.336.75.75s-.336.75-.75.75-.75-.336-.75-.75.336-.75.75-.75zm0-7.5c.414 0 .75.336.75.75v4.5c0 .414-.336.75-.75.75s-.75-.336-.75-.75v-4.5c0-.414.336-.75.75-.75zm6.868-12.618c1.975 0 4.219.978 5.814 2.477 1.674 1.571 2.62 4.226 2.62 6.68 0 .359-.291.65-.65.65-.359 0-.65-.291-.65-.65 0-2.12-.823-4.43-2.21-5.733-1.365-1.282-3.296-2.124-4.924-2.124-.36 0-.65-.29-.65-.65 0-.358.29-.65.65-.65zm.35 3.802c1.067.161 2.061.647 2.854 1.412.954.921 1.51 2.146 1.59 3.443.022.359-.25.667-.608.69-.359.022-.667-.25-.69-.609-.06-.976-.477-1.896-1.195-2.59-.597-.575-1.343-.94-2.145-1.06-.355-.055-.6-.386-.545-.74.053-.356.385-.6.74-.546z" transform="translate(-24 -2215) translate(0 88) translate(0 2069) translate(24 48) translate(0 10)"/>
                        </g>
                    </g>
                </g>
            </g>
        </g>
    </g>
</svg>
