<svg width="16" height="16" viewBox="0 0 16 16" xmlns="http://www.w3.org/2000/svg">
    <g fill="none" fill-rule="evenodd">
        <path fill="none" d="M0 0h16v16H0z"/>
        <g fill="#476EFF" fill-rule="nonzero" stroke="#476EFF" stroke-width=".25">
            <path d="M4.741 7.098a2.865 2.865 0 0 1 4.098 0 .636.636 0 0 1-.02.915.674.674 0 0 1-.937-.02 1.516 1.516 0 0 0-2.058-.115l-.125.115-1.907 1.943a1.659 1.659 0 0 0 0 2.306c.566.577 1.449.616 2.057.116l.126-.116.65-.663a.674.674 0 0 1 .938-.02c.235.22.268.568.095.824l-.075.092-.65.663a2.865 2.865 0 0 1-4.098 0 2.932 2.932 0 0 1-.159-3.922l.159-.175L4.74 7.098z"/>
            <path d="M10.259 9.902a2.865 2.865 0 0 1-4.098 0 .636.636 0 0 1 .02-.915.674.674 0 0 1 .937.02c.566.577 1.45.615 2.058.115l.125-.115 1.907-1.943a1.659 1.659 0 0 0 0-2.306 1.516 1.516 0 0 0-2.057-.116l-.126.116-.65.663a.674.674 0 0 1-.938.02.636.636 0 0 1-.095-.824l.075-.092.65-.663a2.865 2.865 0 0 1 4.098 0 2.932 2.932 0 0 1 .159 3.922l-.159.175-1.906 1.943z"/>
        </g>
    </g>
</svg>
