<svg xmlns="http://www.w3.org/2000/svg" width="24" height="24" viewBox="0 0 24 24">
    <g fill="none" fill-rule="evenodd">
        <g>
            <g>
                <g>
                    <path d="M0 0H22V22H0z" transform="translate(-90 -242) translate(90 242) translate(1 1)"/>
                    <g stroke="#000" stroke-linecap="round" stroke-linejoin="round">
                        <path d="M16.843.258C13.487 3.6 2.579 3.873 2.579 3.873 1.1 4.099.004 5.366 0 6.858v2.865c0 1.488 1.085 2.755 2.56 2.99 0 0 10.227-.406 14.264 3.615 2.872 2.855 2.872-18.916.019-16.07z" transform="translate(-90 -242) translate(90 242) translate(1 1) translate(0 1)"/>
                        <path d="M8.15 13.161l.988 4.776c.214 1.09-.498 2.145-1.591 2.359h0c-1.094.213-2.154-.496-2.369-1.585l-1.117-6.056v-8.71M19.178 6.29c1.301 0 2.356 1.05 2.356 2.347 0 1.296-1.055 2.347-2.356 2.347" transform="translate(-90 -242) translate(90 242) translate(1 1) translate(0 1)"/>
                    </g>
                </g>
            </g>
        </g>
    </g>
</svg>
