<svg xmlns="http://www.w3.org/2000/svg" xmlns:xlink="http://www.w3.org/1999/xlink" width="32" height="32" viewBox="0 0 32 32">
    <defs>
        <rect id="1gu1oh2tga" width="30" height="30" x="0" y="0" rx="15"/>
        <path id="9ruzmyxpdc" d="M0 0h8.438l-.891 8.016c-.027.24-.23.421-.471.421H1.362c-.242 0-.445-.181-.471-.421L0 0z"/>
    </defs>
    <g fill="none" fill-rule="evenodd">
        <g>
            <g>
                <g transform="translate(-24 -869) translate(24 869) translate(1 1)">
                    <mask id="vdsk313u4b" fill="#fff">
                        <use xlink:href="#1gu1oh2tga"/>
                    </mask>
                    <use fill="#44A5A9" xlink:href="#1gu1oh2tga"/>
                    <path d="M4.688 4.688H25.313V25.313H4.688z" mask="url(#vdsk313u4b)"/>
                    <g mask="url(#vdsk313u4b)">
                        <g>
                            <g fill="#333D4B">
                                <path d="M0 1.875H10.313V3.75H0z" transform="translate(9.844 8.906)"/>
                                <path d="M2.264 0h5.785c.226 0 .42.16.465.381l.279 1.396c.051.256-.115.506-.372.558-.03.006-.062.009-.093.009H1.984c-.261 0-.474-.212-.474-.474 0-.031.004-.063.01-.093L1.799.38C1.843.159 2.038 0 2.264 0z" transform="translate(9.844 8.906)"/>
                            </g>
                            <g transform="translate(9.844 8.906) translate(.938 3.75)">
                                <mask id="ek2x9ft74d" fill="#fff">
                                    <use xlink:href="#9ruzmyxpdc"/>
                                </mask>
                                <use fill="#FFF" xlink:href="#9ruzmyxpdc"/>
                                <path fill="#BCEFF1" d="M-0.469 1.875H8.906V6.094H-0.469z" mask="url(#ek2x9ft74d)"/>
                            </g>
                        </g>
                    </g>
                </g>
            </g>
        </g>
    </g>
</svg>
