<svg xmlns="http://www.w3.org/2000/svg" width="40" height="40" viewBox="0 0 40 40">
    <g fill="none" fill-rule="evenodd">
        <g>
            <g>
                <path d="M0 0H40V40H0z" transform="translate(-1475 -1510) translate(1475 1510)"/>
                <g stroke="#000" stroke-width="1.5">
                    <g>
                        <path stroke-linejoin="round" d="M2 14h18c1.105 0 2 .895 2 2v3h0H0v-3c0-1.105.895-2 2-2z" transform="translate(-1475 -1510) translate(1475 1510) translate(3 5) translate(5.75 11)"/>
                        <path d="M11 0c4.418 0 8 3.582 8 8v6h0H3V8c0-4.418 3.582-8 8-8z" transform="translate(-1475 -1510) translate(1475 1510) translate(3 5) translate(5.75 11)"/>
                        <path stroke-linecap="round" d="M15.5 8c0-2.21-1.59-4-4-4" transform="translate(-1475 -1510) translate(1475 1510) translate(3 5) translate(5.75 11)"/>
                    </g>
                    <g stroke-linecap="round">
                        <path d="M0.5 0.357L0.5 4.643" transform="translate(-1475 -1510) translate(1475 1510) translate(3 5) translate(16.29)"/>
                        <path d="M0.5 0.357L0.5 4.643" transform="translate(-1475 -1510) translate(1475 1510) translate(3 5) rotate(30 8.645 49.396)"/>
                        <path d="M0.5 0.357L0.5 4.643" transform="translate(-1475 -1510) translate(1475 1510) translate(3 5) rotate(60 8.645 33.107)"/>
                        <path d="M0.5 0.357L0.5 4.643" transform="translate(-1475 -1510) translate(1475 1510) translate(3 5) rotate(-30 8.645 -11.396)"/>
                        <path d="M2.5 0.357L2.5 4.643" transform="translate(-1475 -1510) translate(1475 1510) translate(3 5) rotate(-60 9.645 6.625)"/>
                    </g>
                </g>
            </g>
        </g>
    </g>
</svg>
