<svg xmlns="http://www.w3.org/2000/svg" width="20" height="20" viewBox="0 0 20 20">
    <g fill="none" fill-rule="evenodd">
        <g>
            <g>
                <path d="M0 0H20V20H0z" transform="translate(-207 -1792) translate(207 1792)"/>
                <g fill="#000" fill-rule="nonzero">
                    <path d="M7.5 0c1.425 0 2.59 1.11 2.678 2.514l.005.17v.649H15v1.2h-1.9v9.511c0 1.129-.82 2.07-1.882 2.15l-.147.006H3.93c-1.083 0-1.95-.893-2.024-2.003l-.005-.153V4.533H0v-1.2h4.816v-.65C4.817 1.201 6.019 0 7.5 0zm4.4 4.533H3.1v9.511c0 .498.326.891.727.949l.102.007h7.142c.412 0 .77-.355.822-.834l.007-.122V4.533zM5.6 6.85v5.833H4.4V6.85h1.2zm2.5 0v5.833H6.9V6.85h1.2zm2.5 0v5.833H9.4V6.85h1.2zM7.5 1.2c-.771 0-1.405.588-1.477 1.34l-.006.143-.001.65h2.967v-.65C8.983 1.864 8.32 1.2 7.5 1.2z" transform="translate(-207 -1792) translate(207 1792) translate(2.5 1.9)"/>
                </g>
            </g>
        </g>
    </g>
</svg>
