<svg xmlns="http://www.w3.org/2000/svg" width="24" height="24" viewBox="0 0 24 24">
    <g fill="none" fill-rule="evenodd">
        <g>
            <g>
                <path d="M0 0H24V24H0z" transform="translate(-991 -1510) translate(991 1510)"/>
                <g fill="#000" fill-rule="nonzero" stroke="#000" stroke-width=".2">
                    <path d="M3.258 10.627c1.576 1.885 3.475 3.369 5.641 4.419.825.39 1.928.855 3.157.934.076.003.149.007.225.007.825 0 1.488-.285 2.028-.871.003-.004.01-.01.013-.017.192-.232.41-.44.64-.663.155-.149.314-.304.466-.463.706-.736.706-1.67-.006-2.382L13.43 9.6c-.338-.351-.742-.537-1.166-.537-.424 0-.832.186-1.18.534L9.9 10.783c-.109-.063-.222-.12-.328-.173-.132-.066-.255-.129-.364-.198-1.08-.686-2.06-1.58-2.998-2.73-.474-.6-.792-1.103-1.014-1.617.312-.281.603-.576.885-.864.1-.103.202-.206.305-.308.357-.358.55-.772.55-1.193 0-.42-.19-.835-.55-1.192l-.987-.988c-.116-.115-.226-.228-.338-.344C4.84.951 4.612.719 4.387.51 4.046.176 3.645 0 3.221 0c-.42 0-.825.176-1.18.513L.804 1.753c-.45.45-.706.996-.759 1.63-.063.79.083 1.632.46 2.65.58 1.573 1.455 3.034 2.754 4.594zM.853 3.452c.04-.44.208-.809.526-1.127l1.233-1.232c.192-.185.404-.281.61-.281.201 0 .407.096.595.288.222.205.431.42.656.65l.345.35.987.987c.205.206.311.414.311.62 0 .205-.106.414-.311.62-.103.102-.205.208-.308.31-.308.312-.596.607-.914.888l-.017.017c-.275.275-.232.537-.166.735l.01.027c.255.613.61 1.196 1.163 1.891.994 1.226 2.04 2.177 3.194 2.909.142.093.294.166.437.238.132.067.255.13.364.2l.037.02c.109.055.215.082.32.082.266 0 .438-.17.495-.225l1.238-1.24c.193-.191.401-.294.607-.294.251 0 .457.156.586.295l1.997 1.994c.398.397.395.828-.01 1.249-.139.149-.284.291-.44.44-.232.226-.474.457-.692.72-.381.41-.835.602-1.421.602-.057 0-.116-.003-.173-.007-1.086-.07-2.097-.493-2.855-.854-2.06-.997-3.87-2.412-5.37-4.207C2.651 8.629 1.82 7.245 1.27 5.76.929 4.85.8 4.118.853 3.45z" transform="translate(-991 -1510) translate(991 1510) translate(4 4)"/>
                    <path d="M2.982 0.531L0.841 2.671 0.483 4.024 1.307 7.016 4.019 11.06 7.993 14.208 11.634 15.6 13.392 15.416 15.604 13.021 15.465 12.2 12.504 9.45 11.634 9.688 10.033 11.06 8.628 10.681 4.85 6.488 5.138 5.466 6.521 4.266 6.521 3.048 3.668 0.362z" transform="translate(-991 -1510) translate(991 1510) translate(4 4)"/>
                </g>
            </g>
        </g>
    </g>
</svg>
