<svg xmlns="http://www.w3.org/2000/svg" width="24" height="24" viewBox="0 0 24 24">
    <g fill="none" fill-rule="evenodd">
        <g>
            <g>
                <path d="M0 0H24V24H0z" transform="translate(-1985 -1680) translate(1985 1680)"/>
                <g stroke="#000" stroke-linecap="round" stroke-linejoin="round">
                    <path d="M0 15.96L0 0 15.714 0 15.714 15.96" transform="translate(-1985 -1680) translate(1985 1680) translate(1 2.5)"/>
                    <path d="M15.714 13.68H22v2.27c0 1.684-1.407 3.05-3.143 3.05-1.736 0-3.143-1.366-3.143-3.05" transform="translate(-1985 -1680) translate(1985 1680) translate(1 2.5)"/>
                    <path d="M18.857 19H3.007C1.345 19 0 17.639 0 15.96M3.143 9.5L12.571 9.5M3.143 12.54L12.571 12.54M3.143 3.04H12.572V6.84H3.143z" transform="translate(-1985 -1680) translate(1985 1680) translate(1 2.5)"/>
                </g>
            </g>
        </g>
    </g>
</svg>
