<svg xmlns="http://www.w3.org/2000/svg" width="80" height="80" viewBox="0 0 80 80">
    <g fill="none" fill-rule="evenodd">
        <g>
            <g>
                <g transform="translate(-77 -1817) translate(77 1817)">
                    <path d="M0 0H80V80H0z"/>
                    <circle cx="40" cy="40" r="33" fill="#EDF0F8"/>
                    <path fill="#414E7F" fill-rule="nonzero" d="M52.678 33.586c.781.78.781 2.047 0 2.828L38.654 50.438c-.39.39-1.024.39-1.414 0l-.003-.003-8.655-8.726c-.778-.785-.776-2.052.006-2.834.777-.777 2.036-.777 2.813 0l.008.008 6.534 6.608L49.85 33.586c.78-.781 2.047-.781 2.828 0z"/>
                </g>
                <g transform="translate(-77 -1817) translate(77 1817)">
                    <path d="M0 0H80V80H0z"/>
                    <circle cx="40" cy="40" r="33" fill="#EDF0F8"/>
                    <path fill="#414E7F" fill-rule="nonzero" d="M52.678 33.586c.781.78.781 2.047 0 2.828L38.654 50.438c-.39.39-1.024.39-1.414 0l-.003-.003-8.655-8.726c-.778-.785-.776-2.052.006-2.834.777-.777 2.036-.777 2.813 0l.008.008 6.534 6.608L49.85 33.586c.78-.781 2.047-.781 2.828 0z"/>
                </g>
            </g>
        </g>
    </g>
</svg>
