<svg width="32" height="32" viewBox="0 0 32 32" xmlns="http://www.w3.org/2000/svg" xmlns:xlink="http://www.w3.org/1999/xlink">
    <defs>
        <rect id="a" x="0" y="0" width="30" height="30" rx="15"/>
    </defs>
    <g fill="none" fill-rule="evenodd">
        <g transform="translate(1 1)">
            <mask id="b" fill="#fff">
                <use xlink:href="#a"/>
            </mask>
            <use fill="#9777DB" xlink:href="#a"/>
            <path mask="url(#b)" d="M4.688 4.688h20.625v20.625H4.688z"/>
        </g>
        <path d="m11.849 11.442-.005 4.218h.005v.938h-2.12a.234.234 0 0 1-.235-.235v-.468c0-.058.021-.111.056-.152l2.299-4.301zM20.156 11.442l.005 4.218h-.005v.938h2.12c.13 0 .235-.105.235-.235v-.468a.233.233 0 0 0-.056-.152l-2.299-4.301z" fill="#6A44BF"/>
        <path d="M16 12.28c.697 0 1.275-.517 1.387-1.197a.286.286 0 0 1 .282-.24h1.612c.518 0 .938.42.938.938v8.906c0 .26-.21.47-.469.47h-7.5a.469.469 0 0 1-.469-.47v-8.906c0-.518.42-.937.938-.937h1.625c.133 0 .247.097.268.229A1.416 1.416 0 0 0 16 12.28z" fill="#FFF"/>
    </g>
</svg>
