<svg xmlns="http://www.w3.org/2000/svg" width="24" height="24" viewBox="0 0 24 24">
    <g fill="none" fill-rule="evenodd">
        <g>
            <g>
                <path d="M0 0H24V24H0z" transform="translate(-902 -560) translate(902 560)"/>
                <path fill="#000" fill-rule="nonzero" d="M14 2.25c.414 0 .75.336.75.75 0 2.535 1.703 3.526 3.893 2.34.353-.191.794-.07 1 .274l2 3.335c.22.366.09.841-.286 1.045-2.133 1.155-2.099 2.873 0 4.01.376.203.506.679.286 1.045l-2 3.335c-.206.343-.645.464-.998.275-2.203-1.184-3.902-.21-3.895 2.337.001.414-.334.75-.748.752l-3.118.001-.885-.001c-.414-.001-.749-.337-.749-.75 0-2.535-1.703-3.526-3.893-2.34-.353.19-.794.07-1-.274l-2-3.335c-.22-.366-.09-.842.286-1.045 2.133-1.155 2.099-2.874 0-4.01-.376-.204-.506-.68-.286-1.045l2-3.335c.206-.344.647-.465 1-.274C7.574 6.54 9.25 5.504 9.25 3c0-.414.336-.75.75-.75zm-.707 1.5h-2.587l-.008.069c-.368 2.805-2.64 4.203-5.303 3.187l-.1-.04-1.274 2.123.055.04c2.183 1.607 2.224 4.1.012 5.732l-.067.047 1.274 2.123.09-.035c2.636-1.008 4.94.34 5.312 3.173l.009.079h2.585l.01-.081c.365-2.845 2.669-4.175 5.31-3.171l.092.037 1.275-2.126-.054-.038c-2.183-1.608-2.224-4.1-.012-5.732l.066-.048-1.274-2.124-.09.037c-2.635 1.007-4.938-.34-5.311-3.173l-.01-.079zM12 8.25c2.071 0 3.75 1.679 3.75 3.75 0 2.071-1.679 3.75-3.75 3.75-2.071 0-3.75-1.679-3.75-3.75 0-2.071 1.679-3.75 3.75-3.75zm0 1.5c-1.243 0-2.25 1.007-2.25 2.25s1.007 2.25 2.25 2.25 2.25-1.007 2.25-2.25S13.243 9.75 12 9.75z" transform="translate(-902 -560) translate(902 560)"/>
            </g>
        </g>
    </g>
</svg>
