<svg xmlns="http://www.w3.org/2000/svg" width="24" height="24" viewBox="0 0 24 24">
    <g fill="none" fill-rule="evenodd">
        <g>
            <g>
                <path d="M0 0H24V24H0z" transform="translate(-1815 -1812) translate(1815 1812)"/>
                <g fill="#000" fill-rule="nonzero">
                    <path d="M12.497 0l.17.005C14.07.086 15.2 1.17 15.2 2.52v11.256c0 .299-.218.546-.503.593l-.097.007h-.334v1.453c.008.639-.487 1.154-1.113 1.216l-.126.006H11.51c-.682 0-1.244-.537-1.244-1.215l-.001-1.46H4.933v1.46c0 .634-.493 1.148-1.114 1.21l-.126.005H2.177c-.681 0-1.244-.537-1.244-1.215v-1.46H.6c-.298 0-.546-.217-.592-.502L0 13.776V2.52C0 1.17 1.13.086 2.533.005L2.703 0h9.794zM3.733 14.376h-1.6v1.46l.005.005.014.007.025.003h1.516c.027 0 .04-.012.04-.015v-1.46zm9.333 0h-1.6v1.46l.005.005.015.007.025.003h1.516c.03 0 .04-.01.04-.015l-.001-1.46zM14 9.026H1.2l.001 4.15h12.798L14 9.026zM3.4 10.21c.515 0 .933.4.933.892s-.418.891-.933.891c-.515 0-.933-.399-.933-.891 0-.493.418-.892.933-.892zm8.4 0c.515 0 .933.4.933.892s-.418.891-.933.891c-.515 0-.933-.399-.933-.891 0-.493.418-.892.933-.892zM14 3.874H1.2v3.952H14V3.874zM12.497 1.2H2.703c-.792 0-1.425.535-1.496 1.195L1.2 2.52v.154H14V2.52l-.007-.125c-.071-.66-.704-1.195-1.496-1.195z" transform="translate(-1815 -1812) translate(1815 1812) translate(4.4 3.4)"/>
                </g>
            </g>
        </g>
    </g>
</svg>
