<svg xmlns="http://www.w3.org/2000/svg" width="16" height="16" viewBox="0 0 16 16">
    <defs>
        <filter id="ty386g1qra">
            <feColorMatrix in="SourceGraphic" values="0 0 0 0 0.400000 0 0 0 0 0.400000 0 0 0 0 0.400000 0 0 0 1.000000 0"/>
        </filter>
    </defs>
    <g fill="none" fill-rule="evenodd">
        <g transform="translate(-2033 -1382)">
            <g>
                <path d="M0 0H16V16H0z" transform="translate(2033 1382)"/>
                <g fill="#666" fill-rule="nonzero">
                    <path d="M9.882 0C8.854 0 8.013.385 7.243 1.056l-.199.18-.145.142.057.057c-.139-.14-.267-.262-.401-.38C5.785.386 4.953 0 3.95 0 1.575 0 0 1.897 0 4.409c0 1.36.553 2.75 1.585 4.018 1.102 1.352 2.74 2.583 4.87 3.666.139.07.291.107.445.107.154 0 .306-.036.444-.107 2.13-1.083 3.77-2.314 4.87-3.666C13.248 7.159 13.8 5.77 13.8 4.409 13.8 1.899 12.236 0 9.882 0zm0 1C11.636 1 12.8 2.414 12.8 4.409c0 1.116-.466 2.288-1.36 3.386l-.209.246c-.93 1.059-2.254 2.052-3.944 2.954l-.387.202c-2.005-1.02-3.535-2.168-4.54-3.402C1.467 6.697 1 5.525 1 4.41 1 2.412 2.173 1 3.95 1c.73 0 1.345.285 1.948.81.076.067.151.136.23.211l.416.422c.196.2.516.2.712 0l.296-.304.235-.227.113-.102C8.503 1.285 9.125 1 9.882 1z" transform="translate(2033 1382) translate(1.1 1.9)"/>
                </g>
            </g>
        </g>
    </g>
</svg>
