<svg xmlns="http://www.w3.org/2000/svg" width="16" height="16" viewBox="0 0 16 16">
    <defs>
        <filter id="4ammp4fdza">
            <feColorMatrix in="SourceGraphic" values="0 0 0 0 0.286275 0 0 0 0 0.309804 0 0 0 0 0.376471 0 0 0 1.000000 0"/>
        </filter>
    </defs>
    <g fill="none" fill-rule="evenodd">
        <g>
            <g filter="url(#4ammp4fdza)" transform="translate(-144 -337) translate(132 328)">
                <g>
                    <path d="M0 0H16V16H0z" transform="translate(12 9)"/>
                    <g>
                        <g fill="#000">
                            <path d="M0 0H2.4V1H0z" transform="translate(12 9) translate(.8 1.6) translate(2.4 2.4)"/>
                        </g>
                        <g stroke="#000" stroke-width="1.2">
                            <path d="M0 3.6L6.8 3.6" transform="translate(12 9) translate(.8 1.6) translate(6.8 6)"/>
                            <path stroke-linejoin="round" d="M3.875 0.4L7.075 3.6 3.875 6.8" transform="translate(12 9) translate(.8 1.6) translate(6.8 6)"/>
                        </g>
                        <path stroke="#000" stroke-width="1.2" d="M5.6 9.6h-4C.716 9.6 0 8.884 0 8V1.6C0 .716.716 0 1.6 0h11.2c.884 0 1.6.716 1.6 1.6v4" transform="translate(12 9) translate(.8 1.6)"/>
                    </g>
                </g>
            </g>
        </g>
    </g>
</svg>
