<svg xmlns="http://www.w3.org/2000/svg" width="24" height="24" viewBox="0 0 24 24">
    <g fill="none" fill-rule="evenodd">
        <g>
            <g>
                <path d="M0 0H24V24H0z" transform="translate(-808 -1388) translate(808 1388)"/>
                <path fill="#000" fill-rule="nonzero" d="M22.75 7.222v11.89L20 19.11v4.63l-4.45-4.63H8.106v-1h7.867L19 21.257v-3.146h2.75V8.222h-2.054v-1h3.054zM18.821 1.5v14H8.81l-4.524 3.889-.001-3.889H.75v-14h18.071zm-1 1H1.75v12h3.535l-.001 2.711L8.439 14.5h9.382v-12zM6.643 7.722c.434 0 .786.348.786.778 0 .43-.352.778-.786.778-.434 0-.786-.348-.786-.778 0-.43.352-.778.786-.778zm3.143 0c.434 0 .785.348.785.778 0 .43-.351.778-.785.778C9.352 9.278 9 8.93 9 8.5c0-.43.352-.778.786-.778zm3.143 0c.434 0 .785.348.785.778 0 .43-.351.778-.785.778-.434 0-.786-.348-.786-.778 0-.43.352-.778.786-.778z" transform="translate(-808 -1388) translate(808 1388)"/>
            </g>
        </g>
    </g>
</svg>
