<svg xmlns="http://www.w3.org/2000/svg" width="80" height="80" viewBox="0 0 80 80">
    <g fill="none" fill-rule="evenodd">
        <g>
            <g transform="translate(-727 -2236) translate(727 2236)">
                <path d="M0 0H80V80H0z"/>
                <circle cx="40" cy="40" r="27.5" fill="#FFF9DD" stroke="#FDF6D2"/>
                <path fill="#FFD200" d="M42.421 23.128c.34.19.54.562.508.952l-.996 12.442h7.655c.552 0 1 .448 1 1 0 .172-.044.34-.128.489L39.528 57.533c-.27.482-.88.654-1.361.384-.341-.19-.54-.563-.509-.952l.996-12.443H31c-.552 0-1-.447-1-1 0-.17.044-.339.127-.488L41.06 23.512c.27-.482.88-.654 1.361-.384z"/>
            </g>
        </g>
    </g>
</svg>
