<svg xmlns="http://www.w3.org/2000/svg" width="24" height="24" viewBox="0 0 24 24">
    <g fill="none" fill-rule="evenodd">
        <g>
            <g>
                <path d="M0 0H24V24H0z" transform="translate(-802 -560) translate(802 560)"/>
                <g fill="#000" fill-rule="nonzero">
                    <path d="M6.5 0C10.09 0 13 2.91 13 6.5c0 1.78-.715 3.393-1.874 4.567l3.671 3.67c.293.292.293.767 0 1.06-.266.266-.683.29-.977.073l-.084-.073L9.95 12.01c-1 .627-2.183.99-3.45.99C2.91 13 0 10.09 0 6.5S2.91 0 6.5 0zm0 1.5c-2.761 0-5 2.239-5 5s2.239 5 5 5 5-2.239 5-5-2.239-5-5-5z" transform="translate(-802 -560) translate(802 560) translate(4.433 4.367)"/>
                </g>
            </g>
        </g>
    </g>
</svg>
