<?xml version="1.0" encoding="UTF-8"?>
<svg width="18px" height="18px" viewBox="0 0 18 18" version="1.1" xmlns="http://www.w3.org/2000/svg" xmlns:xlink="http://www.w3.org/1999/xlink">
    <title>icon/common/chat/1_line/18</title>
    <g id="07_디스커버-커뮤니티" stroke="none" stroke-width="1" fill="none" fill-rule="evenodd">
        <g id="07_디스커버_커뮤니티_스크롤-정의-(하단-화면-스크롤-발생)" transform="translate(-139.000000, -142.000000)">
            <g id="+-Contents" transform="translate(0.000000, -88.000000)">
                <g id="++-List-1" transform="translate(0.000000, 91.000000)">
                    <g id="List" transform="translate(24.000000, 64.000000)">
                        <g id="Sub-Text" transform="translate(0.000000, 74.000000)">
                            <g id="Comment" transform="translate(115.000000, 0.000000)">
                                <g id="Icon-/-common-/-chat-/-1_line-/-18" transform="translate(0.000000, 1.000000)">
                                    <rect id="Rectangle" x="0" y="0" width="18" height="18"></rect>
                                    <g id="shape" transform="translate(1.428571, 2.071429)">
                                        <path d="M11.9,-1.66977543e-13 C13.6909805,-1.66977543e-13 15.1428571,1.4518766 15.1428571,3.24285714 L15.1428571,3.24285714 L15.1428571,8.04285714 C15.1428571,9.83383769 13.6909805,11.2857143 11.8998398,11.2857143 L11.8998398,11.2857143 L9.943,11.284 L8.43367808,13.627994 C8.25470218,13.9057145 7.86925885,13.9310017 7.65269389,13.703815 L7.65269389,13.703815 L7.5931661,13.6280847 L6.082,11.284 L3.24285714,11.2857143 C1.51363455,11.2857143 0.100532636,9.93224074 0.00513348195,8.22687572 L0.00513348195,8.22687572 L-2.57571742e-13,8.04285714 L-2.57571742e-13,3.24285714 C-2.57571742e-13,1.4518766 1.4518766,-1.66977543e-13 3.24285714,-1.66977543e-13 L3.24285714,-1.66977543e-13 Z M11.9,1 L3.24285714,1 C2.00416135,1 1,2.00416135 1,3.24285714 L1,3.24285714 L1,8.04285714 C1,9.28155294 2.00416135,10.2857143 3.24274238,10.2857143 L3.24274238,10.2857143 L6.35488524,10.285 C6.52482013,10.284961 6.68314182,10.3712358 6.77522676,10.5140582 L6.77522676,10.5140582 L8.013,12.434 L9.25071478,10.5141489 C9.32745112,10.3950755 9.45022142,10.3152888 9.58738674,10.2920323 L9.58738674,10.2920323 L9.67116023,10.285 L11.9,10.2857143 C13.1386958,10.2857143 14.1428571,9.28155294 14.1428571,8.04285714 L14.1428571,8.04285714 L14.1428571,3.24285714 C14.1428571,2.00416135 13.1386958,1 11.9,1 L11.9,1 Z M10.4401786,5.12857143 C10.7819048,5.12857143 11.0589286,5.40559524 11.0589286,5.74732143 C11.0589286,6.08904762 10.7819048,6.36607143 10.4401786,6.36607143 C10.0984524,6.36607143 9.82142857,6.08904762 9.82142857,5.74732143 C9.82142857,5.40559524 10.0984524,5.12857143 10.4401786,5.12857143 Z M7.62767857,5.12857143 C7.96940476,5.12857143 8.24642857,5.40559524 8.24642857,5.74732143 C8.24642857,6.08904762 7.96940476,6.36607143 7.62767857,6.36607143 C7.28595238,6.36607143 7.00892857,6.08904762 7.00892857,5.74732143 C7.00892857,5.40559524 7.28595238,5.12857143 7.62767857,5.12857143 Z M4.81517857,5.12857143 C5.15690476,5.12857143 5.43392857,5.40559524 5.43392857,5.74732143 C5.43392857,6.08904762 5.15690476,6.36607143 4.81517857,6.36607143 C4.47345238,6.36607143 4.19642857,6.08904762 4.19642857,5.74732143 C4.19642857,5.40559524 4.47345238,5.12857143 4.81517857,5.12857143 Z" id="Combined-Shape" fill="#666666" fill-rule="nonzero"></path>
                                        <g id="Group" transform="translate(4.196429, 5.128571)"></g>
                                    </g>
                                </g>
                            </g>
                        </g>
                    </g>
                </g>
            </g>
        </g>
    </g>
</svg>