<svg xmlns="http://www.w3.org/2000/svg" width="24" height="24" viewBox="0 0 24 24">
    <g fill="none" fill-rule="evenodd">
        <g>
            <g>
                <path d="M0 0H24V24H0z" transform="translate(-1711 -563) translate(1711 563)"/>
                <path fill="#FFF" fill-rule="nonzero" d="M16 13.25c2.55 0 4.631 2.01 4.745 4.533l.005.217v3h-1.5v-3c0-1.733-1.356-3.15-3.066-3.245L16 14.75H8c-1.733 0-3.15 1.356-3.245 3.066L4.75 18v3h-1.5v-3c0-2.55 2.01-4.631 4.533-4.745L8 13.25h8zM12 3c2.485 0 4.5 2.015 4.5 4.5S14.485 12 12 12 7.5 9.985 7.5 7.5 9.515 3 12 3zm0 1.5c-1.657 0-3 1.343-3 3s1.343 3 3 3 3-1.343 3-3-1.343-3-3-3z" transform="translate(-1711 -563) translate(1711 563)"/>
            </g>
        </g>
    </g>
</svg>
