<svg xmlns="http://www.w3.org/2000/svg" width="80" height="80" viewBox="0 0 80 80">
    <defs>
        <filter id="wwva35rmfa">
            <feColorMatrix in="SourceGraphic" values="0 0 0 0 1.000000 0 0 0 0 1.000000 0 0 0 0 1.000000 0 0 0 1.000000 0"/>
        </filter>
    </defs>
    <g fill="none" fill-rule="evenodd">
        <g>
            <g>
                <path d="M0 0H80V80H0z" transform="translate(-1691 -1614) translate(1691 1614)"/>
                <g transform="translate(-1691 -1614) translate(1691 1614) translate(8 8)">
                    <rect width="64" height="64" fill="#4868E1" rx="32"/>
                    <g filter="url(#wwva35rmfa)">
                        <g>
                            <path d="M0 0H28V28H0z" transform="translate(18 18)"/>
                            <g transform="translate(18 18) translate(16.8 1.4)">
                                <ellipse cx="3.5" cy="4.2" stroke="#979797" rx="3.5" ry="4.2"/>
                                <path fill="#979797" d="M2.8 8.4H4.199999999999999V11.2H2.8z"/>
                                <path stroke="#979797" stroke-linejoin="bevel" d="M3.07 11.2h.86c.543 0 .991.426 1.018.97L5.6 25.2h0-4.2l.652-13.03c.027-.544.475-.97 1.018-.97z"/>
                            </g>
                            <g>
                                <path stroke="#979797" d="M0 0v4.2c0 2.32 1.567 4.2 3.5 4.2S7 6.52 7 4.2V0" transform="translate(18 18) translate(4.2 1.4)"/>
                                <path fill="#979797" d="M2.8 8.4H4.199999999999999V11.2H2.8z" transform="translate(18 18) translate(4.2 1.4)"/>
                                <path stroke="#979797" stroke-linejoin="bevel" d="M3.112 11.424h.916c.543 0 .991.426 1.018.97l.666 13.31h0-4.284l.666-13.31c.027-.544.475-.97 1.018-.97z" transform="translate(18 18) translate(4.2 1.4)"/>
                                <path fill="#D8D8D8" stroke="#979797" d="M3.3 0.5H4.3V4.5H3.3z" transform="translate(18 18) translate(4.2 1.4)"/>
                                <path fill="#D8D8D8" stroke="#979797" stroke-width="1.02" d="M0.51 4.71H6.49V5.71H0.51z" transform="translate(18 18) translate(4.2 1.4)"/>
                            </g>
                        </g>
                    </g>
                </g>
            </g>
        </g>
    </g>
</svg>
