<svg width="32" height="32" viewBox="0 0 32 32" xmlns="http://www.w3.org/2000/svg" xmlns:xlink="http://www.w3.org/1999/xlink">
    <defs>
        <rect id="a" x="0" y="0" width="30" height="30" rx="15"/>
    </defs>
    <g transform="translate(1 1)" fill="none" fill-rule="evenodd">
        <mask id="b" fill="#fff">
            <use xlink:href="#a"/>
        </mask>
        <use fill="#1C63D6" xlink:href="#a"/>
        <path mask="url(#b)" d="M4.688 4.688h20.625v20.625H4.688z"/>
        <g mask="url(#b)">
            <g transform="translate(9.844 8.438)">
                <path fill="#FFF" fill-rule="nonzero" d="M1.406 11.25h1.57l-.938 1.875H.468zM8.906 11.25H7.337l.936 1.875h1.57z"/>
                <path d="M3.75 0h2.813a3.75 3.75 0 0 1 3.75 3.75v7.031c0 .518-.42.938-.938.938H.937A.937.937 0 0 1 0 10.78V3.75A3.75 3.75 0 0 1 3.75 0z" fill="#FFF"/>
                <circle fill="#333D4B" cx="2.578" cy="9.141" r="1"/>
                <circle fill="#333D4B" cx="7.734" cy="9.141" r="1"/>
                <path d="M3.75 1.406h2.813A2.344 2.344 0 0 1 8.905 3.75v1.875c0 .259-.21.469-.469.469H1.875a.469.469 0 0 1-.469-.469V3.75A2.344 2.344 0 0 1 3.75 1.406z" fill="#1C63D6"/>
            </g>
        </g>
    </g>
</svg>
