<svg xmlns="http://www.w3.org/2000/svg" width="24" height="24" viewBox="0 0 24 24">
    <g fill="none" fill-rule="evenodd">
        <g>
            <g>
                <g>
                    <g>
                        <g>
                            <g>
                                <path d="M0 0H24V24H0z" transform="translate(-302 -3046) translate(0 174) translate(0 2460) translate(24 380) translate(268 22) translate(10 10)"/>
                                <path stroke="#000" stroke-linecap="round" stroke-linejoin="round" stroke-width="1.2" d="M15 24L9 24 9 9.6 15 9.6" transform="translate(-302 -3046) translate(0 174) translate(0 2460) translate(24 380) translate(268 22) translate(10 10) rotate(-90 12 16.8)"/>
                                <path stroke="#000" stroke-linecap="square" stroke-width="1.2" d="M16.65 8.85L7.35 8.85" transform="translate(-302 -3046) translate(0 174) translate(0 2460) translate(24 380) translate(268 22) translate(10 10) matrix(0 -1 -1 0 20.85 20.85)"/>
                                <path stroke="#000" stroke-linecap="round" stroke-linejoin="round" stroke-width="1.2" d="M10.2 16.8L13.8 13.2 10.2 9.6" transform="translate(-302 -3046) translate(0 174) translate(0 2460) translate(24 380) translate(268 22) translate(10 10) matrix(0 1 1 0 -1.2 1.2)"/>
                            </g>
                        </g>
                    </g>
                </g>
            </g>
        </g>
    </g>
</svg>
