<svg xmlns="http://www.w3.org/2000/svg" width="29" height="28" viewBox="0 0 29 28">
    <defs>
        <filter id="hym8oceqna">
            <feColorMatrix in="SourceGraphic" values="0 0 0 0 0.000000 0 0 0 0 0.000000 0 0 0 0 0.000000 0 0 0 1.000000 0"/>
        </filter>
    </defs>
    <g fill="none" fill-rule="evenodd">
        <g>
            <g filter="url(#hym8oceqna)" transform="translate(-54 -2326) translate(54.5 2326)">
                <path d="M0 0H28V28H0z"/>
                <g transform="translate(3.5 2.333)">
                    <path stroke="#000" stroke-width="1.5" d="M8 21H2c-1.105 0-2-.929-2-2.074V4.407c0-1.145.895-2.074 2-2.074h17c1.105 0 2 .929 2 2.074v6.735"/>
                    <path stroke="#000" stroke-width="1.5" d="M13 2.333h6c1.105 0 2 .929 2 2.074v14.519C21 20.07 20.105 21 19 21H2c-1.105 0-2-.929-2-2.074V12.19"/>
                    <path fill="#D8D8D8" stroke="#979797" stroke-width="1.167" d="M5.25 9.917H6.25V10.917H5.25zM9.917 9.917H10.917V10.917H9.917zM14.583 9.917H15.583V10.917H14.583zM5.25 14.583H6.25V15.583H5.25zM9.917 14.583H10.917V15.583H9.917zM14.583 14.583H15.583V15.583H14.583z"/>
                    <rect width="1.5" height="5.833" x="6" fill="#000" rx=".75"/>
                    <rect width="1.5" height="5.833" x="13.5" fill="#000" rx=".75"/>
                </g>
            </g>
        </g>
    </g>
</svg>
