<svg xmlns="http://www.w3.org/2000/svg" width="24" height="24" viewBox="0 0 24 24">
    <defs>
        <filter id="2j3n94swba">
            <feColorMatrix in="SourceGraphic" values="0 0 0 0 0.000000 0 0 0 0 0.000000 0 0 0 0 0.000000 0 0 0 1.000000 0"/>
        </filter>
    </defs>
    <g fill="none" fill-rule="evenodd">
        <g>
            <g transform="translate(-1020 -1680) translate(1020 1680)">
                <path d="M0 0H24V24H0z"/>
                <g stroke="#666" stroke-linejoin="round">
                    <path stroke-width="1.2" d="M2.173 0.225L5.533 3.585 2.173 6.945" transform="translate(1.5 2.667) rotate(130 3.853 3.585)"/>
                    <path stroke-width="1.2" d="M1.867 9.333c0 2.578 1.044 4.911 2.733 6.6 1.69 1.689 4.023 2.734 6.6 2.734 5.155 0 9.333-4.179 9.333-9.334C20.533 4.18 16.355 0 11.2 0 8.623 0 6.29 1.045 4.6 2.734c-.431.431-.82.905-1.161 1.414l-.375.584" transform="translate(1.5 2.667)"/>
                    <g stroke-width="1.1">
                        <path d="M1.116 0L3.351 6.932 5.585 0 7.831 6.969 10.076 0M0 3.484L11.196 3.484" transform="translate(1.5 2.667) translate(5.6 6.533)"/>
                    </g>
                </g>
            </g>
        </g>
    </g>
</svg>
