<svg xmlns="http://www.w3.org/2000/svg" width="20" height="20" viewBox="0 0 20 20">
    <defs>
        <filter id="y4m9wvlk4a">
            <feColorMatrix in="SourceGraphic" values="0 0 0 0 0.000000 0 0 0 0 0.000000 0 0 0 0 0.000000 0 0 0 1.000000 0"/>
        </filter>
        <filter id="wi85t4xsdb">
            <feColorMatrix in="SourceGraphic" values="0 0 0 0 0.000000 0 0 0 0 0.000000 0 0 0 0 0.000000 0 0 0 1.000000 0"/>
        </filter>
    </defs>
    <g fill="none" fill-rule="evenodd">
        <g>
            <g filter="url(#y4m9wvlk4a)" transform="translate(-772 -1383) translate(772 1309)">
                <g filter="url(#wi85t4xsdb)" transform="translate(0 74)">
                    <path d="M0 0H20V20H0z"/>
                    <path fill="#000" fill-rule="nonzero" d="M10 2.5c4.142 0 7.5 3.358 7.5 7.5 0 .733-.105 1.441-.301 2.11-.448 1.532-1.372 2.86-2.6 3.815-.072.056-.174.122-.297.195l-.27.154-.15.081-.39.2-.408.197-.396.183-.513.22-.247.091-.084.026c-.59.149-1.208.228-1.844.228-4.142 0-7.5-3.358-7.5-7.5 0-4.142 3.358-7.5 7.5-7.5zm0 1c-3.59 0-6.5 2.91-6.5 6.5s2.91 6.5 6.5 6.5c.545 0 1.08-.067 1.598-.198l.049-.014.135-.05.281-.117.348-.157.38-.18.56-.28.32-.172.1-.058.159-.099c.021-.014.04-.028.055-.04 1.078-.837 1.87-1.994 2.254-3.305.173-.59.261-1.203.261-1.83 0-3.59-2.91-6.5-6.5-6.5zm0 2.063l.09.008c.204.037.365.198.402.402l.008.09v3.634l3 2.143.068.058c.166.17.19.44.048.639-.142.2-.405.263-.62.162l-.077-.046-3.21-2.291-.072-.063c-.065-.069-.11-.155-.128-.249L9.5 9.955V6.062l.008-.09c.037-.203.198-.364.402-.401l.09-.008z"/>
                </g>
            </g>
        </g>
    </g>
</svg>
