<svg xmlns="http://www.w3.org/2000/svg" width="24" height="24" viewBox="0 0 24 24">
    <g fill="none" fill-rule="evenodd">
        <g>
            <g>
                <path d="M0 0H24V24H0z" transform="translate(-900 -1388) translate(900 1388)"/>
                <path fill="#000" fill-rule="nonzero" d="M20.548.5c.245 0 .45.177.492.41l.008.09-.001 4.83 2.674 1.99c.102.075.17.185.193.307l.009.094v14.44c0 .246-.177.45-.41.493l-.09.008H.58c-.245 0-.45-.177-.492-.41l-.008-.09V8.22c0-.123.045-.24.124-.33l.065-.062L2.96 5.693V1c0-.245.177-.45.41-.492L3.46.5h17.088zM1.08 11.68v10.481h21.842l-.001-10.48-10.702 5.015c-.107.05-.228.06-.341.03l-.083-.03L1.08 11.68zM20.047 1.5H3.96v10.197c0 .074-.016.144-.044.207l8.09 3.787 8.086-3.789c-.016-.036-.029-.075-.036-.115l-.008-.09L20.047 1.5zM2.96 6.969L1.08 8.461v2.116l1.88.88V6.969zm18.087.107v4.379l1.874-.878.001-2.106-1.875-1.395zM16.459 8.79c.276 0 .5.224.5.5 0 .246-.177.45-.41.492l-.09.008H7.544c-.276 0-.5-.224-.5-.5 0-.245.177-.45.41-.492l.09-.008h8.915zm-1.672-3.744c.276 0 .5.224.5.5 0 .246-.177.45-.41.492l-.09.008H9.216c-.276 0-.5-.224-.5-.5 0-.245.177-.45.41-.492l.09-.008h5.571z" transform="translate(-900 -1388) translate(900 1388)"/>
            </g>
        </g>
    </g>
</svg>
