<svg xmlns="http://www.w3.org/2000/svg" width="24" height="24" viewBox="0 0 24 24">
    <defs>
        <filter id="ahmkuk6iia">
            <feColorMatrix in="SourceGraphic" values="0 0 0 0 0.200000 0 0 0 0 0.200000 0 0 0 0 0.200000 0 0 0 1.000000 0"/>
        </filter>
        <filter id="0f1kc517ob">
            <feColorMatrix in="SourceGraphic" values="0 0 0 0 0.400000 0 0 0 0 0.400000 0 0 0 0 0.400000 0 0 0 1.000000 0"/>
        </filter>
    </defs>
    <g fill="none" fill-rule="evenodd">
        <g filter="url(#ahmkuk6iia)" transform="translate(-139 -1382)">
            <g filter="url(#0f1kc517ob)" transform="translate(139 1382)">
                <path d="M0 0H24V24H0z"/>
                <path fill="#000" fill-rule="nonzero" d="M12.634 14.042c-.36-2.724 1.992-1.848 1.992-4.452 0-1.44-1.092-2.256-2.508-2.316-1.188-.06-2.616.624-2.748 2.748h1.5c.06-.96.528-1.416 1.2-1.416.672 0 .96.48.96 1.104 0 1.56-2.148 1.2-1.752 4.332h1.356zm.192 2.688v-1.704h-1.752v1.704h1.752z"/>
                <path fill="#000" fill-rule="nonzero" d="M12 2c5.523 0 10 4.477 10 10s-4.477 10-10 10S2 17.523 2 12 6.477 2 12 2zm0 1.2c-4.86 0-8.8 3.94-8.8 8.8 0 4.86 3.94 8.8 8.8 8.8 4.86 0 8.8-3.94 8.8-8.8 0-4.86-3.94-8.8-8.8-8.8z"/>
            </g>
        </g>
    </g>
</svg>
