<svg xmlns="http://www.w3.org/2000/svg" xmlns:xlink="http://www.w3.org/1999/xlink" width="32" height="32" viewBox="0 0 32 32">
    <defs>
        <rect id="bz77esh4ua" width="30" height="30" x="0" y="0" rx="15"/>
    </defs>
    <g fill="none" fill-rule="evenodd">
        <g>
            <g>
                <g transform="translate(-24 -1233) translate(24 1233) translate(1 1)">
                    <mask id="2uaunmom8b" fill="#fff">
                        <use xlink:href="#bz77esh4ua"/>
                    </mask>
                    <use fill="#6B7583" xlink:href="#bz77esh4ua"/>
                    <path fill="#FFF" d="M9.844 13.594c.776 0 1.406.63 1.406 1.406 0 .777-.63 1.406-1.406 1.406-.777 0-1.406-.63-1.406-1.406 0-.777.63-1.406 1.406-1.406zm5.156 0c.777 0 1.406.63 1.406 1.406 0 .777-.63 1.406-1.406 1.406-.777 0-1.406-.63-1.406-1.406 0-.777.63-1.406 1.406-1.406zm5.156 0c.777 0 1.407.63 1.407 1.406 0 .777-.63 1.406-1.407 1.406-.776 0-1.406-.63-1.406-1.406 0-.777.63-1.406 1.406-1.406z" mask="url(#2uaunmom8b)"/>
                </g>
            </g>
        </g>
    </g>
</svg>
