<svg width="14" height="14" viewBox="0 0 14 14" xmlns="http://www.w3.org/2000/svg">
    <g fill="none" fill-rule="evenodd">
        <path fill="none" d="M0 0h14v14H0z"/>
        <g fill="#476EFF" fill-rule="nonzero" stroke="#476EFF" stroke-width=".25">
            <path d="M4.492 5.725a2.605 2.605 0 0 1 3.725 0 .578.578 0 0 1-.018.832.613.613 0 0 1-.852-.018 1.378 1.378 0 0 0-1.87-.105l-.115.105L3.63 8.306a1.508 1.508 0 0 0 0 2.096c.514.525 1.317.56 1.87.105l.115-.105.59-.603a.613.613 0 0 1 .853-.017c.214.2.244.516.086.748l-.068.083-.591.603a2.605 2.605 0 0 1-3.725 0 2.665 2.665 0 0 1-.144-3.565l.144-.159 1.733-1.767z"/>
            <path d="M9.508 8.275a2.605 2.605 0 0 1-3.725 0 .578.578 0 0 1 .018-.832.613.613 0 0 1 .852.018c.514.524 1.317.56 1.87.105l.115-.105 1.733-1.767a1.508 1.508 0 0 0 0-2.096 1.378 1.378 0 0 0-1.87-.105l-.115.105-.59.603a.613.613 0 0 1-.853.017.578.578 0 0 1-.086-.748l.068-.083.591-.603a2.605 2.605 0 0 1 3.725 0 2.665 2.665 0 0 1 .144 3.565l-.144.159-1.733 1.767z"/>
        </g>
    </g>
</svg>
