<svg xmlns="http://www.w3.org/2000/svg" width="24" height="24" viewBox="0 0 24 24">
    <g fill="none" fill-rule="evenodd">
        <g>
            <g>
                <path d="M0 0H24V24H0z" transform="translate(-1385 -1382) translate(1385 1382)"/>
                <g fill="#000" fill-rule="nonzero">
                    <path d="M11.227-.5c.427 0 .831.182 1.114.496l.1.123 2.773 3.825c.155.213.25.463.278.723l.008.157v5.864h-1V4.824c0-.079-.019-.156-.054-.226l-.041-.067L11.632.706c-.076-.103-.187-.173-.31-.197L11.226.5H1C.755.5.55.677.508.91L.5 1v17c0 .245.177.45.41.492L1 18.5h10.055v1H1c-.78 0-1.42-.595-1.493-1.356L-.5 18V1C-.5.22.095-.42.856-.493L1-.5h10.227z" transform="translate(-1385 -1382) translate(1385 1382) translate(2 1.5)"/>
                    <path d="M11 5L11 6 3 6 3 5zM11 9L11 10 3 10 3 9zM9 13L9 14 3 14 3 13zM19 14c.513 0 .936.386.993.883L20 15v5c0 .513-.386.936-.883.993L19 21h-7c-.513 0-.936-.386-.993-.883L11 20v-5c0-.513.386-.936.883-.993L12 14h7zm0 1h-7v5h7v-5z" transform="translate(-1385 -1382) translate(1385 1382) translate(2 1.5)"/>
                    <path d="M16.707 15.954L17.429 16.646 15.157 19.023 13.571 17.369 14.293 16.677 15.155 17.577zM15.5 10c1.105 0 2 .895 2 2v3h-4v-3c0-1.105.895-2 2-2zm0 1c-.513 0-.936.386-.993.883L14.5 12v2h2v-2c0-.513-.386-.936-.883-.993L15.5 11z" transform="translate(-1385 -1382) translate(1385 1382) translate(2 1.5)"/>
                </g>
            </g>
        </g>
    </g>
</svg>
