<svg xmlns="http://www.w3.org/2000/svg" width="24" height="24" viewBox="0 0 24 24">
    <g fill="none" fill-rule="evenodd">
        <g>
            <g>
                <path d="M0 0H24V24H0z" transform="translate(-1680 -1576) translate(1680 1576)"/>
                <g fill="#000" fill-rule="nonzero">
                    <path d="M9.758.228c.299.143.426.5.284.8l-2.5 5.254c-.143.3-.5.427-.8.284-.299-.142-.426-.5-.284-.8l2.5-5.254c.143-.299.5-.426.8-.284zM14.334 0l1.9 3.48.653 1.414h.044c-.07-.68-.168-1.546-.168-2.288V0H18v6.537h-1.325l-1.89-3.498-.663-1.405h-.044c.062.707.159 1.529.159 2.28v2.623H13V0h1.334zM2.886.04v5.503H4v.96H.44v-.96h1.262V2.027l.035-.562-1.054.96L0 1.646 1.866.04h1.02z" transform="translate(-1680 -1576) translate(1680 1576) translate(3 8.73)"/>
                </g>
            </g>
        </g>
    </g>
</svg>
