<svg xmlns="http://www.w3.org/2000/svg" width="24" height="24" viewBox="0 0 24 24">
    <g fill="none" fill-rule="evenodd">
        <g>
            <g>
                <path d="M0 0H24V24H0z" transform="translate(-571 -1792) translate(571 1792)"/>
                <g fill="#000" fill-rule="nonzero">
                    <path d="M9.75 3c1.463 0 2.658 1.142 2.745 2.582l.005.168v10c0 1.463-1.142 2.658-2.582 2.745l-.168.005h-7c-1.463 0-2.658-1.142-2.745-2.582L0 15.75v-10c0-1.463 1.142-2.658 2.582-2.745L2.75 3h7zm0 1.5h-7c-.647 0-1.18.492-1.244 1.122L1.5 5.75v10c0 .647.492 1.18 1.122 1.244L2.75 17h7c.647 0 1.18-.492 1.244-1.122L11 15.75v-10c0-.647-.492-1.18-1.122-1.244L9.75 4.5zM12.063 0c2.005 0 3.642 1.572 3.745 3.55l.005.2v12h-1.5v-12c0-1.19-.925-2.166-2.095-2.245l-.155-.005H3.75V0h8.313z" transform="translate(-571 -1792) translate(571 1792) translate(3.75 2.75)"/>
                </g>
            </g>
        </g>
    </g>
</svg>
