<svg xmlns="http://www.w3.org/2000/svg" width="16" height="16" viewBox="0 0 16 16">
    <g fill="none" fill-rule="evenodd">
        <g>
            <g>
                <g>
                    <path fill="#D8D8D8" fill-opacity="0" d="M0 0H16V16H0z" transform="translate(-173 -368) translate(40 358) translate(133 10)"/>
                    <g transform="translate(-173 -368) translate(40 358) translate(133 10) translate(1.5 .5)">
                        <path fill="#FFCE00" d="M8.45 13.043C8.45 14.124 7.577 15 6.5 15s-1.95-.876-1.95-1.957c0-1.08.873-1.956 1.95-1.956s1.95.876 1.95 1.956zm3.25-7.826C11.7 2.336 9.372 0 6.5 0 3.628 0 1.3 2.336 1.3 5.217v5.218h10.4V5.217z"/>
                        <path fill="#E0B70B" d="M6.5 11.05c-.573.002-1.116.255-1.486.693-.37.438-.527 1.017-.432 1.582h3.836c.095-.565-.063-1.144-.432-1.582-.37-.438-.913-.691-1.486-.693z"/>
                        <rect width="13" height="2.6" y="10.4" fill="#FFEC00" rx="1.3"/>
                    </g>
                </g>
            </g>
        </g>
    </g>
</svg>
