<svg xmlns="http://www.w3.org/2000/svg" width="16" height="16" viewBox="0 0 16 16">
    <g fill="none" fill-rule="evenodd">
        <g>
            <g>
                <path d="M0 0H16V16H0z" transform="translate(-1379 -1580) translate(1379 1580)"/>
                <path fill="#000" fill-rule="nonzero" d="M9 1.5c1.38 0 2.5 1.12 2.5 2.5v.5h.5c1.325 0 2.41 1.032 2.495 2.336L14.5 7v5c0 1.325-1.032 2.41-2.336 2.495L12 14.5H7c-1.325 0-2.41-1.032-2.495-2.336L4.5 12v-.5H4c-1.325 0-2.41-1.032-2.495-2.336L1.5 9V4c0-1.38 1.12-2.5 2.5-2.5zM11.5 9c0 1.38-1.12 2.5-2.5 2.5H5.5v.5c0 .78.595 1.42 1.356 1.493L7 13.5h5c.78 0 1.42-.595 1.493-1.356L13.5 12V7c0-.78-.595-1.42-1.356-1.493L12 5.5h-.5zm-1-5c0-.828-.672-1.5-1.5-1.5H4c-.828 0-1.5.672-1.5 1.5v5c0 .828.672 1.5 1.5 1.5h5c.828 0 1.5-.672 1.5-1.5z" transform="translate(-1379 -1580) translate(1379 1580)"/>
            </g>
        </g>
    </g>
</svg>
