<svg xmlns="http://www.w3.org/2000/svg" width="16" height="16" viewBox="0 0 16 16">
    <g fill="none" fill-rule="evenodd">
        <g>
            <g>
                <path d="M0 0H16V16H0z" transform="translate(-935 -1510) translate(935 1510)"/>
                <path fill="#000" fill-rule="nonzero" stroke="#000" stroke-width=".2" d="M4.106 10.002c1.262 1.507 2.78 2.695 4.513 3.535.66.312 1.543.683 2.526.747.06.003.119.005.18.005.66 0 1.19-.228 1.622-.697.002-.002.008-.008.01-.013.154-.185.329-.352.512-.53.124-.12.252-.244.374-.37.564-.59.564-1.337-.006-1.906L12.245 9.18c-.27-.28-.594-.43-.933-.43-.34 0-.665.15-.944.427l-.948.95c-.088-.051-.178-.096-.263-.139-.106-.053-.204-.103-.291-.159-.864-.548-1.649-1.264-2.399-2.183-.379-.48-.633-.883-.81-1.294.249-.225.482-.46.707-.691l.244-.247c.286-.286.44-.617.44-.954 0-.336-.151-.668-.44-.954l-.79-.79c-.093-.092-.18-.182-.27-.275-.175-.18-.358-.366-.538-.533-.273-.268-.594-.408-.933-.408-.337 0-.66.14-.944.41l-.99.992c-.361.36-.565.798-.608 1.304-.05.633.067 1.306.369 2.12.464 1.259 1.163 2.427 2.202 3.676zm-1.924-5.74c.032-.353.167-.647.421-.902l.986-.985c.154-.149.324-.226.488-.226.162 0 .326.077.477.23.178.165.344.337.525.52l.275.281.79.79c.164.164.25.331.25.495 0 .165-.086.332-.25.496l-.246.25c-.247.248-.477.484-.732.71l-.013.013c-.22.22-.186.429-.133.588l.008.021c.204.49.488.957.93 1.513.796.98 1.633 1.741 2.555 2.327.114.074.236.133.35.191.106.053.204.103.292.159l.029.016c.087.045.172.066.257.066.212 0 .35-.135.395-.18l.99-.991c.154-.154.321-.236.486-.236.201 0 .365.124.469.236l1.598 1.595c.318.318.315.663-.008 1-.111.118-.228.232-.353.352-.185.18-.379.365-.553.575-.305.328-.668.482-1.137.482-.045 0-.093-.003-.138-.005-.87-.056-1.678-.395-2.285-.684-1.648-.798-3.095-1.93-4.295-3.366-.989-1.19-1.654-2.297-2.094-3.484-.273-.73-.376-1.315-.334-1.848z" transform="translate(-935 -1510) translate(935 1510)"/>
            </g>
        </g>
    </g>
</svg>
