<svg xmlns="http://www.w3.org/2000/svg" width="16" height="16" viewBox="0 0 16 16">
    <g fill="none" fill-rule="evenodd">
        <g>
            <g>
                <path d="M0 0H16V16H0z" transform="translate(-1557 -1792) translate(1557 1792)"/>
                <g fill="#000">
                    <path d="M1.5 0C2.328 0 3 .672 3 1.5S2.328 3 1.5 3 0 2.328 0 1.5.672 0 1.5 0zM7 0c.828 0 1.5.672 1.5 1.5S7.828 3 7 3s-1.5-.672-1.5-1.5S6.172 0 7 0zm5.5 0c.828 0 1.5.672 1.5 1.5S13.328 3 12.5 3 11 2.328 11 1.5 11.672 0 12.5 0z" transform="translate(-1557 -1792) translate(1557 1792) translate(1 6.5)"/>
                </g>
            </g>
        </g>
    </g>
</svg>
