<svg xmlns="http://www.w3.org/2000/svg" width="16" height="16" viewBox="0 0 16 16">
    <defs>
        <filter id="t7pnev7txa">
            <feColorMatrix in="SourceGraphic" values="0 0 0 0 0.400000 0 0 0 0 0.400000 0 0 0 0 0.400000 0 0 0 1.000000 0"/>
        </filter>
        <filter id="okqk0vglyb">
            <feColorMatrix in="SourceGraphic" values="0 0 0 0 0.400000 0 0 0 0 0.400000 0 0 0 0 0.400000 0 0 0 1.000000 0"/>
        </filter>
    </defs>
    <g fill="none" fill-rule="evenodd">
        <g>
            <g transform="translate(-540 -1385) translate(494 1309)">
                <g transform="translate(46 76)">
                    <path d="M0 0H16V16H0z"/>
                    <path fill="#666" fill-rule="nonzero" d="M12.5 2.167c1.054 0 1.918.816 1.995 1.85l.005.15v2.5c0 .817-.392 1.543-.999 2l-.001 4.135c0 .796-.596 1.454-1.363 1.525l-.137.006H4c-.786 0-1.425-.614-1.494-1.392l-.006-.139V8.667c-.56-.421-.938-1.072-.993-1.813L1.5 6.667v-2.5c0-1.055.816-1.918 1.85-1.995l.15-.005h9zM9.999 8.166l-.076.098c-.459.552-1.15.903-1.923.903-.818 0-1.545-.394-2.001-1.001-.454.607-1.18 1-1.999 1-.171 0-.338-.017-.5-.05v3.686c0 .264.18.478.411.523l.089.008h8c.242 0 .449-.185.492-.435l.008-.096V9.117c-.161.032-.329.05-.5.05-.818 0-1.545-.394-2.001-1.001zm-4.499-5h-2c-.513 0-.936.387-.993.884l-.007.117v2.5c0 .828.672 1.5 1.5 1.5.78 0 1.42-.595 1.493-1.356l.007-.144v-3.5zm7 0h-2v3.5c0 .83.672 1.5 1.5 1.5.78 0 1.42-.594 1.493-1.355l.007-.144v-2.5c0-.513-.386-.936-.883-.994l-.117-.006zm-3 0h-3v3.5c0 .732.523 1.34 1.215 1.474l.14.02.145.007c.78 0 1.42-.595 1.493-1.356l.007-.144v-3.5z"/>
                </g>
            </g>
        </g>
    </g>
</svg>
