<svg xmlns="http://www.w3.org/2000/svg" width="20" height="20" viewBox="0 0 20 20">
    <g fill="none" fill-rule="evenodd">
        <g>
            <g>
                <g>
                    <g>
                        <g>
                            <g>
                                <g>
                                    <path d="M0 0H20V20H0z" transform="translate(-314.000000, -2525.000000) translate(0.000000, 98.000000) translate(0.000000, 2052.000000) translate(0.000000, 72.000000) translate(0.000000, 136.000000) translate(40.000000, 165.000000) translate(274.000000, 2.000000)"/>
                                    <g stroke="#000" stroke-width="1.2">
                                        <path d="M12.5 3.333v10.111c0 .86-.64 1.556-1.429 1.556H3.93c-.79 0-1.429-.696-1.429-1.556V3.334h0M5 6.25L5 12.083M7.5 6.25L7.5 12.083M10 6.25L10 12.083M0 3.333L15 3.333M5.417 3.333v-1.25C5.417.933 6.349 0 7.5 0c1.15 0 2.083.933 2.083 2.083v1.25h0" transform="translate(-314.000000, -2525.000000) translate(0.000000, 98.000000) translate(0.000000, 2052.000000) translate(0.000000, 72.000000) translate(0.000000, 136.000000) translate(40.000000, 165.000000) translate(274.000000, 2.000000) translate(2.500000, 2.500000)"/>
                                    </g>
                                </g>
                            </g>
                        </g>
                    </g>
                </g>
            </g>
        </g>
    </g>
</svg>
