<svg xmlns="http://www.w3.org/2000/svg" width="16" height="16" viewBox="0 0 16 16">
    <defs>
        <filter id="t490tctqoa">
            <feColorMatrix in="SourceGraphic" values="0 0 0 0 1.000000 0 0 0 0 1.000000 0 0 0 0 1.000000 0 0 0 1.000000 0"/>
        </filter>
    </defs>
    <g fill="none" fill-rule="evenodd">
        <g filter="url(#t490tctqoa)" transform="translate(-121 -1792)">
            <g>
                <g>
                    <path d="M0 0H16V16H0z" transform="translate(121 1792)"/>
                    <g stroke="#000">
                        <path d="M6.667.5c1.703 0 3.244.69 4.36 1.806s1.806 2.658 1.806 4.36c0 .603-.086 1.186-.247 1.736-.369 1.26-1.128 2.351-2.138 3.136-.403.314-1.94 1.025-2.265 1.108-.485.122-.993.187-1.516.187-1.703 0-3.245-.69-4.36-1.806C1.19 9.911.5 8.37.5 6.667c0-1.703.69-3.245 1.806-4.36C3.422 1.19 4.964.5 6.666.5z" transform="translate(121 1792) translate(1.333 1.333)"/>
                        <path stroke-linecap="round" stroke-linejoin="round" d="M9.519 3.167L9.519 6.627 6.667 8.663" transform="translate(121 1792) translate(1.333 1.333) matrix(-1 0 0 1 16.186 0)"/>
                    </g>
                </g>
                <g>
                    <path d="M0 0H16V16H0z" transform="translate(121 1792)"/>
                    <g fill="#000" fill-rule="nonzero">
                        <path d="M6.667 0c3.682 0 6.666 2.985 6.666 6.667 0 .651-.093 1.28-.267 1.876-.399 1.36-1.22 2.541-2.311 3.39-.082.064-.207.142-.358.229l-.332.181-.374.19-.384.183-.365.166-.166.071-.282.114c-.08.03-.145.052-.189.063-.524.133-1.073.203-1.638.203C2.985 13.333 0 10.35 0 6.667 0 2.985 2.985 0 6.667 0zm0 1C3.537 1 1 3.537 1 6.667s2.537 5.666 5.667 5.666c.475 0 .942-.058 1.393-.172.056-.014.161-.054.296-.112l.304-.134.349-.163.358-.176.331-.17.27-.15c.076-.045.135-.083.173-.112.94-.73 1.63-1.74 1.965-2.882.15-.513.227-1.049.227-1.595C12.333 3.537 9.796 1 6.667 1z" transform="translate(121 1792) translate(1.333 1.333)"/>
                        <path d="M9.52 2.667c.245 0 .449.177.491.41l.008.09v3.46c0 .129-.05.252-.137.344l-.072.063L6.957 9.07c-.225.16-.537.109-.697-.116-.143-.2-.118-.469.048-.639l.068-.058L9.02 6.368V3.167c0-.246.177-.45.41-.492l.09-.008z" transform="translate(121 1792) translate(1.333 1.333) matrix(-1 0 0 1 16.186 0)"/>
                    </g>
                </g>
            </g>
        </g>
    </g>
</svg>
