<svg xmlns="http://www.w3.org/2000/svg" width="24" height="24" viewBox="0 0 24 24">
    <defs>
        <filter id="7g6vw2opra">
            <feColorMatrix in="SourceGraphic" values="0 0 0 0 0.913725 0 0 0 0 0.466667 0 0 0 0 0.466667 0 0 0 1.000000 0"/>
        </filter>
    </defs>
    <g fill="none" fill-rule="evenodd">
        <g transform="translate(-870 -1792)">
            <g>
                <path d="M0 0H24V24H0z" transform="translate(870 1792)"/>
                <g fill="#e97777" fill-rule="nonzero">
                    <path d="M7.198 0c3.37 0 6.1 2.731 6.1 6.1V12h1.145v1.2H0V12h1.098V6.1C1.098 2.806 3.71.122 6.975.004zm0 1.2c-2.706 0-4.9 2.194-4.9 4.9V12l4.3-.001V7.65c0-.331.269-.6.6-.6.298 0 .546.218.592.503l.008.097v4.349l4.3.001V6.1c0-2.633-2.077-4.781-4.681-4.895z" transform="translate(870 1792) translate(5 5.4)"/>
                </g>
            </g>
        </g>
    </g>
</svg>
