<svg xmlns="http://www.w3.org/2000/svg" width="24" height="24" viewBox="0 0 24 24">
    <g fill="none" fill-rule="evenodd">
        <g>
            <g>
                <g>
                    <g transform="translate(-24 -660) translate(0 457) translate(24 203) translate(1 3)">
                        <rect width="21.357" height="9.108" x=".522" y="6.831" stroke="#000" stroke-linecap="round" stroke-linejoin="round" stroke-width="1.2" rx="2.184"/>
                        <path fill="#000" fill-rule="nonzero" d="M5.018 15.905c.577 0 1.052-.633 1.117-.12l.007.12v2.063c0 .57-.503 1.032-1.124 1.032-.576 0-1.051-.398-1.116-.911l-.008-.12v-2.064c0-.57.503 0 1.124 0zM17.383 15.905c.576 0 1.051-.633 1.116-.12l.008.12v2.063c0 .57-.504 1.032-1.124 1.032-.577 0-1.052-.398-1.117-.911l-.007-.12v-2.064c0-.57.503 0 1.124 0z"/>
                        <path stroke="#000" stroke-linecap="round" stroke-linejoin="round" stroke-width="1.2" d="M2.649 6.83L4.85 1.028C5.065.46 5.692 0 6.236 0h9.93c.55 0 1.173.468 1.385 1.027l2.2 5.804"/>
                        <ellipse cx="4.456" cy="11.385" fill="#000" rx="1.124" ry="1.138"/>
                        <ellipse cx="17.945" cy="11.385" fill="#000" rx="1.124" ry="1.138"/>
                        <path stroke="#000" stroke-linecap="round" stroke-linejoin="round" stroke-width="1.2" d="M8.952 11.385L13.448 11.385"/>
                        <path stroke="#000" stroke-linecap="round" stroke-width="1.638" d="M19.752 6.119L21.879 5.123"/>
                        <path stroke="#000" stroke-linecap="round" stroke-width="1.638" d="M0 6.119L1.726 5.123" transform="matrix(-1 0 0 1 2.248 0)"/>
                    </g>
                </g>
            </g>
        </g>
    </g>
</svg>
