<svg xmlns="http://www.w3.org/2000/svg" width="24" height="20" viewBox="0 0 24 20">
    <defs>
        <filter id="wpqlrr00ja">
            <feColorMatrix in="SourceGraphic" values="0 0 0 0 0.000000 0 0 0 0 0.000000 0 0 0 0 0.000000 0 0 0 1.000000 0"/>
        </filter>
    </defs>
    <g fill="none" fill-rule="evenodd">
        <g filter="url(#wpqlrr00ja)" transform="translate(-24.000000, -1361.000000)">
            <g>
                <g fill="#979797" fill-rule="nonzero">
                    <path d="M9.545 3.778c1.582 0 2.864 1.268 2.864 2.833 0 1.565-1.282 2.833-2.864 2.833-1.581 0-2.863-1.268-2.863-2.833 0-1.565 1.282-2.833 2.863-2.833zm0 1.2c-.921 0-1.663.734-1.663 1.633 0 .9.742 1.633 1.663 1.633.922 0 1.664-.734 1.664-1.633 0-.9-.742-1.633-1.664-1.633z" transform="translate(24.000000, 1358.000000) translate(1.500000, 4.500000)"/>
                    <path d="M17.182-.6c1.33 0 2.419 1.035 2.504 2.344l.005.165v4.702c0 .331-.269.6-.6.6-.298 0-.546-.217-.592-.503l-.008-.097V1.91c0-.678-.515-1.235-1.175-1.302L17.182.6H1.909C1.231.6.674 1.115.607 1.775L.6 1.91v9.404c0 .678.515 1.235 1.175 1.302l.134.007H10.5c.331 0 .6.269.6.6 0 .298-.218.546-.503.592l-.097.008H1.91c-1.331 0-2.42-1.035-2.505-2.344l-.005-.165V1.91C-.6.58.435-.51 1.744-.595L1.91-.6h15.273zM18.614 12.15c.331 0 .6.269.6.6 0 .298-.218.546-.503.592l-.097.008h-3.819c-.33 0-.6-.269-.6-.6 0-.298.218-.546.503-.592l.097-.008h3.819z" transform="translate(24.000000, 1358.000000) translate(1.500000, 4.500000)"/>
                    <path d="M16.705 10.261c.298 0 .545.218.592.503l.008.097v3.778c0 .331-.27.6-.6.6-.299 0-.546-.218-.593-.503l-.007-.097V10.86c0-.331.268-.6.6-.6z" transform="translate(24.000000, 1358.000000) translate(1.500000, 4.500000)"/>
                    <path d="M19.09 7.9h-4.772c-1.386 0-2.509 1.123-2.509 2.51v4.68c0 1.387 1.123 2.51 2.51 2.51h4.772c1.386 0 2.509-1.123 2.509-2.51v-4.68c0-1.387-1.123-2.51-2.51-2.51zm-4.772 1.2h4.773c.723 0 1.309.586 1.309 1.31v4.68c0 .724-.586 1.31-1.31 1.31h-4.772c-.723 0-1.309-.586-1.309-1.31v-4.68c0-.724.586-1.31 1.31-1.31zM5.25 9.789c.331 0 .6.269.6.6 0 .298-.218.546-.503.592l-.097.008H2.386c-.331 0-.6-.269-.6-.6 0-.298.218-.546.503-.592l.097-.008H5.25zM16.705 2.233c.33 0 .6.269.6.6 0 .299-.218.546-.503.592l-.097.008H13.84c-.331 0-.6-.268-.6-.6 0-.298.217-.545.503-.592l.097-.008h2.864z" transform="translate(24.000000, 1358.000000) translate(1.500000, 4.500000)"/>
                </g>
            </g>
        </g>
    </g>
</svg>
