<svg xmlns="http://www.w3.org/2000/svg" width="24" height="24" viewBox="0 0 24 24">
    <g fill="none" fill-rule="evenodd">
        <g>
            <g>
                <path d="M0 0H24V24H0z" transform="translate(-441 -1890) translate(441 1890)"/>
                <g fill="#000" fill-rule="nonzero">
                    <path d="M15.673.78l.133.127 1.234 1.234c.526.529.813 1.315.813 2.13 0 .712-.219 1.264-.68 1.781l-.145.154-.935.9.008.007-9.315 9.314c-.233.233-.526.4-.849.48l-3.667.914c-.146.037-.296.056-.446.056-.482 0-.947-.192-1.29-.535-.452-.452-.634-1.109-.48-1.732l.916-3.676c.08-.32.246-.61.48-.844l9.225-9.227-.002-.003L11.809.718c1.015-1.02 2.767-.91 3.864.063zm-4.91 3.117L2.51 12.15l-.038.045c-.022.032-.038.068-.048.105l-.915 3.672-.009.067c-.003.09.03.177.095.242.061.06.144.095.23.095.025 0 .052-.004.078-.01l3.672-.915.055-.02c.035-.016.068-.038.096-.066l8.253-8.253-3.216-3.216zm2.201-2.2l-.091.078-1.052 1.058 3.212 3.212.943-.908c.28-.28.377-.497.377-.867 0-.382-.113-.74-.294-.976l-.082-.094-1.233-1.234c-.5-.502-1.326-.605-1.78-.27z" transform="translate(-441 -1890) translate(441 1890) translate(3 3.115)"/>
                </g>
            </g>
        </g>
    </g>
</svg>
