<svg xmlns="http://www.w3.org/2000/svg" width="20" height="20" viewBox="0 0 20 20">
    <g fill="none" fill-rule="evenodd">
        <g stroke="#000" stroke-width="1.2">
            <g>
                <g>
                    <path d="M8.883 3.488c.385.059.45.123.489.202h0l1.547 3.151 3.47.508c.11.016.203.074.264.156.06.082.09.188.075.297-.013.087-.054.167-.116.228h0l-2.514 2.463.593 3.47c.018.11-.01.216-.068.3-.06.083-.15.144-.26.162-.086.015-.176 0-.254-.04h0l-3.096-1.637-3.097 1.636c-.098.052-.207.06-.305.03-.098-.031-.184-.099-.236-.196-.04-.078-.055-.168-.04-.254h0l.592-3.47L3.413 8.03c-.079-.077-.119-.18-.12-.282 0-.102.037-.205.115-.284.06-.062.14-.103.227-.115h0l3.472-.508 1.547-3.15c.048-.1.132-.17.23-.203z" transform="translate(-34 -130) translate(24 120) translate(11 11)"/>
                    <path stroke-linecap="round" d="M4.439 3.631L3.442 2.228" transform="translate(-34 -130) translate(24 120) translate(11 11)"/>
                    <path stroke-linecap="round" d="M14.583 3.631L13.586 2.228" transform="translate(-34 -130) translate(24 120) translate(11 11) matrix(-1 0 0 1 28.17 0)"/>
                    <path stroke-linecap="round" d="M2.152 11.678L0.525 12.223" transform="translate(-34 -130) translate(24 120) translate(11 11)"/>
                    <path stroke-linecap="round" d="M17.5 11.678L15.873 12.223" transform="translate(-34 -130) translate(24 120) translate(11 11) matrix(-1 0 0 1 33.373 0)"/>
                    <path stroke-linecap="round" d="M9.013 16.276L9.013 18M9.015.739L9.015.246M17.277 6.791L17.742 6.635" transform="translate(-34 -130) translate(24 120) translate(11 11)"/>
                    <path stroke-linecap="round" d="M0.258 6.79L0.723 6.634" transform="translate(-34 -130) translate(24 120) translate(11 11) matrix(-1 0 0 1 .98 0)"/>
                    <path stroke-linecap="round" d="M3.704 16.758L3.419 17.159" transform="translate(-34 -130) translate(24 120) translate(11 11)"/>
                    <path stroke-linecap="round" d="M14.622 16.758L14.338 17.159" transform="translate(-34 -130) translate(24 120) translate(11 11) matrix(-1 0 0 1 28.96 0)"/>
                </g>
            </g>
        </g>
    </g>
</svg>
