<svg width="28" height="28" viewBox="0 0 28 28" xmlns="http://www.w3.org/2000/svg">
    <g fill="none" fill-rule="evenodd">
        <path d="M0 0h28v28H0z"/>
        <path d="M10 22H4a2 2 0 0 1-2-2V6a2 2 0 0 1 2-2h17a2 2 0 0 1 2 2v7M2 10.5h21" stroke="#000" stroke-width="1.5"/>
        <rect fill="#000" x="8" y="1.5" width="1.5" height="4.5" rx=".75"/>
        <rect fill="#000" x="15.5" y="1.5" width="1.5" height="4.5" rx=".75"/>
        <path d="M18 15.75c1.618 0 3.08.2 4.103.627.392.163.715.355.929.596a.783.783 0 0 1 .218.527c0 .2-.083.374-.218.527-.214.241-.537.433-.929.596-1.023.427-2.485.627-4.103.627-1.618 0-3.08-.2-4.103-.627-.392-.163-.715-.355-.929-.596a.783.783 0 0 1-.218-.527c0-.2.083-.374.218-.527.214-.241.537-.433.929-.596 1.023-.427 2.485-.627 4.103-.627z" stroke="#000" stroke-width="1.5"/>
        <path d="M24 17.5v3c0 1.667-2.686 2.5-6 2.5-3.222 0-5.85-.788-5.994-2.363L12 20.5v-3c0 .765.566 1.354 1.498 1.768l.002 1.233.073.072c.15.14.416.29.79.427.875.32 2.159.5 3.637.5 1.52 0 2.832-.19 3.705-.525.155-.06.282-.116.386-.167l.177-.096c.148-.089.213-.157.228-.195l.004-.017.002-1.232c.876-.389 1.428-.932 1.492-1.631L24 17.5z" fill="#000" fill-rule="nonzero"/>
        <path d="M24 20.5v3c0 1.667-2.686 2.5-6 2.5-3.222 0-5.85-.788-5.994-2.363L12 23.5v-3c0 .765.566 1.354 1.498 1.768l.002 1.233.073.072c.15.14.416.29.79.427.875.32 2.159.5 3.637.5 1.52 0 2.832-.19 3.705-.525.155-.06.282-.116.386-.167l.177-.096c.148-.089.213-.157.228-.195l.004-.017.002-1.232c.876-.389 1.428-.932 1.492-1.631L24 20.5z" fill="#000" fill-rule="nonzero"/>
    </g>
</svg>
