<svg xmlns="http://www.w3.org/2000/svg" width="24" height="24" viewBox="0 0 24 24">
    <defs>
        <filter id="cbyj5rimxa">
            <feColorMatrix in="SourceGraphic" values="0 0 0 0 0.254902 0 0 0 0 0.305882 0 0 0 0 0.498039 0 0 0 1.000000 0"/>
        </filter>
    </defs>
    <g fill="none" fill-rule="evenodd">
        <g>
            <g transform="translate(-647 -1599) translate(647 1599)">
                <g filter="url(#cbyj5rimxa)">
                    <g>
                        <path d="M0 0H24V24H0z"/>
                        <circle cx="12" cy="12" r="3" fill="#000"/>
                    </g>
                </g>
                <rect width="24" height="24" fill="#FFCF30" rx="12"/>
                <path fill="#FFF" fill-rule="nonzero" d="M12.116 7.75l.344.008c.346.017.674.059.986.126.429.092.804.247 1.125.467.327.225.586.522.773.89.189.369.281.818.281 1.345 0 .505-.092.95-.279 1.331-.185.38-.438.694-.758.941-.316.243-.684.423-1.105.54-.33.09-.68.145-1.048.163l-.28.007-.864-.001v2.683c0 .095-.053.177-.13.22l-.063.023-.057.007H9.375c-.118 0-.217-.082-.243-.193l-.007-.057V8c0-.118.082-.217.193-.243l.057-.007h2.741zm-.13 1.804h-.695v2.209h.752c1.004 0 1.45-.374 1.45-1.177 0-.41-.111-.665-.321-.796-.216-.134-.546-.214-.989-.232l-.196-.004z"/>
            </g>
        </g>
    </g>
</svg>
