<svg xmlns="http://www.w3.org/2000/svg" width="28" height="28" viewBox="0 0 28 28">
    <g fill="none" fill-rule="evenodd">
        <g>
            <g>
                <g>
                    <g>
                        <path d="M0 0H28V28H0z" transform="translate(-48 -5286) translate(48 5286)"/>
                    </g>
                    <path stroke="#000" stroke-linejoin="round" stroke-width="1.5" d="M20.52 3C22.994 3 25 5.006 25 7.48v8.64c0 2.474-2.006 4.48-4.48 4.48l-3.255-.001L14.687 25l-2.578-4.401-4.629.001C5.006 20.6 3 18.594 3 16.12V7.48C3 5.006 5.006 3 7.48 3h13.04z" transform="translate(-48 -5286) translate(48 5286)"/>
                </g>
                <path stroke="#000" stroke-linecap="round" stroke-linejoin="round" stroke-width="1.5" d="M10.242 11.422L12.837 14.422 18.242 8.422" transform="translate(-48 -5286) translate(48 5286)"/>
            </g>
        </g>
    </g>
</svg>
