<svg width="14" height="14" viewBox="0 0 14 14" xmlns="http://www.w3.org/2000/svg">
    <g fill="none" fill-rule="evenodd">
        <path d="M0 0h14v14H0z"/>
        <path d="M12.57 5.718a.592.592 0 0 0-.512-.4L8.826 5.03 7.547 2.103A.596.596 0 0 0 7 1.75a.596.596 0 0 0-.547.354L5.174 5.03l-3.233.287a.593.593 0 0 0-.512.4.574.574 0 0 0 .174.62l2.444 2.096-.72 3.105a.576.576 0 0 0 .23.601.603.603 0 0 0 .655.028L7 10.537l2.787 1.63c.204.12.462.109.655-.028a.576.576 0 0 0 .231-.601l-.72-3.105 2.443-2.096a.574.574 0 0 0 .175-.62z" fill="#F4BA3D" fill-rule="nonzero"/>
    </g>
</svg>
