<?xml version="1.0" encoding="UTF-8"?>
<svg width="29px" height="28px" viewBox="0 0 29 28" version="1.1" xmlns="http://www.w3.org/2000/svg" xmlns:xlink="http://www.w3.org/1999/xlink">
    <title>D24858BF-35FF-4DBC-AC5C-DDE60B25DACF</title>
    <g id="Page-1" stroke="none" stroke-width="1" fill="none" fill-rule="evenodd">
        <g id="2-1.자산현황_메인_회원(1/2)" transform="translate(-136.000000, -7852.000000)">
            <g id="Group-10-Copy" transform="translate(136.500000, 7852.000000)">
                <rect id="Rectangle" x="0" y="0" width="28" height="28"></rect>
                <path d="M9.61904762,24 L3.9047619,24 C2.85279095,24 2,22.9055849 2,21.5555556 L2,4.44444444 C2,3.09441506 2.85279095,2 3.9047619,2 L20.0952381,2 C21.147209,2 22,3.09441506 22,4.44444444 L22,13" id="Path" stroke="#000000" stroke-width="1.5"></path>
                <line x1="6" y1="7" x2="18" y2="7" id="Path" stroke="#000000" stroke-width="1.5"></line>
                <line x1="6" y1="11" x2="12" y2="11" id="Path" stroke="#000000" stroke-width="1.5"></line>
                <g id="Group-8" transform="translate(14.000000, 15.000000)">
                    <path d="M6,0.75 C7.61821915,0.75 9.07983752,0.950494057 10.1032863,1.37693106 C10.4953492,1.54029057 10.8179222,1.73187181 11.0315217,1.97298042 C11.1667576,2.12563319 11.25,2.29907451 11.25,2.5 C11.25,2.70092549 11.1667576,2.87436681 11.0315217,3.02701958 C10.8179222,3.26812819 10.4953492,3.45970943 10.1032863,3.62306894 C9.07983752,4.04950594 7.61821915,4.25 6,4.25 C4.38178085,4.25 2.92016248,4.04950594 1.89671367,3.62306894 C1.50465084,3.45970943 1.18207776,3.26812819 0.968478327,3.02701958 C0.833242399,2.87436681 0.75,2.70092549 0.75,2.5 C0.75,2.29907451 0.833242399,2.12563319 0.968478327,1.97298042 C1.18207776,1.73187181 1.50465084,1.54029057 1.89671367,1.37693106 C2.92016248,0.950494057 4.38178085,0.75 6,0.75 Z" id="Oval" stroke="#000000" stroke-width="1.5"></path>
                    <path d="M12,2.5 L12,5.5 C12,7.16666667 9.3137085,8 6,8 C2.77833896,8 0.149722535,7.21231996 0.00617413854,5.63695988 L0,5.5 L0,2.5 C0,3.26484769 0.56572524,3.85419778 1.49819614,4.26805028 L1.49998537,5.50084229 L1.57287244,5.57343503 C1.7220938,5.71249776 1.98923746,5.8635528 2.36361488,6.00035377 C3.23811119,6.31990281 4.52165901,6.5 6,6.5 C7.51987112,6.5 8.8323409,6.30954323 9.70523231,5.97457426 C9.86028816,5.91507214 9.98748907,5.85921734 10.0910715,5.8080158 L10.2680004,5.71211511 C10.4159484,5.62301487 10.48072,5.55521015 10.4962068,5.51674838 L10.5,5.5 L10.5018039,4.26805028 C11.3778322,3.87924831 11.9301695,3.33555151 11.9938259,2.63695988 L12,2.5 Z" id="Combined-Shape" fill="#000000" fill-rule="nonzero"></path>
                    <path d="M12,5.5 L12,8.5 C12,10.1666667 9.3137085,11 6,11 C2.77833896,11 0.149722535,10.21232 0.00617413854,8.63695988 L0,8.5 L0,5.5 C0,6.26484769 0.56572524,6.85419778 1.49819614,7.26805028 L1.49998537,8.50084229 L1.57287244,8.57343503 C1.7220938,8.71249776 1.98923746,8.8635528 2.36361488,9.00035377 C3.23811119,9.31990281 4.52165901,9.5 6,9.5 C7.51987112,9.5 8.8323409,9.30954323 9.70523231,8.97457426 C9.86028816,8.91507214 9.98748907,8.85921734 10.0910715,8.8080158 L10.2680004,8.71211511 C10.4159484,8.62301487 10.48072,8.55521015 10.4962068,8.51674838 L10.5,8.5 L10.5018039,7.26805028 C11.3778322,6.87924831 11.9301695,6.33555151 11.9938259,5.63695988 L12,5.5 Z" id="Combined-Shape" fill="#000000" fill-rule="nonzero"></path>
                </g>
            </g>
        </g>
    </g>
</svg>