<svg xmlns="http://www.w3.org/2000/svg" width="16" height="16" viewBox="0 0 16 16">
    <g fill="none" fill-rule="evenodd">
        <g>
            <g>
                <path d="M0 0H16V16H0z" transform="translate(-1848 -1382) translate(1848 1382)"/>
                <g fill="#000" fill-rule="nonzero">
                    <path d="M14.516 4.334c.41.37.445 1.002.075 1.413l-.075.075-3.132 2.816c-2.252 2.024-5.668 2.024-7.92 0L.331 5.822c-.41-.37-.444-1.002-.075-1.413l.075-.075 3.133-2.816c2.252-2.024 5.668-2.024 7.92 0l3.132 2.816zm-.668.744l-3.133-2.816C8.9.629 6.17.58 4.3 2.118l-.167.144L1 5.078l3.133 2.816c1.816 1.633 4.544 1.681 6.414.144l.168-.144 3.133-2.816z" transform="translate(-1848 -1382) translate(1848 1382) translate(.576 2.922)"/>
                    <path d="M7.424 2.678c1.325 0 2.4 1.075 2.4 2.4 0 1.326-1.075 2.4-2.4 2.4-1.326 0-2.4-1.074-2.4-2.4 0-1.325 1.074-2.4 2.4-2.4zm0 1c-.773 0-1.4.627-1.4 1.4 0 .773.627 1.4 1.4 1.4.773 0 1.4-.627 1.4-1.4 0-.773-.627-1.4-1.4-1.4z" transform="translate(-1848 -1382) translate(1848 1382) translate(.576 2.922)"/>
                </g>
            </g>
        </g>
    </g>
</svg>
