<svg xmlns="http://www.w3.org/2000/svg" width="12" height="12" viewBox="0 0 12 12">
    <g fill="none" fill-rule="evenodd">
        <g>
            <g>
                <path d="M0 0H12V12H0z" transform="translate(-288 -2088) translate(288 2088)"/>
                <path fill="#C52DF6" d="M6.582 3.874l2.692 4.038c.215.321.128.756-.194.97-.115.077-.25.118-.388.118H3.308c-.387 0-.7-.313-.7-.7 0-.138.04-.273.118-.388l2.692-4.038c.214-.322.649-.409.97-.194.077.05.143.117.194.194z" transform="translate(-288 -2088) translate(288 2088) rotate(-180 6 6)"/>
            </g>
        </g>
    </g>
</svg>
