<svg xmlns="http://www.w3.org/2000/svg" width="24" height="24" viewBox="0 0 24 24">
    <g fill="none" fill-rule="evenodd">
        <g>
            <g>
                <g>
                    <g transform="translate(-16 -1748) translate(0 1634) translate(16 92) translate(0 22)">
                        <rect width="24" height="24" fill="#3048A2" rx="12"/>
                        <g fill="#FFF">
                            <path d="M2.895 1.333v.905c0 .531.43.962.962.962.531 0 .962-.43.962-.962v-.905H7.18l.001.905c0 .531.43.962.962.962.531 0 .962-.43.962-.962l-.001-.905h1.753c.631 0 1.143.531 1.143 1.186v8.296c0 .654-.512 1.185-1.143 1.185H1.143C.512 12 0 11.47 0 10.815V2.519c0-.655.512-1.186 1.143-1.186h1.752zM4 8H2.667v1.333H4V8zm2.667 0H5.333v1.333h1.334V8zm2.666 0H8v1.333h1.333V8zM4 5.333H2.667v1.334H4V5.333zm2.667 0H5.333v1.334h1.334V5.333zm2.666 0H8v1.334h1.333V5.333zM3.857 0c.237 0 .429.192.429.429v1.81c0 .236-.192.428-.429.428s-.428-.192-.428-.429V.428c0-.236.191-.428.428-.428zm4.286 0c.237 0 .428.192.428.429v1.81c0 .236-.191.428-.428.428s-.429-.192-.429-.429V.428c0-.236.192-.428.429-.428z" transform="translate(6 5.333)"/>
                        </g>
                    </g>
                </g>
            </g>
        </g>
    </g>
</svg>
