<svg xmlns="http://www.w3.org/2000/svg" xmlns:xlink="http://www.w3.org/1999/xlink" width="32" height="32" viewBox="0 0 32 32">
    <defs>
        <rect id="1m0v20rmma" width="30" height="30" x="0" y="0" rx="15"/>
    </defs>
    <g fill="none" fill-rule="evenodd">
        <g>
            <g>
                <g transform="translate(-24 -1181) translate(24 1181) translate(1 1)">
                    <mask id="vtypoj4axb" fill="#fff">
                        <use xlink:href="#1m0v20rmma"/>
                    </mask>
                    <use fill="#1C63D6" xlink:href="#1m0v20rmma"/>
                    <g mask="url(#vtypoj4axb)">
                        <g transform="translate(4.688 4.688)">
                            <path d="M0 0H20.625V20.625H0z" opacity=".2"/>
                            <path fill="#FFF" d="M10.068 4.861l.105.002.284.014c.362.02.659.047.891.083 1.453.225 2.635.702 3.725 1.818 1.409 1.442 2.069 3.07 1.741 4.564-.208.952-1.347 1.755-3.393 2.47-.554.192-1.157-.083-1.38-.618l-.013-.03c-.297-.993-.435-2.04-.398-3.108.005-.154-.115-.283-.268-.288-.154-.006-.283.115-.288.268-.038 1.096.097 2.17.393 3.193-3.231.446-6.334-.577-7.365-2.361l-.047-.085c-.328-.615-.44-1.413-.346-2.391.052-.543.493-.963 1.031-.994l.065-.002h1.58c.28 0 .54-.135.703-.36l.035-.053.45-.733c.533-.869 1.48-1.393 2.495-1.389z"/>
                            <circle cx="8.961" cy="8.155" r="1" fill="#333D4B"/>
                            <path fill="#A7C8FF" fill-rule="nonzero" d="M16.493 13.296c.12-.095.296-.075.391.046.096.12.075.295-.045.39-1.79 1.42-4.003 2.206-6.336 2.206-.153 0-.278-.125-.278-.279 0-.153.125-.278.278-.278 2.206 0 4.298-.742 5.99-2.085z"/>
                        </g>
                    </g>
                </g>
            </g>
        </g>
    </g>
</svg>
