<svg xmlns="http://www.w3.org/2000/svg" width="28" height="28" viewBox="0 0 28 28">
    <g fill="none" fill-rule="evenodd">
        <g>
            <g>
                <path d="M0 0H28V28H0z" transform="translate(-1312 -1809) translate(1312 1809)"/>
                <path fill="#000" d="M14 0c7.732 0 14 6.268 14 14s-6.268 14-14 14S0 21.732 0 14 6.268 0 14 0zm0 1C6.82 1 1 6.82 1 14s5.82 13 13 13 13-5.82 13-13S21.18 1 14 1zm.75 8v4.25H19v1.5h-4.25V19h-1.5v-4.25H9v-1.5h4.25V9h1.5z" transform="translate(-1312 -1809) translate(1312 1809)"/>
            </g>
        </g>
    </g>
</svg>
