<svg width="16" height="16" viewBox="0 0 16 16" xmlns="http://www.w3.org/2000/svg">
    <g fill="none" fill-rule="evenodd">
        <path d="M0 0h16v16H0z"/>
        <path d="M13.894 12.798 8.63 3.383A.726.726 0 0 0 8 3a.726.726 0 0 0-.63.383l-5.264 9.415a.847.847 0 0 0-.011.8c.13.248.375.402.64.402h10.53c.265 0 .51-.154.64-.403a.847.847 0 0 0-.01-.8zm-5.89-6.541c.302 0 .558.183.558.51 0 .994-.108 2.424-.108 3.419 0 .259-.264.367-.45.367-.248 0-.457-.108-.457-.367 0-.995-.109-2.425-.109-3.42 0-.326.248-.51.566-.51zm.008 6.16c-.341 0-.597-.3-.597-.643 0-.351.256-.644.597-.644.318 0 .589.293.589.644 0 .343-.271.644-.59.644z" fill="#DA1D1D" fill-rule="nonzero"/>
    </g>
</svg>
