<svg xmlns="http://www.w3.org/2000/svg" width="24" height="24" viewBox="0 0 24 24">
    <g fill="none" fill-rule="evenodd">
        <g>
            <g>
                <path d="M0 0H24V24H0z" transform="translate(-1280 -1792) translate(1280 1792)"/>
                <g fill="#000" fill-rule="nonzero">
                    <path d="M7.87 0c.664 0 1.3.263 1.768.732l6.83 6.83c.976.976.976 2.558 0 3.534l-5.372 5.372c-.976.976-2.558.976-3.534 0l-6.83-6.83C.263 9.17 0 8.534 0 7.871V2.499C0 1.12 1.119 0 2.5 0zm0 1.2H2.5c-.718 0-1.3.582-1.3 1.3v5.37c0 .345.137.676.38.92l6.83 6.83c.508.507 1.33.507 1.838 0l5.371-5.372c.508-.508.508-1.33 0-1.838L8.79 1.58c-.243-.243-.574-.38-.918-.38zM5.556 3.055c1.118 0 2.024.907 2.024 2.025 0 1.118-.906 2.024-2.024 2.024-1.119 0-2.025-.906-2.025-2.024 0-1.118.906-2.025 2.025-2.025zm0 1.2c-.456 0-.825.37-.825.825 0 .455.37.824.825.824.455 0 .824-.369.824-.824 0-.456-.37-.825-.824-.825z" transform="translate(-1280 -1792) translate(1280 1792) translate(4.107 3.607)"/>
                </g>
            </g>
        </g>
    </g>
</svg>
