<?xml version="1.0" encoding="UTF-8"?>
<svg width="18px" height="18px" viewBox="0 0 18 18" version="1.1" xmlns="http://www.w3.org/2000/svg" xmlns:xlink="http://www.w3.org/1999/xlink">
    <title>icon / common / view / line / 18</title>
    <g id="07_디스커버-커뮤니티" stroke="none" stroke-width="1" fill="none" fill-rule="evenodd">
        <g id="07_디스커버_커뮤니티_스크롤-정의-(하단-화면-스크롤-발생)" transform="translate(-84.000000, -142.000000)">
            <g id="+-Contents" transform="translate(0.000000, -88.000000)">
                <g id="++-List-1" transform="translate(0.000000, 91.000000)">
                    <g id="List" transform="translate(24.000000, 64.000000)">
                        <g id="Sub-Text" transform="translate(0.000000, 74.000000)">
                            <g id="View" transform="translate(60.000000, 0.000000)">
                                <g id="icon-/-common-/-view-/-line-/-18" transform="translate(-0.000000, 1.000000)">
                                    <rect id="Rectangle" x="0" y="0" width="18" height="18"></rect>
                                    <g id="Group-2" transform="translate(0.501366, 2.500000)" fill="#666666" fill-rule="nonzero">
                                        <path d="M3.95289584,1.77256603 C6.58188525,-0.590855345 10.5701284,-0.590855345 13.1991178,1.77256603 L13.1991178,1.77256603 L16.6531631,4.87770005 C17.2729922,5.434917 17.3237494,6.38910139 16.7575199,7.01869181 L16.7575199,7.01869181 L16.6921874,7.08530178 L13.1991178,10.227434 C10.5701284,12.5908553 6.58188525,12.5908553 3.95289584,10.227434 L3.95289584,10.227434 L0.498850561,7.12229995 C-0.120978588,6.565083 -0.171735804,5.61089861 0.394493731,4.98130819 L0.394493731,4.98130819 L0.459826167,4.91469822 Z M12.5305703,2.51623548 C10.2817587,0.494588172 6.87025491,0.494588172 4.62155607,2.5161341 L4.62155607,2.5161341 L1.1570348,5.63046658 L1.1291506,5.65961695 C0.941162231,5.86872881 0.9582862,6.19064214 1.16739805,6.3786305 L1.16739805,6.3786305 L4.62144333,9.48376452 C6.87025491,11.5054118 10.2817587,11.5054118 12.5304575,9.4838659 L12.5304575,9.4838659 L15.9949788,6.36953342 L16.022863,6.34038305 C16.2108514,6.13127119 16.1937274,5.80935786 15.9846156,5.6213695 L15.9846156,5.6213695 Z M8.57600681,2.9005721 C10.2877736,2.9005721 11.6754347,4.28823324 11.6754347,6 C11.6754347,7.71176676 10.2877736,9.0994279 8.57600681,9.0994279 C6.86424004,9.0994279 5.4765789,7.71176676 5.4765789,6 C5.4765789,4.28823324 6.86424004,2.9005721 8.57600681,2.9005721 Z M8.57600681,3.9005721 C7.41652479,3.9005721 6.4765789,4.84051799 6.4765789,6 C6.4765789,7.15948201 7.41652479,8.0994279 8.57600681,8.0994279 C9.73548882,8.0994279 10.6754347,7.15948201 10.6754347,6 C10.6754347,4.84051799 9.73548882,3.9005721 8.57600681,3.9005721 Z" id="Combined-Shape"></path>
                                    </g>
                                </g>
                            </g>
                        </g>
                    </g>
                </g>
            </g>
        </g>
    </g>
</svg>