<svg xmlns="http://www.w3.org/2000/svg" width="24" height="24" viewBox="0 0 24 24">
    <g fill="none" fill-rule="evenodd">
        <g>
            <g>
                <path d="M0 0H24V24H0z" transform="translate(-1084 -1792) translate(1084 1792)"/>
                <g fill="#000" fill-rule="nonzero">
                    <path d="M17.6 0c.884 0 1.6.716 1.6 1.6v14c0 .884-.716 1.6-1.6 1.6h-16c-.884 0-1.6-.716-1.6-1.6v-14C0 .716.716 0 1.6 0zm0 1.2h-16c-.22 0-.4.18-.4.4v14c0 .22.18.4.4.4l.442-.001 4.509-5.113c.51-.578 1.353-.705 2.007-.323l.128.084 1.492 1.074c.152.11.355.098.493-.02l.054-.056 2.82-3.563c.548-.693 1.554-.81 2.247-.262l.053.044.051.046 2.103 1.978L18 1.6c0-.193-.137-.355-.32-.392L17.6 1.2zm-3.058 7.568l-.056.059-2.82 3.563c-.5.631-1.383.787-2.064.387l-.126-.082-1.491-1.075c-.144-.103-.334-.099-.47.002l-.064.058L3.64 16 17.6 16c.193 0 .355-.137.392-.32L18 15.6l-.001-4.064-2.925-2.752-.026-.023c-.152-.12-.363-.112-.506.007zM6.1 4c1.16 0 2.1.94 2.1 2.1 0 1.16-.94 2.1-2.1 2.1C4.94 8.2 4 7.26 4 6.1 4 4.94 4.94 4 6.1 4zm0 1.2c-.497 0-.9.403-.9.9s.403.9.9.9.9-.403.9-.9-.403-.9-.9-.9z" transform="translate(-1084 -1792) translate(1084 1792) translate(2.4 3.4)"/>
                </g>
            </g>
        </g>
    </g>
</svg>
