<svg xmlns="http://www.w3.org/2000/svg" xmlns:xlink="http://www.w3.org/1999/xlink" width="24" height="24" viewBox="0 0 24 24">
    <defs>
        <path id="x01qoxy19a" d="M0 0H24V24H0z"/>
    </defs>
    <g fill="none" fill-rule="evenodd">
        <g>
            <g>
                <g>
                    <g transform="translate(-148 -706) translate(0 98) translate(0 598) translate(148 10)">
                        <mask id="ap0yixpf5b" fill="#fff">
                            <use xlink:href="#x01qoxy19a"/>
                        </mask>
                        <g fill="#000" fill-rule="nonzero" mask="url(#ap0yixpf5b)">
                            <g>
                                <path d="M16.86 5.85c2.772 0 5.04 2.07 5.04 4.65 0 2.511-2.147 4.538-4.816 4.645l-.223.005h-4.2c-.332 0-.6-.269-.6-.6 0-.298.217-.546.502-.592l.097-.008h4.2c2.133 0 3.84-1.558 3.84-3.45 0-1.831-1.6-3.349-3.634-3.445l-.205-.005H12.66c-.331 0-.6-.268-.6-.6 0-.298.217-.545.503-.592l.097-.008h4.2zm-8.52 0c.331 0 .6.269.6.6 0 .298-.217.546-.503.592l-.097.008H4.1C1.991 7.05.301 8.606.301 10.5c0 1.833 1.582 3.349 3.595 3.445l.203.005h4.085c.331 0 .6.268.6.6 0 .298-.218.545-.503.592l-.097.008H4.099c-2.75 0-4.998-2.07-4.998-4.65 0-2.51 2.128-4.538 4.776-4.645L4.1 5.85H8.34z" transform="translate(2 2) rotate(-45 10.5 10.5)"/>
                                <path d="M14.55 9.9c.331 0 .6.269.6.6 0 .298-.218.546-.503.592l-.097.008h-8.1c-.331 0-.6-.269-.6-.6 0-.298.218-.546.503-.592L6.45 9.9h8.1z" transform="translate(2 2) rotate(-45 10.5 10.5)"/>
                            </g>
                        </g>
                    </g>
                </g>
            </g>
        </g>
    </g>
</svg>
