<svg xmlns="http://www.w3.org/2000/svg" width="16" height="16" viewBox="0 0 16 16">
    <defs>
        <filter id="64ntgmf71a">
            <feColorMatrix in="SourceGraphic" values="0 0 0 0 0.000000 0 0 0 0 0.000000 0 0 0 0 0.000000 0 0 0 1.000000 0"/>
        </filter>
        <filter id="fdtbh1u87b">
            <feColorMatrix in="SourceGraphic" values="0 0 0 0 0.400000 0 0 0 0 0.400000 0 0 0 0 0.400000 0 0 0 1.000000 0"/>
        </filter>
    </defs>
    <g fill="none" fill-rule="evenodd">
        <g>
            <g filter="url(#64ntgmf71a)" transform="translate(-633 -1385) translate(633 1309)">
                <g filter="url(#fdtbh1u87b)" transform="translate(0 76)">
                    <path d="M0 0H16V16H0z"/>
                    <path fill="#000" fill-rule="nonzero" d="M11.726 1.886c1.576 0 2.865 1.232 2.955 2.786l.005.174v4.023c0 1.576-1.233 2.865-2.787 2.955l-.173.005-1.643-.002L8.73 13.93c-.126.195-.38.235-.557.117l-.063-.051-.052-.066L6.7 11.827l-2.426.002c-1.518 0-2.769-1.143-2.94-2.615l-.015-.172-.005-.173V4.846c0-1.577 1.233-2.865 2.786-2.955l.174-.005h7.452zm0 .8H4.274c-1.14 0-2.075.885-2.154 2.005l-.006.155v4.023c0 1.14.885 2.075 2.006 2.154l.154.006 2.645-.001c.109 0 .212.044.286.12l.05.063 1.137 1.765L9.53 11.21c.044-.068.107-.12.18-.152l.076-.023.08-.008h1.86c1.142 0 2.076-.884 2.155-2.005l.006-.154V4.846c0-1.141-.885-2.076-2.006-2.155l-.154-.005zm-1.172 3.657c.287 0 .52.233.52.52 0 .287-.233.52-.52.52-.287 0-.52-.233-.52-.52 0-.287.233-.52.52-.52zm-2.56 0c.287 0 .52.233.52.52 0 .287-.233.52-.52.52-.287 0-.52-.233-.52-.52 0-.287.233-.52.52-.52zm-2.56 0c.287 0 .52.233.52.52 0 .287-.233.52-.52.52-.287 0-.52-.233-.52-.52 0-.287.233-.52.52-.52z"/>
                </g>
            </g>
        </g>
    </g>
</svg>
