<svg xmlns="http://www.w3.org/2000/svg" width="16" height="16" viewBox="0 0 16 16">
    <defs>
        <filter id="wydc75buoa">
            <feColorMatrix in="SourceGraphic" values="0 0 0 0 0.400000 0 0 0 0 0.400000 0 0 0 0 0.400000 0 0 0 1.000000 0"/>
        </filter>
    </defs>
    <g fill="none" fill-rule="evenodd">
        <g transform="translate(-1894 -1382)">
            <g>
                <path d="M0 0H16V16H0z" transform="translate(1894 1382)"/>
                <g fill="#666" fill-rule="nonzero">
                    <path d="M15.012 7.176c.41.37.444 1.001.075 1.412l-.075.075-3.133 2.816c-2.251 2.025-5.667 2.025-7.92 0L.828 8.663C.417 8.294.383 7.662.752 7.251l.075-.075L3.96 4.36c2.252-2.025 5.668-2.025 7.92 0l3.132 2.816zm-.669.744l-3.132-2.817C9.394 3.47 6.666 3.423 4.796 4.96l-.168.144L1.496 7.92l3.132 2.816c1.817 1.633 4.545 1.68 6.415.144l.168-.144 3.132-2.816z" transform="translate(1894 1382) translate(.08 .08)"/>
                    <path d="M7.92 5.52c1.325 0 2.4 1.074 2.4 2.4 0 1.325-1.075 2.4-2.4 2.4-1.326 0-2.4-1.075-2.4-2.4 0-1.326 1.074-2.4 2.4-2.4zm0 1c-.774 0-1.4.626-1.4 1.4 0 .773.626 1.4 1.4 1.4.773 0 1.4-.627 1.4-1.4 0-.774-.627-1.4-1.4-1.4z" transform="translate(1894 1382) translate(.08 .08)"/>
                </g>
            </g>
        </g>
    </g>
</svg>
