<svg xmlns="http://www.w3.org/2000/svg" width="20" height="20" viewBox="0 0 20 20">
    <g fill="none" fill-rule="evenodd">
        <g>
            <g>
                <path d="M0 0H20V20H0z" transform="translate(-346 -1792) translate(346 1792)"/>
                <g fill="#000" fill-rule="nonzero">
                    <path d="M12.6 8c.298 0 .546.218.592.503l.008.097v5c0 .298-.218.546-.503.592l-.097.008H.6c-.298 0-.546-.218-.592-.503L0 13.6v-5c0-.331.269-.6.6-.6.298 0 .546.218.592.503L1.2 8.6V13H12V8.6c0-.298.218-.546.503-.592L12.6 8zM6.259.106c.234-.162.557-.139.765.07l3 3 .07.083c.162.234.139.557-.07.765l-.083.07c-.234.162-.557.139-.765-.07L7.2 2.05v7.9H6v-7.9L4.024 4.024l-.083.07c-.234.162-.557.139-.765-.07-.235-.234-.235-.614 0-.848l3-3z" transform="translate(-346 -1792) translate(346 1792) translate(3.4 2.9)"/>
                </g>
            </g>
        </g>
    </g>
</svg>
