<svg xmlns="http://www.w3.org/2000/svg" width="28" height="28" viewBox="0 0 28 28">
    <g fill="none" fill-rule="evenodd">
        <g>
            <g>
                <path d="M0 0H28V28H0z" transform="translate(-122 -3199) translate(122 3199)"/>
                <path stroke="#000" stroke-linecap="square" stroke-width="1.5" d="M12.375 10.375L5.625 10.375" transform="translate(-122 -3199) translate(122 3199) matrix(0 -1 -1 0 19.375 19.375)"/>
                <path stroke="#000" stroke-linecap="round" stroke-linejoin="round" stroke-width="1.5" d="M7.5 16.5L10.5 13.5 7.5 10.5" transform="translate(-122 -3199) translate(122 3199) matrix(0 1 1 0 -4.5 4.5)"/>
                <path stroke="#000" stroke-width="1.5" d="M20 14.75c1.618 0 3.08.2 4.103.627.392.163.715.355.929.596.135.153.218.326.218.527 0 .2-.083.374-.218.527-.214.241-.537.433-.929.596-1.023.427-2.485.627-4.103.627-1.618 0-3.08-.2-4.103-.627-.392-.163-.715-.355-.929-.596-.135-.153-.218-.326-.218-.527 0-.2.083-.374.218-.527.214-.241.537-.433.929-.596 1.023-.427 2.485-.627 4.103-.627z" transform="translate(-122 -3199) translate(122 3199)"/>
                <path fill="#000" fill-rule="nonzero" d="M26 16.5v3c0 1.667-2.686 2.5-6 2.5-3.222 0-5.85-.788-5.994-2.363L14 19.5v-3c0 .765.566 1.354 1.498 1.768l.002 1.233.073.072c.15.14.416.29.79.427.875.32 2.159.5 3.637.5 1.52 0 2.832-.19 3.705-.525.155-.06.282-.116.386-.167l.177-.096c.148-.089.213-.157.228-.195l.004-.017.002-1.232c.876-.389 1.428-.932 1.492-1.631L26 16.5z" transform="translate(-122 -3199) translate(122 3199)"/>
                <path fill="#000" fill-rule="nonzero" d="M26 19.5v3c0 1.667-2.686 2.5-6 2.5-3.222 0-5.85-.788-5.994-2.363L14 22.5v-3c0 .765.566 1.354 1.498 1.768l.002 1.233.073.072c.15.14.416.29.79.427.875.32 2.159.5 3.637.5 1.52 0 2.832-.19 3.705-.525.155-.06.282-.116.386-.167l.177-.096c.148-.089.213-.157.228-.195l.004-.017.002-1.232c.876-.389 1.428-.932 1.492-1.631L26 19.5z" transform="translate(-122 -3199) translate(122 3199)"/>
                <path stroke="#000" stroke-width="1.5" d="M10 21H4c-1.105 0-2-.895-2-2V5c0-1.105.895-2 2-2h17c1.105 0 2 .895 2 2v7" transform="translate(-122 -3199) translate(122 3199)"/>
            </g>
        </g>
    </g>
</svg>
