<svg xmlns="http://www.w3.org/2000/svg" width="16" height="16" viewBox="0 0 16 16">
    <g fill="none" fill-rule="evenodd">
        <g>
            <g>
                <g>
                    <path d="M0 0H16V16H0z" transform="translate(-72.000000, -115.000000) translate(24.000000, 104.000000) translate(48.000000, 11.000000)"/>
                    <g fill="#F4BA3D" fill-rule="nonzero">
                        <path d="M12.767 4.535c-.084-.254-.314-.434-.586-.458l-3.694-.328L7.026.404C6.918.159 6.673 0 6.4 0s-.518.159-.626.404L4.314 3.75l-3.695.328c-.272.025-.501.204-.586.458-.084.253-.006.531.2.707l2.792 2.396-.823 3.548c-.06.26.043.53.264.687.119.084.258.127.399.127.12 0 .24-.032.348-.095L6.4 10.042l3.186 1.863c.233.137.527.125.747-.032.222-.157.325-.427.265-.687l-.823-3.548 2.792-2.396c.205-.176.284-.453.2-.707z" transform="translate(-72.000000, -115.000000) translate(24.000000, 104.000000) translate(48.000000, 11.000000) translate(1.600000, 2.000000)"/>
                    </g>
                </g>
            </g>
        </g>
    </g>
</svg>
