<svg xmlns="http://www.w3.org/2000/svg" xmlns:xlink="http://www.w3.org/1999/xlink" width="24" height="24" viewBox="0 0 24 24">
    <defs>
        <rect id="sli0mjyaba" width="24" height="24" x="0" y="0" rx="12"/>
    </defs>
    <g fill="none" fill-rule="evenodd">
        <g>
            <g transform="translate(-457 -1599) translate(457 1599)">
                <mask id="r9bsxf4wab" fill="#fff">
                    <use xlink:href="#sli0mjyaba"/>
                </mask>
                <use fill="#3068FB" xlink:href="#sli0mjyaba"/>
                <path fill="#FFF" d="M14.718 7c2.089 0 3.782 1.693 3.782 3.782v2.036c0 2.089-1.693 3.782-3.782 3.782h-.789L12.406 19l-1.523-2.4H9.282c-2.089 0-3.782-1.693-3.782-3.782v-2.036C5.5 8.693 7.193 7 9.282 7h5.436zm-.077 4.26c-.297 0-.537.244-.537.546 0 .302.24.546.537.546.297 0 .538-.244.538-.546 0-.302-.24-.546-.538-.546zm-2.647 0c-.297 0-.538.244-.538.546 0 .302.241.546.538.546.297 0 .538-.244.538-.546 0-.302-.24-.546-.538-.546zm-2.647 0c-.297 0-.538.244-.538.546 0 .302.24.546.538.546.297 0 .538-.244.538-.546 0-.302-.241-.546-.538-.546z" mask="url(#r9bsxf4wab)"/>
            </g>
        </g>
    </g>
</svg>
