<svg xmlns="http://www.w3.org/2000/svg" width="28" height="28" viewBox="0 0 28 28">
    <g fill="none" fill-rule="evenodd">
        <g>
            <g transform="translate(-129 -2326) translate(129 2326)">
                <path d="M0 0H28V28H0z"/>
                <path stroke="#000" stroke-linejoin="round" stroke-width="1.5" d="M18.294 14.44V2.837c0-.46-.396-.837-.88-.837H5.174c-.485 0-.88.377-.88.837v20.326c0 .46.395.837.88.837h4.32"/>
                <rect width="3" height="1.5" x="9.794" y="3.915" fill="#000" rx=".75"/>
                <g>
                    <path stroke="#000" stroke-width="1.5" d="M6 .75c1.618 0 3.08.2 4.103.627.392.163.715.355.929.596.135.153.218.326.218.527 0 .2-.083.374-.218.527-.214.241-.537.433-.929.596C9.08 4.05 7.618 4.25 6 4.25c-1.618 0-3.08-.2-4.103-.627-.392-.163-.715-.355-.929-.596C.833 2.874.75 2.701.75 2.5c0-.2.083-.374.218-.527.214-.241.537-.433.929-.596C2.92.95 4.382.75 6 .75z" transform="translate(12 16)"/>
                    <path fill="#000" fill-rule="nonzero" d="M12 2.5v3C12 7.167 9.314 8 6 8 2.778 8 .15 7.212.006 5.637L0 5.5v-3c0 .765.566 1.354 1.498 1.768L1.5 5.501l.073.072c.15.14.416.29.79.427.875.32 2.159.5 3.637.5 1.52 0 2.832-.19 3.705-.525.155-.06.282-.116.386-.167l.177-.096c.148-.089.213-.157.228-.195L10.5 5.5l.002-1.232c.876-.389 1.428-.932 1.492-1.631L12 2.5z" transform="translate(12 16)"/>
                    <path fill="#000" fill-rule="nonzero" d="M12 5.5v3c0 1.667-2.686 2.5-6 2.5-3.222 0-5.85-.788-5.994-2.363L0 8.5v-3c0 .765.566 1.354 1.498 1.768L1.5 8.501l.073.072c.15.14.416.29.79.427.875.32 2.159.5 3.637.5 1.52 0 2.832-.19 3.705-.525.155-.06.282-.116.386-.167l.177-.096c.148-.089.213-.157.228-.195L10.5 8.5l.002-1.232c.876-.389 1.428-.932 1.492-1.631L12 5.5z" transform="translate(12 16)"/>
                </g>
            </g>
        </g>
    </g>
</svg>
