<svg xmlns="http://www.w3.org/2000/svg" width="24" height="24" viewBox="0 0 24 24">
    <defs>
        <filter id="whq3o8s8qa">
            <feColorMatrix in="SourceGraphic" values="0 0 0 0 0.000000 0 0 0 0 0.000000 0 0 0 0 0.000000 0 0 0 1.000000 0"/>
        </filter>
    </defs>
    <g fill="none" fill-rule="evenodd">
        <g filter="url(#whq3o8s8qa)" transform="translate(-346 -1890)">
            <g>
                <path d="M0 0H24V24H0z" transform="translate(346 1890)"/>
                <g fill="#000" fill-rule="nonzero">
                    <path d="M12 0c1.657 0 3 1.343 3 3s-1.343 3-3 3c-.783 0-1.495-.3-2.03-.79L5.736 8.765C5.905 9.142 6 9.56 6 10c0 .44-.095.858-.265 1.235L9.97 14.79C10.505 14.3 11.217 14 12 14c1.657 0 3 1.343 3 3s-1.343 3-3 3-3-1.343-3-3c0-.328.053-.644.15-.94l-4.356-3.655C4.294 12.779 3.673 13 3 13c-1.657 0-3-1.343-3-3s1.343-3 3-3c.673 0 1.293.221 1.794.595L9.15 3.94C9.053 3.644 9 3.328 9 3c0-1.657 1.343-3 3-3zm0 15.5c-.828 0-1.5.672-1.5 1.5s.672 1.5 1.5 1.5 1.5-.672 1.5-1.5-.672-1.5-1.5-1.5zm-9-7c-.828 0-1.5.672-1.5 1.5s.672 1.5 1.5 1.5 1.5-.672 1.5-1.5S3.828 8.5 3 8.5zm9-7c-.828 0-1.5.672-1.5 1.5s.672 1.5 1.5 1.5 1.5-.672 1.5-1.5-.672-1.5-1.5-1.5z" transform="translate(346 1890) translate(4.5 2)"/>
                </g>
            </g>
        </g>
    </g>
</svg>
