<svg xmlns="http://www.w3.org/2000/svg" xmlns:xlink="http://www.w3.org/1999/xlink" width="24" height="24" viewBox="0 0 24 24">
    <defs>
        <rect id="mn1e2tjz2a" width="24" height="24" x="0" y="0" rx="12"/>
    </defs>
    <g fill="none" fill-rule="evenodd">
        <g>
            <g transform="translate(-742 -1599) translate(742 1599)">
                <mask id="tvit521fqb" fill="#fff">
                    <use xlink:href="#mn1e2tjz2a"/>
                </mask>
                <use fill="#25C4CC" xlink:href="#mn1e2tjz2a"/>
                <path fill="#FFF" d="M18 7c1.105 0 2 .895 2 2v1.846c-.592 0-1.071.517-1.071 1.154 0 .637.48 1.154 1.071 1.154V15c0 1.105-.895 2-2 2H7c-1.105 0-2-.895-2-2v-1.846c.592 0 1.071-.517 1.071-1.154 0-.637-.48-1.154-1.071-1.154V9c0-1.105.895-2 2-2h11zm-3.486 2.91c-.204-.198-.508-.215-.725-.06l-.077.067-3.232 3.333c-.2.206-.223.52-.067.751l.073.089c.204.198.508.215.725.06l.077-.067 3.232-3.333c.2-.206.223-.52.067-.751l-.073-.089zm-.492 2.733c-.42 0-.762.351-.762.785 0 .434.341.786.762.786s.762-.352.762-.786c0-.434-.341-.785-.762-.785zm-3.047-2.859c-.421 0-.762.352-.762.786 0 .434.341.786.762.786.42 0 .762-.352.762-.786 0-.434-.341-.786-.762-.786z" mask="url(#tvit521fqb)"/>
            </g>
        </g>
    </g>
</svg>
