<?xml version="1.0" encoding="UTF-8"?>
<svg width="24px" height="24px" viewBox="0 0 24 24" version="1.1" xmlns="http://www.w3.org/2000/svg" xmlns:xlink="http://www.w3.org/1999/xlink">
    <title>cmp / btn / fill_round / 40 / feed_select_b</title>
    <g id="07_디스커버-커뮤니티" stroke="none" stroke-width="1" fill="none" fill-rule="evenodd">
        <g id="07_디스커버_커뮤니티_관심주제설정" transform="translate(-314.000000, -162.000000)">
            <g id="+-Contents" transform="translate(0.000000, 98.000000)">
                <g id="++-List" transform="translate(24.000000, 48.000000)">
                    <g id="icon" transform="translate(290.000000, 16.000000)">
                        <rect id="Rectangle" x="0" y="0" width="24" height="24"></rect>
                        <path d="M13.2167761,15.1158239 L12.7113418,14.6042165 C12.323195,14.2113291 11.6900417,14.207486 11.2971542,14.5956328 C11.2942664,14.5984859 11.2913959,14.6013565 11.2885429,14.6042445 L10.783176,15.1158239 L10.783176,15.1158239 L6.71320123,19.2568786 C6.32607207,19.6507688 5.69293081,19.6562497 5.29904065,19.2691205 C5.10774765,19.081111 5,18.8241367 5,18.5559193 L5,4 C5,3.44771525 5.44771525,3 6,3 L18,3 C18.5522847,3 19,3.44771525 19,4 L19,18.5559337 C19,19.1082185 18.5522847,19.5559337 18,19.5559337 C17.731784,19.5559337 17.474811,19.4481872 17.2868017,19.256896 L13.2167761,15.1158239 L13.2167761,15.1158239 Z" id="Path" fill="#476EFF" fill-rule="nonzero"></path>
                    </g>
                </g>
            </g>
        </g>
    </g>
</svg>