<svg width="32" height="32" viewBox="0 0 32 32" xmlns="http://www.w3.org/2000/svg" xmlns:xlink="http://www.w3.org/1999/xlink">
    <defs>
        <rect id="a" x="0" y="0" width="30" height="30" rx="15"/>
    </defs>
    <g transform="translate(1 1)" fill="none" fill-rule="evenodd">
        <mask id="b" fill="#fff">
            <use xlink:href="#a"/>
        </mask>
        <use fill="#9777DB" xlink:href="#a"/>
        <path mask="url(#b)" d="M4.688 4.688h20.625v20.625H4.688z"/>
        <g mask="url(#b)">
            <path d="M19.545 13.777c.577 0 1.044.467 1.044 1.044v4.76c0 .577-.467 1.044-1.044 1.044h-3.24v-3.687h-2.142v3.687h-3.24a1.043 1.043 0 0 1-1.043-1.043V14.82c0-.577.467-1.044 1.043-1.044h8.622z" fill="#FFF"/>
            <path d="M9.95 9.375h2.12v4.288a1.582 1.582 0 0 1-3.164 0v-3.245c0-.576.467-1.043 1.044-1.043z" fill="#D0BBFF"/>
            <path d="M12.07 9.375h3.164v4.288a1.582 1.582 0 0 1-3.164 0V9.375z" fill="#6A44BF"/>
            <path d="M15.234 9.375h3.164v4.288a1.582 1.582 0 0 1-3.164 0V9.375z" fill="#D0BBFF"/>
            <path d="M18.398 9.375h2.121c.576 0 1.044.467 1.044 1.043v3.245a1.582 1.582 0 0 1-3.165 0V9.375z" fill="#6A44BF"/>
        </g>
    </g>
</svg>
