<svg xmlns="http://www.w3.org/2000/svg" width="24" height="24" viewBox="0 0 24 24">
    <defs>
        <filter id="ec4ln5as0a">
            <feColorMatrix in="SourceGraphic" values="0 0 0 0 1.000000 0 0 0 0 1.000000 0 0 0 0 1.000000 0 0 0 1.000000 0"/>
        </filter>
    </defs>
    <g fill="none" fill-rule="evenodd">
        <g filter="url(#ec4ln5as0a)" transform="translate(-1141 -2108)">
            <g>
                <path d="M0 0H24V24H0z" transform="translate(1141 2108)"/>
                <g fill="#000">
                    <path fill-rule="nonzero" d="M4.01 0c.196 0 .37.113.452.285l.029.078.744 2.606 14.615.001c.31 0 .538.277.495.571l-.018.08-2.52 7.92c-.067.208-.26.349-.477.349l-1.646-.001-.01.001H7.475c-.544 0-.985.441-.985.985 0 .505.38.921.87.978l.115.007h9.9c.276 0 .5.224.5.5 0 .245-.177.45-.41.492l-.09.008h-.869c.233.262.374.607.374.985 0 .82-.665 1.485-1.485 1.485-.82 0-1.485-.665-1.485-1.485 0-.378.141-.723.374-.985H9.576c.233.262.374.607.374.985 0 .82-.665 1.485-1.485 1.485-.82 0-1.485-.665-1.485-1.485 0-.38.143-.727.378-.99l.117.005c-1.096 0-1.985-.889-1.985-1.985 0-.707.37-1.327.926-1.679l-.908-3.633L3.633 1H.5C.255 1 .05.823.008.59L0 .5C0 .255.177.05.41.008L.5 0h3.51zm4.455 15.36c-.268 0-.485.217-.485.485s.217.485.485.485.485-.217.485-.485-.217-.485-.485-.485zm6.93 0c-.268 0-.485.217-.485.485s.217.485.485.485.485-.217.485-.485-.217-.485-.485-.485zm3.771-11.39H5.64l1.73 6.92h9.594l2.202-6.92z" transform="translate(1141 2108) translate(1.5 3.47)"/>
                    <path d="M11.93 3.47H12.93V11.39H11.93zM7.97 3.47L8.87 3.47 9.77 11.39 8.87 11.39z" transform="translate(1141 2108) translate(1.5 3.47)"/>
                    <path d="M14.9 3.47L15.8 3.47 16.7 11.39 15.8 11.39z" transform="translate(1141 2108) translate(1.5 3.47) matrix(-1 0 0 1 31.6 0)"/>
                    <path d="M5.99 6.44H18.86V7.44H5.99z" transform="translate(1141 2108) translate(1.5 3.47)"/>
                </g>
            </g>
        </g>
    </g>
</svg>
