<svg xmlns="http://www.w3.org/2000/svg" width="20" height="20" viewBox="0 0 20 20">
    <defs>
        <filter id="mki7zhhyta">
            <feColorMatrix in="SourceGraphic" values="0 0 0 0 0.000000 0 0 0 0 0.000000 0 0 0 0 0.000000 0 0 0 1.000000 0"/>
        </filter>
    </defs>
    <g fill="none" fill-rule="evenodd">
        <g transform="translate(-511 -1381)">
            <g>
                <path d="M0 0H20V20H0z" transform="translate(511 1381)"/>
                <path fill="#888" fill-rule="nonzero" d="M11.148 2.65c.332 0 .6.269.6.6 0 1.844 1.225 2.557 2.818 1.694.283-.153.635-.056.8.22l1.482 2.47c.176.293.072.673-.229.836-1.549.838-1.524 2.067 0 2.892.3.163.405.543.229.836l-1.482 2.47c-.164.275-.516.372-.798.22-1.603-.861-2.825-.16-2.82 1.692.001.331-.267.6-.599.602H8.184c-.33-.001-.599-.27-.599-.6 0-1.844-1.225-2.557-2.818-1.695-.282.153-.635.057-.8-.219l-1.482-2.47c-.175-.293-.071-.673.23-.836 1.548-.839 1.523-2.067 0-2.892-.301-.163-.405-.543-.23-.837l1.482-2.47c.165-.275.518-.372.8-.219 1.612.873 2.818.128 2.818-1.694 0-.331.269-.6.6-.6zm-.563 1.2H8.747l-.017.122c-.314 1.997-1.948 3-3.867 2.326l-.145-.055-.903 1.505.121.092c1.492 1.181 1.52 2.946.01 4.144l-.131.099.903 1.505.137-.05c1.9-.67 3.555.298 3.875 2.313l.017.131h1.836l.019-.133c.314-2.023 1.969-2.979 3.873-2.311l.139.051.903-1.507-.12-.09c-1.492-1.182-1.52-2.947-.01-4.145l.13-.099-.903-1.506-.136.052c-1.9.67-3.555-.298-3.874-2.313l-.019-.131zm-.918 3.467c1.436 0 2.6 1.164 2.6 2.6 0 1.436-1.164 2.6-2.6 2.6-1.436 0-2.6-1.164-2.6-2.6 0-1.436 1.164-2.6 2.6-2.6zm0 1.2c-.774 0-1.4.626-1.4 1.4 0 .773.626 1.4 1.4 1.4.773 0 1.4-.627 1.4-1.4 0-.774-.627-1.4-1.4-1.4z" transform="translate(511 1381)"/>
            </g>
        </g>
    </g>
</svg>
