<svg width="18" height="18" xmlns="http://www.w3.org/2000/svg">
    <g fill="none" fill-rule="evenodd">
        <path d="M0 0h18v18H0z"/>
        <g fill="#FFF" fill-rule="nonzero">
            <path d="M13.329 2.071H4.67A3.243 3.243 0 0 0 1.43 5.314v4.8l.005.184a3.243 3.243 0 0 0 3.237 3.06l2.84-.003L9.02 15.7l.06.075a.5.5 0 0 0 .781-.076l1.51-2.344 1.956.002a3.243 3.243 0 0 0 3.243-3.243v-4.8a3.243 3.243 0 0 0-3.242-3.243zm-8.658 1h8.658a2.243 2.243 0 0 1 2.242 2.243v4.8a2.243 2.243 0 0 1-2.242 2.243h-2.23l-.083.006a.5.5 0 0 0-.337.223l-1.237 1.92-1.238-1.92a.5.5 0 0 0-.42-.23l-3.113.001a2.243 2.243 0 0 1-2.242-2.243v-4.8A2.243 2.243 0 0 1 4.67 3.071z"/>
            <g transform="translate(5.625 7.2)">
                <circle cx="6.244" cy=".619" r="1"/>
                <circle cx="3.431" cy=".619" r="1"/>
                <circle cx=".619" cy=".619" r="1"/>
            </g>
        </g>
    </g>
</svg>
