<svg xmlns="http://www.w3.org/2000/svg" width="28" height="28" viewBox="0 0 28 28">
    <g fill="none" fill-rule="evenodd">
        <g>
            <g>
                <path d="M0 0H28V28H0z" transform="translate(-1256 -654) translate(1256 654)"/>
                <path fill="#000" fill-rule="nonzero" d="M5.836 9.303l.002-.002-.008.006.006-.004zm.008 9.403l-.004-.003.004.003zM8.087 7.043c.139-.14.243-.244.34-.338.097-.097.196-.194.305-.297l.112-.119c.308-.31.664-.57 1.056-.77.387-.194.8-.33 1.234-.406.394-.064.792-.099 1.184-.104.191-.005.358-.007.511-.007C13 5 13.134 5 13.432 5h6.696c.3 0 .435 0 .597.002.16 0 .328.002.509.007.4.005.798.04 1.2.105.426.074.84.21 1.226.406.391.199.748.458 1.056.769.308.309.566.664.768 1.057.194.387.33.8.404 1.233.065.395.1.794.104 1.182l.004.176.003.24.001.107V17.687l-.002.124c-.002.194-.003.282-.006.38-.005.404-.04.807-.106 1.21-.074.43-.211.848-.41 1.243-.2.39-.46.749-.77 1.06-.312.313-.672.574-1.066.774-.39.197-.806.334-1.24.41-.4.065-.802.1-1.2.105-.212.005-.365.007-.52.007H12.835c-.168 0-.339-.003-.508-.007-.4-.005-.799-.04-1.198-.106-.427-.073-.84-.21-1.23-.406-.39-.2-.745-.458-1.037-.751-.025-.023-.043-.042-.092-.094-.129-.126-.212-.207-.337-.333-.097-.095-.173-.17-.344-.342L5.811 18.68c-.074-.069-.114-.108-.181-.175-.083-.08-.129-.126-.232-.228l-2.075-2.08-.091-.093-.098-.098c-.072-.072-.126-.127-.162-.167-.174-.171-.338-.352-.492-.542-.144-.152-.261-.329-.345-.522l-.023-.06c-.15-.464-.15-.963 0-1.427l.022-.058c.083-.193.2-.37.343-.524.155-.19.32-.37.481-.53l.184-.19.056-.055.131-.134L5.4 9.724l.094-.092.106-.106c.061-.06.12-.118.192-.186l2.296-2.297zm-1.43 3.31l.003-.002-.004.002zm.073 7.36l2.302 2.306c.168.167.242.242.34.337.12.12.194.194.27.265.025.023.021.02.095.097l.052.054c.21.21.451.386.713.52.269.135.557.23.848.28.329.054.66.084 1 .088.168.004.33.006.487.006h7.843c.143 0 .288-.002.498-.006.337-.004.673-.034 1-.088.3-.051.59-.147.86-.284.268-.136.513-.313.724-.525.213-.213.39-.459.526-.722.136-.273.232-.564.283-.86.054-.332.084-.668.088-1.017.003-.1.004-.182.006-.369l.002-.123v-7.38l-.001-.101-.003-.23-.004-.172c-.004-.334-.033-.666-.086-.99-.05-.297-.146-.585-.279-.85-.135-.265-.311-.508-.523-.72-.208-.21-.45-.385-.713-.519-.269-.136-.555-.23-.845-.28-.33-.054-.663-.083-1.004-.088-.178-.004-.335-.006-.49-.006-.163-.002-.295-.002-.591-.002h-6.696c-.294 0-.426 0-.596.002-.149 0-.305.002-.493.006-.334.005-.666.034-.988.086-.297.052-.585.147-.852.281-.264.135-.505.31-.718.525l-.047.05c-.059.062-.071.075-.093.095-.096.09-.186.18-.28.273-.098.096-.198.195-.334.332l-2.3 2.304-.054.049-.137.134-.103.102-.096.095-2.059 2.062-.14.142-.077.077-.157.162c-.146.144-.283.296-.412.455l-.04.046c-.035.035-.063.075-.085.119-.05.176-.05.363 0 .54.022.043.05.082.084.116l.044.05c.128.159.265.31.427.47.042.046.088.092.15.156l.103.102.096.098 2.066 2.071c.098.098.14.14.196.194l.142.139.051.046zm6.674-7.441c.159 0 .311.063.424.176h-.003c.028.028.052.058.073.089l2.615 2.615 2.62-2.623c.02-.029.043-.056.069-.082.17-.171.428-.223.651-.13.224.092.37.31.37.552 0 .161-.065.312-.174.421l.007.007-2.697 2.701 2.615 2.613c.03.02.059.044.085.07l-.001.002c.17.17.222.428.13.651-.093.224-.311.37-.553.37-.161 0-.311-.065-.421-.174l-.005.005-2.695-2.692-2.69 2.696-.011-.01c-.054.053-.12.097-.192.127-.224.093-.48.042-.652-.13-.112-.111-.176-.264-.176-.423 0-.159.064-.311.176-.423.03-.029.062-.055.097-.077l2.602-2.605-2.699-2.697.009-.009c-.054-.054-.098-.119-.128-.192-.093-.223-.042-.48.13-.652.112-.113.264-.176.424-.176z" transform="translate(-1256 -654) translate(1256 654)"/>
            </g>
        </g>
    </g>
</svg>
