<svg xmlns="http://www.w3.org/2000/svg" width="20" height="20" viewBox="0 0 20 20">
    <g fill="none" fill-rule="evenodd">
        <g>
            <g>
                <path d="M0 0H20V20H0z" transform="translate(-2123 -1571) translate(2123 1571)"/>
                <g fill="#000" fill-rule="nonzero">
                    <path d="M7.72 2.087l2.68 2.68-6.879 6.878c-.034.035-.077.06-.125.071l-3.06.763c-.022.005-.044.008-.066.008-.07 0-.14-.028-.19-.08-.068-.066-.095-.164-.072-.256L.77 9.09c.012-.047.037-.091.072-.126l6.877-6.878zM9.422.384c.512-.512 1.403-.512 1.915 0l.766.765c.255.256.396.596.396.958 0 .361-.14.701-.396.957l-.938.938-2.68-2.68z" transform="translate(-2123 -1571) translate(2123 1571) translate(3.75 3.756)"/>
                </g>
            </g>
        </g>
    </g>
</svg>
