<svg xmlns="http://www.w3.org/2000/svg" width="20" height="20" viewBox="0 0 20 20">
    <g fill="none" fill-rule="evenodd">
        <g>
            <g>
                <path d="M0 0H20V20H0z" transform="translate(-1978 -1476) translate(1978 1476)"/>
                <g fill="#000" fill-rule="nonzero">
                    <path d="M11.727-.6C10.45-.6 9.404-.121 8.445.714L8.28.862l-.165.157-.116.114.054.053C7.879 1.01 7.719.86 7.552.714 6.593-.12 5.559-.6 4.312-.6 1.36-.6-.6 1.759-.6 4.886c0 1.695.689 3.426 1.976 5.007 1.374 1.687 3.42 3.224 6.08 4.576.17.086.355.131.544.131.189 0 .375-.045.544-.13 2.66-1.353 4.706-2.89 6.08-4.577C15.911 8.312 16.6 6.58 16.6 4.886 16.6 1.762 14.655-.6 11.727-.6zm0 1.2C13.935.6 15.4 2.38 15.4 4.886c0 1.402-.585 2.871-1.706 4.249l-.23.271c-1.178 1.352-2.865 2.619-5.026 3.765L8 13.4c-2.52-1.282-4.435-2.72-5.694-4.265C1.185 7.757.6 6.288.6 4.885.6 2.378 2.076.6 4.312.6c.92 0 1.694.36 2.452 1.019.096.083.19.17.287.264l.521.529c.236.238.62.238.856 0l.37-.38c.155-.157.293-.289.436-.413C9.99.959 10.774.6 11.727.6z" transform="translate(-1978 -1476) translate(1978 1476) translate(2 3)"/>
                </g>
            </g>
        </g>
    </g>
</svg>
